<svg width="32" height="32" viewBox="0 0 32 32" fill="none" xmlns="http://www.w3.org/2000/svg">
<path fill-rule="evenodd" clip-rule="evenodd" d="M10 4H22.0053C25.316 4 28 6.684 28 9.99467V22.0067C28 25.316 25.316 28 22.0053 28H9.99467C6.684 28 4 25.316 4 22.0053V10C4 6.68667 6.68667 4 10 4V4Z" fill="white" stroke="white" stroke-width="2" stroke-linecap="round" stroke-linejoin="round"/>
<path fill-rule="evenodd" clip-rule="evenodd" d="M13.4588 20.6546L12.3761 17.0893C12.3748 17.0879 9.27475 16.1213 9.27475 16.1213C8.92008 16.0106 8.90275 15.5133 9.25075 15.3799L21.0521 10.8279C21.4881 10.6599 21.9374 11.0426 21.8414 11.4999L19.8588 20.8439C19.7428 21.3919 19.0988 21.6359 18.6494 21.3026L15.8334 19.2226L14.1734 20.8386C13.9401 21.0626 13.5534 20.9626 13.4588 20.6546V20.6546Z" stroke="#171A22" stroke-width="2" stroke-linecap="round" stroke-linejoin="round"/>
</svg>
