<svg width="32" height="32" viewBox="0 0 32 32" fill="none" xmlns="http://www.w3.org/2000/svg">
<path fill-rule="evenodd" clip-rule="evenodd" d="M10 4H22.0053C25.316 4 28 6.684 28 9.99467V22.0067C28 25.316 25.316 28 22.0053 28H9.99467C6.684 28 4 25.316 4 22.0053V10C4 6.68667 6.68667 4 10 4V4Z" fill="white" stroke="white" stroke-width="2" stroke-linecap="round" stroke-linejoin="round"/>
<path fill-rule="evenodd" clip-rule="evenodd" d="M22.7335 14.0664C22.7335 19.6664 19.5335 23.6664 13.9335 23.6664C10.7335 23.6664 9.45083 21.9957 8.3335 20.4664M8.3335 20.4664C8.35883 20.4624 10.7335 19.6664 10.7335 19.6664C8.0615 16.9651 7.85883 12.9637 9.9335 10.0664C10.9175 11.8971 12.7548 13.5851 14.7335 14.0664C14.8095 11.7557 16.3775 10.0664 18.7335 10.0664C20.3375 10.0664 21.2815 10.6784 21.9335 11.6664H24.3335L22.7335 14.0664" fill="#171A22"/>
</svg>
