<svg width="76" height="76" viewBox="0 0 76 76" fill="none" xmlns="http://www.w3.org/2000/svg">
<rect width="76" height="76" rx="38" fill="white"/>
<circle cx="38.0003" cy="38.0003" r="33.8545" fill="url(#paint0_linear_12745_148228)" fill-opacity="0.06"/>
<path d="M23.8357 52.5056H38.8143C38.3724 54.4551 38.4171 56.0242 38.4171 57.442H27.2532C25.369 57.442 23.8357 55.9087 23.8357 54.0245V52.5056Z" fill="url(#paint1_linear_12745_148228)"/>
<path d="M45.5557 21.9756V38.9713L43.2955 36.6869C41.8986 35.29 39.6403 35.2934 38.2475 36.6861C36.8474 38.0846 36.86 40.3395 38.2384 41.7258L42.6022 46.2628C41.6559 46.9683 40.4301 48.2001 39.5507 50.2271H23.8354V21.9756C23.8354 20.0914 25.3688 18.5581 27.253 18.5581H42.1381C44.0223 18.5581 45.5557 20.0914 45.5557 21.9756Z" fill="url(#paint2_linear_12745_148228)"/>
<path d="M53.7321 45.9599L51.6095 56.5268C51.5031 57.0531 51.0406 57.4419 50.4923 57.4419H40.6954C40.6954 56.0195 40.643 54.4163 41.1701 52.5055C41.4936 51.3322 42.0062 50.2059 42.7718 49.2528C43.7492 48.0385 44.7433 47.6041 44.8223 47.5706C45.5813 47.2991 45.8257 46.3245 45.2377 45.7161L39.8737 40.1394C39.0338 39.3003 39.6322 37.9196 40.7714 37.9196C41.1162 37.9196 41.4405 38.054 41.6804 38.294C41.6804 38.294 43.3786 40.0362 47.1325 43.7901C47.5791 44.2367 48.3013 44.2321 48.7433 43.7901C49.1883 43.3451 49.1883 42.6244 48.7433 42.1793L47.8342 41.2703V33.7305C51.3748 37.271 51.273 37.1525 51.6345 37.5831C53.5088 39.8121 54.348 42.8864 53.7321 45.9599Z" fill="url(#paint3_linear_12745_148228)"/>
<defs>
<linearGradient id="paint0_linear_12745_148228" x1="38.0003" y1="4.14575" x2="38.0003" y2="71.8548" gradientUnits="userSpaceOnUse">
<stop stop-color="#4F2ED3"/>
<stop offset="0.9999" stop-color="#4F2ED3" stop-opacity="0.0104167"/>
<stop offset="1" stop-color="#8A50E6" stop-opacity="0"/>
</linearGradient>
<linearGradient id="paint1_linear_12745_148228" x1="40.2998" y1="52.9376" x2="29.5586" y2="62.9016" gradientUnits="userSpaceOnUse">
<stop stop-color="#5645C0"/>
<stop offset="1" stop-color="#8675ED"/>
</linearGradient>
<linearGradient id="paint2_linear_12745_148228" x1="47.7097" y1="21.3291" x2="19.9511" y2="27.1496" gradientUnits="userSpaceOnUse">
<stop stop-color="#5645C0"/>
<stop offset="1" stop-color="#8675ED"/>
</linearGradient>
<linearGradient id="paint3_linear_12745_148228" x1="55.3651" y1="35.8052" x2="36.7302" y2="39.2776" gradientUnits="userSpaceOnUse">
<stop stop-color="#5645C0"/>
<stop offset="1" stop-color="#8675ED"/>
</linearGradient>
</defs>
</svg>
