<svg width="76" height="76" viewBox="0 0 76 76" fill="none" xmlns="http://www.w3.org/2000/svg">
<rect width="76" height="76" rx="38" fill="white"/>
<circle cx="38.0003" cy="38.0003" r="33.8545" fill="url(#paint0_linear_12745_148200)" fill-opacity="0.06"/>
<path d="M38.0001 30.592C33.9148 30.592 30.5913 33.9155 30.5913 38.0005C30.5913 42.0858 33.9148 45.4092 38.0001 45.4092C42.085 45.4092 45.4085 42.0858 45.4085 38.0005C45.4085 33.9155 42.085 30.592 38.0001 30.592ZM42.3986 36.6053L37.0911 41.9128C36.8683 42.1356 36.5761 42.2472 36.2842 42.2472C35.9923 42.2472 35.7004 42.1359 35.4776 41.9128L33.4493 39.8846C33.0037 39.4393 33.0037 38.7169 33.4493 38.2713C33.8946 37.8258 34.617 37.8258 35.0625 38.2713L36.2842 39.493L40.7854 34.9921C41.2307 34.5465 41.953 34.5465 42.3986 34.9921C42.8442 35.4374 42.8442 36.1597 42.3986 36.6053Z" fill="url(#paint1_linear_12745_148200)"/>
<path d="M54.5175 29.1082L54.5163 29.078C54.4994 28.7045 54.4882 28.3093 54.4813 27.8697C54.4496 25.7257 52.7453 23.9523 50.601 23.8325C46.1304 23.583 42.672 22.1252 39.7169 19.2449L39.6917 19.2209C38.7279 18.3372 37.274 18.3372 36.3098 19.2209L36.2846 19.2449C33.3296 22.1252 29.8711 23.583 25.4005 23.8328C23.2566 23.9523 21.552 25.7257 21.5202 27.87C21.5137 28.3067 21.5021 28.7018 21.4852 29.078L21.4834 29.1483C21.3965 33.707 21.2885 39.3806 23.1865 44.5303C24.2302 47.3622 25.8108 49.8239 27.8841 51.8474C30.2455 54.1519 33.3385 55.9813 37.077 57.2849C37.1986 57.3273 37.325 57.3617 37.4537 57.3875C37.6353 57.4237 37.818 57.4418 38.0008 57.4418C38.1835 57.4418 38.3666 57.4237 38.5478 57.3875C38.6766 57.3617 38.8038 57.327 38.9261 57.2843C42.6601 55.9784 45.7498 54.148 48.1091 51.8439C50.1816 49.8198 51.7622 47.3575 52.8067 44.525C54.7118 39.3599 54.6042 33.6756 54.5175 29.1082ZM38.0002 47.6909C32.6568 47.6909 28.3098 43.344 28.3098 38.0006C28.3098 32.6572 32.6568 28.3102 38.0002 28.3102C43.3433 28.3102 47.6905 32.6572 47.6905 38.0006C47.6905 43.344 43.3433 47.6909 38.0002 47.6909Z" fill="url(#paint2_linear_12745_148200)"/>
<defs>
<linearGradient id="paint0_linear_12745_148200" x1="38.0003" y1="4.14575" x2="38.0003" y2="71.8548" gradientUnits="userSpaceOnUse">
<stop stop-color="#4F2ED3"/>
<stop offset="0.9999" stop-color="#4F2ED3" stop-opacity="0.0104167"/>
<stop offset="1" stop-color="#8A50E6" stop-opacity="0"/>
</linearGradient>
<linearGradient id="paint1_linear_12745_148200" x1="46.878" y1="31.8885" x2="28.7987" y2="37.4158" gradientUnits="userSpaceOnUse">
<stop stop-color="#5645C0"/>
<stop offset="1" stop-color="#8675ED"/>
</linearGradient>
<linearGradient id="paint2_linear_12745_148200" x1="57.8399" y1="21.9604" x2="16.4667" y2="32.7315" gradientUnits="userSpaceOnUse">
<stop stop-color="#5645C0"/>
<stop offset="1" stop-color="#8675ED"/>
</linearGradient>
</defs>
</svg>
