<svg width="76" height="76" viewBox="0 0 76 76" fill="none" xmlns="http://www.w3.org/2000/svg">
<rect width="76" height="76" rx="38" fill="white"/>
<circle cx="38.0003" cy="38.0003" r="33.8545" fill="url(#paint0_linear_12745_148227)" fill-opacity="0.06"/>
<path fill-rule="evenodd" clip-rule="evenodd" d="M38.8915 22.494C35.7971 22.391 32.6708 23.2352 29.9717 25.0368C26.9403 27.0625 24.8217 30.0538 23.8459 33.3978C23.5764 33.3649 23.2537 33.3794 22.8706 33.4878C21.44 33.8937 20.364 35.0659 19.8802 36.0984C19.2527 37.4438 18.9881 39.2232 19.2672 41.0602C19.5445 42.8913 20.318 44.4008 21.2856 45.3379C22.2561 46.2755 23.3519 46.5803 24.4405 46.3515C26.0612 46.0055 26.8648 45.7467 26.6379 44.2368L25.5392 36.9174C25.7608 32.9561 27.8116 29.227 31.2417 26.9338C35.8329 23.867 41.8523 24.0634 46.2316 27.4253C49.2781 29.7611 51.0469 33.2609 51.251 36.9348L50.4827 42.0549C48.7691 46.7443 44.5209 49.9925 39.6051 50.4536H36.3317C35.487 50.4536 34.8068 51.1338 34.8068 51.9775V52.7816C34.8068 53.6258 35.487 54.306 36.3317 54.306H40.459C41.3032 54.306 41.9805 53.6258 41.9805 52.7816V52.3612C45.6874 51.4565 48.923 49.1783 51.0299 46.0012L52.3521 46.3519C53.4281 46.6311 54.537 46.2755 55.507 45.3384C56.4746 44.4008 57.2477 42.8918 57.5254 41.0607C57.8055 39.2237 57.5331 37.4472 56.9129 36.0988C56.2902 34.7505 55.3628 33.8942 54.2922 33.587C53.8437 33.4578 53.357 33.4104 52.9395 33.3978C52.057 30.3741 50.2404 27.6242 47.6221 25.6164C45.0478 23.6411 41.9858 22.5956 38.8915 22.494Z" fill="url(#paint1_linear_12745_148227)"/>
<path fill-rule="evenodd" clip-rule="evenodd" d="M43.7219 35.6622C44.8129 35.6622 45.6973 36.5466 45.6997 37.6404C45.6973 38.7314 44.8129 39.6182 43.7219 39.6182C42.6281 39.6182 41.7413 38.7314 41.7413 37.6404C41.7413 36.5471 42.6285 35.6622 43.7219 35.6622ZM38.3953 35.6622C39.4887 35.6622 40.3731 36.5466 40.3731 37.6404C40.3731 38.7314 39.4887 39.6182 38.3953 39.6182C37.301 39.6182 36.4166 38.7314 36.4166 37.6404C36.4166 36.5471 37.301 35.6622 38.3953 35.6622ZM33.0707 35.6622C34.1616 35.6622 35.0484 36.5466 35.0484 37.6404C35.0484 38.7314 34.1616 39.6182 33.0707 39.6182C31.9773 39.6182 31.0924 38.7314 31.0924 37.6404C31.0924 36.5471 31.9773 35.6622 33.0707 35.6622ZM38.3953 27.1658C32.5946 27.1658 27.9202 31.6864 27.9202 37.6404C27.9202 40.5002 29.0015 43.0275 30.763 44.8819L30.1379 47.6841C29.9318 48.6062 30.5714 49.2264 31.4001 48.7649L34.1365 47.2385C35.4369 47.8031 36.8752 48.1151 38.3953 48.1151C44.198 48.1151 48.8695 43.5974 48.8695 37.6404C48.8695 31.6864 44.198 27.1658 38.3953 27.1658Z" fill="url(#paint2_linear_12745_148227)"/>
<defs>
<linearGradient id="paint0_linear_12745_148227" x1="38.0003" y1="4.14575" x2="38.0003" y2="71.8548" gradientUnits="userSpaceOnUse">
<stop stop-color="#4F2ED3"/>
<stop offset="0.9999" stop-color="#4F2ED3" stop-opacity="0.0104167"/>
<stop offset="1" stop-color="#8A50E6" stop-opacity="0"/>
</linearGradient>
<linearGradient id="paint1_linear_12745_148227" x1="61.4516" y1="25.2699" x2="16.286" y2="41.9674" gradientUnits="userSpaceOnUse">
<stop stop-color="#5645C0"/>
<stop offset="1" stop-color="#8675ED"/>
</linearGradient>
<linearGradient id="paint2_linear_12745_148227" x1="50.9471" y1="29.0694" x2="25.2258" y2="36.6416" gradientUnits="userSpaceOnUse">
<stop stop-color="#5645C0"/>
<stop offset="1" stop-color="#8675ED"/>
</linearGradient>
</defs>
</svg>
