<svg width="76" height="76" viewBox="0 0 76 76" fill="none" xmlns="http://www.w3.org/2000/svg">
<rect width="76" height="76" rx="38" fill="white"/>
<circle cx="37.9998" cy="38.0003" r="33.8545" fill="url(#paint0_linear_12745_148185)" fill-opacity="0.06"/>
<path d="M35.9401 39.9541C32.9097 39.9541 23.9908 39.9541 23.9908 39.9541C23.044 39.9541 22.2693 40.6983 22.2693 41.6078V54.0208C22.2693 54.9304 23.044 55.6745 23.9908 55.6745C23.9908 55.6745 33.0963 55.6745 36.141 55.6745C36.546 55.6745 36.546 55.2565 36.546 55.2565V40.5161C36.5459 40.5161 36.5459 39.9541 35.9401 39.9541Z" fill="url(#paint1_linear_12745_148185)"/>
<path d="M52.0091 39.9541C52.0091 39.9541 43.0561 39.9541 40.072 39.9541C39.3449 39.9541 39.4538 40.6815 39.4538 40.6815V55.27C39.4538 55.27 39.4479 55.6742 39.8852 55.6742C42.9161 55.6742 52.0089 55.6742 52.0089 55.6742C52.9557 55.6742 53.7304 54.93 53.7304 54.0204V41.6078C53.7306 40.6983 52.9559 39.9541 52.0091 39.9541Z" fill="url(#paint2_linear_12745_148185)"/>
<path d="M36.5463 30.1874C36.5463 30.1874 36.5463 29.627 35.9699 29.627C32.5182 29.627 22.0472 29.627 22.0472 29.627C21.1004 29.627 20.3257 30.3712 20.3257 31.2807V36.4431C20.3257 37.3527 21.1004 38.0968 22.0472 38.0968C22.0472 38.0968 32.5651 38.0968 36.017 38.0968C36.5463 38.0968 36.5463 37.6559 36.5463 37.6559V30.1874Z" fill="url(#paint3_linear_12745_148185)"/>
<path d="M53.9528 29.627C53.9528 29.627 43.4776 29.627 39.9858 29.627C39.4539 29.627 39.4539 30.1139 39.4539 30.1139V37.6661C39.4539 37.6661 39.4539 38.0968 40.1005 38.0968C43.5635 38.0968 53.9528 38.0968 53.9528 38.0968C54.8996 38.0968 55.6743 37.3527 55.6743 36.4431V31.2807C55.6743 30.3712 54.8996 29.627 53.9528 29.627Z" fill="url(#paint4_linear_12745_148185)"/>
<path d="M30.6904 28.4034C29.9028 28.4034 29.1833 28.3434 28.5525 28.2249C26.9501 27.9242 25.8488 27.3388 25.1856 26.4356C24.5913 25.6262 24.4095 24.6283 24.6449 23.4695C25.0573 21.4422 26.4745 20.3257 28.6353 20.3257C29.0925 20.3257 29.5947 20.3764 30.128 20.4765C31.4846 20.7311 33.2196 21.4784 34.7694 22.4755C37.3989 24.1673 37.5289 25.2191 37.398 25.8631C37.2055 26.8094 36.2848 27.4856 34.5832 27.9305C33.4336 28.231 32.0147 28.4034 30.6904 28.4034ZM28.6354 22.9764C27.7986 22.9764 27.511 23.201 27.3531 23.9778C27.2239 24.6129 27.3868 24.8347 27.4403 24.9076C27.664 25.2124 28.2468 25.4667 29.0815 25.6232C29.5319 25.7078 30.0884 25.7525 30.6903 25.7525C32.0138 25.7525 33.1799 25.5598 33.9536 25.3491C34.0099 25.3338 34.0973 25.2698 34.0036 25.2162C32.9921 24.4245 31.1415 23.3675 29.599 23.0779C29.2397 23.0107 28.9153 22.9764 28.6354 22.9764Z" fill="url(#paint5_linear_12745_148185)"/>
<path d="M45.3491 28.4033C45.3491 28.4033 45.3491 28.4033 45.3489 28.4033C44.0246 28.4033 42.6058 28.2308 41.4562 27.9303C39.7545 27.4856 38.8339 26.8093 38.6414 25.8631C38.5106 25.2191 38.6404 24.1673 41.2701 22.4755C42.8196 21.4784 44.5547 20.7311 45.9115 20.4765C46.4448 20.3764 46.947 20.3257 47.4039 20.3257C49.5651 20.3257 50.9822 21.4423 51.3943 23.4696C51.6299 24.6283 51.4482 25.6262 50.8538 26.4356C50.1906 27.339 49.0894 27.9242 47.4867 28.2249C46.856 28.3431 46.1366 28.4033 45.3491 28.4033ZM42.0578 25.1997C41.9682 25.2497 42.0116 25.3286 42.0581 25.3415C42.8314 25.5551 44.0098 25.7525 45.3489 25.7525C45.951 25.7525 46.5072 25.7078 46.9578 25.6232C47.7923 25.4665 48.3754 25.2124 48.599 24.9076C48.6527 24.8347 48.8157 24.6129 48.6862 23.9778C48.5284 23.201 48.2407 22.9764 47.4038 22.9764C47.1239 22.9764 46.7999 23.0106 46.4403 23.0781C44.8976 23.3675 43.0694 24.4079 42.0578 25.1997Z" fill="url(#paint6_linear_12745_148185)"/>
<defs>
<linearGradient id="paint0_linear_12745_148185" x1="37.9998" y1="4.14575" x2="37.9998" y2="71.8548" gradientUnits="userSpaceOnUse">
<stop stop-color="#4F2ED3"/>
<stop offset="0.9999" stop-color="#4F2ED3" stop-opacity="0.0104167"/>
<stop offset="1" stop-color="#8A50E6" stop-opacity="0"/>
</linearGradient>
<linearGradient id="paint1_linear_12745_148185" x1="37.9619" y1="41.3296" x2="20.2772" y2="46.2397" gradientUnits="userSpaceOnUse">
<stop stop-color="#5645C0"/>
<stop offset="1" stop-color="#8675ED"/>
</linearGradient>
<linearGradient id="paint2_linear_12745_148185" x1="55.1468" y1="41.3296" x2="37.4562" y2="46.2434" gradientUnits="userSpaceOnUse">
<stop stop-color="#5645C0"/>
<stop offset="1" stop-color="#8675ED"/>
</linearGradient>
<linearGradient id="paint3_linear_12745_148185" x1="38.155" y1="30.3681" x2="22.0382" y2="39.8042" gradientUnits="userSpaceOnUse">
<stop stop-color="#5645C0"/>
<stop offset="1" stop-color="#8675ED"/>
</linearGradient>
<linearGradient id="paint4_linear_12745_148185" x1="57.283" y1="30.3681" x2="41.1663" y2="39.8041" gradientUnits="userSpaceOnUse">
<stop stop-color="#5645C0"/>
<stop offset="1" stop-color="#8675ED"/>
</linearGradient>
<linearGradient id="paint5_linear_12745_148185" x1="38.7098" y1="21.0325" x2="24.8205" y2="27.8067" gradientUnits="userSpaceOnUse">
<stop stop-color="#5645C0"/>
<stop offset="1" stop-color="#8675ED"/>
</linearGradient>
<linearGradient id="paint6_linear_12745_148185" x1="52.7722" y1="21.0325" x2="38.883" y2="27.8067" gradientUnits="userSpaceOnUse">
<stop stop-color="#5645C0"/>
<stop offset="1" stop-color="#8675ED"/>
</linearGradient>
</defs>
</svg>
