<svg width="152" height="152" viewBox="0 0 152 152" fill="none" xmlns="http://www.w3.org/2000/svg">
<g filter="url(#filter0_d_14706_110257)">
<rect x="20" y="20" width="112" height="112" rx="56" fill="white"/>
<circle cx="76.0003" cy="76.0005" r="49.8909" fill="url(#paint0_linear_14706_110257)" fill-opacity="0.4"/>
<path d="M78.5665 73.8069C73.029 68.2694 70.2603 65.5006 70.2603 62.0601C70.2603 58.6195 73.029 55.8508 78.5665 50.3133L79.0135 49.8663C84.551 44.3288 87.3197 41.5601 90.7603 41.5601C94.2008 41.5601 96.9696 44.3288 102.507 49.8663L102.954 50.3133C108.492 55.8508 111.26 58.6195 111.26 62.0601C111.26 65.5006 108.492 68.2694 102.954 73.8069L102.507 74.2538C96.9696 79.7913 94.2008 82.5601 90.7603 82.5601C87.3197 82.5601 84.551 79.7913 79.0135 74.2538L78.5665 73.8069Z" fill="url(#paint1_linear_14706_110257)"/>
<g filter="url(#filter1_b_14706_110257)">
<path fill-rule="evenodd" clip-rule="evenodd" d="M73.6638 50.1699C78.6837 50.1699 82.6186 50.1699 85.7404 50.5081C88.9262 50.8533 91.5075 51.5703 93.7115 53.1715C95.0457 54.1409 96.2191 55.3143 97.1885 56.6486C98.7898 58.8525 99.5068 61.4338 99.8519 64.6196C100.19 67.7414 100.19 71.6764 100.19 76.6962V76.9439C100.19 81.9636 100.19 85.8984 99.8519 89.0202C99.5068 92.206 98.7898 94.7873 97.1885 96.9913C96.2191 98.3255 95.0457 99.4989 93.7115 100.468C91.5075 102.07 88.9262 102.787 85.7404 103.132C82.6186 103.47 78.6836 103.47 73.6639 103.47H73.4162C68.3965 103.47 64.4616 103.47 61.3398 103.132C58.154 102.787 55.5727 102.07 53.3688 100.468C52.0345 99.4989 50.8611 98.3255 49.8918 96.9913C48.2905 94.7873 47.5735 92.206 47.2283 89.0202C46.8901 85.8984 46.8901 81.9635 46.8901 76.9436V76.6962C46.8901 71.6764 46.8901 67.7415 47.2283 64.6196C47.5735 61.4338 48.2905 58.8525 49.8918 56.6486C50.8612 55.3143 52.0345 54.1409 53.3688 53.1715C55.5727 51.5703 58.154 50.8533 61.3398 50.5081C64.4617 50.1699 68.3966 50.1699 73.4164 50.1699H73.6638Z" fill="#875CD7" fill-opacity="0.35"/>
<path d="M85.7846 50.1005C82.6407 49.7599 78.6878 49.7599 73.688 49.7599L73.6638 49.7599H73.4164L73.3922 49.7599C68.3925 49.7599 64.4395 49.7599 61.2957 50.1005C58.075 50.4494 55.4133 51.1793 53.1278 52.8398C51.7587 53.8345 50.5547 55.0385 49.5601 56.4076C47.8996 58.6931 47.1697 61.3548 46.8207 64.5755C46.4801 67.7193 46.4801 71.6723 46.4801 76.672L46.4801 76.6962V76.9436L46.4801 76.9678C46.4801 81.9675 46.4801 85.9205 46.8207 89.0644C47.1697 92.2851 47.8995 94.9468 49.5601 97.2323C50.5547 98.6013 51.7587 99.8053 53.1278 100.8C55.4133 102.461 58.075 103.19 61.2957 103.539C64.4396 103.88 68.3926 103.88 73.3924 103.88H73.4162H73.6639H73.6877C78.6875 103.88 82.6407 103.88 85.7846 103.539C89.0053 103.19 91.667 102.461 93.9525 100.8C95.3215 99.8053 96.5255 98.6013 97.5202 97.2323C99.1807 94.9468 99.9106 92.2851 100.26 89.0644C100.6 85.9205 100.6 81.9675 100.6 76.9677V76.9439V76.6962V76.6723C100.6 71.6726 100.6 67.7194 100.26 64.5755C99.9106 61.3548 99.1807 58.6931 97.5202 56.4076C96.5255 55.0385 95.3215 53.8345 93.9525 52.8398C91.667 51.1793 89.0053 50.4494 85.7846 50.1005Z" stroke="url(#paint2_linear_14706_110257)" stroke-width="0.82" stroke-linecap="round"/>
</g>
<g filter="url(#filter2_d_14706_110257)">
<path d="M83.929 80.9399C82.2394 80.9434 80.6201 81.6166 79.4259 82.8119C78.2317 84.0071 77.5601 85.6271 77.5581 87.3167C77.9089 95.7715 89.9577 95.7629 90.3058 87.3166C90.3034 85.6261 89.6309 84.0055 88.4355 82.8102C87.2401 81.6148 85.6195 80.9422 83.929 80.9399ZM83.929 87.0001C79.6403 86.8613 79.6472 87.4534 83.929 87.3166C88.2199 87.4523 88.2248 86.8637 83.929 87.0001Z" fill="url(#paint3_linear_14706_110257)"/>
<path d="M86.4459 86L83.6667 88.7792L82 87.1115" stroke="url(#paint4_linear_14706_110257)" stroke-width="1.5" stroke-linecap="round" stroke-linejoin="round"/>
<path d="M76.4017 87.3166C76.4049 86.3224 76.6042 85.3386 76.9882 84.4216C77.3723 83.5045 77.9335 82.6723 78.6397 81.9725C79.3459 81.2728 80.1833 80.7192 81.1038 80.3436C82.0243 79.968 83.0098 79.7777 84.004 79.7836V63.6828C84.0028 63.0535 83.7519 62.4504 83.3064 62.006C82.8609 61.5616 82.2572 61.3122 81.6279 61.3125H65.0704C64.4411 61.3122 63.8375 61.5616 63.3919 62.006C62.9464 62.4504 62.6955 63.0535 62.6943 63.6828V89.7852C62.6955 90.4144 62.9464 91.0175 63.3919 91.462C63.8374 91.9064 64.4411 92.1558 65.0704 92.1555H78.1765C77.0263 90.806 76.3968 89.0897 76.4017 87.3166V87.3166ZM65.2207 68.1344C65.503 67.5374 66.9714 64.4213 67.2846 63.758C67.3302 63.6581 67.4034 63.5734 67.4956 63.514C67.5879 63.4546 67.6952 63.4229 67.805 63.4227C67.9153 63.4235 68.0231 63.4554 68.1162 63.5147C68.2092 63.574 68.2837 63.6583 68.3311 63.758L70.3892 68.1344C70.4502 68.2725 70.4548 68.4291 70.4019 68.5706C70.349 68.712 70.2428 68.8272 70.1061 68.8914C69.9694 68.9556 69.813 68.9637 69.6703 68.9141C69.5277 68.8645 69.4101 68.761 69.3428 68.6258L69.0595 68.0188H66.5504L66.2671 68.6258C66.2002 68.7616 66.0826 68.8658 65.9397 68.9159C65.7968 68.966 65.6399 68.958 65.5028 68.8936C65.3657 68.8292 65.2594 68.7136 65.2066 68.5716C65.1539 68.4296 65.1589 68.2726 65.2207 68.1344ZM78.4945 78.3267C78.4452 78.3905 78.3911 78.4505 78.3326 78.5059L74.3956 82.443C74.1181 82.7184 73.743 82.873 73.3521 82.873C72.9611 82.873 72.586 82.7184 72.3086 82.443L68.3715 78.5059C67.6826 77.817 67.2765 76.8951 67.2331 75.9217C67.1898 74.9484 67.5123 73.9941 68.1373 73.2466C68.7622 72.4991 69.6443 72.0126 70.61 71.8828C71.5756 71.7531 72.5549 71.9895 73.355 72.5455C77.1386 69.9937 81.481 74.8338 78.4945 78.3267Z" fill="url(#paint5_linear_14706_110257)"/>
<path d="M67.8049 65.3594L67.0996 66.8625H68.5102L67.8049 65.3594Z" fill="url(#paint6_linear_14706_110257)"/>
<path d="M77.5116 73.8057C77.0162 73.3076 76.3477 73.02 75.6455 73.0028C74.9432 72.9855 74.2614 73.24 73.7422 73.7132C73.6343 73.8087 73.495 73.8609 73.3509 73.8599C73.2068 73.8588 73.0682 73.8045 72.9617 73.7074C70.3772 71.4503 66.835 74.9876 69.0884 77.5751C69.1207 77.6157 69.1554 77.6543 69.1924 77.6907L73.1236 81.6219C73.1853 81.6804 73.267 81.713 73.352 81.713C73.437 81.713 73.5187 81.6804 73.5803 81.6219L77.5116 77.6907C78.0222 77.1731 78.3085 76.4752 78.3085 75.7482C78.3085 75.0211 78.0222 74.3233 77.5116 73.8057V73.8057Z" fill="url(#paint7_linear_14706_110257)"/>
</g>
</g>
<defs>
<filter id="filter0_d_14706_110257" x="0" y="0" width="152" height="152" filterUnits="userSpaceOnUse" color-interpolation-filters="sRGB">
<feFlood flood-opacity="0" result="BackgroundImageFix"/>
<feColorMatrix in="SourceAlpha" type="matrix" values="0 0 0 0 0 0 0 0 0 0 0 0 0 0 0 0 0 0 127 0" result="hardAlpha"/>
<feOffset/>
<feGaussianBlur stdDeviation="10"/>
<feColorMatrix type="matrix" values="0 0 0 0 0.541176 0 0 0 0 0.313726 0 0 0 0 0.901961 0 0 0 0.12 0"/>
<feBlend mode="normal" in2="BackgroundImageFix" result="effect1_dropShadow_14706_110257"/>
<feBlend mode="normal" in="SourceGraphic" in2="effect1_dropShadow_14706_110257" result="shape"/>
</filter>
<filter id="filter1_b_14706_110257" x="26.3903" y="29.6699" width="94.2999" height="94.3002" filterUnits="userSpaceOnUse" color-interpolation-filters="sRGB">
<feFlood flood-opacity="0" result="BackgroundImageFix"/>
<feGaussianBlur in="BackgroundImageFix" stdDeviation="9.84"/>
<feComposite in2="SourceAlpha" operator="in" result="effect1_backgroundBlur_14706_110257"/>
<feBlend mode="normal" in="SourceGraphic" in2="effect1_backgroundBlur_14706_110257" result="shape"/>
</filter>
<filter id="filter2_d_14706_110257" x="60.0246" y="58.6427" width="38.2905" height="43.0212" filterUnits="userSpaceOnUse" color-interpolation-filters="sRGB">
<feFlood flood-opacity="0" result="BackgroundImageFix"/>
<feColorMatrix in="SourceAlpha" type="matrix" values="0 0 0 0 0 0 0 0 0 0 0 0 0 0 0 0 0 0 127 0" result="hardAlpha"/>
<feOffset dx="2.66978" dy="2.66978"/>
<feGaussianBlur stdDeviation="2.66978"/>
<feColorMatrix type="matrix" values="0 0 0 0 0.376471 0 0 0 0 0.156863 0 0 0 0 0.811765 0 0 0 0.5 0"/>
<feBlend mode="normal" in2="BackgroundImageFix" result="effect1_dropShadow_14706_110257"/>
<feBlend mode="normal" in="SourceGraphic" in2="effect1_dropShadow_14706_110257" result="shape"/>
</filter>
<linearGradient id="paint0_linear_14706_110257" x1="76.0003" y1="26.1096" x2="76.0003" y2="125.891" gradientUnits="userSpaceOnUse">
<stop stop-color="#4F2ED3"/>
<stop offset="0.9999" stop-color="#4F2ED3" stop-opacity="0.0104167"/>
<stop offset="1" stop-color="#8A50E6" stop-opacity="0"/>
</linearGradient>
<linearGradient id="paint1_linear_14706_110257" x1="70.2603" y1="82.5601" x2="112.134" y2="42.4726" gradientUnits="userSpaceOnUse">
<stop stop-color="#4C2094"/>
<stop offset="1" stop-color="#712EFF"/>
</linearGradient>
<linearGradient id="paint2_linear_14706_110257" x1="46.8901" y1="50.1699" x2="100.217" y2="103.443" gradientUnits="userSpaceOnUse">
<stop stop-color="white" stop-opacity="0.25"/>
<stop offset="1" stop-color="white" stop-opacity="0"/>
</linearGradient>
<linearGradient id="paint3_linear_14706_110257" x1="84.0393" y1="96.3633" x2="101.588" y2="79.1162" gradientUnits="userSpaceOnUse">
<stop stop-color="white"/>
<stop offset="1" stop-color="white" stop-opacity="0.2"/>
</linearGradient>
<linearGradient id="paint4_linear_14706_110257" x1="84.5" y1="85" x2="84.5" y2="90" gradientUnits="userSpaceOnUse">
<stop stop-color="#8A63D7"/>
<stop offset="1" stop-color="#9877DD"/>
</linearGradient>
<linearGradient id="paint5_linear_14706_110257" x1="73.5286" y1="98.7263" x2="113.065" y2="71.9499" gradientUnits="userSpaceOnUse">
<stop stop-color="white"/>
<stop offset="1" stop-color="white" stop-opacity="0.2"/>
</linearGradient>
<linearGradient id="paint6_linear_14706_110257" x1="67.8168" y1="67.1827" x2="69.8846" y2="65.2806" gradientUnits="userSpaceOnUse">
<stop stop-color="white"/>
<stop offset="1" stop-color="white" stop-opacity="0.2"/>
</linearGradient>
<linearGradient id="paint7_linear_14706_110257" x1="73.4232" y1="83.572" x2="85.3961" y2="70.2054" gradientUnits="userSpaceOnUse">
<stop stop-color="white"/>
<stop offset="1" stop-color="white" stop-opacity="0.2"/>
</linearGradient>
</defs>
</svg>
