<svg width="112" height="112" viewBox="0 0 112 112" fill="none" xmlns="http://www.w3.org/2000/svg">
<rect width="112" height="112" rx="56" fill="white"/>
<circle cx="56.0002" cy="56.0005" r="49.8909" fill="url(#paint0_linear_12734_109926)" fill-opacity="0.4"/>
<path d="M58.5663 53.8069C53.0288 48.2694 50.26 45.5006 50.26 42.0601C50.26 38.6195 53.0288 35.8508 58.5662 30.3133L59.0132 29.8663C64.5507 24.3288 67.3195 21.5601 70.76 21.5601C74.2006 21.5601 76.9693 24.3288 82.5068 29.8663L82.9538 30.3133C88.4913 35.8508 91.26 38.6195 91.26 42.0601C91.26 45.5006 88.4913 48.2694 82.9538 53.8069L82.5068 54.2538C76.9693 59.7913 74.2006 62.5601 70.76 62.5601C67.3195 62.5601 64.5507 59.7913 59.0132 54.2538L58.5663 53.8069Z" fill="url(#paint1_linear_12734_109926)"/>
<g filter="url(#filter0_b_12734_109926)">
<path fill-rule="evenodd" clip-rule="evenodd" d="M53.6638 30.1699C58.6836 30.1699 62.6185 30.1699 65.7404 30.5081C68.9262 30.8533 71.5075 31.5703 73.7114 33.1715C75.0457 34.1409 76.2191 35.3143 77.1885 36.6486C78.7897 38.8525 79.5067 41.4338 79.8519 44.6196C80.1901 47.7414 80.1901 51.6764 80.1901 56.6962V56.9439C80.1901 61.9636 80.1901 65.8984 79.8519 69.0202C79.5067 72.206 78.7897 74.7873 77.1885 76.9913C76.2191 78.3255 75.0457 79.4989 73.7114 80.4683C71.5075 82.0696 68.9262 82.7866 65.7404 83.1317C62.6186 83.47 58.6836 83.4699 53.6638 83.4699H53.4161C48.3964 83.4699 44.4616 83.47 41.3398 83.1317C38.154 82.7866 35.5727 82.0696 33.3687 80.4683C32.0345 79.4989 30.8611 78.3255 29.8917 76.9913C28.2904 74.7873 27.5734 72.206 27.2283 69.0202C26.89 65.8984 26.8901 61.9635 26.8901 56.9436V56.6962C26.8901 51.6764 26.89 47.7415 27.2283 44.6196C27.5734 41.4338 28.2904 38.8525 29.8917 36.6486C30.8611 35.3143 32.0345 34.1409 33.3687 33.1715C35.5727 31.5703 38.154 30.8533 41.3398 30.5081C44.4616 30.1699 48.3965 30.1699 53.4164 30.1699H53.6638Z" fill="#E74D76" fill-opacity="0.35"/>
<path fill-rule="evenodd" clip-rule="evenodd" d="M53.6638 30.1699C58.6836 30.1699 62.6185 30.1699 65.7404 30.5081C68.9262 30.8533 71.5075 31.5703 73.7114 33.1715C75.0457 34.1409 76.2191 35.3143 77.1885 36.6486C78.7897 38.8525 79.5067 41.4338 79.8519 44.6196C80.1901 47.7414 80.1901 51.6764 80.1901 56.6962V56.9439C80.1901 61.9636 80.1901 65.8984 79.8519 69.0202C79.5067 72.206 78.7897 74.7873 77.1885 76.9913C76.2191 78.3255 75.0457 79.4989 73.7114 80.4683C71.5075 82.0696 68.9262 82.7866 65.7404 83.1317C62.6186 83.47 58.6836 83.4699 53.6638 83.4699H53.4161C48.3964 83.4699 44.4616 83.47 41.3398 83.1317C38.154 82.7866 35.5727 82.0696 33.3687 80.4683C32.0345 79.4989 30.8611 78.3255 29.8917 76.9913C28.2904 74.7873 27.5734 72.206 27.2283 69.0202C26.89 65.8984 26.8901 61.9635 26.8901 56.9436V56.6962C26.8901 51.6764 26.89 47.7415 27.2283 44.6196C27.5734 41.4338 28.2904 38.8525 29.8917 36.6486C30.8611 35.3143 32.0345 34.1409 33.3687 33.1715C35.5727 31.5703 38.154 30.8533 41.3398 30.5081C44.4616 30.1699 48.3965 30.1699 53.4164 30.1699H53.6638Z" stroke="url(#paint2_linear_12734_109926)" stroke-width="0.782986" stroke-linecap="round"/>
</g>
<g filter="url(#filter1_d_12734_109926)">
<path d="M51.7961 58.5425C49.2298 58.5425 41.6768 58.5425 41.6768 58.5425C40.8749 58.5425 40.2189 59.1985 40.2189 60.0003V70.9423C40.2189 71.7441 40.8749 72.4001 41.6768 72.4001C41.6768 72.4001 49.3878 72.4001 51.9662 72.4001C52.3092 72.4001 52.3092 72.0316 52.3092 72.0316V59.0379C52.3091 59.0379 52.3091 58.5425 51.7961 58.5425Z" fill="url(#paint3_linear_12734_109926)"/>
<path d="M65.404 58.5425C65.404 58.5425 57.8221 58.5425 55.295 58.5425C54.6793 58.5425 54.7715 59.1837 54.7715 59.1837V72.0435C54.7715 72.0435 54.7665 72.3998 55.1369 72.3998C57.7036 72.3998 65.4038 72.3998 65.4038 72.3998C66.2056 72.3998 66.8617 71.7438 66.8617 70.942V60.0003C66.8619 59.1985 66.2058 58.5425 65.404 58.5425Z" fill="url(#paint4_linear_12734_109926)"/>
<path d="M52.3092 49.9332C52.3092 49.9332 52.3092 49.4392 51.8211 49.4392C48.898 49.4392 40.0306 49.4392 40.0306 49.4392C39.2288 49.4392 38.5727 50.0953 38.5727 50.897V55.4477C38.5727 56.2495 39.2288 56.9054 40.0306 56.9054C40.0306 56.9054 48.9377 56.9054 51.861 56.9054C52.3092 56.9054 52.3092 56.5167 52.3092 56.5167V49.9332Z" fill="url(#paint5_linear_12734_109926)"/>
<path d="M67.0504 49.4392C67.0504 49.4392 58.1794 49.4392 55.2223 49.4392C54.7719 49.4392 54.7719 49.8684 54.7719 49.8684V56.5257C54.7719 56.5257 54.7718 56.9054 55.3195 56.9054C58.2521 56.9054 67.0504 56.9054 67.0504 56.9054C67.8522 56.9054 68.5083 56.2495 68.5083 55.4477V50.897C68.5083 50.0953 67.8522 49.4392 67.0504 49.4392Z" fill="url(#paint6_linear_12734_109926)"/>
<path d="M47.3507 48.3605C46.6837 48.3605 46.0745 48.3076 45.5402 48.2032C44.1832 47.9381 43.2506 47.4221 42.6889 46.6259C42.1857 45.9124 42.0317 45.0327 42.2311 44.0113C42.5803 42.2242 43.7805 41.24 45.6103 41.24C45.9976 41.24 46.4229 41.2847 46.8745 41.373C48.0233 41.5974 49.4926 42.2561 50.8051 43.135C53.0318 44.6264 53.142 45.5535 53.0311 46.1212C52.8681 46.9554 52.0884 47.5515 50.6474 47.9436C49.6738 48.2085 48.4722 48.3605 47.3507 48.3605ZM45.6104 43.5766C44.9018 43.5766 44.6582 43.7745 44.5245 44.4593C44.4151 45.0192 44.5531 45.2147 44.5983 45.2789C44.7878 45.5477 45.2814 45.7718 45.9882 45.9097C46.3696 45.9843 46.8409 46.0237 47.3506 46.0237C48.4715 46.0237 49.4589 45.8539 50.1142 45.6681C50.1619 45.6546 50.2359 45.5982 50.1566 45.551C49.2999 44.8531 47.7328 43.9213 46.4265 43.6661C46.1222 43.6068 45.8475 43.5766 45.6104 43.5766Z" fill="url(#paint7_linear_12734_109926)"/>
<path d="M59.7638 48.3606C59.7638 48.3606 59.7638 48.3606 59.7636 48.3606C58.6421 48.3606 57.4407 48.2087 56.4671 47.9438C55.026 47.5517 54.2464 46.9556 54.0834 46.1215C53.9726 45.5538 54.0825 44.6266 56.3095 43.1353C57.6217 42.2564 59.0911 41.5976 60.2401 41.3732C60.6917 41.285 61.117 41.2402 61.5039 41.2402C63.3342 41.2402 64.5343 42.2245 64.8832 44.0116C65.0828 45.033 64.9289 45.9126 64.4255 46.6262C63.8639 47.4225 62.9313 47.9383 61.574 48.2034C61.04 48.3076 60.4308 48.3606 59.7638 48.3606ZM56.9766 45.5367C56.9007 45.5807 56.9374 45.6503 56.9768 45.6617C57.6317 45.85 58.6296 46.024 59.7636 46.024C60.2736 46.024 60.7446 45.9846 61.1261 45.91C61.8329 45.7719 62.3267 45.5479 62.516 45.2792C62.5615 45.2149 62.6996 45.0194 62.5899 44.4595C62.4562 43.7748 62.2126 43.5768 61.5038 43.5768C61.2669 43.5768 60.9924 43.607 60.6879 43.6665C59.3815 43.9216 57.8332 44.8387 56.9766 45.5367Z" fill="url(#paint8_linear_12734_109926)"/>
</g>
<defs>
<filter id="filter0_b_12734_109926" x="6.8186" y="10.0983" width="93.4429" height="93.443" filterUnits="userSpaceOnUse" color-interpolation-filters="sRGB">
<feFlood flood-opacity="0" result="BackgroundImageFix"/>
<feGaussianBlur in="BackgroundImageFix" stdDeviation="9.84"/>
<feComposite in2="SourceAlpha" operator="in" result="effect1_backgroundBlur_12734_109926"/>
<feBlend mode="normal" in="SourceGraphic" in2="effect1_backgroundBlur_12734_109926" result="shape"/>
</filter>
<filter id="filter1_d_12734_109926" x="35.9029" y="38.5702" width="40.6147" height="41.8393" filterUnits="userSpaceOnUse" color-interpolation-filters="sRGB">
<feFlood flood-opacity="0" result="BackgroundImageFix"/>
<feColorMatrix in="SourceAlpha" type="matrix" values="0 0 0 0 0 0 0 0 0 0 0 0 0 0 0 0 0 0 127 0" result="hardAlpha"/>
<feOffset dx="2.66978" dy="2.66978"/>
<feGaussianBlur stdDeviation="2.66978"/>
<feColorMatrix type="matrix" values="0 0 0 0 0.972549 0 0 0 0 0.258824 0 0 0 0 0.435294 0 0 0 0.5 0"/>
<feBlend mode="normal" in2="BackgroundImageFix" result="effect1_dropShadow_12734_109926"/>
<feBlend mode="normal" in="SourceGraphic" in2="effect1_dropShadow_12734_109926" result="shape"/>
</filter>
<linearGradient id="paint0_linear_12734_109926" x1="56.0002" y1="6.10962" x2="56.0002" y2="105.891" gradientUnits="userSpaceOnUse">
<stop stop-color="#FF2E54"/>
<stop offset="0.9999" stop-color="#FF2E54" stop-opacity="0.0104167"/>
</linearGradient>
<linearGradient id="paint1_linear_12734_109926" x1="50.26" y1="62.5601" x2="92.1336" y2="22.4726" gradientUnits="userSpaceOnUse">
<stop stop-color="#EA619B"/>
<stop offset="1" stop-color="#FF2E54"/>
<stop offset="1" stop-color="#F2607A"/>
</linearGradient>
<linearGradient id="paint2_linear_12734_109926" x1="26.8901" y1="30.1699" x2="80.2171" y2="83.4429" gradientUnits="userSpaceOnUse">
<stop stop-color="white" stop-opacity="0.25"/>
<stop offset="1" stop-color="white" stop-opacity="0"/>
</linearGradient>
<linearGradient id="paint3_linear_12734_109926" x1="46.3658" y1="75.3523" x2="65.2638" y2="59.1902" gradientUnits="userSpaceOnUse">
<stop stop-color="white"/>
<stop offset="1" stop-color="white" stop-opacity="0.2"/>
</linearGradient>
<linearGradient id="paint4_linear_12734_109926" x1="60.916" y1="75.352" x2="79.8148" y2="59.1823" gradientUnits="userSpaceOnUse">
<stop stop-color="white"/>
<stop offset="1" stop-color="white" stop-opacity="0.2"/>
</linearGradient>
<linearGradient id="paint5_linear_12734_109926" x1="45.5566" y1="58.4961" x2="54.2986" y2="42.7301" gradientUnits="userSpaceOnUse">
<stop stop-color="white"/>
<stop offset="1" stop-color="white" stop-opacity="0.2"/>
</linearGradient>
<linearGradient id="paint6_linear_12734_109926" x1="61.7557" y1="58.4961" x2="70.4978" y2="42.7301" gradientUnits="userSpaceOnUse">
<stop stop-color="white"/>
<stop offset="1" stop-color="white" stop-opacity="0.2"/>
</linearGradient>
<linearGradient id="paint7_linear_12734_109926" x1="47.695" y1="49.8775" x2="56.7629" y2="36.2544" gradientUnits="userSpaceOnUse">
<stop stop-color="white"/>
<stop offset="1" stop-color="white" stop-opacity="0.2"/>
</linearGradient>
<linearGradient id="paint8_linear_12734_109926" x1="59.6032" y1="49.8776" x2="68.6709" y2="36.2547" gradientUnits="userSpaceOnUse">
<stop stop-color="white"/>
<stop offset="1" stop-color="white" stop-opacity="0.2"/>
</linearGradient>
</defs>
</svg>
