<svg width="112" height="112" viewBox="0 0 112 112" fill="none" xmlns="http://www.w3.org/2000/svg">
<rect width="112" height="112" rx="56" fill="white"/>
<circle cx="56.0002" cy="56.0005" r="49.8909" fill="url(#paint0_linear_12734_109951)" fill-opacity="0.4"/>
<path d="M58.5663 53.8069C53.0288 48.2694 50.26 45.5006 50.26 42.0601C50.26 38.6195 53.0288 35.8508 58.5662 30.3133L59.0132 29.8663C64.5507 24.3288 67.3195 21.5601 70.76 21.5601C74.2006 21.5601 76.9693 24.3288 82.5068 29.8663L82.9538 30.3133C88.4913 35.8508 91.26 38.6195 91.26 42.0601C91.26 45.5006 88.4913 48.2694 82.9538 53.8069L82.5068 54.2538C76.9693 59.7913 74.2006 62.5601 70.76 62.5601C67.3195 62.5601 64.5507 59.7913 59.0132 54.2538L58.5663 53.8069Z" fill="url(#paint1_linear_12734_109951)"/>
<g filter="url(#filter0_b_12734_109951)">
<path fill-rule="evenodd" clip-rule="evenodd" d="M53.6637 30.1699C58.6836 30.1699 62.6185 30.1699 65.7403 30.5081C68.9261 30.8533 71.5074 31.5703 73.7114 33.1715C75.0456 34.1409 76.219 35.3143 77.1884 36.6486C78.7897 38.8525 79.5067 41.4338 79.8518 44.6196C80.19 47.7414 80.19 51.6764 80.19 56.6962V56.9439C80.19 61.9636 80.19 65.8984 79.8518 69.0202C79.5067 72.206 78.7897 74.7873 77.1884 76.9913C76.219 78.3255 75.0456 79.4989 73.7114 80.4683C71.5074 82.0696 68.9261 82.7866 65.7403 83.1317C62.6185 83.47 58.6835 83.4699 53.6638 83.4699H53.4161C48.3963 83.4699 44.4615 83.47 41.3397 83.1317C38.1539 82.7866 35.5726 82.0696 33.3687 80.4683C32.0344 79.4989 30.861 78.3255 29.8916 76.9913C28.2904 74.7873 27.5734 72.206 27.2282 69.0202C26.89 65.8984 26.89 61.9635 26.89 56.9436V56.6962C26.89 51.6764 26.89 47.7415 27.2282 44.6196C27.5734 41.4338 28.2904 38.8525 29.8916 36.6486C30.861 35.3143 32.0344 34.1409 33.3687 33.1715C35.5726 31.5703 38.1539 30.8533 41.3397 30.5081C44.4615 30.1699 48.3965 30.1699 53.4163 30.1699H53.6637Z" fill="#26AB8D" fill-opacity="0.35"/>
<path d="M65.8016 29.942C62.6492 29.6004 58.6892 29.6005 53.6972 29.6005L53.6637 29.6005H53.4163L53.3829 29.6005C48.3908 29.6005 44.4308 29.6004 41.2784 29.942C38.0441 30.2924 35.3511 31.0273 33.0339 32.7108C31.6513 33.7154 30.4355 34.9312 29.4309 36.3139C27.7474 38.6311 27.0125 41.324 26.6621 44.5583C26.3205 47.7107 26.3205 51.6708 26.3206 56.6628L26.3206 56.6962V56.9436L26.3206 56.9771C26.3205 61.9691 26.3205 65.9291 26.6621 69.0816C27.0125 72.3158 27.7474 75.0088 29.4309 77.326C30.4355 78.7086 31.6513 79.9245 33.0339 80.929C35.3511 82.6125 38.0441 83.3474 41.2784 83.6979C44.4308 84.0394 48.3908 84.0394 53.3829 84.0394H53.4161H53.6638H53.697C58.689 84.0394 62.6492 84.0394 65.8016 83.6979C69.0359 83.3474 71.7289 82.6125 74.0461 80.929C75.4287 79.9245 76.6446 78.7086 77.6491 77.326C79.3326 75.0088 80.0675 72.3158 80.4179 69.0816C80.7595 65.9291 80.7595 61.9691 80.7595 56.9771V56.9439V56.6962V56.663C80.7595 51.6709 80.7595 47.7107 80.4179 44.5583C80.0675 41.324 79.3326 38.6311 77.6491 36.3139C76.6446 34.9312 75.4287 33.7154 74.0461 32.7108C71.7289 31.0273 69.0359 30.2924 65.8016 29.942Z" stroke="url(#paint2_linear_12734_109951)" stroke-width="1.13889" stroke-linecap="round"/>
</g>
<g filter="url(#filter1_d_12734_109951)">
<path d="M54.4447 56.82C54.4447 57.3194 54.0398 57.7243 53.5405 57.7243C53.0409 57.7243 52.6362 57.3194 52.6362 56.82C52.6362 56.3204 53.0409 55.9158 53.5405 55.9158C54.0398 55.9158 54.4447 56.3204 54.4447 56.82Z" fill="url(#paint3_linear_12734_109951)"/>
</g>
<g filter="url(#filter2_d_12734_109951)">
<path d="M66.2003 56.8201C66.2003 49.828 60.5323 44.1599 53.5402 44.1599C46.5481 44.1599 40.88 49.828 40.88 56.8201C40.88 63.8122 46.5481 69.4802 53.5402 69.4802C60.5289 69.4722 66.1923 63.8089 66.2003 56.8201ZM58.966 58.6286C58.3312 58.6209 57.7482 58.2765 57.4352 57.7243H56.0864C55.8133 58.4904 55.2105 59.0932 54.4444 59.3663V60.7151C54.9969 61.0281 55.3412 61.6111 55.3489 62.2459C55.3489 63.2448 54.5391 64.0544 53.5402 64.0544C52.5412 64.0544 51.7316 63.2448 51.7316 62.2459C51.7393 61.6111 52.0837 61.0281 52.6359 60.7151V59.3663C51.8698 59.093 51.267 58.4904 50.9939 57.7243H49.6451C49.3321 58.2765 48.7491 58.6209 48.1143 58.6286C47.1154 58.6286 46.3058 57.819 46.3058 56.8201C46.3058 55.8211 47.1154 55.0113 48.1143 55.0113C48.7491 55.019 49.3321 55.3633 49.6451 55.9158H50.9939C51.267 55.1497 51.8698 54.5469 52.6359 54.2738V52.925C52.0837 52.612 51.7393 52.029 51.7316 51.3942C51.7316 50.3953 52.5412 49.5857 53.5402 49.5857C54.5391 49.5857 55.3489 50.3953 55.3489 51.3942C55.3412 52.029 54.9969 52.6118 54.4444 52.925V54.2738C55.2105 54.5469 55.8133 55.1497 56.0864 55.9158H57.4352C57.7482 55.3633 58.3312 55.019 58.966 55.0113C59.9649 55.0113 60.7745 55.8211 60.7745 56.8201C60.7745 57.819 59.9649 58.6286 58.966 58.6286Z" fill="url(#paint4_linear_12734_109951)"/>
</g>
<g filter="url(#filter3_d_12734_109951)">
<path d="M39.1177 57.7244H35.5004C35.6229 60.2811 36.2909 62.7821 37.46 65.0592L40.5972 63.2482C39.7381 61.525 39.2349 59.6463 39.1177 57.7244Z" fill="url(#paint5_linear_12734_109951)"/>
</g>
<g filter="url(#filter4_d_12734_109951)">
<path d="M39.1177 55.9159C39.2349 53.9937 39.7384 52.1152 40.5975 50.3918L37.4603 48.5811C36.2912 50.8581 35.6229 53.3592 35.5004 55.9159H39.1177Z" fill="url(#paint6_linear_12734_109951)"/>
</g>
<g filter="url(#filter5_d_12734_109951)">
<path d="M67.9632 57.7244C67.846 59.6463 67.3425 61.525 66.4834 63.2482L69.6206 65.0592C70.7897 62.7821 71.4581 60.2811 71.5805 57.7244H67.9632Z" fill="url(#paint7_linear_12734_109951)"/>
</g>
<g filter="url(#filter6_d_12734_109951)">
<path d="M59.9691 69.7627C58.2456 70.6221 56.3667 71.1255 54.4445 71.2428V74.8601C57.0017 74.7376 59.5031 74.0693 61.7804 72.8999L59.9691 69.7627Z" fill="url(#paint8_linear_12734_109951)"/>
</g>
<g filter="url(#filter7_d_12734_109951)">
<path d="M52.6361 74.8601V71.2428C50.7136 71.1253 48.8347 70.6218 47.1112 69.7627L45.2999 72.8997C47.5775 74.069 50.0789 74.7373 52.6361 74.8601Z" fill="url(#paint9_linear_12734_109951)"/>
</g>
<g filter="url(#filter8_d_12734_109951)">
<path d="M54.4445 38.78V42.3973C56.3667 42.5149 58.2456 43.0183 59.9691 43.8775L61.7804 40.7405C59.5031 39.5712 57.0017 38.9025 54.4445 38.78Z" fill="url(#paint10_linear_12734_109951)"/>
</g>
<g filter="url(#filter9_d_12734_109951)">
<path d="M45.5421 68.8661C43.9387 67.7978 42.5629 66.4223 41.4946 64.8188L38.3656 66.6252C39.7585 68.7728 41.5882 70.6025 43.7358 71.9951L45.5421 68.8661Z" fill="url(#paint11_linear_12734_109951)"/>
</g>
<g filter="url(#filter10_d_12734_109951)">
<path d="M65.5861 64.8188C64.5178 66.4223 63.142 67.7978 61.5386 68.8661L63.3452 71.9951C65.4928 70.6025 67.3225 68.7725 68.7151 66.6252L65.5861 64.8188Z" fill="url(#paint12_linear_12734_109951)"/>
</g>
<g filter="url(#filter11_d_12734_109951)">
<path d="M47.1112 43.8775C48.8347 43.0181 50.7136 42.5146 52.6361 42.3973V38.78C50.0789 38.9025 47.5775 39.5709 45.2999 40.7402L47.1112 43.8775Z" fill="url(#paint13_linear_12734_109951)"/>
</g>
<g filter="url(#filter12_d_12734_109951)">
<path d="M41.4946 48.821C42.5629 47.2178 43.9387 45.8423 45.5419 44.7737L43.7355 41.645C41.5879 43.0376 39.7582 44.8676 38.3656 47.015L41.4946 48.821Z" fill="url(#paint14_linear_12734_109951)"/>
</g>
<g filter="url(#filter13_d_12734_109951)">
<path d="M66.4834 50.3918C67.3425 52.1153 67.8457 53.9937 67.9632 55.9159H71.5805C71.4578 53.3589 70.7897 50.8581 69.6206 48.5808L66.4834 50.3918Z" fill="url(#paint15_linear_12734_109951)"/>
</g>
<g filter="url(#filter14_d_12734_109951)">
<path d="M61.5386 44.774C63.142 45.8423 64.5178 47.2178 65.5861 48.8213L68.7151 47.015C67.3225 44.8676 65.4925 43.0376 63.3452 41.645L61.5386 44.774Z" fill="url(#paint16_linear_12734_109951)"/>
</g>
<defs>
<filter id="filter0_b_12734_109951" x="6.0711" y="9.35101" width="94.9378" height="94.9379" filterUnits="userSpaceOnUse" color-interpolation-filters="sRGB">
<feFlood flood-opacity="0" result="BackgroundImageFix"/>
<feGaussianBlur in="BackgroundImageFix" stdDeviation="9.84"/>
<feComposite in2="SourceAlpha" operator="in" result="effect1_backgroundBlur_12734_109951"/>
<feBlend mode="normal" in="SourceGraphic" in2="effect1_backgroundBlur_12734_109951" result="shape"/>
</filter>
<filter id="filter1_d_12734_109951" x="48.9282" y="52.2077" width="16.6406" height="16.6407" filterUnits="userSpaceOnUse" color-interpolation-filters="sRGB">
<feFlood flood-opacity="0" result="BackgroundImageFix"/>
<feColorMatrix in="SourceAlpha" type="matrix" values="0 0 0 0 0 0 0 0 0 0 0 0 0 0 0 0 0 0 127 0" result="hardAlpha"/>
<feOffset dx="3.70803" dy="3.70803"/>
<feGaussianBlur stdDeviation="3.70803"/>
<feColorMatrix type="matrix" values="0 0 0 0 0.0711111 0 0 0 0 0.533333 0 0 0 0 0.415387 0 0 0 0.5 0"/>
<feBlend mode="normal" in2="BackgroundImageFix" result="effect1_dropShadow_12734_109951"/>
<feBlend mode="normal" in="SourceGraphic" in2="effect1_dropShadow_12734_109951" result="shape"/>
</filter>
<filter id="filter2_d_12734_109951" x="37.172" y="40.4519" width="40.1524" height="40.1524" filterUnits="userSpaceOnUse" color-interpolation-filters="sRGB">
<feFlood flood-opacity="0" result="BackgroundImageFix"/>
<feColorMatrix in="SourceAlpha" type="matrix" values="0 0 0 0 0 0 0 0 0 0 0 0 0 0 0 0 0 0 127 0" result="hardAlpha"/>
<feOffset dx="3.70803" dy="3.70803"/>
<feGaussianBlur stdDeviation="3.70803"/>
<feColorMatrix type="matrix" values="0 0 0 0 0.0711111 0 0 0 0 0.533333 0 0 0 0 0.415387 0 0 0 0.5 0"/>
<feBlend mode="normal" in2="BackgroundImageFix" result="effect1_dropShadow_12734_109951"/>
<feBlend mode="normal" in="SourceGraphic" in2="effect1_dropShadow_12734_109951" result="shape"/>
</filter>
<filter id="filter3_d_12734_109951" x="31.7923" y="54.0163" width="19.929" height="22.1668" filterUnits="userSpaceOnUse" color-interpolation-filters="sRGB">
<feFlood flood-opacity="0" result="BackgroundImageFix"/>
<feColorMatrix in="SourceAlpha" type="matrix" values="0 0 0 0 0 0 0 0 0 0 0 0 0 0 0 0 0 0 127 0" result="hardAlpha"/>
<feOffset dx="3.70803" dy="3.70803"/>
<feGaussianBlur stdDeviation="3.70803"/>
<feColorMatrix type="matrix" values="0 0 0 0 0.0711111 0 0 0 0 0.533333 0 0 0 0 0.415387 0 0 0 0.5 0"/>
<feBlend mode="normal" in2="BackgroundImageFix" result="effect1_dropShadow_12734_109951"/>
<feBlend mode="normal" in="SourceGraphic" in2="effect1_dropShadow_12734_109951" result="shape"/>
</filter>
<filter id="filter4_d_12734_109951" x="31.7923" y="44.873" width="19.9293" height="22.1668" filterUnits="userSpaceOnUse" color-interpolation-filters="sRGB">
<feFlood flood-opacity="0" result="BackgroundImageFix"/>
<feColorMatrix in="SourceAlpha" type="matrix" values="0 0 0 0 0 0 0 0 0 0 0 0 0 0 0 0 0 0 127 0" result="hardAlpha"/>
<feOffset dx="3.70803" dy="3.70803"/>
<feGaussianBlur stdDeviation="3.70803"/>
<feColorMatrix type="matrix" values="0 0 0 0 0.0711111 0 0 0 0 0.533333 0 0 0 0 0.415387 0 0 0 0.5 0"/>
<feBlend mode="normal" in2="BackgroundImageFix" result="effect1_dropShadow_12734_109951"/>
<feBlend mode="normal" in="SourceGraphic" in2="effect1_dropShadow_12734_109951" result="shape"/>
</filter>
<filter id="filter5_d_12734_109951" x="62.7754" y="54.0163" width="19.9293" height="22.1668" filterUnits="userSpaceOnUse" color-interpolation-filters="sRGB">
<feFlood flood-opacity="0" result="BackgroundImageFix"/>
<feColorMatrix in="SourceAlpha" type="matrix" values="0 0 0 0 0 0 0 0 0 0 0 0 0 0 0 0 0 0 127 0" result="hardAlpha"/>
<feOffset dx="3.70803" dy="3.70803"/>
<feGaussianBlur stdDeviation="3.70803"/>
<feColorMatrix type="matrix" values="0 0 0 0 0.0711111 0 0 0 0 0.533333 0 0 0 0 0.415387 0 0 0 0.5 0"/>
<feBlend mode="normal" in2="BackgroundImageFix" result="effect1_dropShadow_12734_109951"/>
<feBlend mode="normal" in="SourceGraphic" in2="effect1_dropShadow_12734_109951" result="shape"/>
</filter>
<filter id="filter6_d_12734_109951" x="50.7364" y="66.0547" width="22.1681" height="19.9295" filterUnits="userSpaceOnUse" color-interpolation-filters="sRGB">
<feFlood flood-opacity="0" result="BackgroundImageFix"/>
<feColorMatrix in="SourceAlpha" type="matrix" values="0 0 0 0 0 0 0 0 0 0 0 0 0 0 0 0 0 0 127 0" result="hardAlpha"/>
<feOffset dx="3.70803" dy="3.70803"/>
<feGaussianBlur stdDeviation="3.70803"/>
<feColorMatrix type="matrix" values="0 0 0 0 0.0711111 0 0 0 0 0.533333 0 0 0 0 0.415387 0 0 0 0.5 0"/>
<feBlend mode="normal" in2="BackgroundImageFix" result="effect1_dropShadow_12734_109951"/>
<feBlend mode="normal" in="SourceGraphic" in2="effect1_dropShadow_12734_109951" result="shape"/>
</filter>
<filter id="filter7_d_12734_109951" x="41.5919" y="66.0547" width="22.1683" height="19.9295" filterUnits="userSpaceOnUse" color-interpolation-filters="sRGB">
<feFlood flood-opacity="0" result="BackgroundImageFix"/>
<feColorMatrix in="SourceAlpha" type="matrix" values="0 0 0 0 0 0 0 0 0 0 0 0 0 0 0 0 0 0 127 0" result="hardAlpha"/>
<feOffset dx="3.70803" dy="3.70803"/>
<feGaussianBlur stdDeviation="3.70803"/>
<feColorMatrix type="matrix" values="0 0 0 0 0.0711111 0 0 0 0 0.533333 0 0 0 0 0.415387 0 0 0 0.5 0"/>
<feBlend mode="normal" in2="BackgroundImageFix" result="effect1_dropShadow_12734_109951"/>
<feBlend mode="normal" in="SourceGraphic" in2="effect1_dropShadow_12734_109951" result="shape"/>
</filter>
<filter id="filter8_d_12734_109951" x="50.7364" y="35.072" width="22.1681" height="19.9295" filterUnits="userSpaceOnUse" color-interpolation-filters="sRGB">
<feFlood flood-opacity="0" result="BackgroundImageFix"/>
<feColorMatrix in="SourceAlpha" type="matrix" values="0 0 0 0 0 0 0 0 0 0 0 0 0 0 0 0 0 0 127 0" result="hardAlpha"/>
<feOffset dx="3.70803" dy="3.70803"/>
<feGaussianBlur stdDeviation="3.70803"/>
<feColorMatrix type="matrix" values="0 0 0 0 0.0711111 0 0 0 0 0.533333 0 0 0 0 0.415387 0 0 0 0.5 0"/>
<feBlend mode="normal" in2="BackgroundImageFix" result="effect1_dropShadow_12734_109951"/>
<feBlend mode="normal" in="SourceGraphic" in2="effect1_dropShadow_12734_109951" result="shape"/>
</filter>
<filter id="filter9_d_12734_109951" x="34.6576" y="61.1108" width="22.0086" height="22.0084" filterUnits="userSpaceOnUse" color-interpolation-filters="sRGB">
<feFlood flood-opacity="0" result="BackgroundImageFix"/>
<feColorMatrix in="SourceAlpha" type="matrix" values="0 0 0 0 0 0 0 0 0 0 0 0 0 0 0 0 0 0 127 0" result="hardAlpha"/>
<feOffset dx="3.70803" dy="3.70803"/>
<feGaussianBlur stdDeviation="3.70803"/>
<feColorMatrix type="matrix" values="0 0 0 0 0.0711111 0 0 0 0 0.533333 0 0 0 0 0.415387 0 0 0 0.5 0"/>
<feBlend mode="normal" in2="BackgroundImageFix" result="effect1_dropShadow_12734_109951"/>
<feBlend mode="normal" in="SourceGraphic" in2="effect1_dropShadow_12734_109951" result="shape"/>
</filter>
<filter id="filter10_d_12734_109951" x="57.8305" y="61.1108" width="22.0086" height="22.0084" filterUnits="userSpaceOnUse" color-interpolation-filters="sRGB">
<feFlood flood-opacity="0" result="BackgroundImageFix"/>
<feColorMatrix in="SourceAlpha" type="matrix" values="0 0 0 0 0 0 0 0 0 0 0 0 0 0 0 0 0 0 127 0" result="hardAlpha"/>
<feOffset dx="3.70803" dy="3.70803"/>
<feGaussianBlur stdDeviation="3.70803"/>
<feColorMatrix type="matrix" values="0 0 0 0 0.0711111 0 0 0 0 0.533333 0 0 0 0 0.415387 0 0 0 0.5 0"/>
<feBlend mode="normal" in2="BackgroundImageFix" result="effect1_dropShadow_12734_109951"/>
<feBlend mode="normal" in="SourceGraphic" in2="effect1_dropShadow_12734_109951" result="shape"/>
</filter>
<filter id="filter11_d_12734_109951" x="41.5919" y="35.072" width="22.1683" height="19.9295" filterUnits="userSpaceOnUse" color-interpolation-filters="sRGB">
<feFlood flood-opacity="0" result="BackgroundImageFix"/>
<feColorMatrix in="SourceAlpha" type="matrix" values="0 0 0 0 0 0 0 0 0 0 0 0 0 0 0 0 0 0 127 0" result="hardAlpha"/>
<feOffset dx="3.70803" dy="3.70803"/>
<feGaussianBlur stdDeviation="3.70803"/>
<feColorMatrix type="matrix" values="0 0 0 0 0.0711111 0 0 0 0 0.533333 0 0 0 0 0.415387 0 0 0 0.5 0"/>
<feBlend mode="normal" in2="BackgroundImageFix" result="effect1_dropShadow_12734_109951"/>
<feBlend mode="normal" in="SourceGraphic" in2="effect1_dropShadow_12734_109951" result="shape"/>
</filter>
<filter id="filter12_d_12734_109951" x="34.6576" y="37.937" width="22.0084" height="22.0081" filterUnits="userSpaceOnUse" color-interpolation-filters="sRGB">
<feFlood flood-opacity="0" result="BackgroundImageFix"/>
<feColorMatrix in="SourceAlpha" type="matrix" values="0 0 0 0 0 0 0 0 0 0 0 0 0 0 0 0 0 0 127 0" result="hardAlpha"/>
<feOffset dx="3.70803" dy="3.70803"/>
<feGaussianBlur stdDeviation="3.70803"/>
<feColorMatrix type="matrix" values="0 0 0 0 0.0711111 0 0 0 0 0.533333 0 0 0 0 0.415387 0 0 0 0.5 0"/>
<feBlend mode="normal" in2="BackgroundImageFix" result="effect1_dropShadow_12734_109951"/>
<feBlend mode="normal" in="SourceGraphic" in2="effect1_dropShadow_12734_109951" result="shape"/>
</filter>
<filter id="filter13_d_12734_109951" x="62.7754" y="44.8728" width="19.9293" height="22.1671" filterUnits="userSpaceOnUse" color-interpolation-filters="sRGB">
<feFlood flood-opacity="0" result="BackgroundImageFix"/>
<feColorMatrix in="SourceAlpha" type="matrix" values="0 0 0 0 0 0 0 0 0 0 0 0 0 0 0 0 0 0 127 0" result="hardAlpha"/>
<feOffset dx="3.70803" dy="3.70803"/>
<feGaussianBlur stdDeviation="3.70803"/>
<feColorMatrix type="matrix" values="0 0 0 0 0.0711111 0 0 0 0 0.533333 0 0 0 0 0.415387 0 0 0 0.5 0"/>
<feBlend mode="normal" in2="BackgroundImageFix" result="effect1_dropShadow_12734_109951"/>
<feBlend mode="normal" in="SourceGraphic" in2="effect1_dropShadow_12734_109951" result="shape"/>
</filter>
<filter id="filter14_d_12734_109951" x="57.8305" y="37.937" width="22.0086" height="22.0084" filterUnits="userSpaceOnUse" color-interpolation-filters="sRGB">
<feFlood flood-opacity="0" result="BackgroundImageFix"/>
<feColorMatrix in="SourceAlpha" type="matrix" values="0 0 0 0 0 0 0 0 0 0 0 0 0 0 0 0 0 0 127 0" result="hardAlpha"/>
<feOffset dx="3.70803" dy="3.70803"/>
<feGaussianBlur stdDeviation="3.70803"/>
<feColorMatrix type="matrix" values="0 0 0 0 0.0711111 0 0 0 0 0.533333 0 0 0 0 0.415387 0 0 0 0.5 0"/>
<feBlend mode="normal" in2="BackgroundImageFix" result="effect1_dropShadow_12734_109951"/>
<feBlend mode="normal" in="SourceGraphic" in2="effect1_dropShadow_12734_109951" result="shape"/>
</filter>
<linearGradient id="paint0_linear_12734_109951" x1="56.0002" y1="6.10962" x2="56.0002" y2="105.891" gradientUnits="userSpaceOnUse">
<stop stop-color="#20B18D"/>
<stop offset="0.9999" stop-color="#20B18D" stop-opacity="0.0104167"/>
</linearGradient>
<linearGradient id="paint1_linear_12734_109951" x1="58.8746" y1="31.8582" x2="87.6686" y2="56.5702" gradientUnits="userSpaceOnUse">
<stop stop-color="#20B18D"/>
<stop offset="0.995" stop-color="#66E2A9"/>
</linearGradient>
<linearGradient id="paint2_linear_12734_109951" x1="26.89" y1="30.1699" x2="80.217" y2="83.4429" gradientUnits="userSpaceOnUse">
<stop stop-color="white" stop-opacity="0.25"/>
<stop offset="1" stop-color="white" stop-opacity="0"/>
</linearGradient>
<linearGradient id="paint3_linear_12734_109951" x1="53.5557" y1="58.1096" x2="56.0518" y2="55.6628" gradientUnits="userSpaceOnUse">
<stop stop-color="white"/>
<stop offset="1" stop-color="white" stop-opacity="0.2"/>
</linearGradient>
<linearGradient id="paint4_linear_12734_109951" x1="53.7534" y1="74.8745" x2="88.6994" y2="40.6188" gradientUnits="userSpaceOnUse">
<stop stop-color="white"/>
<stop offset="1" stop-color="white" stop-opacity="0.2"/>
</linearGradient>
<linearGradient id="paint5_linear_12734_109951" x1="38.0917" y1="66.6218" x2="47.5139" y2="60.2038" gradientUnits="userSpaceOnUse">
<stop stop-color="white"/>
<stop offset="1" stop-color="white" stop-opacity="0.2"/>
</linearGradient>
<linearGradient id="paint6_linear_12734_109951" x1="38.0919" y1="57.4785" x2="47.5142" y2="51.06" gradientUnits="userSpaceOnUse">
<stop stop-color="white"/>
<stop offset="1" stop-color="white" stop-opacity="0.2"/>
</linearGradient>
<linearGradient id="paint7_linear_12734_109951" x1="69.0749" y1="66.6218" x2="78.4972" y2="60.2033" gradientUnits="userSpaceOnUse">
<stop stop-color="white"/>
<stop offset="1" stop-color="white" stop-opacity="0.2"/>
</linearGradient>
<linearGradient id="paint8_linear_12734_109951" x1="58.1742" y1="75.9461" x2="64.8139" y2="66.5794" gradientUnits="userSpaceOnUse">
<stop stop-color="white"/>
<stop offset="1" stop-color="white" stop-opacity="0.2"/>
</linearGradient>
<linearGradient id="paint9_linear_12734_109951" x1="49.0298" y1="75.9461" x2="55.6694" y2="66.5792" gradientUnits="userSpaceOnUse">
<stop stop-color="white"/>
<stop offset="1" stop-color="white" stop-opacity="0.2"/>
</linearGradient>
<linearGradient id="paint10_linear_12734_109951" x1="58.1742" y1="44.9634" x2="64.8139" y2="35.5967" gradientUnits="userSpaceOnUse">
<stop stop-color="white"/>
<stop offset="1" stop-color="white" stop-opacity="0.2"/>
</linearGradient>
<linearGradient id="paint11_linear_12734_109951" x1="42.0143" y1="73.5239" x2="51.9187" y2="63.8148" gradientUnits="userSpaceOnUse">
<stop stop-color="white"/>
<stop offset="1" stop-color="white" stop-opacity="0.2"/>
</linearGradient>
<linearGradient id="paint12_linear_12734_109951" x1="65.1873" y1="73.5239" x2="75.0916" y2="63.8148" gradientUnits="userSpaceOnUse">
<stop stop-color="white"/>
<stop offset="1" stop-color="white" stop-opacity="0.2"/>
</linearGradient>
<linearGradient id="paint13_linear_12734_109951" x1="49.0298" y1="44.9634" x2="55.6694" y2="35.5965" gradientUnits="userSpaceOnUse">
<stop stop-color="white"/>
<stop offset="1" stop-color="white" stop-opacity="0.2"/>
</linearGradient>
<linearGradient id="paint14_linear_12734_109951" x1="42.0142" y1="50.3498" x2="51.9182" y2="40.6411" gradientUnits="userSpaceOnUse">
<stop stop-color="white"/>
<stop offset="1" stop-color="white" stop-opacity="0.2"/>
</linearGradient>
<linearGradient id="paint15_linear_12734_109951" x1="69.0749" y1="57.4786" x2="78.4974" y2="51.0602" gradientUnits="userSpaceOnUse">
<stop stop-color="white"/>
<stop offset="1" stop-color="white" stop-opacity="0.2"/>
</linearGradient>
<linearGradient id="paint16_linear_12734_109951" x1="65.1873" y1="50.3501" x2="75.0916" y2="40.641" gradientUnits="userSpaceOnUse">
<stop stop-color="white"/>
<stop offset="1" stop-color="white" stop-opacity="0.2"/>
</linearGradient>
</defs>
</svg>
