<svg width="112" height="112" viewBox="0 0 112 112" fill="none" xmlns="http://www.w3.org/2000/svg">
<rect width="112" height="112" rx="56" fill="white"/>
<circle cx="56.0002" cy="56.0005" r="49.8909" fill="url(#paint0_linear_12734_109965)" fill-opacity="0.4"/>
<path d="M58.5663 53.8069C53.0288 48.2694 50.26 45.5006 50.26 42.0601C50.26 38.6195 53.0288 35.8508 58.5662 30.3133L59.0132 29.8663C64.5507 24.3288 67.3195 21.5601 70.76 21.5601C74.2006 21.5601 76.9693 24.3288 82.5068 29.8663L82.9538 30.3133C88.4913 35.8508 91.26 38.6195 91.26 42.0601C91.26 45.5006 88.4913 48.2694 82.9538 53.8069L82.5068 54.2538C76.9693 59.7913 74.2006 62.5601 70.76 62.5601C67.3195 62.5601 64.5507 59.7913 59.0132 54.2538L58.5663 53.8069Z" fill="url(#paint1_linear_12734_109965)"/>
<g filter="url(#filter0_b_12734_109965)">
<path fill-rule="evenodd" clip-rule="evenodd" d="M53.6637 30.1699C58.6836 30.1699 62.6185 30.1699 65.7403 30.5081C68.9261 30.8533 71.5074 31.5703 73.7114 33.1715C75.0456 34.1409 76.219 35.3143 77.1884 36.6486C78.7897 38.8525 79.5067 41.4338 79.8518 44.6196C80.19 47.7414 80.19 51.6764 80.19 56.6962V56.9439C80.19 61.9636 80.19 65.8984 79.8518 69.0202C79.5067 72.206 78.7897 74.7873 77.1884 76.9913C76.219 78.3255 75.0456 79.4989 73.7114 80.4683C71.5074 82.0696 68.9261 82.7866 65.7403 83.1317C62.6185 83.47 58.6835 83.4699 53.6638 83.4699H53.4161C48.3963 83.4699 44.4615 83.47 41.3397 83.1317C38.1539 82.7866 35.5726 82.0696 33.3687 80.4683C32.0344 79.4989 30.861 78.3255 29.8916 76.9913C28.2904 74.7873 27.5734 72.206 27.2282 69.0202C26.89 65.8984 26.89 61.9635 26.89 56.9436V56.6962C26.89 51.6764 26.89 47.7415 27.2282 44.6196C27.5734 41.4338 28.2904 38.8525 29.8916 36.6486C30.861 35.3143 32.0344 34.1409 33.3687 33.1715C35.5726 31.5703 38.1539 30.8533 41.3397 30.5081C44.4615 30.1699 48.3965 30.1699 53.4163 30.1699H53.6637Z" fill="#EFAA79" fill-opacity="0.35"/>
<path fill-rule="evenodd" clip-rule="evenodd" d="M53.6637 30.1699C58.6836 30.1699 62.6185 30.1699 65.7403 30.5081C68.9261 30.8533 71.5074 31.5703 73.7114 33.1715C75.0456 34.1409 76.219 35.3143 77.1884 36.6486C78.7897 38.8525 79.5067 41.4338 79.8518 44.6196C80.19 47.7414 80.19 51.6764 80.19 56.6962V56.9439C80.19 61.9636 80.19 65.8984 79.8518 69.0202C79.5067 72.206 78.7897 74.7873 77.1884 76.9913C76.219 78.3255 75.0456 79.4989 73.7114 80.4683C71.5074 82.0696 68.9261 82.7866 65.7403 83.1317C62.6185 83.47 58.6835 83.4699 53.6638 83.4699H53.4161C48.3963 83.4699 44.4615 83.47 41.3397 83.1317C38.1539 82.7866 35.5726 82.0696 33.3687 80.4683C32.0344 79.4989 30.861 78.3255 29.8916 76.9913C28.2904 74.7873 27.5734 72.206 27.2282 69.0202C26.89 65.8984 26.89 61.9635 26.89 56.9436V56.6962C26.89 51.6764 26.89 47.7415 27.2282 44.6196C27.5734 41.4338 28.2904 38.8525 29.8916 36.6486C30.861 35.3143 32.0344 34.1409 33.3687 33.1715C35.5726 31.5703 38.1539 30.8533 41.3397 30.5081C44.4615 30.1699 48.3965 30.1699 53.4163 30.1699H53.6637Z" stroke="url(#paint2_linear_12734_109965)" stroke-width="1.13889" stroke-linecap="round"/>
</g>
<g filter="url(#filter1_d_12734_109965)">
<g filter="url(#filter2_d_12734_109965)">
<path d="M62.4527 57.9155C58.4593 57.9155 55.2104 61.1644 55.2104 65.1578C55.2104 69.1512 58.4593 72.4001 62.4527 72.4001C66.4797 72.4001 69.7558 69.1512 69.7558 65.1578C69.7558 61.1644 66.4797 57.9155 62.4527 57.9155ZM64.6755 64.2816L62.2411 67.2028C62.0666 67.4123 61.8089 67.5313 61.5399 67.5313C61.5049 67.5313 61.4698 67.5293 61.4345 67.5252C61.1285 67.4897 60.8611 67.3022 60.7233 67.0267L59.7495 65.0792C59.524 64.6283 59.7069 64.0799 60.1578 63.8544C60.6087 63.6288 61.1571 63.8117 61.3826 64.2627L61.7321 64.9617L63.2729 63.1127C63.5957 62.7255 64.1713 62.6732 64.5586 62.9958C64.9459 63.3186 64.9983 63.8942 64.6755 64.2816Z" fill="url(#paint3_linear_12734_109965)"/>
</g>
<g filter="url(#filter3_d_12734_109965)">
<path d="M62.0593 46.4406L58.3553 42.6102C58.3535 42.6084 58.3517 42.6065 58.3499 42.6046C57.4971 41.7374 56.3104 41.24 55.0943 41.24H43.3429C41.8328 41.24 40.6042 42.4686 40.6042 43.9787V67.653C40.6042 69.1631 41.8328 70.3916 43.3429 70.3916H55.0517C54.0023 68.912 53.3847 67.1057 53.3847 65.1577C53.3847 60.1576 57.4526 56.0897 62.4528 56.0897C62.7608 56.0897 63.0653 56.1051 63.3657 56.1349V49.6374C63.3657 48.4342 62.9017 47.2991 62.0593 46.4406ZM50.2809 61.6279H45.4121C44.908 61.6279 44.4992 61.2191 44.4992 60.715C44.4992 60.2108 44.908 59.8021 45.4121 59.8021H50.2809C50.785 59.8021 51.1938 60.2108 51.1938 60.715C51.1938 61.2191 50.785 61.6279 50.2809 61.6279ZM50.2809 56.7591H45.4121C44.908 56.7591 44.4992 56.3504 44.4992 55.8462C44.4992 55.3421 44.908 54.9333 45.4121 54.9333H50.2809C50.785 54.9333 51.1938 55.3421 51.1938 55.8462C51.1938 56.3504 50.785 56.7591 50.2809 56.7591ZM50.2809 51.8904H45.4121C44.908 51.8904 44.4992 51.4816 44.4992 50.9775C44.4992 50.4733 44.908 50.0646 45.4121 50.0646H50.2809C50.785 50.0646 51.1938 50.4733 51.1938 50.9775C51.1938 51.4816 50.785 51.8904 50.2809 51.8904ZM56.1234 56.7591H55.1496C54.6455 56.7591 54.2367 56.3504 54.2367 55.8462C54.2367 55.3421 54.6455 54.9333 55.1496 54.9333H56.1234C56.6275 54.9333 57.0363 55.3421 57.0363 55.8462C57.0363 56.3504 56.6275 56.7591 56.1234 56.7591ZM56.1234 51.8904H55.1496C54.6455 51.8904 54.2367 51.4816 54.2367 50.9775C54.2367 50.4733 54.6455 50.0646 55.1496 50.0646H56.1234C56.6275 50.0646 57.0363 50.4733 57.0363 50.9775C57.0363 51.4816 56.6275 51.8904 56.1234 51.8904Z" fill="url(#paint4_linear_12734_109965)"/>
</g>
</g>
<defs>
<filter id="filter0_b_12734_109965" x="6.64056" y="9.92059" width="93.7988" height="93.7987" filterUnits="userSpaceOnUse" color-interpolation-filters="sRGB">
<feFlood flood-opacity="0" result="BackgroundImageFix"/>
<feGaussianBlur in="BackgroundImageFix" stdDeviation="9.84"/>
<feComposite in2="SourceAlpha" operator="in" result="effect1_backgroundBlur_12734_109965"/>
<feBlend mode="normal" in="SourceGraphic" in2="effect1_backgroundBlur_12734_109965" result="shape"/>
</filter>
<filter id="filter1_d_12734_109965" x="37.9345" y="38.5702" width="39.8307" height="41.8393" filterUnits="userSpaceOnUse" color-interpolation-filters="sRGB">
<feFlood flood-opacity="0" result="BackgroundImageFix"/>
<feColorMatrix in="SourceAlpha" type="matrix" values="0 0 0 0 0 0 0 0 0 0 0 0 0 0 0 0 0 0 127 0" result="hardAlpha"/>
<feOffset dx="2.66978" dy="2.66978"/>
<feGaussianBlur stdDeviation="2.66978"/>
<feColorMatrix type="matrix" values="0 0 0 0 0.811765 0 0 0 0 0.431373 0 0 0 0 0.156863 0 0 0 0.5 0"/>
<feBlend mode="normal" in2="BackgroundImageFix" result="effect1_dropShadow_12734_109965"/>
<feBlend mode="normal" in="SourceGraphic" in2="effect1_dropShadow_12734_109965" result="shape"/>
</filter>
<filter id="filter2_d_12734_109965" x="51.5024" y="54.2075" width="29.3775" height="29.3167" filterUnits="userSpaceOnUse" color-interpolation-filters="sRGB">
<feFlood flood-opacity="0" result="BackgroundImageFix"/>
<feColorMatrix in="SourceAlpha" type="matrix" values="0 0 0 0 0 0 0 0 0 0 0 0 0 0 0 0 0 0 127 0" result="hardAlpha"/>
<feOffset dx="3.70803" dy="3.70803"/>
<feGaussianBlur stdDeviation="3.70803"/>
<feColorMatrix type="matrix" values="0 0 0 0 0.811765 0 0 0 0 0.431373 0 0 0 0 0.156863 0 0 0 0.5 0"/>
<feBlend mode="normal" in2="BackgroundImageFix" result="effect1_dropShadow_12734_109965"/>
<feBlend mode="normal" in="SourceGraphic" in2="effect1_dropShadow_12734_109965" result="shape"/>
</filter>
<filter id="filter3_d_12734_109965" x="36.8962" y="37.532" width="37.5935" height="43.9837" filterUnits="userSpaceOnUse" color-interpolation-filters="sRGB">
<feFlood flood-opacity="0" result="BackgroundImageFix"/>
<feColorMatrix in="SourceAlpha" type="matrix" values="0 0 0 0 0 0 0 0 0 0 0 0 0 0 0 0 0 0 127 0" result="hardAlpha"/>
<feOffset dx="3.70803" dy="3.70803"/>
<feGaussianBlur stdDeviation="3.70803"/>
<feColorMatrix type="matrix" values="0 0 0 0 0.811765 0 0 0 0 0.431373 0 0 0 0 0.156863 0 0 0 0.5 0"/>
<feBlend mode="normal" in2="BackgroundImageFix" result="effect1_dropShadow_12734_109965"/>
<feBlend mode="normal" in="SourceGraphic" in2="effect1_dropShadow_12734_109965" result="shape"/>
</filter>
<linearGradient id="paint0_linear_12734_109965" x1="56.0002" y1="6.10962" x2="56.0002" y2="105.891" gradientUnits="userSpaceOnUse">
<stop stop-color="#FF862E"/>
<stop offset="0.9999" stop-color="#FF862E" stop-opacity="0.0104167"/>
</linearGradient>
<linearGradient id="paint1_linear_12734_109965" x1="50.26" y1="62.5601" x2="92.1336" y2="22.4726" gradientUnits="userSpaceOnUse">
<stop stop-color="#DF7B32"/>
<stop offset="1" stop-color="#FF862E"/>
</linearGradient>
<linearGradient id="paint2_linear_12734_109965" x1="26.89" y1="30.1699" x2="80.217" y2="83.4429" gradientUnits="userSpaceOnUse">
<stop stop-color="white" stop-opacity="0.25"/>
<stop offset="1" stop-color="white" stop-opacity="0"/>
</linearGradient>
<linearGradient id="paint3_linear_12734_109965" x1="62.6056" y1="75.4859" x2="82.5981" y2="55.806" gradientUnits="userSpaceOnUse">
<stop stop-color="white"/>
<stop offset="1" stop-color="white" stop-opacity="0.2"/>
</linearGradient>
<linearGradient id="paint4_linear_12734_109965" x1="52.1766" y1="76.6022" x2="91.0215" y2="46.8715" gradientUnits="userSpaceOnUse">
<stop stop-color="white"/>
<stop offset="1" stop-color="white" stop-opacity="0.2"/>
</linearGradient>
</defs>
</svg>
