<svg width="112" height="112" viewBox="0 0 112 112" fill="none" xmlns="http://www.w3.org/2000/svg">
<rect width="112" height="112" rx="56" fill="white"/>
<circle cx="56.0002" cy="56.0005" r="49.8909" fill="url(#paint0_linear_12734_111273)" fill-opacity="0.4"/>
<path d="M58.5663 53.8069C53.0288 48.2694 50.2601 45.5006 50.2601 42.0601C50.2601 38.6195 53.0288 35.8508 58.5663 30.3133L59.0133 29.8663C64.5508 24.3288 67.3195 21.5601 70.7601 21.5601C74.2006 21.5601 76.9694 24.3288 82.5069 29.8663L82.9538 30.3133C88.4913 35.8508 91.2601 38.6195 91.2601 42.0601C91.2601 45.5006 88.4913 48.2694 82.9538 53.8069L82.5069 54.2538C76.9694 59.7913 74.2006 62.5601 70.7601 62.5601C67.3195 62.5601 64.5508 59.7913 59.0133 54.2538L58.5663 53.8069Z" fill="url(#paint1_linear_12734_111273)"/>
<g filter="url(#filter0_b_12734_111273)">
<path fill-rule="evenodd" clip-rule="evenodd" d="M53.6638 30.1699C58.6836 30.1699 62.6185 30.1699 65.7404 30.5081C68.9262 30.8533 71.5075 31.5703 73.7114 33.1715C75.0457 34.1409 76.2191 35.3143 77.1885 36.6486C78.7897 38.8525 79.5067 41.4338 79.8519 44.6196C80.1901 47.7414 80.1901 51.6764 80.1901 56.6962V56.9439C80.1901 61.9636 80.1901 65.8984 79.8519 69.0202C79.5067 72.206 78.7897 74.7873 77.1885 76.9913C76.2191 78.3255 75.0457 79.4989 73.7114 80.4683C71.5075 82.0696 68.9262 82.7866 65.7404 83.1317C62.6186 83.47 58.6836 83.4699 53.6638 83.4699H53.4161C48.3964 83.4699 44.4616 83.47 41.3398 83.1317C38.154 82.7866 35.5727 82.0696 33.3687 80.4683C32.0345 79.4989 30.8611 78.3255 29.8917 76.9913C28.2904 74.7873 27.5734 72.206 27.2283 69.0202C26.89 65.8984 26.8901 61.9635 26.8901 56.9436V56.6962C26.8901 51.6764 26.89 47.7415 27.2283 44.6196C27.5734 41.4338 28.2904 38.8525 29.8917 36.6486C30.8611 35.3143 32.0345 34.1409 33.3687 33.1715C35.5727 31.5703 38.154 30.8533 41.3398 30.5081C44.4616 30.1699 48.3965 30.1699 53.4164 30.1699H53.6638Z" fill="#875CD7" fill-opacity="0.35"/>
<path d="M65.7845 30.1005C62.6407 29.7599 58.6877 29.7599 53.688 29.7599L53.6638 29.7599H53.4164L53.3922 29.7599C48.3924 29.7599 44.4395 29.7599 41.2956 30.1005C38.0749 30.4494 35.4132 31.1793 33.1277 32.8398C31.7587 33.8345 30.5547 35.0385 29.56 36.4076C27.8995 38.6931 27.1696 41.3548 26.8207 44.5755C26.48 47.7193 26.4801 51.6723 26.4801 56.672L26.4801 56.6962V56.9436L26.4801 56.9678C26.4801 61.9675 26.48 65.9205 26.8207 69.0644C27.1696 72.2851 27.8995 74.9468 29.56 77.2323C30.5547 78.6013 31.7587 79.8053 33.1277 80.8C35.4132 82.4605 38.0749 83.1904 41.2956 83.5393C44.4395 83.88 48.3924 83.8799 53.3921 83.8799H53.4161H53.6638H53.6878C58.6875 83.8799 62.6407 83.88 65.7845 83.5393C69.0052 83.1904 71.6669 82.4605 73.9524 80.8C75.3215 79.8053 76.5255 78.6013 77.5202 77.2323C79.1807 74.9468 79.9106 72.2851 80.2595 69.0644C80.6001 65.9205 80.6001 61.9676 80.6001 56.9679V56.9439V56.6962V56.6722C80.6001 51.6725 80.6001 47.7193 80.2595 44.5755C79.9106 41.3548 79.1807 38.6931 77.5202 36.4076C76.5255 35.0385 75.3215 33.8345 73.9524 32.8398C71.6669 31.1793 69.0052 30.4494 65.7845 30.1005Z" stroke="url(#paint2_linear_12734_111273)" stroke-width="0.82" stroke-linecap="round"/>
</g>
<g filter="url(#filter1_d_12734_111273)">
<path d="M48.9817 62.0711C50.3221 61.8925 51.552 61.3644 52.5767 60.5815L55.4584 63.4632C53.6757 64.9612 51.4376 65.9348 48.9817 66.1463V62.0711ZM46.9558 62.0711V66.1463C44.4999 65.9348 42.2617 64.9612 40.479 63.4632L43.3607 60.5815C44.3855 61.3644 45.6154 61.8925 46.9558 62.0711ZM41.9282 59.1489L39.0465 62.0306C37.5485 60.2479 36.5749 58.0098 36.3633 55.5539H40.4386C40.6172 56.8943 41.1453 58.1242 41.9282 59.1489ZM40.4386 53.528H36.3633C36.5749 51.0721 37.5485 48.8339 39.0465 47.0512L41.9282 49.9329C41.1453 50.9577 40.6172 52.1876 40.4386 53.528ZM43.3607 48.5004L40.479 45.6187C42.2617 44.1207 44.4999 43.1471 46.9558 42.9355V47.0108C45.6154 47.1894 44.3855 47.7175 43.3607 48.5004ZM48.9817 47.0108V42.9355C51.4376 43.1471 53.6757 44.1207 55.4584 45.6187L52.5767 48.5004C51.552 47.7175 50.3221 47.1894 48.9817 47.0108ZM54.0093 49.9329L56.8909 47.0512C58.389 48.8339 59.3626 51.0721 59.5741 53.528H55.4989C55.3203 52.1876 54.7922 50.9577 54.0093 49.9329ZM55.4989 55.5539H59.5741C59.3626 58.0098 58.389 60.2479 56.8909 62.0306L54.0093 59.1489C54.7922 58.1242 55.3203 56.8943 55.4989 55.5539ZM63.7191 65.1397L66.6008 68.0214C64.8181 69.5194 62.58 70.493 60.124 70.7046V66.6293C61.4644 66.4507 62.6943 65.9226 63.7191 65.1397ZM65.1516 63.7072C65.9345 62.6824 66.4626 61.4525 66.6412 60.1121H70.7165C70.5049 62.5681 69.5313 64.8062 68.0333 66.5889L65.1516 63.7072ZM65.1516 54.4912L68.0333 51.6095C69.5313 53.3922 70.5049 55.6303 70.7165 58.0862H66.6412C66.4626 56.7459 65.9345 55.5159 65.1516 54.4912ZM63.7191 53.0587C62.8768 52.4151 61.896 51.9438 60.8291 51.6972C60.4917 50.1644 59.8872 48.7317 59.0669 47.4504C59.0817 47.4504 59.0964 47.4503 59.1111 47.4503C61.9631 47.4503 64.5758 48.4753 66.6008 50.177L63.7191 53.0587ZM58.0981 66.6293V70.7043C55.354 70.4668 52.8263 69.2714 50.9152 67.3783C52.4447 67.0286 53.8728 66.4127 55.1479 65.5819C56.0289 66.1216 57.0283 66.4868 58.0981 66.6293ZM56.9024 64.2153C59.5063 61.8096 61.137 58.3657 61.137 54.5409C61.137 54.3267 61.1318 54.1136 61.1217 53.9019C63.205 54.7083 64.6823 56.7312 64.6823 59.0992C64.6823 62.176 62.188 64.6703 59.1111 64.6703C58.3264 64.6703 57.5796 64.5081 56.9024 64.2153ZM47.9687 60.1121C44.8919 60.1121 42.3976 57.6178 42.3976 54.5409C42.3976 51.4641 44.8919 48.9698 47.9687 48.9698C51.0456 48.9698 53.5399 51.4641 53.5399 54.5409C53.5399 57.6178 51.0456 60.1121 47.9687 60.1121Z" fill="url(#paint3_linear_12734_111273)"/>
</g>
<defs>
<filter id="filter0_b_12734_111273" x="2.07007" y="5.34985" width="102.94" height="102.94" filterUnits="userSpaceOnUse" color-interpolation-filters="sRGB">
<feFlood flood-opacity="0" result="BackgroundImageFix"/>
<feGaussianBlur in="BackgroundImageFix" stdDeviation="12"/>
<feComposite in2="SourceAlpha" operator="in" result="effect1_backgroundBlur_12734_111273"/>
<feBlend mode="normal" in="SourceGraphic" in2="effect1_backgroundBlur_12734_111273" result="shape"/>
</filter>
<filter id="filter1_d_12734_111273" x="33.9033" y="40.4755" width="47.4731" height="40.889" filterUnits="userSpaceOnUse" color-interpolation-filters="sRGB">
<feFlood flood-opacity="0" result="BackgroundImageFix"/>
<feColorMatrix in="SourceAlpha" type="matrix" values="0 0 0 0 0 0 0 0 0 0 0 0 0 0 0 0 0 0 127 0" result="hardAlpha"/>
<feOffset dx="4.1" dy="4.1"/>
<feGaussianBlur stdDeviation="3.28"/>
<feColorMatrix type="matrix" values="0 0 0 0 0.376471 0 0 0 0 0.156863 0 0 0 0 0.811765 0 0 0 0.5 0"/>
<feBlend mode="normal" in2="BackgroundImageFix" result="effect1_dropShadow_12734_111273"/>
<feBlend mode="normal" in="SourceGraphic" in2="effect1_dropShadow_12734_111273" result="shape"/>
</filter>
<linearGradient id="paint0_linear_12734_111273" x1="56.0002" y1="6.10962" x2="56.0002" y2="105.891" gradientUnits="userSpaceOnUse">
<stop stop-color="#4F2ED3"/>
<stop offset="0.9999" stop-color="#4F2ED3" stop-opacity="0.0104167"/>
<stop offset="1" stop-color="#8A50E6" stop-opacity="0"/>
</linearGradient>
<linearGradient id="paint1_linear_12734_111273" x1="50.2601" y1="62.5601" x2="92.1337" y2="22.4726" gradientUnits="userSpaceOnUse">
<stop stop-color="#4C2094"/>
<stop offset="1" stop-color="#712EFF"/>
</linearGradient>
<linearGradient id="paint2_linear_12734_111273" x1="26.8901" y1="30.1699" x2="80.2171" y2="83.4429" gradientUnits="userSpaceOnUse">
<stop stop-color="white" stop-opacity="0.25"/>
<stop offset="1" stop-color="white" stop-opacity="0"/>
</linearGradient>
<linearGradient id="paint3_linear_12734_111273" x1="53.8292" y1="76.6206" x2="91.4607" y2="30.986" gradientUnits="userSpaceOnUse">
<stop stop-color="white"/>
<stop offset="1" stop-color="white" stop-opacity="0.2"/>
</linearGradient>
</defs>
</svg>
