<svg width="112" height="112" viewBox="0 0 112 112" fill="none" xmlns="http://www.w3.org/2000/svg">
<rect width="112" height="112" rx="56" fill="white"/>
<circle cx="56.0002" cy="56.0005" r="49.8909" fill="url(#paint0_linear_12734_111286)" fill-opacity="0.4"/>
<path d="M58.5663 53.8069C53.0288 48.2694 50.26 45.5006 50.26 42.0601C50.26 38.6195 53.0288 35.8508 58.5662 30.3133L59.0132 29.8663C64.5507 24.3288 67.3195 21.5601 70.76 21.5601C74.2006 21.5601 76.9693 24.3288 82.5068 29.8663L82.9538 30.3133C88.4913 35.8508 91.26 38.6195 91.26 42.0601C91.26 45.5006 88.4913 48.2694 82.9538 53.8069L82.5068 54.2538C76.9693 59.7913 74.2006 62.5601 70.76 62.5601C67.3195 62.5601 64.5507 59.7913 59.0132 54.2538L58.5663 53.8069Z" fill="url(#paint1_linear_12734_111286)"/>
<g filter="url(#filter0_b_12734_111286)">
<path fill-rule="evenodd" clip-rule="evenodd" d="M53.6638 30.1699C58.6836 30.1699 62.6185 30.1699 65.7404 30.5081C68.9262 30.8533 71.5075 31.5703 73.7114 33.1715C75.0457 34.1409 76.2191 35.3143 77.1885 36.6486C78.7897 38.8525 79.5067 41.4338 79.8519 44.6196C80.1901 47.7414 80.1901 51.6764 80.1901 56.6962V56.9439C80.1901 61.9636 80.1901 65.8984 79.8519 69.0202C79.5067 72.206 78.7897 74.7873 77.1885 76.9913C76.2191 78.3255 75.0457 79.4989 73.7114 80.4683C71.5075 82.0696 68.9262 82.7866 65.7404 83.1317C62.6186 83.47 58.6836 83.4699 53.6638 83.4699H53.4161C48.3964 83.4699 44.4616 83.47 41.3398 83.1317C38.154 82.7866 35.5727 82.0696 33.3687 80.4683C32.0345 79.4989 30.8611 78.3255 29.8917 76.9913C28.2904 74.7873 27.5734 72.206 27.2283 69.0202C26.89 65.8984 26.8901 61.9635 26.8901 56.9436V56.6962C26.8901 51.6764 26.89 47.7415 27.2283 44.6196C27.5734 41.4338 28.2904 38.8525 29.8917 36.6486C30.8611 35.3143 32.0345 34.1409 33.3687 33.1715C35.5727 31.5703 38.154 30.8533 41.3398 30.5081C44.4616 30.1699 48.3965 30.1699 53.4164 30.1699H53.6638Z" fill="#875CD7" fill-opacity="0.35"/>
<path d="M65.7845 30.1005C62.6407 29.7599 58.6877 29.7599 53.688 29.7599L53.6638 29.7599H53.4164L53.3922 29.7599C48.3924 29.7599 44.4395 29.7599 41.2956 30.1005C38.0749 30.4494 35.4132 31.1793 33.1277 32.8398C31.7587 33.8345 30.5547 35.0385 29.56 36.4076C27.8995 38.6931 27.1696 41.3548 26.8207 44.5755C26.48 47.7193 26.4801 51.6723 26.4801 56.672L26.4801 56.6962V56.9436L26.4801 56.9678C26.4801 61.9675 26.48 65.9205 26.8207 69.0644C27.1696 72.2851 27.8995 74.9468 29.56 77.2323C30.5547 78.6013 31.7587 79.8053 33.1277 80.8C35.4132 82.4605 38.0749 83.1904 41.2956 83.5393C44.4395 83.88 48.3924 83.8799 53.3921 83.8799H53.4161H53.6638H53.6878C58.6875 83.8799 62.6407 83.88 65.7845 83.5393C69.0052 83.1904 71.6669 82.4605 73.9524 80.8C75.3215 79.8053 76.5255 78.6013 77.5202 77.2323C79.1807 74.9468 79.9106 72.2851 80.2595 69.0644C80.6001 65.9205 80.6001 61.9676 80.6001 56.9679V56.9439V56.6962V56.6722C80.6001 51.6725 80.6001 47.7193 80.2595 44.5755C79.9106 41.3548 79.1807 38.6931 77.5202 36.4076C76.5255 35.0385 75.3215 33.8345 73.9524 32.8398C71.6669 31.1793 69.0052 30.4494 65.7845 30.1005Z" stroke="url(#paint2_linear_12734_111286)" stroke-width="0.82" stroke-linecap="round"/>
</g>
<g filter="url(#filter1_d_12734_111286)">
<path d="M67.8264 42.6401L55.458 40.4592C54.0669 40.2139 52.7403 41.1428 52.495 42.5339L52.3779 43.1978C54.1666 43.4182 55.6778 44.7067 56.1536 46.4822L56.9095 49.3032C57.3097 49.1297 57.7633 49.0672 58.2251 49.1486C59.1013 49.3031 59.7735 49.9337 60.0239 50.7272C60.5307 50.0672 61.378 49.7045 62.2542 49.859C63.5082 50.0802 64.3456 51.276 64.1244 52.5301C63.644 55.2549 60.72 57.445 59.3323 58.3458L61.4509 66.2526C61.5645 66.6764 61.6118 67.1024 61.6014 67.5204L63.3839 67.8346C64.775 68.0799 66.1016 67.151 66.3469 65.7599L69.9011 45.6032C70.1464 44.212 69.2175 42.8854 67.8264 42.6401Z" fill="url(#paint3_linear_12734_111286)"/>
</g>
<g filter="url(#filter2_d_12734_111286)">
<path d="M54.3005 46.9789C53.9943 45.8362 52.9609 45.0825 51.8315 45.0825C51.6124 45.0825 51.3896 45.1109 51.1679 45.1703L39.0367 48.4208C37.6722 48.7864 36.8624 50.1889 37.228 51.5534L42.5254 71.3237C42.8317 72.4664 43.865 73.2201 44.9944 73.2201C45.2135 73.2201 45.4363 73.1917 45.658 73.1323L57.7892 69.8817C59.1537 69.5161 59.9634 68.1136 59.5978 66.7491L54.3005 46.9789ZM44.8604 60.4929C44.6547 60.312 44.5779 60.0252 44.6656 59.7656L46.5206 54.2731C46.6757 53.8136 47.2486 53.6601 47.6127 53.9804L51.9655 57.8097C52.1712 57.9907 52.248 58.2775 52.1604 58.537L50.3054 64.0296C50.1502 64.489 49.5774 64.6426 49.2132 64.3222L44.8604 60.4929Z" fill="url(#paint4_linear_12734_111286)"/>
</g>
<defs>
<filter id="filter0_b_12734_111286" x="2.07007" y="5.34985" width="102.94" height="102.94" filterUnits="userSpaceOnUse" color-interpolation-filters="sRGB">
<feFlood flood-opacity="0" result="BackgroundImageFix"/>
<feGaussianBlur in="BackgroundImageFix" stdDeviation="12"/>
<feComposite in2="SourceAlpha" operator="in" result="effect1_backgroundBlur_12734_111286"/>
<feBlend mode="normal" in="SourceGraphic" in2="effect1_backgroundBlur_12734_111286" result="shape"/>
</filter>
<filter id="filter1_d_12734_111286" x="49.9179" y="37.9599" width="30.6825" height="40.5741" filterUnits="userSpaceOnUse" color-interpolation-filters="sRGB">
<feFlood flood-opacity="0" result="BackgroundImageFix"/>
<feColorMatrix in="SourceAlpha" type="matrix" values="0 0 0 0 0 0 0 0 0 0 0 0 0 0 0 0 0 0 127 0" result="hardAlpha"/>
<feOffset dx="4.1" dy="4.1"/>
<feGaussianBlur stdDeviation="3.28"/>
<feColorMatrix type="matrix" values="0 0 0 0 0.376471 0 0 0 0 0.156863 0 0 0 0 0.811765 0 0 0 0.5 0"/>
<feBlend mode="normal" in2="BackgroundImageFix" result="effect1_dropShadow_12734_111286"/>
<feBlend mode="normal" in="SourceGraphic" in2="effect1_dropShadow_12734_111286" result="shape"/>
</filter>
<filter id="filter2_d_12734_111286" x="34.6803" y="42.6225" width="35.6654" height="41.2575" filterUnits="userSpaceOnUse" color-interpolation-filters="sRGB">
<feFlood flood-opacity="0" result="BackgroundImageFix"/>
<feColorMatrix in="SourceAlpha" type="matrix" values="0 0 0 0 0 0 0 0 0 0 0 0 0 0 0 0 0 0 127 0" result="hardAlpha"/>
<feOffset dx="4.1" dy="4.1"/>
<feGaussianBlur stdDeviation="3.28"/>
<feColorMatrix type="matrix" values="0 0 0 0 0.376471 0 0 0 0 0.156863 0 0 0 0 0.811765 0 0 0 0.5 0"/>
<feBlend mode="normal" in2="BackgroundImageFix" result="effect1_dropShadow_12734_111286"/>
<feBlend mode="normal" in="SourceGraphic" in2="effect1_dropShadow_12734_111286" result="shape"/>
</filter>
<linearGradient id="paint0_linear_12734_111286" x1="56.0002" y1="6.10962" x2="56.0002" y2="105.891" gradientUnits="userSpaceOnUse">
<stop stop-color="#4F2ED3"/>
<stop offset="0.9999" stop-color="#4F2ED3" stop-opacity="0.0104167"/>
<stop offset="1" stop-color="#8A50E6" stop-opacity="0"/>
</linearGradient>
<linearGradient id="paint1_linear_12734_111286" x1="50.26" y1="62.5601" x2="92.1336" y2="22.4726" gradientUnits="userSpaceOnUse">
<stop stop-color="#4C2094"/>
<stop offset="1" stop-color="#712EFF"/>
</linearGradient>
<linearGradient id="paint2_linear_12734_111286" x1="26.8901" y1="30.1699" x2="80.2171" y2="83.4429" gradientUnits="userSpaceOnUse">
<stop stop-color="white" stop-opacity="0.25"/>
<stop offset="1" stop-color="white" stop-opacity="0"/>
</linearGradient>
<linearGradient id="paint3_linear_12734_111286" x1="61.307" y1="73.7228" x2="95.4223" y2="52.3303" gradientUnits="userSpaceOnUse">
<stop stop-color="white"/>
<stop offset="1" stop-color="white" stop-opacity="0.2"/>
</linearGradient>
<linearGradient id="paint4_linear_12734_111286" x1="48.6028" y1="79.2146" x2="86.3388" y2="49.5756" gradientUnits="userSpaceOnUse">
<stop stop-color="white"/>
<stop offset="1" stop-color="white" stop-opacity="0.2"/>
</linearGradient>
</defs>
</svg>
