<svg width="112" height="112" viewBox="0 0 112 112" fill="none" xmlns="http://www.w3.org/2000/svg">
<rect width="112" height="112" rx="56" fill="white"/>
<circle cx="56.0002" cy="56.0005" r="49.8909" fill="url(#paint0_linear_12734_111308)" fill-opacity="0.4"/>
<path d="M58.5663 53.8069C53.0288 48.2694 50.26 45.5006 50.26 42.0601C50.26 38.6195 53.0288 35.8508 58.5662 30.3133L59.0132 29.8663C64.5507 24.3288 67.3195 21.5601 70.76 21.5601C74.2006 21.5601 76.9693 24.3288 82.5068 29.8663L82.9538 30.3133C88.4913 35.8508 91.26 38.6195 91.26 42.0601C91.26 45.5006 88.4913 48.2694 82.9538 53.8069L82.5068 54.2538C76.9693 59.7913 74.2006 62.5601 70.76 62.5601C67.3195 62.5601 64.5507 59.7913 59.0132 54.2538L58.5663 53.8069Z" fill="url(#paint1_linear_12734_111308)"/>
<g filter="url(#filter0_b_12734_111308)">
<path fill-rule="evenodd" clip-rule="evenodd" d="M53.6637 30.1699C58.6836 30.1699 62.6185 30.1699 65.7403 30.5081C68.9261 30.8533 71.5074 31.5703 73.7114 33.1715C75.0456 34.1409 76.219 35.3143 77.1884 36.6486C78.7897 38.8525 79.5067 41.4338 79.8518 44.6196C80.19 47.7414 80.19 51.6764 80.19 56.6962V56.9439C80.19 61.9636 80.19 65.8984 79.8518 69.0202C79.5067 72.206 78.7897 74.7873 77.1884 76.9913C76.219 78.3255 75.0456 79.4989 73.7114 80.4683C71.5074 82.0696 68.9261 82.7866 65.7403 83.1317C62.6185 83.47 58.6835 83.4699 53.6638 83.4699H53.4161C48.3963 83.4699 44.4615 83.47 41.3397 83.1317C38.1539 82.7866 35.5726 82.0696 33.3687 80.4683C32.0344 79.4989 30.861 78.3255 29.8916 76.9913C28.2904 74.7873 27.5734 72.206 27.2282 69.0202C26.89 65.8984 26.89 61.9635 26.89 56.9436V56.6962C26.89 51.6764 26.89 47.7415 27.2282 44.6196C27.5734 41.4338 28.2904 38.8525 29.8916 36.6486C30.861 35.3143 32.0344 34.1409 33.3687 33.1715C35.5726 31.5703 38.1539 30.8533 41.3397 30.5081C44.4615 30.1699 48.3965 30.1699 53.4163 30.1699H53.6637Z" fill="#875CD7" fill-opacity="0.35"/>
<path d="M65.7845 30.1005C62.6406 29.7599 58.6876 29.7599 53.6879 29.7599L53.6637 29.7599H53.4163L53.3921 29.7599C48.3924 29.7599 44.4394 29.7599 41.2956 30.1005C38.0749 30.4494 35.4132 31.1793 33.1277 32.8398C31.7586 33.8345 30.5546 35.0385 29.5599 36.4076C27.8994 38.6931 27.1695 41.3548 26.8206 44.5755C26.48 47.7193 26.48 51.6723 26.48 56.672L26.48 56.6962V56.9436L26.48 56.9678C26.48 61.9675 26.48 65.9205 26.8206 69.0644C27.1695 72.2851 27.8994 74.9468 29.5599 77.2323C30.5546 78.6013 31.7586 79.8053 33.1277 80.8C35.4132 82.4605 38.0749 83.1904 41.2956 83.5393C44.4394 83.88 48.3924 83.8799 53.3921 83.8799H53.4161H53.6638H53.6878C58.6875 83.8799 62.6406 83.88 65.7845 83.5393C69.0052 83.1904 71.6669 82.4605 73.9524 80.8C75.3214 79.8053 76.5254 78.6013 77.5201 77.2323C79.1806 74.9468 79.9105 72.2851 80.2594 69.0644C80.6001 65.9205 80.6 61.9676 80.6 56.9679V56.9439V56.6962V56.6722C80.6 51.6725 80.6001 47.7193 80.2594 44.5755C79.9105 41.3548 79.1806 38.6931 77.5201 36.4076C76.5254 35.0385 75.3214 33.8345 73.9524 32.8398C71.6669 31.1793 69.0052 30.4494 65.7845 30.1005Z" stroke="url(#paint2_linear_12734_111308)" stroke-width="0.82" stroke-linecap="round"/>
</g>
<g filter="url(#filter1_d_12734_111308)">
<path d="M45.6692 55.5388H37.9598C38.1072 57.6146 38.7045 59.568 39.6549 61.3021C42.7384 60.9759 45.2151 58.5833 45.6692 55.5388Z" fill="url(#paint3_linear_12734_111308)"/>
</g>
<g filter="url(#filter2_d_12734_111308)">
<path d="M39.6549 47.7576C38.7045 49.4917 38.1072 51.4451 37.9598 53.5209H45.6692C45.2151 50.4765 42.7384 48.0838 39.6549 47.7576Z" fill="url(#paint4_linear_12734_111308)"/>
</g>
<g filter="url(#filter3_d_12734_111308)">
<path d="M40.8604 45.9135C44.4853 46.7228 47.2755 49.7679 47.7046 53.5206H51.0518V40.4287C46.9095 40.7221 43.255 42.8086 40.8604 45.9135Z" fill="url(#paint5_linear_12734_111308)"/>
</g>
<g filter="url(#filter4_d_12734_111308)">
<path d="M40.8604 63.1459C43.255 66.2509 46.9095 68.3374 51.0518 68.6307V55.5388H47.7046C47.2755 59.2909 44.4853 62.336 40.8604 63.1459Z" fill="url(#paint6_linear_12734_111308)"/>
</g>
<g filter="url(#filter5_d_12734_111308)">
<path d="M63.2612 45.9135C60.8666 42.8086 57.212 40.722 53.0698 40.4287V53.5206H56.417C56.8454 49.7679 59.6363 46.7228 63.2612 45.9135Z" fill="url(#paint7_linear_12734_111308)"/>
</g>
<g filter="url(#filter6_d_12734_111308)">
<path d="M53.0698 55.5386V68.6305C54.8725 68.5027 56.6228 68.0345 58.2372 67.2482V61.7546C58.2372 61.2824 58.3623 60.829 58.6044 60.4046C57.4192 59.0788 56.6288 57.3951 56.417 55.5386H53.0698Z" fill="url(#paint8_linear_12734_111308)"/>
</g>
<g filter="url(#filter7_d_12734_111308)">
<path d="M65.8962 57.4489C66.028 56.8213 66.1168 56.1837 66.1619 55.5386H58.4519C58.6456 56.8408 59.21 58.0234 60.0347 58.9765C60.2923 58.8097 60.5762 58.6536 60.8856 58.509C62.2517 57.87 64.0168 57.498 65.8962 57.4489Z" fill="url(#paint9_linear_12734_111308)"/>
</g>
<g filter="url(#filter8_d_12734_111308)">
<path d="M58.4519 53.5209H66.1619C66.0146 51.4451 65.4173 49.4917 64.4668 47.7576C61.3827 48.0838 58.9059 50.4765 58.4519 53.5209Z" fill="url(#paint10_linear_12734_111308)"/>
</g>
<g filter="url(#filter9_d_12734_111308)">
<path d="M71.6603 64.9604C70.219 65.6346 68.3252 66.006 66.3277 66.006C64.3301 66.006 62.4362 65.6346 60.995 64.9604C60.7213 64.8323 60.4757 64.6994 60.2552 64.5632V67.2492C60.4087 67.6978 60.9375 68.1743 61.734 68.5673C62.9266 69.1556 64.6009 69.493 66.3277 69.493C68.0544 69.493 69.7287 69.1556 70.9212 68.5673C71.7178 68.1743 72.2466 67.6977 72.4001 67.2491V64.5632C72.1796 64.6994 71.934 64.8324 71.6603 64.9604Z" fill="url(#paint11_linear_12734_111308)"/>
</g>
<g filter="url(#filter10_d_12734_111308)">
<path d="M60.3994 61.7517C60.3994 62.1849 60.9552 62.7141 61.8498 63.1327C63.0119 63.6764 64.6439 63.9882 66.3273 63.9882C68.0108 63.9882 69.6428 63.6763 70.8048 63.1327C71.6994 62.7141 72.2552 62.185 72.2552 61.7517C72.2552 61.3183 71.6994 60.7891 70.8048 60.3706C69.6428 59.8269 68.0108 59.5151 66.3273 59.5151C64.6439 59.5151 63.0119 59.827 61.8498 60.3706C60.9552 60.7892 60.3994 61.3184 60.3994 61.7517Z" fill="url(#paint12_linear_12734_111308)"/>
</g>
<g filter="url(#filter11_d_12734_111308)">
<path d="M66.3272 71.511C64.2716 71.511 62.3232 71.1082 60.8408 70.3771C60.6341 70.2751 60.4387 70.1678 60.2548 70.0557V72.01C60.2548 73.579 62.9734 74.851 66.3272 74.851C69.6808 74.851 72.3996 73.579 72.3996 72.01V70.0557C72.2156 70.1678 72.0202 70.2751 71.8135 70.3771C70.3312 71.1082 68.3829 71.511 66.3272 71.511Z" fill="url(#paint13_linear_12734_111308)"/>
</g>
<defs>
<filter id="filter0_b_12734_111308" x="2.07007" y="5.34985" width="102.94" height="102.94" filterUnits="userSpaceOnUse" color-interpolation-filters="sRGB">
<feFlood flood-opacity="0" result="BackgroundImageFix"/>
<feGaussianBlur in="BackgroundImageFix" stdDeviation="12"/>
<feComposite in2="SourceAlpha" operator="in" result="effect1_backgroundBlur_12734_111308"/>
<feBlend mode="normal" in="SourceGraphic" in2="effect1_backgroundBlur_12734_111308" result="shape"/>
</filter>
<filter id="filter1_d_12734_111308" x="35.4998" y="53.0788" width="20.8293" height="18.8834" filterUnits="userSpaceOnUse" color-interpolation-filters="sRGB">
<feFlood flood-opacity="0" result="BackgroundImageFix"/>
<feColorMatrix in="SourceAlpha" type="matrix" values="0 0 0 0 0 0 0 0 0 0 0 0 0 0 0 0 0 0 127 0" result="hardAlpha"/>
<feOffset dx="4.1" dy="4.1"/>
<feGaussianBlur stdDeviation="3.28"/>
<feColorMatrix type="matrix" values="0 0 0 0 0.376471 0 0 0 0 0.156863 0 0 0 0 0.811765 0 0 0 0.5 0"/>
<feBlend mode="normal" in2="BackgroundImageFix" result="effect1_dropShadow_12734_111308"/>
<feBlend mode="normal" in="SourceGraphic" in2="effect1_dropShadow_12734_111308" result="shape"/>
</filter>
<filter id="filter2_d_12734_111308" x="35.4998" y="45.2976" width="20.8293" height="18.8834" filterUnits="userSpaceOnUse" color-interpolation-filters="sRGB">
<feFlood flood-opacity="0" result="BackgroundImageFix"/>
<feColorMatrix in="SourceAlpha" type="matrix" values="0 0 0 0 0 0 0 0 0 0 0 0 0 0 0 0 0 0 127 0" result="hardAlpha"/>
<feOffset dx="4.1" dy="4.1"/>
<feGaussianBlur stdDeviation="3.28"/>
<feColorMatrix type="matrix" values="0 0 0 0 0.376471 0 0 0 0 0.156863 0 0 0 0 0.811765 0 0 0 0.5 0"/>
<feBlend mode="normal" in2="BackgroundImageFix" result="effect1_dropShadow_12734_111308"/>
<feBlend mode="normal" in="SourceGraphic" in2="effect1_dropShadow_12734_111308" result="shape"/>
</filter>
<filter id="filter3_d_12734_111308" x="38.4004" y="37.9687" width="23.3114" height="26.2118" filterUnits="userSpaceOnUse" color-interpolation-filters="sRGB">
<feFlood flood-opacity="0" result="BackgroundImageFix"/>
<feColorMatrix in="SourceAlpha" type="matrix" values="0 0 0 0 0 0 0 0 0 0 0 0 0 0 0 0 0 0 127 0" result="hardAlpha"/>
<feOffset dx="4.1" dy="4.1"/>
<feGaussianBlur stdDeviation="3.28"/>
<feColorMatrix type="matrix" values="0 0 0 0 0.376471 0 0 0 0 0.156863 0 0 0 0 0.811765 0 0 0 0.5 0"/>
<feBlend mode="normal" in2="BackgroundImageFix" result="effect1_dropShadow_12734_111308"/>
<feBlend mode="normal" in="SourceGraphic" in2="effect1_dropShadow_12734_111308" result="shape"/>
</filter>
<filter id="filter4_d_12734_111308" x="38.4004" y="53.0788" width="23.3114" height="26.2118" filterUnits="userSpaceOnUse" color-interpolation-filters="sRGB">
<feFlood flood-opacity="0" result="BackgroundImageFix"/>
<feColorMatrix in="SourceAlpha" type="matrix" values="0 0 0 0 0 0 0 0 0 0 0 0 0 0 0 0 0 0 127 0" result="hardAlpha"/>
<feOffset dx="4.1" dy="4.1"/>
<feGaussianBlur stdDeviation="3.28"/>
<feColorMatrix type="matrix" values="0 0 0 0 0.376471 0 0 0 0 0.156863 0 0 0 0 0.811765 0 0 0 0.5 0"/>
<feBlend mode="normal" in2="BackgroundImageFix" result="effect1_dropShadow_12734_111308"/>
<feBlend mode="normal" in="SourceGraphic" in2="effect1_dropShadow_12734_111308" result="shape"/>
</filter>
<filter id="filter5_d_12734_111308" x="50.6098" y="37.9687" width="23.3114" height="26.2118" filterUnits="userSpaceOnUse" color-interpolation-filters="sRGB">
<feFlood flood-opacity="0" result="BackgroundImageFix"/>
<feColorMatrix in="SourceAlpha" type="matrix" values="0 0 0 0 0 0 0 0 0 0 0 0 0 0 0 0 0 0 127 0" result="hardAlpha"/>
<feOffset dx="4.1" dy="4.1"/>
<feGaussianBlur stdDeviation="3.28"/>
<feColorMatrix type="matrix" values="0 0 0 0 0.376471 0 0 0 0 0.156863 0 0 0 0 0.811765 0 0 0 0.5 0"/>
<feBlend mode="normal" in2="BackgroundImageFix" result="effect1_dropShadow_12734_111308"/>
<feBlend mode="normal" in="SourceGraphic" in2="effect1_dropShadow_12734_111308" result="shape"/>
</filter>
<filter id="filter6_d_12734_111308" x="50.6098" y="53.0786" width="18.6547" height="26.2118" filterUnits="userSpaceOnUse" color-interpolation-filters="sRGB">
<feFlood flood-opacity="0" result="BackgroundImageFix"/>
<feColorMatrix in="SourceAlpha" type="matrix" values="0 0 0 0 0 0 0 0 0 0 0 0 0 0 0 0 0 0 127 0" result="hardAlpha"/>
<feOffset dx="4.1" dy="4.1"/>
<feGaussianBlur stdDeviation="3.28"/>
<feColorMatrix type="matrix" values="0 0 0 0 0.376471 0 0 0 0 0.156863 0 0 0 0 0.811765 0 0 0 0.5 0"/>
<feBlend mode="normal" in2="BackgroundImageFix" result="effect1_dropShadow_12734_111308"/>
<feBlend mode="normal" in="SourceGraphic" in2="effect1_dropShadow_12734_111308" result="shape"/>
</filter>
<filter id="filter7_d_12734_111308" x="55.9919" y="53.0786" width="20.83" height="16.558" filterUnits="userSpaceOnUse" color-interpolation-filters="sRGB">
<feFlood flood-opacity="0" result="BackgroundImageFix"/>
<feColorMatrix in="SourceAlpha" type="matrix" values="0 0 0 0 0 0 0 0 0 0 0 0 0 0 0 0 0 0 127 0" result="hardAlpha"/>
<feOffset dx="4.1" dy="4.1"/>
<feGaussianBlur stdDeviation="3.28"/>
<feColorMatrix type="matrix" values="0 0 0 0 0.376471 0 0 0 0 0.156863 0 0 0 0 0.811765 0 0 0 0.5 0"/>
<feBlend mode="normal" in2="BackgroundImageFix" result="effect1_dropShadow_12734_111308"/>
<feBlend mode="normal" in="SourceGraphic" in2="effect1_dropShadow_12734_111308" result="shape"/>
</filter>
<filter id="filter8_d_12734_111308" x="55.9919" y="45.2976" width="20.83" height="18.8834" filterUnits="userSpaceOnUse" color-interpolation-filters="sRGB">
<feFlood flood-opacity="0" result="BackgroundImageFix"/>
<feColorMatrix in="SourceAlpha" type="matrix" values="0 0 0 0 0 0 0 0 0 0 0 0 0 0 0 0 0 0 127 0" result="hardAlpha"/>
<feOffset dx="4.1" dy="4.1"/>
<feGaussianBlur stdDeviation="3.28"/>
<feColorMatrix type="matrix" values="0 0 0 0 0.376471 0 0 0 0 0.156863 0 0 0 0 0.811765 0 0 0 0.5 0"/>
<feBlend mode="normal" in2="BackgroundImageFix" result="effect1_dropShadow_12734_111308"/>
<feBlend mode="normal" in="SourceGraphic" in2="effect1_dropShadow_12734_111308" result="shape"/>
</filter>
<filter id="filter9_d_12734_111308" x="57.7952" y="62.1032" width="25.2648" height="18.0497" filterUnits="userSpaceOnUse" color-interpolation-filters="sRGB">
<feFlood flood-opacity="0" result="BackgroundImageFix"/>
<feColorMatrix in="SourceAlpha" type="matrix" values="0 0 0 0 0 0 0 0 0 0 0 0 0 0 0 0 0 0 127 0" result="hardAlpha"/>
<feOffset dx="4.1" dy="4.1"/>
<feGaussianBlur stdDeviation="3.28"/>
<feColorMatrix type="matrix" values="0 0 0 0 0.376471 0 0 0 0 0.156863 0 0 0 0 0.811765 0 0 0 0.5 0"/>
<feBlend mode="normal" in2="BackgroundImageFix" result="effect1_dropShadow_12734_111308"/>
<feBlend mode="normal" in="SourceGraphic" in2="effect1_dropShadow_12734_111308" result="shape"/>
</filter>
<filter id="filter10_d_12734_111308" x="57.9394" y="57.0551" width="24.9757" height="17.5931" filterUnits="userSpaceOnUse" color-interpolation-filters="sRGB">
<feFlood flood-opacity="0" result="BackgroundImageFix"/>
<feColorMatrix in="SourceAlpha" type="matrix" values="0 0 0 0 0 0 0 0 0 0 0 0 0 0 0 0 0 0 127 0" result="hardAlpha"/>
<feOffset dx="4.1" dy="4.1"/>
<feGaussianBlur stdDeviation="3.28"/>
<feColorMatrix type="matrix" values="0 0 0 0 0.376471 0 0 0 0 0.156863 0 0 0 0 0.811765 0 0 0 0.5 0"/>
<feBlend mode="normal" in2="BackgroundImageFix" result="effect1_dropShadow_12734_111308"/>
<feBlend mode="normal" in="SourceGraphic" in2="effect1_dropShadow_12734_111308" result="shape"/>
</filter>
<filter id="filter11_d_12734_111308" x="57.7948" y="67.5957" width="25.2648" height="17.9154" filterUnits="userSpaceOnUse" color-interpolation-filters="sRGB">
<feFlood flood-opacity="0" result="BackgroundImageFix"/>
<feColorMatrix in="SourceAlpha" type="matrix" values="0 0 0 0 0 0 0 0 0 0 0 0 0 0 0 0 0 0 127 0" result="hardAlpha"/>
<feOffset dx="4.1" dy="4.1"/>
<feGaussianBlur stdDeviation="3.28"/>
<feColorMatrix type="matrix" values="0 0 0 0 0.376471 0 0 0 0 0.156863 0 0 0 0 0.811765 0 0 0 0.5 0"/>
<feBlend mode="normal" in2="BackgroundImageFix" result="effect1_dropShadow_12734_111308"/>
<feBlend mode="normal" in="SourceGraphic" in2="effect1_dropShadow_12734_111308" result="shape"/>
</filter>
<linearGradient id="paint0_linear_12734_111308" x1="56.0002" y1="6.10962" x2="56.0002" y2="105.891" gradientUnits="userSpaceOnUse">
<stop stop-color="#4F2ED3"/>
<stop offset="0.9999" stop-color="#4F2ED3" stop-opacity="0.0104167"/>
<stop offset="1" stop-color="#8A50E6" stop-opacity="0"/>
</linearGradient>
<linearGradient id="paint1_linear_12734_111308" x1="50.26" y1="62.5601" x2="92.1336" y2="22.4726" gradientUnits="userSpaceOnUse">
<stop stop-color="#4C2094"/>
<stop offset="1" stop-color="#712EFF"/>
</linearGradient>
<linearGradient id="paint2_linear_12734_111308" x1="26.89" y1="30.1699" x2="80.217" y2="83.4429" gradientUnits="userSpaceOnUse">
<stop stop-color="white" stop-opacity="0.25"/>
<stop offset="1" stop-color="white" stop-opacity="0"/>
</linearGradient>
<linearGradient id="paint3_linear_12734_111308" x1="41.8794" y1="62.53" x2="49.5519" y2="52.4696" gradientUnits="userSpaceOnUse">
<stop stop-color="white"/>
<stop offset="1" stop-color="white" stop-opacity="0.2"/>
</linearGradient>
<linearGradient id="paint4_linear_12734_111308" x1="41.8794" y1="54.7487" x2="49.5519" y2="44.6883" gradientUnits="userSpaceOnUse">
<stop stop-color="white"/>
<stop offset="1" stop-color="white" stop-opacity="0.2"/>
</linearGradient>
<linearGradient id="paint5_linear_12734_111308" x1="46.0419" y1="56.3098" x2="63.4732" y2="43.0083" gradientUnits="userSpaceOnUse">
<stop stop-color="white"/>
<stop offset="1" stop-color="white" stop-opacity="0.2"/>
</linearGradient>
<linearGradient id="paint6_linear_12734_111308" x1="46.0419" y1="71.4199" x2="63.4732" y2="58.1184" gradientUnits="userSpaceOnUse">
<stop stop-color="white"/>
<stop offset="1" stop-color="white" stop-opacity="0.2"/>
</linearGradient>
<linearGradient id="paint7_linear_12734_111308" x1="58.2514" y1="56.3098" x2="75.6827" y2="43.0083" gradientUnits="userSpaceOnUse">
<stop stop-color="white"/>
<stop offset="1" stop-color="white" stop-opacity="0.2"/>
</linearGradient>
<linearGradient id="paint8_linear_12734_111308" x1="55.8837" y1="71.4196" x2="68.667" y2="66.1222" gradientUnits="userSpaceOnUse">
<stop stop-color="white"/>
<stop offset="1" stop-color="white" stop-opacity="0.2"/>
</linearGradient>
<linearGradient id="paint9_linear_12734_111308" x1="62.3718" y1="59.709" x2="65.9493" y2="51.8446" gradientUnits="userSpaceOnUse">
<stop stop-color="white"/>
<stop offset="1" stop-color="white" stop-opacity="0.2"/>
</linearGradient>
<linearGradient id="paint10_linear_12734_111308" x1="62.3718" y1="54.7487" x2="70.0441" y2="44.6877" gradientUnits="userSpaceOnUse">
<stop stop-color="white"/>
<stop offset="1" stop-color="white" stop-opacity="0.2"/>
</linearGradient>
<linearGradient id="paint11_linear_12734_111308" x1="66.4299" y1="70.5432" x2="71.241" y2="58.925" gradientUnits="userSpaceOnUse">
<stop stop-color="white"/>
<stop offset="1" stop-color="white" stop-opacity="0.2"/>
</linearGradient>
<linearGradient id="paint12_linear_12734_111308" x1="66.4271" y1="64.9411" x2="70.567" y2="54.1851" gradientUnits="userSpaceOnUse">
<stop stop-color="white"/>
<stop offset="1" stop-color="white" stop-opacity="0.2"/>
</linearGradient>
<linearGradient id="paint13_linear_12734_111308" x1="66.4294" y1="75.8727" x2="71.0178" y2="64.4815" gradientUnits="userSpaceOnUse">
<stop stop-color="white"/>
<stop offset="1" stop-color="white" stop-opacity="0.2"/>
</linearGradient>
</defs>
</svg>
