<svg width="32" height="32" viewBox="0 0 32 32" fill="none" xmlns="http://www.w3.org/2000/svg">
<path d="M29.5463 27.1894C29.5463 27.1894 25.9946 21.0852 25.3575 19.9904C26.0824 19.7693 26.8545 19.574 27.1754 19.02C27.71 18.097 26.7583 16.5828 27.0082 15.5934C27.2656 14.5751 28.7854 13.694 28.7854 12.659C28.7854 11.6505 27.2142 10.4725 26.9566 9.46017C26.7049 8.47095 27.6538 6.9551 27.1174 6.03316C26.581 5.11114 24.7943 5.1869 24.0588 4.47917C23.302 3.75086 23.3044 1.96891 22.3916 1.48083C21.4751 0.990941 19.9856 1.98102 18.9681 1.74649C17.9621 1.51465 17.0633 0 16.0125 0C14.9462 0 13.2501 1.71813 12.9841 1.77996C11.967 2.01639 10.4757 1.02873 9.56013 1.5207C8.64823 2.01042 8.65385 3.79254 7.89847 4.52206C7.16419 5.23109 5.3774 5.15862 4.84263 6.08168C4.30794 7.00456 5.25971 8.51843 5.00988 9.50833C4.75935 10.5007 3.18668 11.5063 3.18668 12.654C3.18668 13.6892 4.71023 14.5675 4.96923 15.5853C5.22097 16.5745 4.27205 18.0902 4.80847 19.0124C5.1005 19.5144 5.76309 19.7205 6.42482 19.9186C6.50204 19.9417 6.6481 20.0281 6.54917 20.1723C6.09646 20.9537 2.45275 27.2422 2.45275 27.2422C2.16288 27.7424 2.39827 28.1711 2.97567 28.1954L5.80201 28.3133C6.37942 28.3376 7.10375 28.7572 7.41195 29.246L8.92011 31.6392C9.22832 32.1281 9.71735 32.1189 10.0071 31.6188C10.0071 31.6188 14.227 24.3335 14.2287 24.3314C14.3133 24.2324 14.3984 24.2528 14.4392 24.2874C14.9009 24.6805 15.5445 25.0727 16.0817 25.0727C16.6085 25.0727 17.0964 24.7035 17.5789 24.2918C17.6182 24.2583 17.7137 24.1897 17.7836 24.3321C17.7847 24.3343 21.9999 31.5798 21.9999 31.5798C22.2904 32.0793 22.7795 32.0878 23.0868 31.5983L24.5907 29.2023C24.8981 28.7131 25.6216 28.2919 26.199 28.2667L29.0251 28.1436C29.6022 28.1182 29.8369 27.6889 29.5463 27.1894ZM20.6834 20.6361C17.5585 22.4541 13.8075 22.2593 10.9426 20.4522C6.74452 17.7632 5.36322 12.2006 7.88688 7.84486C10.4393 3.43885 16.0502 1.88416 20.4959 4.30544C20.5193 4.31815 20.5424 4.33129 20.5656 4.34426C20.5985 4.36251 20.6314 4.38102 20.6641 4.3997C22.0357 5.19044 23.225 6.33808 24.0766 7.80188C26.6794 12.2759 25.1573 18.0333 20.6834 20.6361Z" fill="url(#paint0_linear_12734_108526)"/>
<path d="M19.9686 5.71644C19.9556 5.70891 19.9425 5.70191 19.9295 5.69447C17.5547 4.32 14.5278 4.21952 11.991 5.69542C8.22649 7.88554 6.94551 12.7299 9.13563 16.4943C9.80392 17.6431 10.7197 18.5601 11.7763 19.2182C11.8661 19.2751 11.957 19.3311 12.0499 19.3848C15.8185 21.5681 20.6603 20.2784 22.8435 16.51C25.0266 12.7414 23.7372 7.89973 19.9686 5.71644ZM20.9114 11.8772L19.5918 13.1633C19.1831 13.5616 18.9277 14.3479 19.0243 14.9104L19.3358 16.7265C19.4323 17.2891 19.098 17.532 18.5928 17.2664L16.9617 16.4089C16.4565 16.1433 15.6299 16.1433 15.1247 16.4089L13.4937 17.2664C12.9885 17.532 12.6541 17.2891 12.7506 16.7265L13.0621 14.9104C13.1586 14.3479 12.9032 13.5616 12.4945 13.1633L11.175 11.8772C10.7662 11.4788 10.8941 11.0857 11.4588 11.0036L13.2823 10.7386C13.8471 10.6565 14.5159 10.1706 14.7685 9.65884L15.584 8.00652C15.8366 7.49475 16.2499 7.49475 16.5024 8.00652L17.318 9.65884C17.5706 10.1706 18.2393 10.6565 18.8042 10.7386L20.6277 11.0036C21.1924 11.0857 21.3201 11.4788 20.9114 11.8772Z" fill="url(#paint1_linear_12734_108526)"/>
<defs>
<linearGradient id="paint0_linear_12734_108526" x1="16.2301" y1="38.8173" x2="59.719" y2="2.39215" gradientUnits="userSpaceOnUse">
<stop stop-color="white"/>
<stop offset="1" stop-color="white" stop-opacity="0.2"/>
</linearGradient>
<linearGradient id="paint1_linear_12734_108526" x1="16.1193" y1="23.8181" x2="37.9562" y2="2.38764" gradientUnits="userSpaceOnUse">
<stop stop-color="white"/>
<stop offset="1" stop-color="white" stop-opacity="0.2"/>
</linearGradient>
</defs>
</svg>
