<svg width="21" height="20" viewBox="0 0 21 20" fill="none" xmlns="http://www.w3.org/2000/svg">
<path fill-rule="evenodd" clip-rule="evenodd" d="M3.99753 1.74622C2.7542 1.74622 1.74628 2.75413 1.74628 3.99747V16.0025C1.74628 17.2458 2.7542 18.2537 3.99753 18.2537H6.99878C7.41299 18.2537 7.74878 18.5895 7.74878 19.0037C7.74878 19.4179 7.41299 19.7537 6.99878 19.7537H3.99753C1.92577 19.7537 0.246277 18.0742 0.246277 16.0025V3.99747C0.246277 1.92571 1.92577 0.246216 3.99753 0.246216H16.0025C18.0743 0.246216 19.7538 1.92571 19.7538 3.99747V6.99872C19.7538 7.41293 19.418 7.74872 19.0038 7.74872C18.5896 7.74872 18.2538 7.41293 18.2538 6.99872V3.99747C18.2538 2.75413 17.2459 1.74622 16.0025 1.74622H3.99753Z" fill="#1A1A27"/>
<path fill-rule="evenodd" clip-rule="evenodd" d="M16.75 10.8794C16.7499 10.8794 16.75 10.8793 16.75 10.8794L10.8237 16.8107C10.7766 16.8577 10.75 16.9217 10.75 16.9878V18.2537H12.0158C12.082 18.2537 12.1457 18.2274 12.1927 18.1803L18.1245 12.2535C18.3068 12.0715 18.4094 11.8242 18.4094 11.5666C18.4094 11.3089 18.3069 11.0618 18.1246 10.8797C17.9424 10.6975 17.6948 10.5947 17.4371 10.5947C17.1795 10.5947 16.9322 10.6972 16.75 10.8794ZM19.1849 9.81869C18.7213 9.35514 18.0926 9.09473 17.4371 9.09473C16.7815 9.09473 16.1528 9.35518 15.6892 9.81878L9.76287 15.7501C9.76297 15.75 9.76277 15.7502 9.76287 15.7501C9.43485 16.0782 9.25 16.5236 9.25 16.9878V19.0037C9.25 19.4179 9.58579 19.7537 10 19.7537H12.0158C12.4801 19.7537 12.9252 19.5691 13.2532 19.2411C13.2531 19.2412 13.2533 19.241 13.2532 19.2411L19.1846 13.3148C19.1846 13.3148 19.1846 13.3147 19.1846 13.3148M19.1849 9.81869C19.1849 9.81872 19.1848 9.81866 19.1849 9.81869Z" fill="#1A1A27"/>
<path fill-rule="evenodd" clip-rule="evenodd" d="M13.4824 12.0327C13.7753 11.7398 14.2501 11.7398 14.543 12.0327L16.974 14.4637C17.2669 14.7566 17.2669 15.2314 16.974 15.5243C16.6811 15.8172 16.2063 15.8172 15.9134 15.5243L13.4824 13.0933C13.1895 12.8004 13.1895 12.3256 13.4824 12.0327Z" fill="#1A1A27"/>
<path fill-rule="evenodd" clip-rule="evenodd" d="M17.6381 12.739C17.931 12.4461 18.4059 12.4461 18.6988 12.739L19.5992 13.6393C20.3653 14.407 20.3658 15.6505 19.5997 16.4182L18.5099 17.5089C18.2172 17.8019 17.7423 17.8022 17.4493 17.5094C17.1563 17.2166 17.156 16.7418 17.4488 16.4487L18.538 15.3586C18.538 15.3585 18.5379 15.3586 18.538 15.3586C18.7195 15.1765 18.7197 14.8817 18.5382 14.6997C18.5381 14.6996 18.5382 14.6997 18.5382 14.6997L17.6381 13.7996C17.3452 13.5067 17.3452 13.0319 17.6381 12.739Z" fill="#1A1A27"/>
<path fill-rule="evenodd" clip-rule="evenodd" d="M6.4989 8.99951C6.4989 8.5853 6.83469 8.24951 7.2489 8.24951H12.0009C12.4151 8.24951 12.7509 8.5853 12.7509 8.99951C12.7509 9.41373 12.4151 9.74951 12.0009 9.74951H7.2489C6.83469 9.74951 6.4989 9.41373 6.4989 8.99951Z" fill="#1A1A27"/>
<path fill-rule="evenodd" clip-rule="evenodd" d="M6.4989 5.12292C6.4989 4.70871 6.83469 4.37292 7.2489 4.37292H14.0017C14.4159 4.37292 14.7517 4.70871 14.7517 5.12292C14.7517 5.53714 14.4159 5.87292 14.0017 5.87292H7.2489C6.83469 5.87292 6.4989 5.53714 6.4989 5.12292Z" fill="#1A1A27"/>
<path fill-rule="evenodd" clip-rule="evenodd" d="M3.2475 8.99956C3.2475 8.51629 3.63927 8.12451 4.12255 8.12451C4.60583 8.12451 4.9976 8.51629 4.9976 8.99956C4.9976 9.48284 4.60583 9.87462 4.12255 9.87462C3.63927 9.87462 3.2475 9.48284 3.2475 8.99956Z" fill="#1A1A27"/>
<path fill-rule="evenodd" clip-rule="evenodd" d="M3.2475 5.12298C3.2475 4.6397 3.63927 4.24792 4.12255 4.24792C4.60583 4.24792 4.9976 4.6397 4.9976 5.12298C4.9976 5.60625 4.60583 5.99803 4.12255 5.99803C3.63927 5.99803 3.2475 5.60625 3.2475 5.12298Z" fill="#1A1A27"/>
<path fill-rule="evenodd" clip-rule="evenodd" d="M6.4989 12.8762C6.4989 12.462 6.83469 12.1262 7.2489 12.1262H8.99963C9.41384 12.1262 9.74963 12.462 9.74963 12.8762C9.74963 13.2904 9.41384 13.6262 8.99963 13.6262H7.2489C6.83469 13.6262 6.4989 13.2904 6.4989 12.8762Z" fill="#1A1A27"/>
<path fill-rule="evenodd" clip-rule="evenodd" d="M3.2475 12.8762C3.2475 12.3929 3.63927 12.0011 4.12255 12.0011C4.60583 12.0011 4.9976 12.3929 4.9976 12.8762C4.9976 13.3594 4.60583 13.7512 4.12255 13.7512C3.63927 13.7512 3.2475 13.3594 3.2475 12.8762Z" fill="#1A1A27"/>
</svg>
