<svg width="21" height="22" viewBox="0 0 21 22" fill="none" xmlns="http://www.w3.org/2000/svg">
<path fill-rule="evenodd" clip-rule="evenodd" d="M12.2421 9.05039C12.4215 8.41287 12.1907 7.73059 11.661 7.33301C11.3537 7.01258 10.9288 6.83161 10.4848 6.83203C9.94314 6.84088 9.43622 7.1004 9.11236 7.53465C8.7885 7.9689 8.68432 8.52878 8.8303 9.05046C7.95474 9.02059 7.18956 9.63697 7.0323 10.4988C6.87504 11.3607 7.37322 12.2076 8.20291 12.4889C9.0326 12.7701 9.94311 12.4008 10.3424 11.621C10.3794 11.5463 10.456 11.4994 10.5395 11.5006C10.6229 11.5019 10.6981 11.5509 10.7329 11.6268C10.9745 12.0956 11.4126 12.4322 11.9278 12.545C12.443 12.6577 12.9816 12.5349 13.397 12.2099C14.0032 11.7387 14.2355 10.93 13.9719 10.2089C13.7083 9.48785 13.0092 9.01963 12.2421 9.05046V9.05039Z" stroke="white" stroke-linecap="round" stroke-linejoin="round"/>
<path d="M15.844 5.6942C17.9899 7.84007 18.6318 11.0673 17.4705 13.871C16.3091 16.6748 13.5732 18.5028 10.5385 18.5028C7.50377 18.5028 4.76786 16.6748 3.60652 13.871C2.44518 11.0673 3.08711 7.84007 5.23299 5.6942C8.16314 2.76404 12.9139 2.76404 15.844 5.6942" stroke="white" stroke-linecap="round" stroke-linejoin="round"/>
<path fill-rule="evenodd" clip-rule="evenodd" d="M15.844 5.6942C17.9899 7.84007 18.6318 11.0673 17.4705 13.871C16.3091 16.6748 13.5732 18.5028 10.5385 18.5028C7.50377 18.5028 4.76786 16.6748 3.60652 13.871C2.44518 11.0673 3.08711 7.84007 5.23299 5.6942C8.16314 2.76404 12.9139 2.76404 15.844 5.6942Z" fill="white"/>
<path d="M15.844 5.6942C17.9899 7.84007 18.6318 11.0673 17.4705 13.871C16.3091 16.6748 13.5732 18.5028 10.5385 18.5028C7.50377 18.5028 4.76786 16.6748 3.60652 13.871C2.44518 11.0673 3.08711 7.84007 5.23299 5.6942C8.16314 2.76404 12.9139 2.76404 15.844 5.6942" stroke="white" stroke-linecap="round" stroke-linejoin="round"/>
<path fill-rule="evenodd" clip-rule="evenodd" d="M12.2421 9.05039C12.4215 8.41287 12.1907 7.73059 11.661 7.33301C11.3537 7.01258 10.9288 6.83161 10.4848 6.83203C9.94314 6.84088 9.43622 7.1004 9.11236 7.53465C8.7885 7.9689 8.68432 8.52878 8.8303 9.05046C7.95474 9.02059 7.18956 9.63697 7.0323 10.4988C6.87504 11.3607 7.37322 12.2076 8.20291 12.4889C9.0326 12.7701 9.94311 12.4008 10.3424 11.621C10.3794 11.5463 10.456 11.4994 10.5395 11.5006C10.6229 11.5019 10.6981 11.5509 10.7329 11.6268C10.9745 12.0956 11.4126 12.4322 11.9278 12.545C12.443 12.6577 12.9816 12.5349 13.397 12.2099C14.0032 11.7387 14.2355 10.93 13.9719 10.2089C13.7083 9.48785 13.0092 9.01963 12.2421 9.05046V9.05039Z" fill="#1A1A27"/>
<path d="M11.9932 14.3343H9.08008" stroke="#1A1A27" stroke-linecap="round" stroke-linejoin="round"/>
<path d="M10.5365 11.5005V14.3345" stroke="#1A1A27" stroke-linecap="round" stroke-linejoin="round"/>
</svg>
