<svg width="21" height="22" viewBox="0 0 21 22" fill="none" xmlns="http://www.w3.org/2000/svg">
<path fill-rule="evenodd" clip-rule="evenodd" d="M9.99131 16.6956L6.74996 18.3863C6.01298 18.7707 5.15012 18.1504 5.29102 17.3342L6.01465 13.1466L2.94837 10.1812C2.34979 9.6035 2.67993 8.59641 3.50527 8.47803L7.74204 7.86694L9.63449 4.05369C10.0021 3.31088 11.0693 3.31088 11.4386 4.05369L13.3344 7.86694L17.5711 8.47636C18.3965 8.59475 18.7249 9.60183 18.128 10.1796L16.3981 11.8528" fill="white"/>
<path d="M9.99131 16.6956L6.74996 18.3863C6.01298 18.7707 5.15012 18.1504 5.29102 17.3342L6.01465 13.1466L2.94837 10.1812C2.34979 9.6035 2.67993 8.59641 3.50527 8.47803L7.74204 7.86694L9.63449 4.05369C10.0021 3.31088 11.0693 3.31088 11.4386 4.05369L13.3344 7.86694L17.5711 8.47636C18.3965 8.59475 18.7249 9.60183 18.128 10.1796L16.3981 11.8528" stroke="white" stroke-linecap="round" stroke-linejoin="round"/>
<mask id="path-3-outside-1_13201_107599" maskUnits="userSpaceOnUse" x="8.70459" y="10" width="11" height="11" fill="black">
<rect fill="white" x="8.70459" y="10" width="11" height="11"/>
<path fill-rule="evenodd" clip-rule="evenodd" d="M13.873 19.3368C11.5712 19.3368 9.70459 17.4702 9.70459 15.1684C9.70459 12.8666 11.5712 11 13.873 11C16.1756 11 18.0414 12.8666 18.0414 15.1684C18.0414 17.4702 16.1756 19.3368 13.873 19.3368Z"/>
</mask>
<path fill-rule="evenodd" clip-rule="evenodd" d="M13.873 19.3368C11.5712 19.3368 9.70459 17.4702 9.70459 15.1684C9.70459 12.8666 11.5712 11 13.873 11C16.1756 11 18.0414 12.8666 18.0414 15.1684C18.0414 17.4702 16.1756 19.3368 13.873 19.3368Z" fill="white"/>
<path d="M13.873 20.3368C14.4253 20.3368 14.873 19.8891 14.873 19.3368C14.873 18.7845 14.4253 18.3368 13.873 18.3368V20.3368ZM13.873 18.3368C13.3207 18.3368 12.873 18.7845 12.873 19.3368C12.873 19.8891 13.3207 20.3368 13.873 20.3368V18.3368ZM13.873 18.3368C12.1235 18.3368 10.7046 16.9179 10.7046 15.1684H8.70459C8.70459 18.0225 11.0189 20.3368 13.873 20.3368V18.3368ZM10.7046 15.1684C10.7046 13.4189 12.1235 12 13.873 12V10C11.0189 10 8.70459 12.3143 8.70459 15.1684H10.7046ZM13.873 12C15.6232 12 17.0414 13.4188 17.0414 15.1684H19.0414C19.0414 12.3145 16.728 10 13.873 10V12ZM17.0414 15.1684C17.0414 16.918 15.6232 18.3368 13.873 18.3368V20.3368C16.728 20.3368 19.0414 18.0223 19.0414 15.1684H17.0414Z" fill="#1A1A27" mask="url(#path-3-outside-1_13201_107599)"/>
<path d="M15.7254 14.2422L13.4094 16.5582L12.0205 15.1684" stroke="#1A1A27" stroke-linecap="round" stroke-linejoin="round"/>
</svg>
