<svg width="26" height="26" viewBox="0 0 26 26" fill="none" xmlns="http://www.w3.org/2000/svg">
<circle cx="13" cy="13" r="9.00375" stroke="#323232" stroke-width="1.5" stroke-linecap="round" stroke-linejoin="round"/>
<circle cx="13" cy="13" r="5.50229" stroke="#323232" stroke-width="1.5" stroke-linecap="round" stroke-linejoin="round"/>
<path fill-rule="evenodd" clip-rule="evenodd" d="M13.2007 15.0173V15.0173C13.6989 14.3517 14.2691 13.7431 14.9011 13.2027L14.9116 13.1937C14.9682 13.1453 15.0008 13.0745 15.0008 12.9999C15.0008 12.9254 14.9682 12.8546 14.9116 12.8062L14.9011 12.7972C14.2691 12.2568 13.6989 11.6482 13.2007 10.9826V10.9826C13.1534 10.9193 13.079 10.8821 13 10.8821C12.921 10.8821 12.8466 10.9193 12.7993 10.9826V10.9826C12.3011 11.6482 11.7308 12.2568 11.0989 12.7972L11.0884 12.8062C11.0318 12.8546 10.9991 12.9254 10.9991 12.9999C10.9991 13.0745 11.0318 13.1453 11.0884 13.1937L11.0989 13.2027C11.7308 13.7431 12.3011 14.3517 12.7993 15.0173V15.0173C12.8466 15.0806 12.921 15.1178 13 15.1178C13.079 15.1178 13.1534 15.0806 13.2007 15.0173Z" stroke="#323232" stroke-width="1.5" stroke-linecap="round" stroke-linejoin="round"/>
<path d="M13 7.49773V3.99622" stroke="#323232" stroke-width="1.5" stroke-linecap="round" stroke-linejoin="round"/>
<path d="M13 18.5023V22.0038" stroke="#323232" stroke-width="1.5" stroke-linecap="round" stroke-linejoin="round"/>
<path d="M19.3667 6.6333L16.8907 9.10924" stroke="#323232" stroke-width="1.5" stroke-linecap="round" stroke-linejoin="round"/>
<path d="M9.10927 16.8907L6.63333 19.3667" stroke="#323232" stroke-width="1.5" stroke-linecap="round" stroke-linejoin="round"/>
<path d="M22.0038 13H18.5023" stroke="#323232" stroke-width="1.5" stroke-linecap="round" stroke-linejoin="round"/>
<path d="M7.4977 13H3.99619" stroke="#323232" stroke-width="1.5" stroke-linecap="round" stroke-linejoin="round"/>
<path d="M16.8907 16.8907L19.3667 19.3667" stroke="#323232" stroke-width="1.5" stroke-linecap="round" stroke-linejoin="round"/>
<path d="M6.63333 6.6333L9.10927 9.10924" stroke="#323232" stroke-width="1.5" stroke-linecap="round" stroke-linejoin="round"/>
</svg>
