<svg width="16" height="20" viewBox="0 0 16 20" fill="none" xmlns="http://www.w3.org/2000/svg">
<path d="M14.02 10.33L12.8 9.11C12.51 8.86 12.34 8.49 12.33 8.08C12.31 7.63 12.49 7.18 12.82 6.85L14.02 5.65C15.06 4.61 15.45 3.61 15.12 2.82C14.8 2.04 13.81 1.61 12.35 1.61H1.89999V0.75C1.89999 0.34 1.55999 0 1.14999 0C0.739994 0 0.399994 0.34 0.399994 0.75V19.25C0.399994 19.66 0.739994 20 1.14999 20C1.55999 20 1.89999 19.66 1.89999 19.25V14.37H12.35C13.79 14.37 14.76 13.93 15.09 13.14C15.42 12.35 15.04 11.36 14.02 10.33Z" fill="#1A1A27"/>
</svg>
