<svg width="56" height="56" viewBox="0 0 56 56" fill="none" xmlns="http://www.w3.org/2000/svg">
<rect width="56" height="56" rx="28" fill="white"/>
<circle cx="28.0001" cy="28.0001" r="24.9455" fill="url(#paint0_linear_13202_107685)" fill-opacity="0.06"/>
<path fill-rule="evenodd" clip-rule="evenodd" d="M28.0001 13C19.7291 13 13 19.7289 13 27.9999C13 36.2711 19.7291 43 28.0001 43C36.2711 43 43.0001 36.271 43.0001 27.9999C43.0001 19.7289 36.2711 13 28.0001 13ZM28.0001 41.7285C20.4301 41.7285 14.2715 35.5699 14.2715 27.9999C14.2715 20.4301 20.4301 14.2714 28.0001 14.2714C35.5702 14.2714 41.7286 20.4301 41.7286 27.9999C41.7286 35.5699 35.5702 41.7285 28.0001 41.7285ZM38.5297 30.2476C38.6844 29.5238 38.7645 28.7723 38.7645 28.004C38.7645 27.2304 38.6816 26.4762 38.5269 25.7495H40.5163C39.5659 23.4287 37.1924 21.6575 34.5787 22.4147C33.1584 22.8234 31.4647 23.8846 29.4699 25.9706C30.1884 25.1886 31.0696 24.2023 30.9895 23.0611C30.9067 21.9006 29.7352 20.7651 28.5528 20.8286C27.8011 20.8673 27.2152 21.3757 26.801 21.9669C26.2013 21.5608 25.4719 21.2957 24.7535 21.5277C23.6291 21.8897 22.9384 23.3679 23.2754 24.4841C23.607 25.5782 24.7813 26.186 25.7317 26.6585C25.8283 26.7055 25.9748 26.7745 26.0937 26.8326C26.2097 26.8878 26.2567 27.0316 26.1959 27.1448C26.1405 27.2442 26.0191 27.2884 25.914 27.2442C25.8643 27.225 25.8117 27.2057 25.7704 27.189C24.7839 26.8022 23.5435 26.3354 22.5101 26.8243C21.4575 27.3216 20.8219 28.8246 21.3082 29.9022C21.6203 30.5904 22.3028 30.9549 23.0074 31.1263C22.8445 31.8308 22.861 32.6044 23.3363 33.1931C24.0821 34.1103 25.7123 34.2179 26.6268 33.4996C27.5276 32.7951 27.6685 31.4771 27.7653 30.4216C27.7708 30.3775 27.7735 30.3222 27.7791 30.2698C27.7875 30.1536 27.8813 30.0652 27.9945 30.0624C28.1245 30.0568 28.2322 30.162 28.2267 30.2918C28.2267 30.4246 28.2237 30.5876 28.2211 30.6952C28.2184 31.7563 28.235 33.0797 29.0637 33.867C29.9092 34.6685 31.5394 34.7154 32.3682 33.8699C32.8988 33.3312 32.9872 32.563 32.8932 31.8446C33.6089 31.7396 34.3244 31.4442 34.7004 30.7892C35.286 29.7614 34.797 28.203 33.7969 27.609C32.8105 27.026 31.534 27.3714 30.5145 27.6643C30.4232 27.6892 30.3347 27.7167 30.2463 27.7443C30.3321 27.7167 30.4232 27.6478 30.5033 27.6062C31.393 27.1422 32.3324 26.7497 33.3048 26.501C33.8686 26.3573 34.4572 26.2552 35.04 26.2993C35.8664 26.3602 36.5128 26.7939 36.6813 27.6338C36.7863 28.1534 36.7449 28.7142 36.6674 29.2336C36.4631 30.6068 35.8165 31.9081 35.0152 33.0271C33.4045 35.279 30.7547 36.6439 27.9836 36.6439C23.2118 36.6439 19.341 32.7729 19.341 28.0012C19.341 23.2269 23.2118 19.3587 27.9836 19.3587C28.8787 19.3587 29.7711 19.4941 30.6222 19.7677C31.0366 19.9003 31.44 20.0633 31.8269 20.2567C32.7938 20.7375 33.6143 20.8728 34.634 20.4058C34.8467 20.3092 37.2256 18.9139 37.129 18.8171C35.2916 16.9881 32.9099 15.7061 30.2435 15.2364V17.4689C29.5197 17.3141 28.7655 17.2341 27.9945 17.2341C27.2237 17.2341 26.4694 17.3141 25.7455 17.4689V15.2335C23.8391 15.5651 22.0789 16.3111 20.5567 17.3777L22.1426 18.9637C20.8687 19.7869 19.783 20.8728 18.9597 22.1438L17.371 20.5552C16.3017 22.0775 15.55 23.843 15.2158 25.7495H17.462C17.3074 26.4762 17.2245 27.2304 17.2245 28.004C17.2245 28.7723 17.3046 29.5238 17.4594 30.2476H15.2158C15.55 32.1567 16.3017 33.9197 17.371 35.4421L18.954 33.8588C19.7775 35.1297 20.8633 36.2157 22.1343 37.0391L20.5539 38.6195C22.0763 39.6859 23.8391 40.4346 25.7455 40.7661V38.5392C26.4694 38.694 27.2237 38.7741 27.9945 38.7741C28.7655 38.7741 29.5197 38.694 30.2435 38.5392V40.7607C30.8377 40.6611 31.4233 40.5148 31.9954 40.3297C33.2193 39.9317 34.3743 39.3487 35.4242 38.6083L33.8548 37.0391C35.1258 36.2157 36.2116 35.1297 37.0349 33.8588L38.6043 35.4282C39.6653 33.9167 40.4445 32.1072 40.7843 30.2476H38.5297Z" fill="#20B18D"/>
<defs>
<linearGradient id="paint0_linear_13202_107685" x1="28.0002" y1="9.99988" x2="28.0001" y2="52.9456" gradientUnits="userSpaceOnUse">
<stop stop-color="#20B18D"/>
<stop offset="0.9999" stop-color="#20B18D" stop-opacity="0.0104167"/>
</linearGradient>
</defs>
</svg>
