<svg width="33" height="33" viewBox="0 0 33 33" fill="none" xmlns="http://www.w3.org/2000/svg">
<path d="M11.1057 21.9495V13.2616H9.09732V11.0353H13.8771V21.9495H11.1057Z" fill="white"/>
<path d="M24.2926 13.8532C24.2926 14.8029 23.7788 15.6437 22.9225 16.1108C24.1212 16.6089 24.8686 17.6521 24.8686 18.8665C24.8686 20.8282 23.1248 22.0738 20.4002 22.0738C17.6756 22.0738 15.9319 20.8438 15.9319 18.9133C15.9319 17.6677 16.7414 16.6089 18.0025 16.1108C17.084 15.597 16.4923 14.7252 16.4923 13.7755C16.4923 12.0316 18.0182 10.9263 20.3847 10.9263C22.7823 10.9263 24.2926 12.0628 24.2926 13.8532ZM18.5474 18.6331C18.5474 19.5517 19.2014 20.0655 20.4002 20.0655C21.599 20.0655 22.2685 19.5674 22.2685 18.6331C22.2685 17.7302 21.599 17.2162 20.4002 17.2162C19.2013 17.2162 18.5474 17.7301 18.5474 18.6331ZM18.8278 14.0089C18.8278 14.7876 19.3883 15.2233 20.4002 15.2233C21.4122 15.2233 21.9727 14.7875 21.9727 14.0089C21.9727 13.1995 21.4122 12.7479 20.4002 12.7479C19.3882 12.7479 18.8278 13.1995 18.8278 14.0089Z" fill="white"/>
<path d="M29.4801 12.2674C29.9408 13.6272 30.1746 15.0495 30.1746 16.5001C30.1746 23.7739 24.2568 29.6917 16.983 29.6917C9.70908 29.6917 3.79125 23.7739 3.79125 16.5001C3.79125 9.22617 9.70898 3.30863 16.9829 3.30863C18.4337 3.30863 19.856 3.54216 21.2157 4.0031V1.06749C19.8423 0.691011 18.4239 0.5 16.983 0.5C8.16056 0.5 0.98291 7.67765 0.98291 16.5001C0.98291 25.3226 8.16056 32.5003 16.983 32.5003C25.8054 32.5003 32.9829 25.3226 32.9829 16.5001C32.9829 15.0593 32.792 13.6408 32.4155 12.2674H29.4801Z" fill="white"/>
<path d="M28.6817 4.79225V1.7243H26.4756V4.79225H23.426V6.99816H26.4756V10.066H28.6817V6.99816H31.7495V4.79225H28.6817Z" fill="white"/>
</svg>
