<svg width="25" height="24" viewBox="0 0 25 24" fill="none" xmlns="http://www.w3.org/2000/svg">
<rect x="0.5" width="24" height="24" rx="12" fill="white"/>
<path d="M12.5559 6.28C13.3133 6.28 13.9853 6.392 14.5719 6.616C15.1586 6.84 15.6173 7.17067 15.9479 7.608C16.2786 8.03467 16.4439 8.56267 16.4439 9.192C16.4439 9.832 16.3053 10.36 16.0279 10.776C15.7613 11.1813 15.3986 11.4907 14.9399 11.704C14.4813 11.9067 13.9746 12.04 13.4199 12.104L13.3079 13.608H11.3079L11.3239 11.192C12.0386 11.1067 12.5933 10.9947 12.9879 10.856C13.3933 10.7067 13.6759 10.52 13.8359 10.296C14.0066 10.072 14.0919 9.80533 14.0919 9.496C14.0919 9.19733 14.0279 8.94667 13.8999 8.744C13.7826 8.54133 13.6013 8.38667 13.3559 8.28C13.1106 8.17333 12.7959 8.12 12.4119 8.12C11.8573 8.12 11.4146 8.28 11.0839 8.6C10.7533 8.90933 10.5506 9.352 10.4759 9.928L8.39594 9.128C8.52394 8.57333 8.7586 8.08267 9.09994 7.656C9.44127 7.21867 9.8946 6.88267 10.4599 6.648C11.0359 6.40267 11.7346 6.28 12.5559 6.28ZM12.3319 14.68C12.7479 14.68 13.0786 14.792 13.3239 15.016C13.5693 15.24 13.6919 15.5387 13.6919 15.912C13.6919 16.296 13.5693 16.6 13.3239 16.824C13.0786 17.0373 12.7479 17.144 12.3319 17.144C11.9159 17.144 11.5853 17.0373 11.3399 16.824C11.0946 16.6 10.9719 16.296 10.9719 15.912C10.9719 15.5387 11.0946 15.24 11.3399 15.016C11.5853 14.792 11.9159 14.68 12.3319 14.68Z" fill="#1A1A27"/>
</svg>
