<svg width="116" height="20" viewBox="0 0 116 20" fill="none" xmlns="http://www.w3.org/2000/svg">
<g clip-path="url(#clip0_12577_110534)">
<path d="M19.9713 7.70521C19.9024 7.49302 19.719 7.33845 19.4983 7.30642L13.2983 6.4054L10.5254 0.787172C10.4267 0.587134 10.2231 0.460571 10 0.460571C9.77701 0.460571 9.5733 0.587134 9.47459 0.787172L6.70162 6.40536L0.501674 7.30642C0.281011 7.33845 0.0975736 7.49302 0.0287066 7.70513C-0.0402386 7.91732 0.0172613 8.15017 0.176948 8.30579L4.66319 12.679L3.60429 18.8541C3.56659 19.074 3.65698 19.2961 3.83741 19.4272C4.01784 19.5583 4.25698 19.5756 4.45448 19.4718L9.99998 16.5562L15.5453 19.4717C15.6311 19.5168 15.7247 19.5391 15.8179 19.5391C15.9394 19.5391 16.0604 19.5014 16.1624 19.4272C16.3428 19.2961 16.4332 19.0739 16.3955 18.8541L15.3363 12.679L19.823 8.30579C19.9827 8.15013 20.0402 7.91728 19.9713 7.70521Z" fill="#F8CC63"/>
<path d="M19.9713 7.70521C19.9024 7.49302 19.719 7.33845 19.4983 7.30642L13.2982 6.4054L10.5254 0.787172C10.4267 0.587134 10.223 0.460571 10 0.460571V16.5563L15.5453 19.4718C15.6311 19.5169 15.7247 19.5391 15.818 19.5391C15.9395 19.5391 16.0604 19.5014 16.1624 19.4273C16.3428 19.2961 16.4332 19.0739 16.3955 18.8541L15.3363 12.679L19.823 8.30579C19.9827 8.15013 20.0402 7.91728 19.9713 7.70521Z" fill="#F8CC63"/>
</g>
<g clip-path="url(#clip1_12577_110534)">
<path d="M43.9713 7.70521C43.9024 7.49302 43.719 7.33845 43.4983 7.30642L37.2983 6.4054L34.5254 0.787172C34.4267 0.587134 34.2231 0.460571 34 0.460571C33.777 0.460571 33.5733 0.587134 33.4746 0.787172L30.7016 6.40536L24.5017 7.30642C24.281 7.33845 24.0976 7.49302 24.0287 7.70513C23.9598 7.91732 24.0173 8.15017 24.1769 8.30579L28.6632 12.679L27.6043 18.8541C27.5666 19.074 27.657 19.2961 27.8374 19.4272C28.0178 19.5583 28.257 19.5756 28.4545 19.4718L34 16.5562L39.5453 19.4717C39.6311 19.5168 39.7247 19.5391 39.8179 19.5391C39.9394 19.5391 40.0604 19.5014 40.1624 19.4272C40.3428 19.2961 40.4332 19.0739 40.3955 18.8541L39.3363 12.679L43.823 8.30579C43.9827 8.15013 44.0402 7.91728 43.9713 7.70521Z" fill="#F8CC63"/>
<path d="M43.9713 7.70521C43.9024 7.49302 43.719 7.33845 43.4983 7.30642L37.2982 6.4054L34.5254 0.787172C34.4267 0.587134 34.223 0.460571 34 0.460571V16.5563L39.5453 19.4718C39.6311 19.5169 39.7247 19.5391 39.818 19.5391C39.9395 19.5391 40.0604 19.5014 40.1624 19.4273C40.3428 19.2961 40.4332 19.0739 40.3955 18.8541L39.3363 12.679L43.823 8.30579C43.9827 8.15013 44.0402 7.91728 43.9713 7.70521Z" fill="#F8CC63"/>
</g>
<g clip-path="url(#clip2_12577_110534)">
<path d="M67.9713 7.70521C67.9024 7.49302 67.719 7.33845 67.4983 7.30642L61.2983 6.4054L58.5254 0.787172C58.4267 0.587134 58.2231 0.460571 58 0.460571C57.777 0.460571 57.5733 0.587134 57.4746 0.787172L54.7016 6.40536L48.5017 7.30642C48.281 7.33845 48.0976 7.49302 48.0287 7.70513C47.9598 7.91732 48.0173 8.15017 48.1769 8.30579L52.6632 12.679L51.6043 18.8541C51.5666 19.074 51.657 19.2961 51.8374 19.4272C52.0178 19.5583 52.257 19.5756 52.4545 19.4718L58 16.5562L63.5453 19.4717C63.6311 19.5168 63.7247 19.5391 63.8179 19.5391C63.9394 19.5391 64.0604 19.5014 64.1624 19.4272C64.3428 19.2961 64.4332 19.0739 64.3955 18.8541L63.3363 12.679L67.823 8.30579C67.9827 8.15013 68.0402 7.91728 67.9713 7.70521Z" fill="#F8CC63"/>
<path d="M67.9713 7.70521C67.9024 7.49302 67.719 7.33845 67.4983 7.30642L61.2982 6.4054L58.5254 0.787172C58.4267 0.587134 58.223 0.460571 58 0.460571V16.5563L63.5453 19.4718C63.6311 19.5169 63.7247 19.5391 63.818 19.5391C63.9395 19.5391 64.0604 19.5014 64.1624 19.4273C64.3428 19.2961 64.4332 19.0739 64.3955 18.8541L63.3363 12.679L67.823 8.30579C67.9827 8.15013 68.0402 7.91728 67.9713 7.70521Z" fill="#F8CC63"/>
</g>
<g clip-path="url(#clip3_12577_110534)">
<path d="M91.9713 7.70521C91.9024 7.49302 91.719 7.33845 91.4983 7.30642L85.2983 6.4054L82.5254 0.787172C82.4267 0.587134 82.2231 0.460571 82 0.460571C81.777 0.460571 81.5733 0.587134 81.4746 0.787172L78.7016 6.40536L72.5017 7.30642C72.281 7.33845 72.0976 7.49302 72.0287 7.70513C71.9598 7.91732 72.0173 8.15017 72.1769 8.30579L76.6632 12.679L75.6043 18.8541C75.5666 19.074 75.657 19.2961 75.8374 19.4272C76.0178 19.5583 76.257 19.5756 76.4545 19.4718L82 16.5562L87.5453 19.4717C87.6311 19.5168 87.7247 19.5391 87.8179 19.5391C87.9394 19.5391 88.0604 19.5014 88.1624 19.4272C88.3428 19.2961 88.4332 19.0739 88.3955 18.8541L87.3363 12.679L91.823 8.30579C91.9827 8.15013 92.0402 7.91728 91.9713 7.70521Z" fill="#F8CC63"/>
<path d="M91.9713 7.70521C91.9024 7.49302 91.719 7.33845 91.4983 7.30642L85.2982 6.4054L82.5254 0.787172C82.4267 0.587134 82.223 0.460571 82 0.460571V16.5563L87.5453 19.4718C87.6311 19.5169 87.7247 19.5391 87.818 19.5391C87.9395 19.5391 88.0604 19.5014 88.1624 19.4273C88.3428 19.2961 88.4332 19.0739 88.3955 18.8541L87.3363 12.679L91.823 8.30579C91.9827 8.15013 92.0402 7.91728 91.9713 7.70521Z" fill="#F8CC63"/>
</g>
<g clip-path="url(#clip4_12577_110534)">
<path d="M115.971 7.70521C115.902 7.49302 115.719 7.33845 115.498 7.30642L109.298 6.4054L106.525 0.787172C106.427 0.587134 106.223 0.460571 106 0.460571C105.777 0.460571 105.573 0.587134 105.475 0.787172L102.702 6.40536L96.5017 7.30642C96.281 7.33845 96.0976 7.49302 96.0287 7.70513C95.9598 7.91732 96.0173 8.15017 96.1769 8.30579L100.663 12.679L99.6043 18.8541C99.5666 19.074 99.657 19.2961 99.8374 19.4272C100.018 19.5583 100.257 19.5756 100.454 19.4718L106 16.5562L111.545 19.4717C111.631 19.5168 111.725 19.5391 111.818 19.5391C111.939 19.5391 112.06 19.5014 112.162 19.4272C112.343 19.2961 112.433 19.0739 112.396 18.8541L111.336 12.679L115.823 8.30579C115.983 8.15013 116.04 7.91728 115.971 7.70521Z" fill="#F8CC63"/>
<path d="M115.971 7.70521C115.902 7.49302 115.719 7.33845 115.498 7.30642L109.298 6.4054L106.525 0.787172C106.427 0.587134 106.223 0.460571 106 0.460571V16.5563L111.545 19.4718C111.631 19.5169 111.725 19.5391 111.818 19.5391C111.939 19.5391 112.06 19.5014 112.162 19.4273C112.343 19.2961 112.433 19.0739 112.396 18.8541L111.336 12.679L115.823 8.30579C115.983 8.15013 116.04 7.91728 115.971 7.70521Z" fill="#F8CC63"/>
</g>
<defs>
<clipPath id="clip0_12577_110534">
<rect width="20" height="20" fill="white"/>
</clipPath>
<clipPath id="clip1_12577_110534">
<rect width="20" height="20" fill="white" transform="translate(24)"/>
</clipPath>
<clipPath id="clip2_12577_110534">
<rect width="20" height="20" fill="white" transform="translate(48)"/>
</clipPath>
<clipPath id="clip3_12577_110534">
<rect width="20" height="20" fill="white" transform="translate(72)"/>
</clipPath>
<clipPath id="clip4_12577_110534">
<rect width="20" height="20" fill="white" transform="translate(96)"/>
</clipPath>
</defs>
</svg>
