<svg width="24" height="24" viewBox="0 0 24 24" fill="none" xmlns="http://www.w3.org/2000/svg">
<path fill-rule="evenodd" clip-rule="evenodd" d="M7.5 3H16.504C18.987 3 21 5.013 21 7.496V16.505C21 18.987 18.987 21 16.504 21H7.496C5.013 21 3 18.987 3 16.504V7.5C3 5.015 5.015 3 7.5 3V3Z" fill="#3F3099" stroke="#3F3099" stroke-width="1.5" stroke-linecap="round" stroke-linejoin="round"/>
<path fill-rule="evenodd" clip-rule="evenodd" d="M17.05 10.5499C17.05 14.7499 14.65 17.7499 10.45 17.7499C8.05 17.7499 7.088 16.4969 6.25 15.3499M6.25 15.3499C6.269 15.3469 8.05 14.7499 8.05 14.7499C6.046 12.7239 5.894 9.72293 7.45 7.54993C8.188 8.92293 9.566 10.1889 11.05 10.5499C11.107 8.81693 12.283 7.54993 14.05 7.54993C15.253 7.54993 15.961 8.00893 16.45 8.74993H18.25L17.05 10.5499" fill="white"/>
</svg>
