<svg width="183" height="126" viewBox="0 0 183 126" fill="none" xmlns="http://www.w3.org/2000/svg">
<path d="M114.715 56.4902L170.302 17.6355C165.542 7.63001 153.452 0.110086 142.458 0.113602C135.584 0.0749302 116.832 2.0261 104.64 4.53626C92.4135 6.77219 74.2788 11.9964 67.9215 14.6085C57.7413 18.7253 49.3164 30.2284 48.6494 41.2921L114.715 56.4902Z" fill="url(#paint0_linear_12685_108120)" fill-opacity="0.6"/>
<path d="M178.752 45.6129C177.55 39.3449 175.938 33.1629 173.925 27.1067L120.02 64.7872C118.996 65.4993 117.836 65.9903 116.613 66.2288C115.39 66.4673 114.13 66.448 112.915 66.1723L48.8291 51.4348C49.2259 57.8095 50.0398 64.1512 51.2653 70.4192C53.6594 82.643 56.7345 91.3372 59.3778 97.6547C63.8746 108.029 76.2979 115.936 87.5628 115.936C94.4361 115.971 113.189 114.02 125.377 111.513C137.607 109.274 155.742 104.05 162.099 101.441C172.546 97.2223 181.115 85.2446 181.406 73.9383C181.501 67.0583 181.104 57.8543 178.752 45.6129Z" fill="url(#paint1_linear_12685_108120)" fill-opacity="0.6"/>
<path d="M8.30475 90.3491C6.64755 90.3465 5.05067 89.7261 3.82522 88.6088C2.59978 87.4915 1.83354 85.9574 1.6758 84.3052C1.51807 82.6531 1.98012 81.0013 2.97195 79.6717C3.96377 78.3421 5.41433 77.4299 7.04101 77.1128L26.9063 73.2456C28.6313 72.9357 30.4087 73.3182 31.8543 74.3104C33.2999 75.3025 34.2975 76.8246 34.6315 78.5476C34.9654 80.2705 34.6088 82.0558 33.6388 83.5176C32.6688 84.9793 31.1633 86 29.4479 86.3589L9.58605 90.2261C9.16391 90.3083 8.73481 90.3496 8.30475 90.3491Z" fill="url(#paint2_linear_12685_108120)" fill-opacity="0.6"/>
<path d="M18.5973 57.9562C16.9398 57.9544 15.3423 57.3347 14.1162 56.2177C12.8901 55.1006 12.1232 53.5664 11.965 51.914C11.8068 50.2616 12.2686 48.6095 13.2605 47.2795C14.2523 45.9495 15.7031 45.037 17.33 44.7199L31.154 42.0339C32.8789 41.724 34.6564 42.1065 36.102 43.0987C37.5476 44.0908 38.5452 45.6129 38.8791 47.3359C39.213 49.0588 38.8565 50.8442 37.8865 52.3059C36.9164 53.7676 35.411 54.7883 33.6955 55.1472L19.8891 57.8331C19.4636 57.9164 19.0309 57.9577 18.5973 57.9562Z" fill="url(#paint3_linear_12685_108120)" fill-opacity="0.6"/>
<path d="M23.9083 117.704C22.2511 117.702 20.6542 117.081 19.4287 115.964C18.2033 114.847 17.4371 113.312 17.2793 111.66C17.1216 110.008 17.5836 108.356 18.5755 107.027C19.5673 105.697 21.0178 104.785 22.6445 104.468L42.5098 100.601C43.375 100.42 44.2675 100.413 45.1354 100.58C46.0034 100.748 46.8294 101.086 47.5655 101.576C48.3016 102.066 48.9332 102.698 49.4235 103.434C49.9137 104.171 50.2529 104.997 50.4213 105.866C50.5897 106.735 50.584 107.629 50.4045 108.496C50.225 109.363 49.8752 110.185 49.3756 110.915C48.8759 111.645 48.2363 112.269 47.494 112.749C46.7516 113.23 45.9214 113.558 45.0514 113.714L25.1896 117.581C24.7674 117.663 24.3383 117.705 23.9083 117.704Z" fill="url(#paint4_linear_12685_108120)" fill-opacity="0.6"/>
<defs>
<linearGradient id="paint0_linear_12685_108120" x1="55.44" y1="6.87215" x2="129.906" y2="75.4015" gradientUnits="userSpaceOnUse">
<stop stop-color="#7161EF"/>
<stop offset="1" stop-color="#7161EF" stop-opacity="0.03"/>
</linearGradient>
<linearGradient id="paint1_linear_12685_108120" x1="56.2302" y1="37.7566" x2="162.9" y2="105.661" gradientUnits="userSpaceOnUse">
<stop stop-color="#7161EF"/>
<stop offset="1" stop-color="#7161EF" stop-opacity="0.03"/>
</linearGradient>
<linearGradient id="paint2_linear_12685_108120" x1="3.49359" y1="75.2038" x2="25.8628" y2="93.5584" gradientUnits="userSpaceOnUse">
<stop stop-color="#7161EF"/>
<stop offset="1" stop-color="#7161EF" stop-opacity="0.03"/>
</linearGradient>
<linearGradient id="paint3_linear_12685_108120" x1="13.4454" y1="43.8505" x2="33.5934" y2="58.3619" gradientUnits="userSpaceOnUse">
<stop stop-color="#7161EF"/>
<stop offset="1" stop-color="#7161EF" stop-opacity="0.03"/>
</linearGradient>
<linearGradient id="paint4_linear_12685_108120" x1="19.1075" y1="102.527" x2="41.539" y2="120.997" gradientUnits="userSpaceOnUse">
<stop stop-color="#7161EF"/>
<stop offset="1" stop-color="#7161EF" stop-opacity="0.03"/>
</linearGradient>
</defs>
</svg>
