<svg width="60" height="48" viewBox="0 0 60 48" fill="none" xmlns="http://www.w3.org/2000/svg">
<circle cx="35.5" cy="24" r="23" fill="#38384A" stroke="#20B18D" stroke-width="2"/>
<mask id="mask0_12734_129129" style="mask-type:alpha" maskUnits="userSpaceOnUse" x="13" y="2" width="45" height="44">
<circle cx="35.5" cy="24" r="22" fill="#38384A"/>
</mask>
<g mask="url(#mask0_12734_129129)">
<path fill-rule="evenodd" clip-rule="evenodd" d="M28.6746 32.4926C28.1031 32.0206 28.6994 30.7286 28.1031 31.151C25.1962 33.2131 19.0346 36.3188 19.0346 36.3188C18.2892 34.53 17.9662 34.033 17.1215 31.0764L12.5996 32.6417C14.4879 38.5797 16.6246 41.437 17.9911 41.586C19.0594 41.7103 26.0658 38.1822 26.8609 37.0393L28.6746 32.4926Z" fill="#CA2026"/>
<path fill-rule="evenodd" clip-rule="evenodd" d="M41.0475 29.9088C41.0475 29.9088 30.9105 29.4119 29.8422 29.9088C28.7738 30.4057 28.4012 29.5362 24.3017 38.6047C23.1091 41.2135 22.2395 43.8719 21.9662 46.431C19.2829 70.4565 71.0855 69.3385 57.8181 38.6047C53.8677 29.4616 53.3459 30.4057 52.2776 29.9088C51.1844 29.4119 41.0475 29.9088 41.0475 29.9088Z" fill="#D41F26"/>
<path fill-rule="evenodd" clip-rule="evenodd" d="M29.9911 29.8345C29.9165 29.8593 29.8668 29.8593 29.842 29.8842C28.7736 30.3811 28.401 29.5115 24.3015 38.5801C23.1089 41.1888 22.2393 43.8473 21.966 46.4063C21.3449 52.0463 23.7052 56.3197 27.5562 59.1272C30.96 60.1459 34.1651 60.767 35.9539 61.1148C37.718 61.4627 39.482 61.0651 40.923 60.4688V58.5061C37.3204 58.4315 31.8793 58.034 29.519 56.0215C26.0655 53.0401 24.8232 52.0711 24.7238 47.8722C24.6493 43.6734 30.7613 33.4371 30.7613 32.0954C30.7613 31.4494 30.5128 30.6047 29.9911 29.8345Z" fill="#CA2026"/>
<path fill-rule="evenodd" clip-rule="evenodd" d="M52.0545 29.561C52.1291 29.5859 52.1788 29.5859 52.2036 29.6107C53.272 30.1076 53.6446 29.238 57.7441 38.3066C58.9367 40.9154 59.8063 43.5738 60.0796 46.1329C60.7007 51.7728 58.3404 56.0462 54.4894 58.8537C51.0856 59.8724 47.8805 60.4935 46.0916 60.8414C44.3276 61.1892 42.5636 60.7917 41.1226 60.1954V58.2326C44.7251 58.1581 50.1663 57.7605 52.5266 55.7481C55.9801 52.7666 57.2224 51.7977 57.3218 47.5988C57.3963 43.3999 51.2843 33.1636 51.2843 31.822C51.2843 31.1511 51.5328 30.3064 52.0545 29.561Z" fill="#CA2026"/>
<path fill-rule="evenodd" clip-rule="evenodd" d="M51.2838 15.3743C46.8862 1.01371 30.0659 3.54795 24.5005 11.0513C24.5005 11.0513 24.7489 11.8463 25.0222 12.2935C28.2025 10.6289 32.4262 9.21269 31.0348 14.6787C31.0348 14.6787 39.1841 13.6849 43.5072 13.7843C47.8552 13.9085 51.2838 15.3743 51.2838 15.3743Z" fill="#D41F26"/>
<path fill-rule="evenodd" clip-rule="evenodd" d="M41.0477 13.2129C13.842 19.0019 32.1282 40.2447 41.0477 46.0088C49.9672 40.2447 68.2534 19.0019 41.0477 13.2129Z" fill="white"/>
<path fill-rule="evenodd" clip-rule="evenodd" d="M30.4887 14.7035C29.9421 15.3744 29.0477 18.7782 29.5446 18.48C32.5509 16.7408 36.874 15.4986 41.048 15.2998C45.222 15.4986 49.5451 16.716 52.5514 18.48C53.0483 18.7782 52.1539 15.3744 51.6073 14.7035C50.2159 12.9892 45.5699 11.9954 41.048 11.896C36.5261 11.9954 31.88 12.9892 30.4887 14.7035Z" fill="#D0D2D3"/>
<path fill-rule="evenodd" clip-rule="evenodd" d="M30.4885 14.7035C30.1655 15.1011 29.7183 16.4427 29.5195 17.4117C29.5195 17.4117 29.5444 17.4117 29.5444 17.3868C32.5507 15.6477 36.8738 14.4054 41.0478 14.2066C45.2218 14.4054 49.5449 15.6228 52.5512 17.3868C52.5512 17.3868 52.576 17.3868 52.576 17.4117C52.3773 16.4427 51.9301 15.1011 51.6071 14.7035C50.2157 12.9892 45.5697 11.9954 41.0478 11.896C36.5259 11.9954 31.8798 12.9892 30.4885 14.7035Z" fill="#E6E7E8"/>
<path fill-rule="evenodd" clip-rule="evenodd" d="M40.9486 14.9272C44.3772 14.9272 47.4084 16.095 49.2221 17.9087C49.7687 18.5298 50.0917 19.2752 49.6196 19.9957C49.6196 19.9957 50.2656 19.8466 50.9861 21.1883C51.0109 21.4119 51.0358 21.6603 51.0358 21.884C51.0358 25.735 46.5139 28.8655 40.9486 28.8655C35.3832 28.8655 30.8613 25.735 30.8613 21.884C30.8613 21.6603 30.8862 21.4119 30.911 21.1883C31.6315 19.8466 32.2775 19.9957 32.2775 19.9957C31.8055 19.2504 32.1284 18.5298 32.675 17.9087C34.4888 16.095 37.5199 14.9272 40.9486 14.9272Z" fill="#FBCEBE"/>
<path fill-rule="evenodd" clip-rule="evenodd" d="M41.0479 26.8284L37.9919 25.8843L35.0104 28.493C34.4887 28.9403 36.0788 33.164 41.0479 32.2944C45.9921 33.1888 47.607 28.9651 47.0853 28.493L44.1038 25.8843L41.0479 26.8284Z" fill="white"/>
<path fill-rule="evenodd" clip-rule="evenodd" d="M40.9736 27.0522C42.042 27.0522 42.8867 26.282 42.8867 25.3379C42.8867 24.3937 42.0171 23.6235 40.9736 23.6235C39.9301 23.6235 39.0605 24.3937 39.0605 25.3379C39.0605 26.282 39.9301 27.0522 40.9736 27.0522Z" fill="#E7A893"/>
<path fill-rule="evenodd" clip-rule="evenodd" d="M40.9733 26.5801C41.7435 26.5801 42.3895 26.0087 42.3895 25.313C42.3895 24.6173 41.7435 24.0459 40.9733 24.0459C40.2031 24.0459 39.5571 24.6173 39.5571 25.313C39.5571 26.0335 40.2031 26.5801 40.9733 26.5801Z" fill="#AE7460"/>
<path fill-rule="evenodd" clip-rule="evenodd" d="M36.3521 20.7658C37.0975 20.7658 37.6938 20.1695 37.6938 19.4242C37.6938 18.6788 37.0975 18.0825 36.3521 18.0825C35.6068 18.0825 35.0105 18.6788 35.0105 19.4242C34.9856 20.1695 35.6068 20.7658 36.3521 20.7658Z" fill="#EAB9A8"/>
<path fill-rule="evenodd" clip-rule="evenodd" d="M36.3516 20.443C37.0225 20.443 37.5939 19.8964 37.5939 19.2008C37.5939 18.5299 37.0473 17.9585 36.3516 17.9585C35.656 17.9585 35.1094 18.5051 35.1094 19.2008C35.1094 19.8964 35.656 20.443 36.3516 20.443Z" fill="#404041"/>
<path fill-rule="evenodd" clip-rule="evenodd" d="M35.8301 19.2253C36.0289 19.2253 36.2028 19.0514 36.2028 18.8527C36.2028 18.6539 36.0289 18.48 35.8301 18.48C35.6314 18.48 35.4574 18.6539 35.4574 18.8527C35.4326 19.0514 35.6065 19.2253 35.8301 19.2253Z" fill="white"/>
<path fill-rule="evenodd" clip-rule="evenodd" d="M38.7371 17.1385C34.5133 16.9646 32.9978 17.6851 31.7804 18.3311C31.4822 18.4802 31.1344 18.2566 31.3083 17.9833C34.5382 12.567 40.5011 17.2131 38.7371 17.1385Z" fill="white"/>
<path fill-rule="evenodd" clip-rule="evenodd" d="M38.7371 17.1389C34.5133 16.9649 32.9978 17.6855 31.7804 18.3314C31.4822 18.4805 31.1344 18.2569 31.3083 17.9836C31.4325 17.7848 31.5567 17.5861 31.681 17.4122C31.4574 17.8097 31.3331 18.1078 31.4574 18.1824C31.5319 18.2321 31.9791 17.9588 32.2027 17.8097C33.3953 17.0146 35.7059 16.5674 38.6874 16.7662C38.8116 16.7662 38.3644 16.319 37.8426 15.9463C38.9358 16.468 39.4327 17.1637 38.7371 17.1389Z" fill="#E9E4E3"/>
<path fill-rule="evenodd" clip-rule="evenodd" d="M45.5443 20.7658C46.2896 20.7658 46.8859 20.1695 46.8859 19.4242C46.8859 18.6788 46.2896 18.0825 45.5443 18.0825C44.7989 18.0825 44.2026 18.6788 44.2026 19.4242C44.2026 20.1695 44.7989 20.7658 45.5443 20.7658Z" fill="#EAB9A8"/>
<path fill-rule="evenodd" clip-rule="evenodd" d="M45.5445 20.443C46.2153 20.443 46.7868 19.8964 46.7868 19.2008C46.7868 18.5299 46.2402 17.9585 45.5445 17.9585C44.8488 17.9585 44.3022 18.5051 44.3022 19.2008C44.3022 19.8964 44.8737 20.443 45.5445 20.443Z" fill="#404041"/>
<path fill-rule="evenodd" clip-rule="evenodd" d="M45.0729 19.2502C45.2716 19.2502 45.4456 19.0763 45.4456 18.8776C45.4456 18.6788 45.2716 18.5049 45.0729 18.5049C44.8741 18.5049 44.7002 18.6788 44.7002 18.8776C44.7002 19.0763 44.8741 19.2502 45.0729 19.2502Z" fill="white"/>
<path fill-rule="evenodd" clip-rule="evenodd" d="M43.1347 17.1385C47.3584 16.9646 48.874 17.6851 50.0914 18.3311C50.3895 18.4802 50.7374 18.2566 50.5635 17.9833C47.3336 12.567 41.3707 17.2131 43.1347 17.1385Z" fill="white"/>
<path fill-rule="evenodd" clip-rule="evenodd" d="M43.1344 17.1389C47.3581 16.9649 48.8736 17.6855 50.0911 18.3314C50.3892 18.4805 50.737 18.2569 50.5631 17.9836C50.4389 17.7848 50.3147 17.5861 50.1904 17.4122C50.4141 17.8097 50.5383 18.1078 50.4141 18.1824C50.3395 18.2321 49.8923 17.9588 49.6687 17.8097C48.4761 17.0146 46.1655 16.5674 43.184 16.7662C43.0598 16.7662 43.507 16.319 44.0288 15.9463C42.9604 16.468 42.4387 17.1637 43.1344 17.1389Z" fill="#E9E4E3"/>
<path d="M47.3081 25.3873C48.8312 25.3873 50.066 24.4418 50.066 23.2754C50.066 22.1091 48.8312 21.1636 47.3081 21.1636C45.785 21.1636 44.5503 22.1091 44.5503 23.2754C44.5503 24.4418 45.785 25.3873 47.3081 25.3873Z" fill="#FAC3B0"/>
<path fill-rule="evenodd" clip-rule="evenodd" d="M34.4883 25.0147C36.0039 25.0147 37.2461 24.0706 37.2461 22.9029C37.2461 21.7351 36.0039 20.791 34.4883 20.791C32.9727 20.791 31.7305 21.7351 31.7305 22.9029C31.7305 24.0706 32.9727 25.0147 34.4883 25.0147Z" fill="#FAC3B0"/>
<path fill-rule="evenodd" clip-rule="evenodd" d="M36.7993 23.5232C35.3831 24.3928 35.557 25.8587 31.8799 25.8338C33.9669 28.865 37.2713 28.219 38.7621 27.1009C39.7559 26.3556 39.582 25.163 41.0727 24.8897C41.0975 24.8897 39.8553 21.635 36.7993 23.5232Z" fill="white"/>
<path fill-rule="evenodd" clip-rule="evenodd" d="M31.8799 25.8599C33.5197 28.245 35.9545 28.742 38.4639 27.4003C39.8801 26.6301 39.4826 25.363 41.0478 24.9158C41.0727 24.9158 40.9981 24.6922 40.8242 24.4189C40.7 24.1952 40.5261 23.9468 40.2776 23.6983C40.054 23.4747 39.7559 23.2511 39.408 23.1021C39.8056 23.4499 40.3025 23.9468 40.5509 24.4189C40.6751 24.6425 40.7 24.7667 40.7 24.7667C38.8366 24.2201 38.0167 30.4314 31.8799 25.8599Z" fill="#E9E4E3"/>
<path fill-rule="evenodd" clip-rule="evenodd" d="M45.3212 23.5232C46.7374 24.3928 46.5635 25.8587 50.2406 25.8338C48.1536 28.865 44.8491 28.219 43.3584 27.1009C42.3646 26.3556 42.5385 25.163 41.0478 24.8897C40.9981 24.8897 42.2652 21.635 45.3212 23.5232Z" fill="white"/>
<path fill-rule="evenodd" clip-rule="evenodd" d="M50.2405 25.8599C48.6007 28.245 46.1658 28.742 43.6564 27.4003C42.2403 26.6301 42.6378 25.363 41.0725 24.9158C41.0477 24.9158 41.1222 24.6922 41.2961 24.4189C41.4204 24.1952 41.5943 23.9468 41.8427 23.6983C42.0663 23.4747 42.3645 23.2511 42.7123 23.1021C42.3148 23.4499 41.8179 23.9468 41.5694 24.4189C41.4452 24.6425 41.4204 24.7667 41.4204 24.7667C43.2838 24.2201 44.0788 30.4314 50.2405 25.8599Z" fill="#E9E4E3"/>
<path fill-rule="evenodd" clip-rule="evenodd" d="M40.8982 24.9396C42.1405 24.9396 43.1343 24.0452 43.1343 22.952C43.1343 21.8588 42.1156 20.9644 40.8982 20.9644C39.6559 20.9644 38.6621 21.8588 38.6621 22.952C38.6621 24.0452 39.6559 24.9396 40.8982 24.9396Z" fill="#F0B19A"/>
<path fill-rule="evenodd" clip-rule="evenodd" d="M40.8982 24.2443C39.7802 24.2443 38.8609 23.5486 38.687 22.6045C38.6621 22.7287 38.6621 22.8281 38.6621 22.9523C38.6621 24.0455 39.6808 24.9399 40.8982 24.9399C42.1405 24.9399 43.1343 24.0455 43.1343 22.9523C43.1343 22.8281 43.1343 22.7287 43.1094 22.6045C42.9355 23.5238 42.0162 24.2443 40.8982 24.2443Z" fill="#E7A893"/>
<path fill-rule="evenodd" clip-rule="evenodd" d="M40.9236 22.0328C41.4454 22.0328 41.8677 21.9086 41.8677 21.7347C41.8677 21.5608 41.4454 21.4365 40.9236 21.4365C40.4019 21.4365 39.9795 21.5608 39.9795 21.7347C39.9795 21.9086 40.4019 22.0328 40.9236 22.0328Z" fill="#FAC3B1"/>
<path fill-rule="evenodd" clip-rule="evenodd" d="M40.973 27.0522C40.3518 27.0522 39.8301 26.8037 39.4574 26.4062C39.3332 26.605 39.1841 26.8286 38.9854 27.0273C39.5071 27.4248 40.2276 27.6982 41.0227 27.6982C41.8426 27.6982 42.5631 27.4497 43.0848 27.0273C42.8612 26.8286 42.7122 26.605 42.5879 26.3813L42.4886 26.4062C42.1407 26.7789 41.5941 27.0522 40.973 27.0522Z" fill="#E9E4E3"/>
<path fill-rule="evenodd" clip-rule="evenodd" d="M41.0477 43.5988C35.9047 40.2695 27.6064 31.7724 26.7865 24.0703C25.8424 32.319 35.3581 42.3068 41.0477 45.984C46.7373 42.3068 56.2531 32.319 55.309 24.0703C54.4891 31.7724 46.1907 40.2695 41.0477 43.5988Z" fill="#E9E4E3"/>
<path fill-rule="evenodd" clip-rule="evenodd" d="M33.4695 13.0143C33.6185 11.4241 33.2955 9.73466 31.2334 9.36198C28.9228 8.93961 25.0469 12.2937 25.0469 12.2937C28.1029 10.7036 32.1278 9.33714 31.2085 14.0578C31.78 13.6602 32.5502 13.3124 33.4695 13.0143Z" fill="#CA2026"/>
<path fill-rule="evenodd" clip-rule="evenodd" d="M42.9358 7.39925C45.8675 8.84028 46.9607 11.1012 47.3334 12.6665C48.7744 13.0143 49.9919 13.4615 50.8118 14.033C47.3831 5.16316 39.1096 3.89604 32.6001 6.35574C35.9791 5.93337 38.9854 5.43646 42.9358 7.39925Z" fill="#CA2026"/>
<path d="M24.5252 15.3081C25.9552 15.1316 26.9713 13.8293 26.7949 12.3993C26.6184 10.9693 25.3161 9.95315 23.8861 10.1296C22.4561 10.3061 21.44 11.6085 21.6164 13.0384C21.7929 14.4684 23.0952 15.4845 24.5252 15.3081Z" fill="#D0D2D3"/>
<path fill-rule="evenodd" clip-rule="evenodd" d="M24.2026 10.0825C25.5194 10.0825 26.6126 11.0515 26.7865 12.3186C26.5877 13.5609 25.4945 14.505 24.2026 14.505C22.8858 14.505 21.7926 13.536 21.6187 12.2689C21.8174 11.0266 22.8858 10.0825 24.2026 10.0825Z" fill="#E6E7E8"/>
<path fill-rule="evenodd" clip-rule="evenodd" d="M14.7116 33.2384C14.1153 32.9154 10.8605 32.2197 9.22075 31.9961C7.58096 31.7973 5.96601 31.2756 5.84178 30.3066C5.71755 29.3128 11.6059 28.7414 14.1153 28.9401C16.6247 29.1389 17.6185 29.3377 17.3949 30.3563C17.1713 31.375 15.9787 32.3191 15.4569 32.7663C14.9352 33.2135 14.7116 33.2384 14.7116 33.2384Z" fill="#CA2026"/>
<path fill-rule="evenodd" clip-rule="evenodd" d="M13.4194 16.2193C13.5188 15.946 13.3449 15.4988 13.4691 15.2255C13.5934 14.977 14.0406 14.8777 14.1896 14.6044C17.2953 14.5795 20.6743 12.4676 21.196 10.008C21.2706 10.0328 21.2954 9.63528 21.3948 9.68497C21.4942 9.73466 21.6433 10.2564 21.7178 10.3309C22.5625 13.7348 17.3202 17.0144 13.4194 16.2193Z" fill="#CFC986"/>
<path fill-rule="evenodd" clip-rule="evenodd" d="M14.1897 14.6043C13.8916 15.1261 13.6183 15.6727 13.3947 16.1945C12.9723 16.0951 12.5748 15.9708 12.1772 15.7721C12.2766 15.3249 12.4257 14.8776 12.6245 14.4056C14.3636 10.2813 19.3576 6.43021 21.2707 9.26259C21.37 9.41166 21.4694 9.58558 21.544 9.78434C21.6185 9.95826 21.693 10.1322 21.7179 10.3061C21.544 10.157 21.37 10.0576 21.1961 9.9831C19.2333 9.1632 15.9786 11.6229 14.1897 14.6043Z" fill="#FFF8AD"/>
<path fill-rule="evenodd" clip-rule="evenodd" d="M12.0037 14.7535C12.3267 15.2753 12.6 15.797 12.7987 16.3436C13.2211 16.2442 13.6186 16.12 14.0162 15.9212C13.9168 15.474 13.7429 15.0268 13.5689 14.5796C11.7801 10.4801 6.76131 6.70361 4.8979 9.56083C4.79852 9.7099 4.69914 9.88381 4.6246 10.0826C4.55007 10.2565 4.50037 10.4304 4.45068 10.6043C4.6246 10.4553 4.79852 10.3559 4.97244 10.2565C6.93522 9.36206 10.19 11.7721 12.0037 14.7535Z" fill="#FFF8AD"/>
<path fill-rule="evenodd" clip-rule="evenodd" d="M8.77393 18.2818L10.6373 16.5923H23.5321V30.5057H13.1219L8.77393 18.2818Z" fill="#ED3031"/>
<path d="M13.8167 16.5923H0.97168V30.5057H13.8167V16.5923Z" fill="#EE3A3A"/>
<path fill-rule="evenodd" clip-rule="evenodd" d="M23.5315 19.3745V19.9211H9.36966L9.1709 19.3745H23.5315Z" fill="#EC1C24"/>
<path d="M13.8167 19.3745H0.97168V19.9211H13.8167V19.3745Z" fill="#ED3031"/>
<path d="M23.5561 22.2568H0.97168V24.5178H23.5561V22.2568Z" fill="#FFF8AD"/>
<path d="M23.5563 22.2568H13.8169V24.5178H23.5563V22.2568Z" fill="#CFC986"/>
<path d="M23.9292 15.9209H0.5V19.3744H23.9292V15.9209Z" fill="#EF4849"/>
<path d="M23.9542 15.9209H14.2148V19.3744H23.9542V15.9209Z" fill="#ED3031"/>
<path d="M20.3015 15.9209H17.8667V30.5051H20.3015V15.9209Z" fill="#C2BD7C"/>
<path fill-rule="evenodd" clip-rule="evenodd" d="M12.0286 32.6421C11.8547 32.9153 12.6249 34.7539 13.0224 34.9278C13.3951 35.1017 16.625 33.9589 17.4697 33.6359C18.3145 33.3129 18.6375 33.0893 18.6126 32.6917C18.5381 31.9464 18.066 30.6296 17.594 30.7538C16.9728 30.9029 12.3267 32.17 12.0286 32.6421Z" fill="#E6E7E8"/>
<path fill-rule="evenodd" clip-rule="evenodd" d="M13.1213 30.5049H8.10254C8.32615 30.6291 8.59945 30.7533 8.92244 30.8527C10.9598 31.5236 14.7114 31.5981 15.8543 30.7285C15.9537 30.654 16.0779 30.5794 16.1773 30.5049H13.7921H13.1213Z" fill="#B31E23"/>
<path fill-rule="evenodd" clip-rule="evenodd" d="M19.0091 36.3188C18.537 35.1759 18.2389 34.5548 17.8413 33.4864C17.7171 33.5361 17.5929 33.5858 17.4438 33.6355C17.245 33.71 16.9469 33.8094 16.5742 33.9585C17.2947 34.9771 18.3631 36.4927 18.3879 36.6418C18.4376 36.8654 18.5618 37.9834 18.6861 37.7846C18.7855 37.6356 24.4502 34.0827 27.4068 32.2441C27.6553 31.7969 27.8789 31.4491 28.0776 31.1758C25.1956 33.2379 19.0091 36.3188 19.0091 36.3188Z" fill="#BB2025"/>
<path fill-rule="evenodd" clip-rule="evenodd" d="M52.8242 35.4739C58.5138 40.3436 62.2655 41.5114 65.4954 48.0705L70.0172 46.5053C68.3774 41.3871 55.5572 28.8651 54.0665 31.0266L52.8242 35.4739Z" fill="#CA2026"/>
<path fill-rule="evenodd" clip-rule="evenodd" d="M17.5935 32.6911C16.7736 33.2129 14.3636 33.8092 13.1214 34.2067C12.9226 34.2813 12.7238 34.3309 12.5996 34.4055C12.7487 34.6788 12.8978 34.8775 13.022 34.9272C13.0717 34.9521 13.1959 34.9521 13.3698 34.9272C14.0655 34.803 15.5562 34.331 16.5749 33.9583C16.9476 33.834 17.2705 33.7098 17.4445 33.6353C17.5935 33.5856 17.7178 33.5359 17.842 33.4862C18.3886 33.2377 18.6122 33.0141 18.5873 32.716C18.5128 31.9706 18.0407 30.7035 17.5687 30.778C17.8171 31.3495 18.0407 32.07 17.8171 32.4675C17.7923 32.5172 17.6929 32.5918 17.5935 32.6911Z" fill="#D0D2D3"/>
</g>
<g clip-path="url(#clip0_12734_129129)">
<path fill-rule="evenodd" clip-rule="evenodd" d="M41.0475 29.9088C41.0475 29.9088 30.9105 29.4119 29.8422 29.9088C28.7738 30.4057 28.4012 29.5362 24.3017 38.6047C23.1091 41.2135 22.2395 43.8719 21.9662 46.431C19.2829 70.4565 71.0855 69.3385 57.8181 38.6047C53.8677 29.4616 53.3459 30.4057 52.2776 29.9088C51.1844 29.4119 41.0475 29.9088 41.0475 29.9088Z" fill="#D41F26"/>
<path fill-rule="evenodd" clip-rule="evenodd" d="M29.9911 29.8345C29.9165 29.8593 29.8668 29.8593 29.842 29.8842C28.7736 30.3811 28.401 29.5115 24.3015 38.5801C23.1089 41.1888 22.2393 43.8473 21.966 46.4063C21.3449 52.0463 23.7052 56.3197 27.5562 59.1272C30.96 60.1459 34.1651 60.767 35.9539 61.1148C37.718 61.4627 39.482 61.0651 40.923 60.4688V58.5061C37.3204 58.4315 31.8793 58.034 29.519 56.0215C26.0655 53.0401 24.8232 52.0711 24.7238 47.8722C24.6493 43.6734 30.7613 33.4371 30.7613 32.0954C30.7613 31.4494 30.5128 30.6047 29.9911 29.8345Z" fill="#CA2026"/>
<path fill-rule="evenodd" clip-rule="evenodd" d="M52.0545 29.561C52.1291 29.5859 52.1788 29.5859 52.2036 29.6107C53.272 30.1076 53.6446 29.238 57.7441 38.3066C58.9367 40.9154 59.8063 43.5738 60.0796 46.1329C60.7007 51.7728 58.3404 56.0462 54.4894 58.8537C51.0856 59.8724 47.8805 60.4935 46.0916 60.8414C44.3276 61.1892 42.5636 60.7917 41.1226 60.1954V58.2326C44.7251 58.1581 50.1663 57.7605 52.5266 55.7481C55.9801 52.7666 57.2224 51.7977 57.3218 47.5988C57.3963 43.3999 51.2843 33.1636 51.2843 31.822C51.2843 31.1511 51.5328 30.3064 52.0545 29.561Z" fill="#CA2026"/>
<path fill-rule="evenodd" clip-rule="evenodd" d="M51.2838 15.3743C46.8862 1.01371 30.0659 3.54795 24.5005 11.0513C24.5005 11.0513 24.7489 11.8463 25.0222 12.2935C28.2025 10.6289 32.4262 9.21269 31.0348 14.6787C31.0348 14.6787 39.1841 13.6849 43.5072 13.7843C47.8552 13.9085 51.2838 15.3743 51.2838 15.3743Z" fill="#D41F26"/>
<path fill-rule="evenodd" clip-rule="evenodd" d="M41.0477 13.2129C13.842 19.0019 32.1282 40.2447 41.0477 46.0088C49.9672 40.2447 68.2534 19.0019 41.0477 13.2129Z" fill="white"/>
<path fill-rule="evenodd" clip-rule="evenodd" d="M30.4887 14.7035C29.9421 15.3744 29.0477 18.7782 29.5446 18.48C32.5509 16.7408 36.874 15.4986 41.048 15.2998C45.222 15.4986 49.5451 16.716 52.5514 18.48C53.0483 18.7782 52.1539 15.3744 51.6073 14.7035C50.2159 12.9892 45.5699 11.9954 41.048 11.896C36.5261 11.9954 31.88 12.9892 30.4887 14.7035Z" fill="#D0D2D3"/>
<path fill-rule="evenodd" clip-rule="evenodd" d="M30.4885 14.7035C30.1655 15.1011 29.7183 16.4427 29.5195 17.4117C29.5195 17.4117 29.5444 17.4117 29.5444 17.3868C32.5507 15.6477 36.8738 14.4054 41.0478 14.2066C45.2218 14.4054 49.5449 15.6228 52.5512 17.3868C52.5512 17.3868 52.576 17.3868 52.576 17.4117C52.3773 16.4427 51.9301 15.1011 51.6071 14.7035C50.2157 12.9892 45.5697 11.9954 41.0478 11.896C36.5259 11.9954 31.8798 12.9892 30.4885 14.7035Z" fill="#E6E7E8"/>
<path fill-rule="evenodd" clip-rule="evenodd" d="M40.9486 14.9272C44.3772 14.9272 47.4084 16.095 49.2221 17.9087C49.7687 18.5298 50.0917 19.2752 49.6196 19.9957C49.6196 19.9957 50.2656 19.8466 50.9861 21.1883C51.0109 21.4119 51.0358 21.6603 51.0358 21.884C51.0358 25.735 46.5139 28.8655 40.9486 28.8655C35.3832 28.8655 30.8613 25.735 30.8613 21.884C30.8613 21.6603 30.8862 21.4119 30.911 21.1883C31.6315 19.8466 32.2775 19.9957 32.2775 19.9957C31.8055 19.2504 32.1284 18.5298 32.675 17.9087C34.4888 16.095 37.5199 14.9272 40.9486 14.9272Z" fill="#FBCEBE"/>
<path fill-rule="evenodd" clip-rule="evenodd" d="M41.0479 26.8284L37.9919 25.8843L35.0104 28.493C34.4887 28.9403 36.0788 33.164 41.0479 32.2944C45.9921 33.1888 47.607 28.9651 47.0853 28.493L44.1038 25.8843L41.0479 26.8284Z" fill="white"/>
<path fill-rule="evenodd" clip-rule="evenodd" d="M40.9736 27.0522C42.042 27.0522 42.8867 26.282 42.8867 25.3379C42.8867 24.3937 42.0171 23.6235 40.9736 23.6235C39.9301 23.6235 39.0605 24.3937 39.0605 25.3379C39.0605 26.282 39.9301 27.0522 40.9736 27.0522Z" fill="#E7A893"/>
<path fill-rule="evenodd" clip-rule="evenodd" d="M40.9733 26.5801C41.7435 26.5801 42.3895 26.0087 42.3895 25.313C42.3895 24.6173 41.7435 24.0459 40.9733 24.0459C40.2031 24.0459 39.5571 24.6173 39.5571 25.313C39.5571 26.0335 40.2031 26.5801 40.9733 26.5801Z" fill="#AE7460"/>
<path fill-rule="evenodd" clip-rule="evenodd" d="M36.3521 20.7658C37.0975 20.7658 37.6938 20.1695 37.6938 19.4242C37.6938 18.6788 37.0975 18.0825 36.3521 18.0825C35.6068 18.0825 35.0105 18.6788 35.0105 19.4242C34.9856 20.1695 35.6068 20.7658 36.3521 20.7658Z" fill="#EAB9A8"/>
<path fill-rule="evenodd" clip-rule="evenodd" d="M36.3516 20.443C37.0225 20.443 37.5939 19.8964 37.5939 19.2008C37.5939 18.5299 37.0473 17.9585 36.3516 17.9585C35.656 17.9585 35.1094 18.5051 35.1094 19.2008C35.1094 19.8964 35.656 20.443 36.3516 20.443Z" fill="#404041"/>
<path fill-rule="evenodd" clip-rule="evenodd" d="M35.8301 19.2253C36.0289 19.2253 36.2028 19.0514 36.2028 18.8527C36.2028 18.6539 36.0289 18.48 35.8301 18.48C35.6314 18.48 35.4574 18.6539 35.4574 18.8527C35.4326 19.0514 35.6065 19.2253 35.8301 19.2253Z" fill="white"/>
<path fill-rule="evenodd" clip-rule="evenodd" d="M38.7371 17.1385C34.5133 16.9646 32.9978 17.6851 31.7804 18.3311C31.4822 18.4802 31.1344 18.2566 31.3083 17.9833C34.5382 12.567 40.5011 17.2131 38.7371 17.1385Z" fill="white"/>
<path fill-rule="evenodd" clip-rule="evenodd" d="M38.7371 17.1389C34.5133 16.9649 32.9978 17.6855 31.7804 18.3314C31.4822 18.4805 31.1344 18.2569 31.3083 17.9836C31.4325 17.7848 31.5567 17.5861 31.681 17.4122C31.4574 17.8097 31.3331 18.1078 31.4574 18.1824C31.5319 18.2321 31.9791 17.9588 32.2027 17.8097C33.3953 17.0146 35.7059 16.5674 38.6874 16.7662C38.8116 16.7662 38.3644 16.319 37.8426 15.9463C38.9358 16.468 39.4327 17.1637 38.7371 17.1389Z" fill="#E9E4E3"/>
<path fill-rule="evenodd" clip-rule="evenodd" d="M45.5443 20.7658C46.2896 20.7658 46.8859 20.1695 46.8859 19.4242C46.8859 18.6788 46.2896 18.0825 45.5443 18.0825C44.7989 18.0825 44.2026 18.6788 44.2026 19.4242C44.2026 20.1695 44.7989 20.7658 45.5443 20.7658Z" fill="#EAB9A8"/>
<path fill-rule="evenodd" clip-rule="evenodd" d="M45.5445 20.443C46.2153 20.443 46.7868 19.8964 46.7868 19.2008C46.7868 18.5299 46.2402 17.9585 45.5445 17.9585C44.8488 17.9585 44.3022 18.5051 44.3022 19.2008C44.3022 19.8964 44.8737 20.443 45.5445 20.443Z" fill="#404041"/>
<path fill-rule="evenodd" clip-rule="evenodd" d="M45.0729 19.2502C45.2716 19.2502 45.4456 19.0763 45.4456 18.8776C45.4456 18.6788 45.2716 18.5049 45.0729 18.5049C44.8741 18.5049 44.7002 18.6788 44.7002 18.8776C44.7002 19.0763 44.8741 19.2502 45.0729 19.2502Z" fill="white"/>
<path fill-rule="evenodd" clip-rule="evenodd" d="M43.1347 17.1385C47.3584 16.9646 48.874 17.6851 50.0914 18.3311C50.3895 18.4802 50.7374 18.2566 50.5635 17.9833C47.3336 12.567 41.3707 17.2131 43.1347 17.1385Z" fill="white"/>
<path fill-rule="evenodd" clip-rule="evenodd" d="M43.1344 17.1389C47.3581 16.9649 48.8736 17.6855 50.0911 18.3314C50.3892 18.4805 50.737 18.2569 50.5631 17.9836C50.4389 17.7848 50.3147 17.5861 50.1904 17.4122C50.4141 17.8097 50.5383 18.1078 50.4141 18.1824C50.3395 18.2321 49.8923 17.9588 49.6687 17.8097C48.4761 17.0146 46.1655 16.5674 43.184 16.7662C43.0598 16.7662 43.507 16.319 44.0288 15.9463C42.9604 16.468 42.4387 17.1637 43.1344 17.1389Z" fill="#E9E4E3"/>
<path d="M47.3081 25.3873C48.8312 25.3873 50.066 24.4418 50.066 23.2754C50.066 22.1091 48.8312 21.1636 47.3081 21.1636C45.785 21.1636 44.5503 22.1091 44.5503 23.2754C44.5503 24.4418 45.785 25.3873 47.3081 25.3873Z" fill="#FAC3B0"/>
<path fill-rule="evenodd" clip-rule="evenodd" d="M34.4883 25.0147C36.0039 25.0147 37.2461 24.0706 37.2461 22.9029C37.2461 21.7351 36.0039 20.791 34.4883 20.791C32.9727 20.791 31.7305 21.7351 31.7305 22.9029C31.7305 24.0706 32.9727 25.0147 34.4883 25.0147Z" fill="#FAC3B0"/>
<path fill-rule="evenodd" clip-rule="evenodd" d="M36.7993 23.5232C35.3831 24.3928 35.557 25.8587 31.8799 25.8338C33.9669 28.865 37.2713 28.219 38.7621 27.1009C39.7559 26.3556 39.582 25.163 41.0727 24.8897C41.0975 24.8897 39.8553 21.635 36.7993 23.5232Z" fill="white"/>
<path fill-rule="evenodd" clip-rule="evenodd" d="M31.8799 25.8599C33.5197 28.245 35.9545 28.742 38.4639 27.4003C39.8801 26.6301 39.4826 25.363 41.0478 24.9158C41.0727 24.9158 40.9981 24.6922 40.8242 24.4189C40.7 24.1952 40.5261 23.9468 40.2776 23.6983C40.054 23.4747 39.7559 23.2511 39.408 23.1021C39.8056 23.4499 40.3025 23.9468 40.5509 24.4189C40.6751 24.6425 40.7 24.7667 40.7 24.7667C38.8366 24.2201 38.0167 30.4314 31.8799 25.8599Z" fill="#E9E4E3"/>
<path fill-rule="evenodd" clip-rule="evenodd" d="M45.3212 23.5232C46.7374 24.3928 46.5635 25.8587 50.2406 25.8338C48.1536 28.865 44.8491 28.219 43.3584 27.1009C42.3646 26.3556 42.5385 25.163 41.0478 24.8897C40.9981 24.8897 42.2652 21.635 45.3212 23.5232Z" fill="white"/>
<path fill-rule="evenodd" clip-rule="evenodd" d="M50.2405 25.8599C48.6007 28.245 46.1658 28.742 43.6564 27.4003C42.2403 26.6301 42.6378 25.363 41.0725 24.9158C41.0477 24.9158 41.1222 24.6922 41.2961 24.4189C41.4204 24.1952 41.5943 23.9468 41.8427 23.6983C42.0663 23.4747 42.3645 23.2511 42.7123 23.1021C42.3148 23.4499 41.8179 23.9468 41.5694 24.4189C41.4452 24.6425 41.4204 24.7667 41.4204 24.7667C43.2838 24.2201 44.0788 30.4314 50.2405 25.8599Z" fill="#E9E4E3"/>
<path fill-rule="evenodd" clip-rule="evenodd" d="M40.8982 24.9396C42.1405 24.9396 43.1343 24.0452 43.1343 22.952C43.1343 21.8588 42.1156 20.9644 40.8982 20.9644C39.6559 20.9644 38.6621 21.8588 38.6621 22.952C38.6621 24.0452 39.6559 24.9396 40.8982 24.9396Z" fill="#F0B19A"/>
<path fill-rule="evenodd" clip-rule="evenodd" d="M40.8982 24.2443C39.7802 24.2443 38.8609 23.5486 38.687 22.6045C38.6621 22.7287 38.6621 22.8281 38.6621 22.9523C38.6621 24.0455 39.6808 24.9399 40.8982 24.9399C42.1405 24.9399 43.1343 24.0455 43.1343 22.9523C43.1343 22.8281 43.1343 22.7287 43.1094 22.6045C42.9355 23.5238 42.0162 24.2443 40.8982 24.2443Z" fill="#E7A893"/>
<path fill-rule="evenodd" clip-rule="evenodd" d="M40.9236 22.0328C41.4454 22.0328 41.8677 21.9086 41.8677 21.7347C41.8677 21.5608 41.4454 21.4365 40.9236 21.4365C40.4019 21.4365 39.9795 21.5608 39.9795 21.7347C39.9795 21.9086 40.4019 22.0328 40.9236 22.0328Z" fill="#FAC3B1"/>
<path fill-rule="evenodd" clip-rule="evenodd" d="M40.973 27.0522C40.3518 27.0522 39.8301 26.8037 39.4574 26.4062C39.3332 26.605 39.1841 26.8286 38.9854 27.0273C39.5071 27.4248 40.2276 27.6982 41.0227 27.6982C41.8426 27.6982 42.5631 27.4497 43.0848 27.0273C42.8612 26.8286 42.7122 26.605 42.5879 26.3813L42.4886 26.4062C42.1407 26.7789 41.5941 27.0522 40.973 27.0522Z" fill="#E9E4E3"/>
<path fill-rule="evenodd" clip-rule="evenodd" d="M41.0477 43.5988C35.9047 40.2695 27.6064 31.7724 26.7865 24.0703C25.8424 32.319 35.3581 42.3068 41.0477 45.984C46.7373 42.3068 56.2531 32.319 55.309 24.0703C54.4891 31.7724 46.1907 40.2695 41.0477 43.5988Z" fill="#E9E4E3"/>
<path fill-rule="evenodd" clip-rule="evenodd" d="M33.4695 13.0143C33.6185 11.4241 33.2955 9.73466 31.2334 9.36198C28.9228 8.93961 25.0469 12.2937 25.0469 12.2937C28.1029 10.7036 32.1278 9.33714 31.2085 14.0578C31.78 13.6602 32.5502 13.3124 33.4695 13.0143Z" fill="#CA2026"/>
<path fill-rule="evenodd" clip-rule="evenodd" d="M42.9358 7.39925C45.8675 8.84028 46.9607 11.1012 47.3334 12.6665C48.7744 13.0143 49.9919 13.4615 50.8118 14.033C47.3831 5.16316 39.1096 3.89604 32.6001 6.35574C35.9791 5.93337 38.9854 5.43646 42.9358 7.39925Z" fill="#CA2026"/>
<path d="M24.5252 15.3081C25.9552 15.1316 26.9713 13.8293 26.7949 12.3993C26.6184 10.9693 25.3161 9.95315 23.8861 10.1296C22.4561 10.3061 21.44 11.6085 21.6164 13.0384C21.7929 14.4684 23.0952 15.4845 24.5252 15.3081Z" fill="#D0D2D3"/>
<path fill-rule="evenodd" clip-rule="evenodd" d="M24.2026 10.0825C25.5194 10.0825 26.6126 11.0515 26.7865 12.3186C26.5877 13.5609 25.4945 14.505 24.2026 14.505C22.8858 14.505 21.7926 13.536 21.6187 12.2689C21.8174 11.0266 22.8858 10.0825 24.2026 10.0825Z" fill="#E6E7E8"/>
<path fill-rule="evenodd" clip-rule="evenodd" d="M14.7116 33.2384C14.1153 32.9154 10.8605 32.2197 9.22075 31.9961C7.58096 31.7973 5.96601 31.2756 5.84178 30.3066C5.71755 29.3128 11.6059 28.7414 14.1153 28.9401C16.6247 29.1389 17.6185 29.3377 17.3949 30.3563C17.1713 31.375 15.9787 32.3191 15.4569 32.7663C14.9352 33.2135 14.7116 33.2384 14.7116 33.2384Z" fill="#CA2026"/>
<path fill-rule="evenodd" clip-rule="evenodd" d="M13.4194 16.2193C13.5188 15.946 13.3449 15.4988 13.4691 15.2255C13.5934 14.977 14.0406 14.8777 14.1896 14.6044C17.2953 14.5795 20.6743 12.4676 21.196 10.008C21.2706 10.0328 21.2954 9.63528 21.3948 9.68497C21.4942 9.73466 21.6433 10.2564 21.7178 10.3309C22.5625 13.7348 17.3202 17.0144 13.4194 16.2193Z" fill="#CFC986"/>
<path fill-rule="evenodd" clip-rule="evenodd" d="M14.1897 14.6043C13.8916 15.1261 13.6183 15.6727 13.3947 16.1945C12.9723 16.0951 12.5748 15.9708 12.1772 15.7721C12.2766 15.3249 12.4257 14.8776 12.6245 14.4056C14.3636 10.2813 19.3576 6.43021 21.2707 9.26259C21.37 9.41166 21.4694 9.58558 21.544 9.78434C21.6185 9.95826 21.693 10.1322 21.7179 10.3061C21.544 10.157 21.37 10.0576 21.1961 9.9831C19.2333 9.1632 15.9786 11.6229 14.1897 14.6043Z" fill="#FFF8AD"/>
<path fill-rule="evenodd" clip-rule="evenodd" d="M12.7987 16.3184C12.6993 16.0451 12.8732 15.5979 12.7241 15.3246C12.5999 15.0761 12.1278 14.9767 11.9788 14.7283C8.8731 14.7283 5.46928 12.6909 4.92268 10.2064C4.84815 10.2312 4.8233 9.83371 4.72392 9.90825C4.62454 9.95794 4.47547 10.4797 4.40093 10.5542C3.63072 13.9829 8.89795 17.188 12.7987 16.3184Z" fill="#CFC986"/>
<path fill-rule="evenodd" clip-rule="evenodd" d="M12.0037 14.7535C12.3267 15.2753 12.6 15.797 12.7987 16.3436C13.2211 16.2442 13.6186 16.12 14.0162 15.9212C13.9168 15.474 13.7429 15.0268 13.5689 14.5796C11.7801 10.4801 6.76131 6.70361 4.8979 9.56083C4.79852 9.7099 4.69914 9.88381 4.6246 10.0826C4.55007 10.2565 4.50037 10.4304 4.45068 10.6043C4.6246 10.4553 4.79852 10.3559 4.97244 10.2565C6.93522 9.36206 10.19 11.7721 12.0037 14.7535Z" fill="#FFF8AD"/>
<path fill-rule="evenodd" clip-rule="evenodd" d="M8.77393 18.2818L10.6373 16.5923H23.5321V30.5057H13.1219L8.77393 18.2818Z" fill="#ED3031"/>
<path d="M13.8167 16.5923H0.97168V30.5057H13.8167V16.5923Z" fill="#EE3A3A"/>
<path fill-rule="evenodd" clip-rule="evenodd" d="M23.5315 19.3745V19.9211H9.36966L9.1709 19.3745H23.5315Z" fill="#EC1C24"/>
<path d="M13.8167 19.3745H0.97168V19.9211H13.8167V19.3745Z" fill="#ED3031"/>
<path d="M23.5561 22.2568H0.97168V24.5178H23.5561V22.2568Z" fill="#FFF8AD"/>
<path d="M23.5563 22.2568H13.8169V24.5178H23.5563V22.2568Z" fill="#CFC986"/>
<path d="M23.9292 15.9209H0.5V19.3744H23.9292V15.9209Z" fill="#EF4849"/>
<path d="M23.9542 15.9209H14.2148V19.3744H23.9542V15.9209Z" fill="#ED3031"/>
<path d="M20.3015 15.9209H17.8667V30.5051H20.3015V15.9209Z" fill="#C2BD7C"/>
<path fill-rule="evenodd" clip-rule="evenodd" d="M52.8242 35.4739C58.5138 40.3436 62.2655 41.5114 65.4954 48.0705L70.0172 46.5053C68.3774 41.3871 55.5572 28.8651 54.0665 31.0266L52.8242 35.4739Z" fill="#CA2026"/>
</g>
<defs>
<clipPath id="clip0_12734_129129">
<rect width="55" height="25" fill="white" transform="translate(0.5 5)"/>
</clipPath>
</defs>
</svg>
