<svg width="49" height="48" viewBox="0 0 49 48" fill="none" xmlns="http://www.w3.org/2000/svg">
<circle cx="24.5" cy="24" r="23" fill="#38384A" stroke="#20B18D" stroke-width="2"/>
<mask id="mask0_13502_107763" style="mask-type:alpha" maskUnits="userSpaceOnUse" x="2" y="2" width="45" height="44">
<circle cx="24.5" cy="24" r="22" fill="#38384A"/>
</mask>
<g mask="url(#mask0_13502_107763)">
<path d="M7.65625 22.8281L25 31.5L42.3437 22.8281V41.3281L25 49.9998L7.65625 41.328V22.8281Z" fill="#DB5449"/>
<path d="M7.65625 24.5625V29.9679L24.9422 38.4375L42.3437 29.939V24.5625L25 33.061L7.65625 24.5625Z" fill="#C54B42"/>
<path d="M25 49.9998V31.5L8.81251 23.4062H7.65625V41.3281L25 49.9998Z" fill="#D05045"/>
<path d="M7.65625 24.5625V29.9679L24.9422 38.4375L25 38.4085V33.032V33.0609L7.65625 24.5625Z" fill="#BB483E"/>
<path d="M6.5 22.2211L25 13L43.5 22.2211V23.4352L25 32.6561L6.5 23.464V22.2211Z" fill="#EB6258"/>
<path d="M35.6086 15.9196C35.0016 14.8211 33.7008 14.1562 32.1688 14.1562C28.6711 14.1562 26.2141 17.4227 25 19.5039C23.7859 17.4227 21.3 14.1852 17.8313 14.1852C15.6055 14.1852 14.0156 15.5438 14.0156 17.3938C14.0156 20.689 17.6289 22.8281 24.8843 22.8281C32.1398 22.8281 35.9843 20.0821 35.9843 17.4227C35.9844 16.9024 35.8688 16.3821 35.6086 15.9196ZM18.5829 19.4751C17.7735 18.9259 17.4845 18.3188 17.4845 17.9141C17.4845 17.4228 17.947 17.047 18.6118 17.047C20.1728 17.047 21.4157 19.0993 22.1094 20.5157C20.2884 20.3712 19.2188 19.8797 18.5829 19.4751ZM31.4172 19.4751C30.7812 19.8798 29.7117 20.3712 27.8907 20.5157C28.5555 19.0993 29.7985 17.0469 31.3883 17.0469C32.0531 17.0469 32.5156 17.4227 32.5156 17.9141C32.5157 18.3188 32.2266 18.9258 31.4172 19.4751Z" fill="#EFEFEF"/>
<path d="M6.5 22.25L25 31.2977L43.5 22.25V28.2336L24.9422 37.2812L6.5 28.2336V22.25Z" fill="#E2574C"/>
<path d="M31.9374 28.6961V28.0313L24.9999 24.2735L18.0625 28.0313V28.6961L13.4375 26.6727V25.7477L24.7687 19.7642L24.9999 19.8798L25.2312 19.7642L36.5624 25.7188V26.6438L31.9374 28.6961Z" fill="#EFEFEF"/>
<path d="M31.9375 28.0313V46.5024L36.5625 44.1898V25.7188L31.9375 28.0313Z" fill="#DCDCDC"/>
<path d="M13.4375 44.2187L18.0625 46.5312V28.0602L13.4375 25.7188C13.4375 25.7187 13.4375 44.2187 13.4375 44.2187Z" fill="#D1D1D1"/>
</g>
</svg>
