<svg width="36" height="36" viewBox="0 0 36 36" fill="none" xmlns="http://www.w3.org/2000/svg">
<circle cx="18" cy="18" r="16.7273" fill="#38384A" stroke="#20B18D" stroke-width="1.45455"/>
<mask id="mask0_13502_110439" style="mask-type:alpha" maskUnits="userSpaceOnUse" x="2" y="2" width="32" height="32">
<circle cx="18" cy="18" r="16" fill="#38384A"/>
</mask>
<g mask="url(#mask0_13502_110439)">
<path d="M5.75 17.1479L18.3636 23.4548L30.9773 17.1479V30.6025L18.3636 36.9092L5.75 30.6024V17.1479Z" fill="#DB5449"/>
<path d="M5.75 18.4092V22.3404L18.3216 28.5001L30.9772 22.3194V18.4092L18.3636 24.5899L5.75 18.4092Z" fill="#C54B42"/>
<path d="M18.3636 36.9092V23.4547L6.59092 17.5684H5.75V30.6024L18.3636 36.9092Z" fill="#D05045"/>
<path d="M5.75 18.4092V22.3404L18.3216 28.5001L18.3636 28.479V24.5688V24.5899L5.75 18.4092Z" fill="#BB483E"/>
<path d="M4.90918 16.7062L18.3637 10L31.8183 16.7062V17.5892L18.3637 24.2954L4.90918 17.6102V16.7062Z" fill="#EB6258"/>
<path d="M26.079 12.1232C25.6375 11.3244 24.6915 10.8408 23.5773 10.8408C21.0336 10.8408 19.2466 13.2164 18.3636 14.73C17.4807 13.2164 15.6728 10.8619 13.15 10.8619C11.5313 10.8619 10.375 11.8499 10.375 13.1954C10.375 15.5919 13.0028 17.1476 18.2795 17.1476C23.5562 17.1476 26.3522 15.1505 26.3522 13.2164C26.3523 12.838 26.2682 12.4596 26.079 12.1232ZM13.6967 14.7091C13.108 14.3096 12.8978 13.8681 12.8978 13.5738C12.8978 13.2165 13.2342 12.9432 13.7177 12.9432C14.8529 12.9432 15.7569 14.4358 16.2614 15.4659C14.937 15.3608 14.1591 15.0033 13.6967 14.7091ZM23.0307 14.7091C22.5682 15.0034 21.7903 15.3608 20.4659 15.4659C20.9494 14.4358 21.8534 12.9431 23.0097 12.9431C23.4932 12.9431 23.8295 13.2164 23.8295 13.5738C23.8296 13.8681 23.6193 14.3096 23.0307 14.7091Z" fill="#EFEFEF"/>
<path d="M4.90918 16.7275L18.3637 23.3076L31.8183 16.7275V21.0792L18.3217 27.6593L4.90918 21.0792V16.7275Z" fill="#E2574C"/>
<path d="M23.4091 21.4154V20.9319L18.3636 18.199L13.3182 20.9319V21.4154L9.95459 19.9438V19.2711L18.1954 14.9194L18.3636 15.0035L18.5318 14.9194L26.7727 19.2501V19.9228L23.4091 21.4154Z" fill="#EFEFEF"/>
<path d="M23.4092 20.9318V34.3653L26.7728 32.6835V19.25L23.4092 20.9318Z" fill="#DCDCDC"/>
<path d="M9.95459 32.7045L13.3182 34.3863V20.9529L9.95459 19.25C9.95459 19.2499 9.95459 32.7045 9.95459 32.7045Z" fill="#D1D1D1"/>
</g>
</svg>
