<svg width="66" height="23" viewBox="0 0 66 23" fill="none" xmlns="http://www.w3.org/2000/svg">
<path d="M0.98291 1.38159H4.32908C5.82007 1.38159 6.355 1.42712 6.79888 1.59784C7.62973 1.99619 8.11914 2.78152 8.11914 3.71481C8.11914 4.59119 7.85736 5.03507 6.9696 5.47895C7.89151 5.78625 8.50611 6.66263 8.42644 7.63006C8.42644 9.0869 7.2769 10.0543 5.6152 10.0543H0.994292V8.64302H1.65442V2.7929H0.994292L0.98291 1.38159ZM3.45271 2.7929V4.90987H5.17132C5.78592 4.9554 6.355 4.51152 6.40053 3.89691C6.40053 3.85139 6.40053 3.80586 6.40053 3.80586C6.40053 3.23678 5.83145 2.7929 5.03474 2.7929H3.45271ZM3.45271 6.27565V8.6544H5.29651C6.00217 8.69992 6.61677 8.21052 6.6623 7.50486C6.6623 7.50486 6.6623 7.50486 6.6623 7.45933C6.6623 6.70815 6.0477 6.23013 5.12579 6.23013L3.45271 6.27565Z" fill="white"/>
<path d="M15.722 7.90325C15.4147 9.36009 14.231 10.2365 12.6376 10.2365C10.7938 10.2365 9.42802 8.77963 9.42802 6.76509C9.42802 4.73918 10.7938 3.29372 12.6376 3.29372C13.6506 3.29372 14.618 3.78313 15.1871 4.65951C15.631 5.41069 15.8927 6.24154 15.8472 7.1293H11.0897C11.2604 8.84792 12.3645 8.93897 12.6718 8.93897C13.2864 8.98449 13.8554 8.54061 14.0375 7.97154L15.722 7.90325ZM14.0489 5.96839C14.0489 5.2172 13.4343 4.64813 12.7287 4.64813H12.6831C11.932 4.64813 11.3174 5.2172 11.1922 5.92286L14.0489 5.96839Z" fill="white"/>
<path d="M21.2307 5.74071H24.2696V10.0543H23.3021V8.68853C23.1314 8.99584 22.9038 9.25761 22.642 9.51939C22.0729 10.0088 21.3673 10.2706 20.6616 10.2706C18.6357 10.2706 17.0537 8.29018 17.0537 5.74071C17.0537 3.19125 18.6357 1.16533 20.6161 1.16533C21.7201 1.11981 22.6875 1.73441 23.2111 2.65631V1.29053H24.133V4.06763H23.1655C23.0745 3.66927 22.9038 3.31645 22.6761 3.00914C22.2323 2.44007 21.5266 2.08724 20.8323 2.04171C19.7738 2.04171 18.1918 2.96362 18.1918 5.64966C18.1918 7.76663 19.3413 9.30314 20.8323 9.30314C22.016 9.25761 22.9834 8.38123 23.2111 7.23169C23.2566 7.01544 23.2566 6.74229 23.2566 6.52604H21.1852L21.2307 5.74071Z" fill="white"/>
<path d="M31.6562 10.0999H29.7668V8.91617C29.323 9.74703 28.4466 10.2364 27.5247 10.2364C26.4207 10.3275 25.4532 9.43973 25.3736 8.3471C25.3736 8.30157 25.3736 8.25604 25.3736 8.21052C25.3736 6.93578 26.4776 6.32118 29.1181 6.05941L29.7327 6.01388V5.35375C29.7327 4.60257 29.1636 4.12454 28.2417 4.12454C27.3198 4.12454 26.8304 4.43184 26.6597 5.30822H25.624C25.715 4.78467 25.9768 4.29527 26.3751 3.94244C26.8645 3.54408 27.5247 3.37336 28.1393 3.37336C29.5051 3.37336 30.6432 3.98796 30.6432 5.66105V9.30315H31.5651L31.6562 10.0999ZM29.7668 6.66263L29.1522 6.75368C27.1263 7.01546 26.4662 7.36828 26.4662 8.21052C26.5117 8.9617 27.1263 9.48525 27.832 9.48525C28.7994 9.43973 29.6416 8.73407 29.7668 7.76664V6.66263Z" fill="white"/>
<path d="M34.4333 4.68226C34.7406 4.23838 35.3097 3.31647 36.5502 3.31647C37.4266 3.31647 37.916 3.76035 38.0867 4.68226C38.2575 4.37496 38.4396 4.11318 38.7014 3.85141C39.0997 3.49858 39.5777 3.28233 40.1127 3.28233C41.1256 3.28233 41.6947 3.94246 41.6947 5.092V9.26902H42.6166V10.0657H40.7728V5.43344C40.7728 4.51154 40.4655 4.06766 39.8054 4.06766C38.6558 4.06766 38.0412 5.43344 38.0412 5.91147V9.25764H39.0087V10.0543H37.0738V5.29686C37.0738 4.46601 36.7665 4.11318 36.1064 4.11318C35.0934 4.11318 34.3422 5.38792 34.3422 6.00252V9.30317H35.3097V10.0999H32.4529V9.30317H33.4203V4.19285H32.4529V3.39615H34.3877L34.4333 4.68226Z" fill="white"/>
<path d="M43.6296 0.994629H45.4734V4.81883C45.7351 4.32942 46.4863 3.36199 47.6245 3.36199C49.1155 3.36199 50.265 4.8985 50.265 6.83336C50.265 8.64303 49.0358 10.1795 47.6245 10.1795C46.4408 10.1795 45.8603 9.38283 45.4734 8.85928V10.0999H43.584V9.30316H44.5059V1.77995H43.6296V0.994629ZM45.4734 7.28862C45.4734 8.39263 46.3042 9.26901 47.3627 9.36006C48.5122 9.36006 49.2065 8.34711 49.2065 6.71954C49.2065 5.09198 48.4553 4.12455 47.3627 4.12455C46.3953 4.12455 45.4278 5.18304 45.4278 6.15047L45.4734 7.28862Z" fill="white"/>
<path d="M50.8341 0.994629H52.7234V9.30316H53.5998V10.0999H50.7885V9.30316H51.756V1.73443H50.8341V0.994629Z" fill="white"/>
<path d="M60.0759 8.25603C59.9848 8.65439 59.8141 8.96169 59.5523 9.26899C59.0288 9.8836 58.2776 10.2364 57.4354 10.2364C55.6257 10.2364 54.351 8.82511 54.351 6.7992C54.351 4.86433 55.6257 3.36197 57.2533 3.36197C58.8808 3.36197 60.2011 4.6367 60.2011 6.96992H55.4095C55.5005 7.93735 55.7168 8.50643 56.1606 8.95031C56.5135 9.25761 56.9573 9.43972 57.3898 9.43972C58.141 9.43972 58.6191 9.08689 58.9719 8.29018L60.0759 8.25603ZM59.1085 6.23012C59.1085 5.61552 58.8922 5.04644 58.4483 4.55703C58.141 4.29525 57.7427 4.11315 57.3443 4.15868C56.5135 4.2042 55.8078 4.77328 55.5802 5.56999C55.5347 5.78624 55.4436 6.01387 55.4436 6.23012H59.1085Z" fill="white"/>
<path d="M4.02178 11.864H6.13875L8.56302 19.171H9.22315V20.5823H7.24276L6.67368 18.6929H3.58928L3.0202 20.5823H0.994289V19.171H1.65442L4.02178 11.864ZM5.08026 13.4916L3.93073 17.3613H6.21842L5.08026 13.4916Z" fill="white"/>
<path d="M9.12072 13.9355H11.7612V15.2102H11.1011L12.023 19.1255L13.127 13.9355H14.8456L15.9496 19.0458L16.826 15.2216H16.1659V13.9468H18.8064V15.2216H18.2373L16.826 20.5481H15.0619L13.9579 15.9728L12.8994 20.5481H11.1353L9.67841 15.2216H9.10934L9.12072 13.9355Z" fill="white"/>
<path d="M25.0549 19.3075H25.624V20.5823H23.5525V19.7855C23.0631 20.4002 22.3233 20.7075 21.5266 20.7075C20.2063 20.7075 19.1934 19.8311 19.1934 18.636C19.1934 16.7012 21.39 16.4849 23.507 16.3028C23.507 15.2898 23.1542 14.9825 22.3233 14.9825C21.4925 14.9825 21.1738 15.3809 21.1396 15.9955V16.041L19.5576 15.9955C19.6486 14.6752 20.7071 13.8444 22.2892 13.8444C24.133 13.8444 25.1004 14.6752 25.1004 16.1776L25.0549 19.3075ZM23.4728 17.4523C21.9363 17.5889 20.9234 17.7141 20.9234 18.636C20.9234 19.1596 21.3673 19.5124 22.0274 19.5124C22.8241 19.5124 23.4842 18.8978 23.5184 18.1011V17.4523H23.4728Z" fill="white"/>
<path d="M28.7539 14.9939C29.1978 14.1631 29.6758 13.8103 30.427 13.8103C30.6887 13.8103 30.9164 13.8558 31.1781 13.9013V15.4378C30.9164 15.3923 30.6546 15.3468 30.3814 15.3468C29.5506 15.3012 28.8449 15.9158 28.7994 16.7126V19.262H29.5961V20.5368H26.5117V19.262H27.1718V15.2102H26.5117V13.9355H28.7539V14.9939Z" fill="white"/>
<path d="M37.8136 18.3743C37.5063 19.8311 36.3226 20.7075 34.7292 20.7075C32.8854 20.7075 31.5196 19.2506 31.5196 17.2361C31.5196 15.2102 32.8854 13.7647 34.7292 13.7647C35.7421 13.7647 36.7096 14.2542 37.2787 15.1305C37.7225 15.8817 37.9843 16.7126 37.9388 17.6003H33.1813C33.352 19.3189 34.456 19.41 34.7633 19.41C35.3779 19.4555 35.947 19.0116 36.1291 18.4426L37.8136 18.3743ZM36.095 16.4394C36.095 15.6882 35.4804 15.1191 34.7747 15.1191H34.7292C33.978 15.1191 33.3634 15.6882 33.2382 16.3939L36.095 16.4394Z" fill="white"/>
<path d="M64.048 1.95066C64.2643 1.95066 64.4236 2.00756 64.5488 2.11C64.6627 2.21243 64.7309 2.36039 64.7309 2.53112C64.7309 2.6677 64.6968 2.78151 64.6399 2.88395C64.583 2.98638 64.4805 3.05467 64.344 3.08881V3.10019C64.4123 3.11158 64.4578 3.13434 64.5033 3.1571C64.5488 3.19125 64.5716 3.22539 64.5944 3.25953C64.6171 3.30506 64.6399 3.35059 64.6513 3.39611C64.6627 3.44164 64.674 3.49855 64.674 3.55546C64.674 3.61236 64.6854 3.66927 64.6854 3.72618C64.6854 3.78309 64.6968 3.83999 64.6968 3.8969C64.7082 3.95381 64.7196 3.99934 64.7309 4.05624C64.7423 4.10177 64.7651 4.1473 64.7992 4.18144H64.4692C64.4464 4.15868 64.435 4.12453 64.4236 4.09039C64.4123 4.05625 64.4123 4.01072 64.4123 3.95381C64.4123 3.90828 64.4123 3.85138 64.4009 3.79447C64.4009 3.73756 64.3895 3.68065 64.3781 3.62375C64.3667 3.56684 64.3554 3.52131 64.344 3.4644C64.3326 3.41888 64.3098 3.37335 64.2871 3.33921C64.2643 3.30506 64.2302 3.27092 64.1846 3.24815C64.1391 3.22539 64.0822 3.21401 64.0139 3.21401H63.2969V4.15868H63.0009V1.93927H64.048V1.95066ZM64.105 2.96361C64.1619 2.95223 64.2188 2.92947 64.2643 2.90671C64.3098 2.87256 64.344 2.83842 64.3781 2.78151C64.4009 2.73599 64.4236 2.6677 64.4236 2.58802C64.4236 2.47421 64.3895 2.38316 64.3326 2.31487C64.2757 2.24658 64.1733 2.21243 64.0253 2.21243H63.2969V2.98638H63.9115C63.9798 2.98638 64.048 2.975 64.105 2.96361Z" fill="white"/>
<path d="M63.8318 5.30824C62.6481 5.30824 61.6807 4.34081 61.6807 3.15713C61.6807 1.97345 62.6481 1.00602 63.8318 1.00602C65.0155 1.00602 65.9829 1.97345 65.9829 3.15713C65.9829 4.34081 65.0155 5.30824 63.8318 5.30824ZM63.8318 1.34747C62.8416 1.34747 62.0221 2.15556 62.0221 3.15713C62.0221 4.15871 62.8302 4.9668 63.8318 4.9668C64.8334 4.9668 65.6415 4.15871 65.6415 3.15713C65.6415 2.15556 64.822 1.34747 63.8318 1.34747Z" fill="white"/>
<path d="M38.7355 19.7059H39.555V20.514H38.7355V19.7059Z" fill="white"/>
<path d="M40.2948 18.1238C40.2948 16.6784 41.1825 15.6768 42.48 15.6768C43.7434 15.6768 44.6653 16.7125 44.6653 18.1238C44.6653 19.6034 43.7661 20.6164 42.4686 20.6164C41.1711 20.6164 40.2948 19.6148 40.2948 18.1238ZM42.4459 20.0246C43.345 20.0246 43.8913 19.2961 43.8913 18.1011C43.8913 16.9743 43.3223 16.2573 42.4459 16.2573C41.5923 16.2573 41.0573 16.9743 41.0573 18.1352C41.0573 19.3303 41.5809 20.0246 42.4459 20.0246Z" fill="white"/>
<path d="M46.5205 16.8491C46.7481 16.3483 46.8733 16.2004 47.0895 15.9955C47.3399 15.7792 47.6472 15.6654 47.9545 15.6654C48.0684 15.6654 48.2277 15.6882 48.4667 15.7223V16.4166C48.2277 16.3711 48.0911 16.3597 47.9659 16.3597C46.6798 16.3597 46.5205 17.6913 46.5205 17.771V19.9677H47.3286V20.5253H45.1547V19.9677H45.8376V16.3256H45.1319V15.7565H46.5205V16.8491Z" fill="white"/>
<path d="M52.1885 19.3417C51.756 19.9563 51.278 20.1498 50.7544 20.1498C49.6162 20.1498 48.8309 19.2165 48.8309 17.8621C48.8309 16.576 49.6049 15.6654 50.6747 15.6654C51.5511 15.6654 51.9381 16.2231 52.1885 16.5873V15.7337H53.5315V16.3028H52.8714V20.2067C52.8714 21.3562 52.143 22.0049 50.8455 22.0049C50.0601 22.0049 49.3886 21.6635 49.0699 21.1058C49.013 20.992 48.9561 20.8782 48.8764 20.6392H49.6504C49.9349 21.2082 50.265 21.4245 50.9024 21.4245C51.7105 21.4245 52.1885 21.0034 52.1885 20.3205V19.3417ZM52.1885 17.5092C52.1885 16.9857 51.5511 16.2459 50.8227 16.2459C50.0488 16.2459 49.5707 16.8833 49.5707 17.919C49.5707 18.9661 50.0601 19.6034 50.8682 19.6034C51.5625 19.6034 52.1885 18.9205 52.1885 18.3629V17.5092Z" fill="white"/>
</svg>
