<svg width="66" height="21" viewBox="0 0 66 21" fill="none" xmlns="http://www.w3.org/2000/svg">
<path fill-rule="evenodd" clip-rule="evenodd" d="M20.9409 9.37304C21.6665 9.212 22.4774 9.25417 23.1224 9.65292C23.7426 10.0325 24.1097 10.7437 24.1586 11.4578C24.1912 11.9552 24.1624 12.4546 24.1279 12.9511C22.4256 12.953 20.7233 12.9454 19.022 12.955C18.952 13.6077 18.9961 14.3352 19.4216 14.8691C19.876 15.4519 20.7051 15.6081 21.3952 15.4394C22.1687 15.2717 22.7697 14.6304 23.0055 13.8905C23.2729 13.8828 23.5423 13.8819 23.8106 13.8866C23.6189 14.5087 23.3055 15.1135 22.7956 15.5324C21.9828 16.2062 20.8115 16.3241 19.8242 16.0251C19.0402 15.7912 18.4593 15.0905 18.2916 14.3017C18.0749 13.2789 18.2302 12.1834 18.6951 11.2488C19.136 10.3478 19.9469 9.59828 20.9409 9.37304ZM20.3217 10.3795C19.6958 10.8281 19.3181 11.5421 19.1226 12.2735C20.5374 12.2763 21.9531 12.2687 23.3678 12.2773C23.3765 11.8795 23.411 11.4693 23.2739 11.0878C23.1368 10.6517 22.8052 10.2798 22.3806 10.1082C21.7077 9.83599 20.9054 9.95486 20.3217 10.3795ZM5.95756 11.8929C7.40872 11.5383 8.86564 11.2028 10.3226 10.8731C10.2194 11.1544 10.2473 11.3033 10.1162 11.4357C9.87254 11.6817 9.82928 11.8193 9.19249 12.0022C8.49759 12.1939 7.79116 12.3386 7.08955 12.5006L6.2533 12.3651L5.95756 11.8929ZM0.98291 13.0575C1.97881 12.8045 2.98139 12.5783 3.98302 12.353C4.21709 12.3717 4.63154 12.3398 4.71588 12.4657C4.8028 12.5955 4.56555 12.863 4.49678 13.1198C3.86705 13.2521 3.24306 13.4131 2.61331 13.5502C4.35109 15.4107 6.05724 17.2999 7.78255 19.1718C10.4357 18.3763 13.0917 17.5874 15.7534 16.8235C14.4454 15.6236 13.0846 14.4873 11.7843 13.2876C11.7211 13.0304 11.7579 12.9099 11.8451 12.7822C11.9189 12.6742 12.0288 12.5229 12.2683 12.5802C14.0212 14.0783 15.8016 15.6689 17.4941 17.2107C14.1623 18.1769 10.8335 19.1574 7.51033 20.1543C5.33261 17.7906 3.17693 15.4049 0.98291 13.0575Z" fill="white"/>
<path fill-rule="evenodd" clip-rule="evenodd" d="M20.3428 0.846191L8.1688 18.566L2.40916 10.0258L8.15443 13.0518L20.3428 0.846191Z" fill="white"/>
<path fill-rule="evenodd" clip-rule="evenodd" d="M26.5836 8.13082C27.4884 7.318 28.7278 6.90775 29.9393 6.99117C30.8892 7.02662 31.887 7.36209 32.5033 8.11933C32.9615 8.67045 33.1292 9.40179 33.134 10.1053C32.6155 10.1159 32.0979 10.1178 31.5803 10.1188C31.5592 9.68072 31.4806 9.21871 31.1911 8.87175C30.801 8.39152 30.1492 8.21899 29.5521 8.242C28.7191 8.23241 27.9159 8.66471 27.4127 9.32128C26.6334 10.3267 26.3833 11.6619 26.5213 12.907C26.6152 13.6528 27.0446 14.386 27.7472 14.7023C28.5198 15.0426 29.5061 15.0426 30.1904 14.502C30.6965 14.109 30.9707 13.5061 31.1653 12.9118C31.679 12.9205 32.1928 12.907 32.7065 12.9214C32.4707 13.8991 31.9924 14.8595 31.1653 15.4663C30.1722 16.2149 28.8265 16.3462 27.6446 16.0548C26.7715 15.8468 25.974 15.3014 25.5053 14.5308C24.9944 13.7093 24.865 12.7048 24.956 11.7549C25.0375 10.4073 25.5599 9.04235 26.5836 8.13082Z" fill="white"/>
<path fill-rule="evenodd" clip-rule="evenodd" d="M37.176 7.03429C38.1844 6.89148 39.2684 7.02662 40.133 7.59502C40.9132 8.09248 41.4423 8.92541 41.6427 9.82257C41.8277 10.7149 41.7567 11.6466 41.5612 12.5323C41.2756 13.7956 40.5135 14.9889 39.3585 15.6177C38.2256 16.2551 36.8204 16.3644 35.5897 15.9628C34.6571 15.6579 33.874 14.9343 33.5088 14.0227C33.1858 13.278 33.1666 12.4498 33.227 11.6523C33.3238 10.3641 33.8299 9.06825 34.7922 8.18065C35.4488 7.57008 36.2913 7.17326 37.176 7.03429ZM37.0639 8.35318C35.8523 8.70879 35.1239 9.90979 34.8727 11.084C34.6657 12.0827 34.6245 13.2387 35.259 14.0994C36.0919 15.1701 37.8364 15.1854 38.8256 14.3237C39.7544 13.5253 40.1436 12.2687 40.2039 11.0792C40.2279 10.3229 40.1033 9.49572 39.5771 8.91392C38.956 8.23146 37.9141 8.10974 37.0639 8.35318Z" fill="white"/>
<path fill-rule="evenodd" clip-rule="evenodd" d="M44.5968 7.43877C45.5878 6.94995 46.7438 6.87996 47.8154 7.09947C48.6206 7.26338 49.4142 7.68319 49.8609 8.39538C50.1714 8.86982 50.2768 9.44012 50.3046 9.99703C49.7871 9.99991 49.2704 9.99605 48.7528 9.99991C48.7317 9.38837 48.4183 8.76823 47.849 8.5008C46.8723 8.04551 45.6214 8.17109 44.8019 8.89091C44.0543 9.54364 43.6689 10.5136 43.5136 11.4741C43.4101 12.3607 43.4092 13.3508 43.9747 14.0956C44.6744 15.0138 46.0547 15.1413 47.0496 14.6726C47.8787 14.271 48.3148 13.3853 48.5353 12.5332C47.732 12.5255 46.9279 12.5313 46.1246 12.5304C46.1812 12.1345 46.2914 11.7482 46.3575 11.3543C47.6199 11.3351 48.8842 11.3514 50.1475 11.3466C49.8235 12.8946 49.4823 14.4397 49.1659 15.9906C48.8314 15.9963 48.4979 15.9953 48.1634 15.9944C48.1653 15.6771 48.1672 15.3599 48.1816 15.0426C47.5911 15.7634 46.6729 16.2033 45.7412 16.1985C44.9284 16.1832 44.0974 15.9915 43.4235 15.5199C42.6999 15.0272 42.212 14.2365 42.0241 13.3872C41.8228 12.3703 41.9053 11.2987 42.2015 10.3076C42.5686 9.07974 43.4312 7.99185 44.5968 7.43877Z" fill="white"/>
<path fill-rule="evenodd" clip-rule="evenodd" d="M52.0875 7.1819C53.3929 7.18956 54.6975 7.17902 56.003 7.18766C56.7324 7.20394 57.5241 7.34101 58.0714 7.86436C58.6302 8.39728 58.7347 9.24363 58.6149 9.97212C58.5277 10.5338 58.2372 11.0763 57.757 11.3964C57.433 11.6361 57.0372 11.7329 56.6548 11.8364C57.0295 11.9821 57.3698 12.2553 57.4877 12.654C57.7925 13.6451 57.3334 14.6688 57.4982 15.6742C57.5174 15.7567 57.5529 15.8324 57.6037 15.9024C59.3405 12.9914 61.0773 10.0804 62.8294 7.17902C63.3652 7.18766 63.902 7.18766 64.4378 7.17902C64.9679 10.1149 65.4461 13.0594 65.9829 15.9934C65.4586 15.9963 64.9343 15.9915 64.4109 15.9973C64.2691 15.2209 64.1752 14.4359 64.041 13.6576C62.8869 13.6518 61.7338 13.6662 60.5817 13.6499C60.0919 14.4186 59.6702 15.2295 59.1871 16.003C58.1251 15.9848 57.0611 16.0001 55.9991 15.9953C55.725 15.0378 56.1467 14.0601 56.025 13.093C55.9608 12.6329 55.4758 12.3942 55.0521 12.3847C54.2297 12.3435 53.4064 12.3799 52.583 12.3636C52.3194 13.5751 52.0932 14.7943 51.8162 16.0021C51.2938 15.9867 50.7715 15.9992 50.2491 15.9934C50.8817 13.0604 51.4616 10.1159 52.0875 7.1819ZM52.8226 11.1961C53.5616 11.1932 54.3007 11.1961 55.0397 11.1952C55.5467 11.1904 56.0777 11.1175 56.5062 10.8261C57.0698 10.4523 57.2711 9.6395 56.9892 9.03469C56.7525 8.57462 56.1851 8.473 55.7173 8.45097C54.9409 8.44137 54.1655 8.45192 53.3891 8.44714C53.2041 9.3644 53.0172 10.2807 52.8226 11.1961ZM62.9195 9.46985C62.3444 10.4667 61.8 11.4827 61.2086 12.47C62.101 12.4853 62.9952 12.4776 63.8876 12.4738C63.6988 11.2373 63.5234 9.99798 63.3518 8.75959C63.1601 8.96375 63.0643 9.23309 62.9195 9.46985Z" fill="white"/>
</svg>
