<svg width="66" height="21" viewBox="0 0 66 21" fill="none" xmlns="http://www.w3.org/2000/svg">
<path d="M15.1834 9.84119H28.2919V19.9209H25.669L24.7113 17.4803C22.674 19.268 18.9226 20.4212 14.8418 20.4212C9.724 20.4212 7.22306 19.2375 5.68589 18.2979C1.10491 15.5705 0.98291 12.3428 0.98291 10.3476C0.98291 5.75318 5.3931 0.579102 15.1346 0.579102C20.7098 0.579102 26.9134 2.5743 27.7857 6.80264H23.8756C22.5886 3.52003 18.215 2.83666 14.9272 2.83666C9.5593 2.83666 5.14301 5.53963 5.14301 10.4757C5.14301 14.3075 7.13766 18.2491 15.0919 18.2491C16.5924 18.2491 19.0019 18.1453 21.21 17.041C23.8329 15.7291 24.4978 14.0451 24.4978 12.0255H15.1834V9.84119Z" fill="white"/>
<path d="M34.5382 1.07332V19.9209H53.7283V17.6633H38.5763V1.07332H34.5382Z" fill="white"/>
<path d="M62.7683 1.07332H58.7302V19.9209H62.7683V1.07332Z" fill="white"/>
<path d="M64.9032 1.90923V1.59805H65.1106C65.2204 1.59805 65.3302 1.62246 65.3302 1.74449C65.3302 1.90313 65.2143 1.90923 65.0862 1.90923H64.9032ZM64.9032 2.04346H65.0801L65.3485 2.48277H65.5193L65.2326 2.03736C65.379 2.01906 65.4949 1.93974 65.4949 1.75669C65.4949 1.55534 65.379 1.46992 65.135 1.46992H64.7507V2.48277H64.9032V2.04346ZM65.0923 2.85496C65.5742 2.85496 65.9829 2.48277 65.9829 1.97025C65.9829 1.46382 65.5742 1.09163 65.0923 1.09163C64.6104 1.09163 64.2018 1.46382 64.2018 1.97025C64.1957 2.48277 64.6104 2.85496 65.0923 2.85496ZM64.3726 1.97025C64.3726 1.55534 64.6836 1.23806 65.0862 1.23806C65.4827 1.23806 65.7999 1.54924 65.7999 1.97025C65.7999 2.39125 65.4827 2.70853 65.0862 2.70853C64.6897 2.70853 64.3726 2.39735 64.3726 1.97025Z" fill="white"/>
</svg>
