<svg width="67" height="35" viewBox="0 0 67 35" fill="none" xmlns="http://www.w3.org/2000/svg">
<g clip-path="url(#clip0_12577_117001)">
<path d="M4.60352 21.4937L6.84796 22.256V27.4281L4.60352 28.4677V21.4937Z" fill="#818385"/>
<path d="M11.6517 13.5495C11.6342 13.9913 11.5553 15.2389 10.4856 16.1225C9.3371 17.0842 7.38198 17.2921 5.96166 17.2921C5.41809 17.2921 4.87451 17.2748 4.33093 17.2141C3.22624 17.0755 1.9462 16.8069 1.26235 15.7933C0.832747 15.1436 0.797677 14.4678 0.780143 13.6795H4.40984C4.40984 13.7921 4.37477 14.3119 4.7167 14.6238C4.90958 14.797 5.35671 14.9703 5.9792 14.9703C6.07564 14.9703 6.89101 14.953 7.35568 14.6064C7.89925 14.1993 7.83788 13.4196 7.83788 13.2809C7.83788 12.8564 7.85542 12.4579 7.85542 12.0507C7.68007 12.3193 7.66253 12.354 7.50472 12.4752C6.89977 12.9517 5.98797 13.073 5.25151 13.073C4.18189 13.073 3.27008 12.8824 2.41964 12.2327C1.68318 11.6782 0.727539 10.5087 0.727539 8.2995C0.727539 7.82302 0.762608 5.91708 2.00758 4.61757C2.88431 3.69926 4.21696 3.35272 5.46192 3.35272C5.75125 3.35272 6.88224 3.35272 7.71514 4.00247C7.89049 4.13242 7.98693 4.23639 8.24118 4.55693L8.22365 3.61262H11.678V12.995C11.6692 13.1856 11.6692 13.3589 11.6517 13.5495ZM6.93484 6.24629C6.82087 6.18564 6.56661 6.07302 6.21592 6.09035C5.96166 6.09035 5.70741 6.15099 5.49699 6.24629C4.93588 6.51485 4.54135 7.14728 4.54135 8.3948C4.54135 9.23515 4.73423 9.75495 4.98848 10.0235C5.12876 10.1795 5.27781 10.2748 5.47069 10.3527C5.5496 10.3874 5.82138 10.4653 6.11071 10.4653C6.26852 10.4653 6.54031 10.4653 6.8647 10.3094C7.66253 9.96287 7.75898 8.98391 7.75898 8.23886C7.76774 7.52846 7.68884 6.61015 6.93484 6.24629ZM22.8564 12.172C22.155 12.9431 20.6646 13.9394 18.1571 13.9394C17.5784 13.9394 15.7724 13.922 14.2907 12.7698C13.5542 12.198 12.4232 10.9245 12.4232 8.66337C12.4232 7.28589 12.8528 5.91708 13.7997 4.90347C14.4836 4.17574 15.9126 3.17945 18.3587 3.19678C18.8848 3.19678 20.9626 3.25742 22.4531 4.5396C23.5753 5.51856 24.1452 7.12995 24.1452 8.60272C24.154 9.13985 24.0575 10.8465 22.8564 12.172ZM18.9198 6.07302C18.6305 5.97772 18.3763 5.97772 18.2623 5.97772C17.5609 5.99505 17.1751 6.34158 16.9998 6.53218C16.6929 6.86138 16.4211 7.52846 16.4211 8.55074C16.4211 9.5297 16.6754 10.1968 16.9297 10.5433C17.0875 10.7512 17.2979 10.9245 17.5346 11.0198C17.6486 11.0804 17.9379 11.1498 18.2886 11.1498C18.7533 11.1498 19.1829 11.0198 19.4897 10.7079C19.8404 10.3614 20.1297 9.61634 20.1297 8.49876C20.121 7.00866 19.63 6.31559 18.9198 6.07302ZM31.501 6.70544C31.6939 6.70544 31.8868 6.72277 32.0797 6.7401V3.4047C31.0276 3.4047 30.1772 3.43936 29.2829 4.05446C29.0725 4.19307 28.9322 4.30569 28.7393 4.47896V3.61262H24.8992V13.5495H28.8796V8.87129C28.8796 8.52475 28.8796 8.25619 28.9936 7.92698C29.4758 6.59282 31.1854 6.68812 31.501 6.70544ZM39.1462 13.5495L39.1287 12.8391C39.0936 12.8738 38.9182 13.0903 38.7166 13.2376C38.1555 13.6448 37.2963 13.7921 36.6036 13.7921C35.534 13.7921 34.78 13.4455 34.4293 13.2376C32.1147 11.9295 32.0621 8.92327 32.0797 8.34282C32.0797 7.99629 32.0797 7.07797 32.4304 6.11634C32.7372 5.29332 33.8069 3.31807 36.4897 3.31807C36.7965 3.31807 37.6908 3.3354 38.4886 3.8552C38.664 3.96782 38.7604 4.04579 39.0322 4.29703V0H43.0126V13.5408H39.1462V13.5495ZM38.8218 6.91337C38.4536 6.26361 37.8311 6.14233 37.5593 6.14233C37.27 6.14233 36.9543 6.25495 36.7264 6.42822C36.2793 6.77475 36.025 7.40718 36.025 8.55941C36.025 9.1745 36.1214 10.0322 36.5861 10.5173C36.8228 10.7686 37.2261 10.9418 37.5944 10.9418C37.9801 10.9418 38.2782 10.7686 38.3747 10.6906C39.076 10.2141 39.1287 9.2698 39.1287 8.54208C39.1287 7.98762 39.0848 7.41584 38.8218 6.91337ZM54.1735 12.172C53.4721 12.9431 51.9816 13.9394 49.4742 13.9394C48.8955 13.9394 47.0894 13.922 45.6077 12.7698C44.8713 12.198 43.7403 10.9245 43.7403 8.66337C43.7403 7.28589 44.1699 5.91708 45.1168 4.90347C45.8006 4.17574 47.2297 3.17945 49.6758 3.19678C50.2019 3.19678 52.2797 3.25742 53.7702 4.5396C54.8924 5.51856 55.4623 7.12995 55.4623 8.60272C55.4798 9.13985 55.3746 10.8465 54.1735 12.172ZM50.2369 6.07302C49.9476 5.97772 49.6933 5.97772 49.5794 5.97772C48.878 5.99505 48.4922 6.34158 48.3169 6.53218C48.01 6.86138 47.7382 7.52846 47.7382 8.55074C47.7382 9.5297 47.9925 10.1968 48.2467 10.5433C48.4045 10.7512 48.615 10.9245 48.8517 11.0198C48.9657 11.0804 49.2637 11.1498 49.6057 11.1498C50.0703 11.1498 50.4999 11.0198 50.8068 10.7079C51.1575 10.3614 51.4468 9.61634 51.4468 8.49876C51.438 7.00866 50.9558 6.31559 50.2369 6.07302ZM67.0089 13.5495V7.27723C67.0089 6.56683 66.9475 6.2203 66.8686 5.89975C66.7108 5.25 66.3864 4.59158 65.8604 4.17574C64.9047 3.37005 63.6685 3.35272 63.3003 3.35272C62.2745 3.35272 61.2049 3.62129 60.4685 4.34901C60.2756 4.5396 60.2317 4.58292 59.9862 4.94678V3.62129H56.2163V13.5582H60.1967V8.26485C60.1967 7.84034 60.1791 6.63614 61.652 6.63614C62.5639 6.63614 62.8532 7.11262 62.9496 7.45916C63.011 7.69307 63.011 7.90099 63.011 8.1349V13.5668H67.0089V13.5495ZM30.1421 27.0903C29.4407 27.8614 27.9502 28.8577 25.4428 28.8577C24.8641 28.8577 23.058 28.8403 21.5764 27.6881C20.8399 27.1163 19.7089 25.8428 19.7089 23.5817C19.7089 22.2042 20.1385 20.8354 21.0854 19.8218C21.7692 19.0941 23.1983 18.0978 25.6444 18.1151C26.1705 18.1151 28.2483 18.1757 29.7388 19.4579C30.861 20.4369 31.4309 22.0483 31.4309 23.521C31.4397 24.0582 31.3432 25.7735 30.1421 27.0903ZM26.1968 20.9913C25.9074 20.896 25.6532 20.896 25.5392 20.896C24.8378 20.9134 24.4521 21.2599 24.2767 21.4505C23.9699 21.7797 23.6981 22.4468 23.6981 23.4604C23.6981 24.4394 23.9523 25.1151 24.2066 25.453C24.3644 25.6609 24.5748 25.8342 24.8115 25.9295C24.9255 25.9901 25.2148 26.0594 25.5655 26.0594C26.0302 26.0594 26.4598 25.9295 26.7667 25.6176C27.1173 25.271 27.4067 24.526 27.4067 23.4084C27.3979 21.9356 26.9157 21.2426 26.1968 20.9913ZM42.1972 27.0903C41.4958 27.8614 40.0054 28.8577 37.4979 28.8577C36.9193 28.8577 35.1132 28.8403 33.6315 27.6881C32.895 27.1163 31.7641 25.8428 31.7641 23.5817C31.7641 22.2042 32.1937 20.8354 33.1405 19.8218C33.8244 19.0941 35.2535 18.0978 37.6996 18.1151C38.2256 18.1151 40.3035 18.1757 41.7939 19.4579C42.9162 20.4369 43.486 22.0483 43.486 23.521C43.4948 24.0582 43.3984 25.7735 42.1972 27.0903ZM38.2519 20.9913C37.9626 20.896 37.7083 20.896 37.5944 20.896C36.893 20.9134 36.5072 21.2599 36.3319 21.4505C36.025 21.7797 35.7532 22.4468 35.7532 23.4604C35.7532 24.4394 36.0075 25.1151 36.2617 25.453C36.4195 25.6609 36.63 25.8342 36.8667 25.9295C36.9806 25.9901 37.27 26.0594 37.6207 26.0594C38.0853 26.0594 38.5149 25.9295 38.8218 25.6176C39.1725 25.271 39.4618 24.526 39.4618 23.4084C39.4618 21.9356 38.9708 21.2426 38.2519 20.9913ZM50.8769 28.4765L50.8594 27.7661C50.8243 27.8007 50.649 28.0173 50.4473 28.1646C49.8862 28.5631 49.027 28.7191 48.3344 28.7191C47.2648 28.7191 46.5108 28.3725 46.1601 28.1646C43.8455 26.8564 43.7929 23.8502 43.8104 23.2698C43.8104 22.9233 43.8104 22.0049 44.1611 21.0433C44.468 20.2203 45.5376 18.245 48.2204 18.245C48.5273 18.245 49.4216 18.2624 50.2194 18.7822C50.3947 18.8948 50.4912 18.9728 50.763 19.224V14.927H54.7434V28.4678H50.8769V28.4765ZM50.5438 21.8403C50.1755 21.1906 49.5531 21.0693 49.2813 21.0693C48.992 21.0693 48.6763 21.1819 48.4484 21.3552C48.0012 21.7017 47.747 22.3342 47.747 23.4864C47.747 24.1015 47.8434 24.9592 48.3081 25.4443C48.5448 25.6955 48.9481 25.8688 49.3163 25.8688C49.7021 25.8688 50.0002 25.6955 50.0966 25.6176C50.798 25.1411 50.8506 24.1968 50.8506 23.4691C50.8594 22.9146 50.8156 22.3342 50.5438 21.8403ZM66.3689 18.5396H62.2132C62.1956 18.6522 60.6964 25.0198 60.6964 25.0198L59.2586 18.5396H55.0853L58.2678 27.6708C58.4257 28.1126 58.5747 28.5371 58.5747 28.6844C58.5747 29.0483 57.6366 31.9505 57.0755 31.9505C56.6897 31.9505 56.3215 31.9158 55.9269 31.8898V34.7141L57.0316 34.8267C57.3648 34.8614 57.7155 34.8441 58.0399 34.8441C59.0306 34.8441 59.8109 34.8614 60.6 34.229C61.354 33.6139 62.371 29.9319 62.6866 29.0483L66.3689 18.5396ZM18.7445 20.4715C18.2623 19.0161 16.9998 18.5916 16.4913 18.453C15.8863 18.2797 15.4217 18.297 15.1674 18.297C13.5367 18.2797 12.7038 18.9121 12.2391 19.3886C12.0988 19.5186 11.8884 19.7351 11.7131 20.1337C11.5026 19.7525 11.3624 19.5186 11.2046 19.3626C10.2314 18.2884 8.56557 18.2884 8.21488 18.2884C6.8384 18.2884 6.0055 18.8082 5.59343 19.1894C5.43562 19.3453 5.28657 19.5359 5.04986 19.9344V18.5396H1.18344V28.4765H4.60272V21.4851H8.16227V28.4765H12.0813V23.1832C12.0813 22.9319 12.0813 22.7413 12.1427 22.5074C12.3969 21.6238 13.2298 21.5458 13.5367 21.5458C15.0534 21.5458 14.9307 22.8886 14.9307 23.2698V28.4678H18.9374V22.1955C18.9374 21.5891 18.9374 21.052 18.7445 20.4715ZM27.3541 34.7141C27.2313 34.5928 27.2313 34.4715 27.2226 34.3243C27.1875 34.4196 27.1349 34.5062 27.0647 34.5842C26.942 34.7228 26.6264 34.9394 26.1529 34.9394C25.7672 34.9394 25.5568 34.8094 25.4252 34.6795C25.3463 34.6015 25.1973 34.4109 25.1973 34.125C25.1973 34.0384 25.2061 33.8391 25.3639 33.6572C25.5918 33.3799 25.9688 33.2933 26.2932 33.198C26.4861 33.146 26.6702 33.0941 26.8631 33.0507L27.2226 32.9728V32.8168C27.2226 32.7042 27.2313 32.6436 27.1875 32.5309C27.1261 32.3403 26.9508 32.1324 26.4949 32.1324C26.1091 32.1324 25.9074 32.2364 25.811 32.3923C25.7146 32.5396 25.7058 32.6955 25.697 32.8601L25.285 32.7908C25.2937 32.7302 25.3376 32.4703 25.4603 32.271C25.6006 32.0631 25.8987 31.8119 26.4686 31.8119C26.7754 31.8119 27.1875 31.8898 27.3979 32.1324C27.5996 32.3663 27.582 32.6955 27.582 32.9814V33.9431C27.582 34.229 27.5732 34.4369 27.6872 34.5235C27.7837 34.6015 27.9327 34.5928 28.0379 34.5928V34.8874C27.6785 34.87 27.4856 34.8441 27.3541 34.7141ZM27.2226 33.2933L27.0297 33.3453C26.4423 33.5012 25.9337 33.6225 25.7496 33.7525C25.6357 33.8304 25.5568 33.9691 25.5568 34.1163C25.5568 34.2203 25.6006 34.3069 25.6181 34.3329C25.7584 34.6101 26.1003 34.6188 26.1705 34.6188C26.5387 34.6188 26.9858 34.4022 27.1436 34.0557C27.205 33.9257 27.2226 33.8045 27.2226 33.5272V33.2933ZM30.5542 34.4282C30.6418 34.2549 30.6506 34.0903 30.6506 34.0297C30.6506 33.9431 30.6418 33.7611 30.5016 33.5705C30.335 33.3366 30.0807 33.2413 29.8089 33.1807L29.4933 33.12C29.2303 33.0681 28.8621 32.9901 28.8621 32.6349C28.8621 32.5916 28.8708 32.4876 28.9322 32.375C28.976 32.3057 29.0374 32.2537 29.0637 32.245C29.1426 32.1844 29.3092 32.1324 29.5547 32.1324C29.8615 32.1324 30.221 32.2364 30.2911 32.5743L30.6506 32.479C30.6243 32.375 30.5542 32.1584 30.3174 31.9938C30.0369 31.8032 29.6599 31.8032 29.5722 31.8032C29.3092 31.8032 28.9497 31.8639 28.7481 32.0545C28.5201 32.2537 28.4851 32.5483 28.4851 32.6349C28.4763 32.7995 28.5464 32.9814 28.6429 33.1027C28.8621 33.3626 29.3267 33.4059 29.6248 33.4752C29.9492 33.5446 30.0983 33.6225 30.1947 33.7525C30.2473 33.8304 30.2736 33.9257 30.2736 34.0124C30.2736 34.1683 30.1947 34.3416 30.0544 34.4455C29.9667 34.5148 29.7826 34.5928 29.4933 34.5928C28.9234 34.5928 28.6955 34.2116 28.6516 34.0037L28.2834 34.125C28.3448 34.2463 28.3886 34.3589 28.4851 34.4802C28.8182 34.9047 29.318 34.9307 29.5021 34.9307C30.1333 34.948 30.4402 34.6535 30.5542 34.4282ZM33.4649 34.4282C33.5526 34.2549 33.5614 34.0903 33.5614 34.0297C33.5614 33.9431 33.5526 33.7611 33.4123 33.5705C33.2457 33.3366 32.9915 33.2413 32.7197 33.1807L32.4041 33.12C32.1411 33.0681 31.7728 32.9901 31.7728 32.6349C31.7728 32.5916 31.7816 32.4876 31.843 32.375C31.8868 32.3057 31.9482 32.2537 31.9745 32.245C32.0534 32.1844 32.22 32.1324 32.4742 32.1324C32.7811 32.1324 33.1405 32.2364 33.2107 32.5743L33.5701 32.479C33.5438 32.375 33.4737 32.1584 33.237 31.9938C32.9564 31.8032 32.5794 31.8032 32.4917 31.8032C32.2287 31.8032 31.8693 31.8639 31.6676 32.0545C31.4397 32.2537 31.4046 32.5483 31.4046 32.6349C31.3958 32.7995 31.466 32.9814 31.5624 33.1027C31.7816 33.3626 32.2463 33.4059 32.5444 33.4752C32.8687 33.5446 33.0178 33.6225 33.1142 33.7525C33.1668 33.8304 33.1931 33.9257 33.1931 34.0124C33.1931 34.1683 33.1142 34.3416 32.974 34.4455C32.8863 34.5148 32.7022 34.5928 32.4128 34.5928C31.843 34.5928 31.615 34.2116 31.5712 34.0037L31.2029 34.125C31.2643 34.2463 31.3082 34.3589 31.4046 34.4802C31.7378 34.9047 32.2375 34.9307 32.4216 34.9307C33.0441 34.948 33.351 34.6535 33.4649 34.4282ZM36.8579 33.9604C36.665 34.5668 36.1916 34.948 35.5516 34.948C35.3411 34.948 34.8589 34.9134 34.4995 34.4455C34.368 34.2636 34.1926 33.9431 34.1926 33.4059C34.1926 33.276 34.2014 32.9814 34.3329 32.6436C34.631 31.8812 35.2798 31.7945 35.5779 31.7945C35.9286 31.7945 36.2179 31.8985 36.4721 32.1238C36.8053 32.4443 36.9456 32.9035 36.9456 33.3453C36.9368 33.4579 36.9368 33.7005 36.8579 33.9604ZM35.5691 32.1151C35.4727 32.1151 35.2359 32.1238 35.0255 32.2884C34.7888 32.4616 34.5959 32.7908 34.5959 33.4146C34.5959 33.5272 34.5872 34.1337 34.9992 34.4542C35.0957 34.5322 35.271 34.6275 35.5603 34.6275C36.0075 34.6275 36.5423 34.3502 36.5423 33.4059C36.551 32.427 36.0513 32.1151 35.5691 32.1151ZM39.7774 34.6535C39.9265 34.5322 40.0229 34.3762 40.1106 34.2116L39.7248 34.125C39.5495 34.4542 39.2865 34.6275 38.9007 34.6275C38.6991 34.6275 38.5675 34.5755 38.4886 34.5408C38.3221 34.4629 38.2344 34.3676 38.1905 34.3243C37.9188 33.995 37.9012 33.4752 37.9012 33.3886C37.9012 33.2587 37.91 32.6955 38.3045 32.3663C38.55 32.1584 38.8218 32.1497 38.9358 32.1497C39.2952 32.1497 39.6196 32.323 39.7511 32.6522L40.1018 32.5743C40.0668 32.4876 40.0054 32.3317 39.83 32.1497C39.681 32.0025 39.4267 31.8205 38.9445 31.8205C38.287 31.8205 37.7785 32.1757 37.5856 32.7908C37.5155 32.9988 37.4892 33.1894 37.4892 33.4146C37.4892 33.5879 37.4979 34.203 37.9538 34.6275C38.3045 34.9567 38.7166 34.9653 38.8832 34.9653C39.3566 34.948 39.6372 34.7747 39.7774 34.6535ZM40.7419 30.6077H41.1101V31.1795H40.7419V30.6077ZM40.7419 31.8812H41.1101V34.8787H40.7419V31.8812ZM44.0296 34.7141C43.9069 34.5928 43.9069 34.4715 43.8981 34.3243C43.863 34.4196 43.8104 34.5062 43.7403 34.5842C43.6175 34.7228 43.3019 34.9394 42.8285 34.9394C42.4427 34.9394 42.2323 34.8094 42.1008 34.6795C42.0219 34.6015 41.8728 34.4109 41.8728 34.125C41.8728 34.0384 41.8816 33.8391 42.0394 33.6572C42.2674 33.3799 42.6444 33.2933 42.9775 33.198C43.1704 33.146 43.3545 33.0941 43.5474 33.0507L43.9069 32.9728V32.8168C43.9069 32.7042 43.9156 32.6436 43.8718 32.5309C43.8104 32.3403 43.6351 32.1324 43.1792 32.1324C42.7934 32.1324 42.5918 32.2364 42.4953 32.3923C42.3989 32.5396 42.3901 32.6955 42.3813 32.8601L41.9693 32.7908C41.9781 32.7302 42.0219 32.4703 42.1446 32.271C42.2849 32.0631 42.583 31.8119 43.1529 31.8119C43.4597 31.8119 43.8718 31.8898 44.0822 32.1324C44.2839 32.3663 44.2663 32.6955 44.2663 32.9814V33.9431C44.2663 34.229 44.2576 34.4369 44.3715 34.5235C44.468 34.6015 44.617 34.5928 44.7222 34.5928V34.8874C44.354 34.87 44.1611 34.8441 44.0296 34.7141ZM43.8981 33.2933L43.7052 33.3453C43.1178 33.5012 42.6093 33.6225 42.4252 33.7525C42.3112 33.8304 42.2323 33.9691 42.2323 34.1163C42.2323 34.2203 42.2761 34.3069 42.2937 34.3329C42.434 34.6101 42.7759 34.6188 42.846 34.6188C43.2143 34.6188 43.6614 34.4022 43.8192 34.0557C43.8806 33.9257 43.8981 33.8045 43.8981 33.5272V33.2933ZM46.0373 34.9307C46.2828 34.9307 46.4406 34.8527 46.5196 34.7921V34.4109C46.4056 34.4889 46.2565 34.6015 46.0987 34.6015C45.8445 34.6015 45.8445 34.3416 45.8532 34.1596V33.8391V32.1844H46.5196V31.8812H45.8532V30.6077H45.4938V31.8812H44.8625V32.1931H45.4938V34.0644C45.4938 34.2116 45.485 34.5322 45.5376 34.6621C45.6253 34.9047 45.8532 34.922 45.9409 34.922C45.9672 34.9307 46.011 34.9307 46.0373 34.9307ZM47.0982 30.6077H47.4664V31.1795H47.0982V30.6077ZM47.0982 31.8812H47.4664V34.8787H47.0982V31.8812ZM50.8857 33.9604C50.6928 34.5668 50.2194 34.948 49.5794 34.948C49.3689 34.948 48.8867 34.9134 48.5273 34.4455C48.3958 34.2636 48.2117 33.9431 48.2117 33.4059C48.2117 33.276 48.2204 32.9814 48.3519 32.6436C48.65 31.8812 49.2988 31.7945 49.5969 31.7945C49.9476 31.7945 50.2282 31.8985 50.4824 32.1238C50.8156 32.4443 50.9558 32.9035 50.9558 33.3453C50.9734 33.4579 50.9734 33.7005 50.8857 33.9604ZM49.5969 32.1151C49.5005 32.1151 49.2637 32.1238 49.0533 32.2884C48.8166 32.4616 48.6237 32.7908 48.6237 33.4146C48.6237 33.5272 48.615 34.1337 49.027 34.4542C49.1235 34.5322 49.2988 34.6275 49.5881 34.6275C50.0353 34.6275 50.5701 34.3502 50.5701 33.4059C50.5876 32.427 50.0791 32.1151 49.5969 32.1151ZM54.0858 34.87V33.3106C54.0858 32.7995 54.0946 32.5656 53.9806 32.323C53.8842 32.1151 53.6211 31.8119 53.06 31.8119C52.6567 31.8119 52.4463 31.9592 52.3236 32.0718C52.1745 32.2104 52.1307 32.3317 52.1044 32.401V31.8812H51.7274V34.8787H52.1044V33.5705C52.1044 33.2153 52.1131 32.9554 52.1394 32.8082C52.2008 32.5829 52.3762 32.3403 52.5953 32.2364C52.7619 32.1584 52.9285 32.1584 52.9986 32.1584C53.0688 32.1584 53.2354 32.1497 53.4107 32.2537C53.4721 32.2884 53.5773 32.3577 53.6387 32.5136C53.7088 32.6869 53.7088 32.9295 53.7088 33.328V34.8874H54.0858V34.87Z" fill="white"/>
</g>
<defs>
<clipPath id="clip0_12577_117001">
<rect width="66.9828" height="35" fill="white"/>
</clipPath>
</defs>
</svg>
