<svg width="61" height="25" viewBox="0 0 61 25" fill="none" xmlns="http://www.w3.org/2000/svg">
<path d="M8.79109 0.664678C9.40507 0.655144 9.81693 1.18522 10.2974 1.4903C11.3404 2.27589 12.7495 3.01953 12.7743 4.51633C12.7972 9.40336 12.7724 14.2942 12.7858 19.1812C12.8182 20.064 12.4444 20.9812 11.7161 21.5037C11.0296 22.0166 10.3337 22.52 9.65104 23.0386C9.38791 23.256 9.06948 23.3742 8.73389 23.4238C8.72626 22.8002 9.00846 22.232 9.21058 21.6581C10.3756 18.4662 11.5521 15.2781 12.7019 12.0804C9.07329 13.3008 5.45235 14.544 1.8276 15.7719C1.55494 15.8616 1.26511 15.8806 0.98291 15.9149C1.02105 15.1675 1.68078 14.7003 2.07167 14.1245C2.74857 13.215 3.48458 12.2044 4.69346 12.0194C3.31678 11.8268 2.6151 10.5665 1.81235 9.59785C1.47295 9.14022 0.960029 8.72455 0.994351 8.09913C1.3185 8.1468 1.64265 8.2021 1.95345 8.30697C5.53435 9.54255 9.12668 10.7438 12.7095 11.9737C11.451 8.49955 10.1792 5.03306 8.90931 1.56276C8.84257 1.27293 8.63283 0.960225 8.79109 0.664678Z" fill="white"/>
<path d="M44.9986 6.20953C46.1121 5.03878 47.8301 4.90531 49.346 5.05594C49.0943 5.97119 48.8693 6.89406 48.589 7.79977C48.0265 7.68155 47.4526 7.66249 46.8824 7.72159C47.5326 8.74743 47.8797 9.98301 47.6775 11.1976C47.5155 12.5609 46.6326 13.7908 45.4142 14.4143C44.0433 15.137 42.4263 15.2285 40.9181 14.9844C40.7636 15.4993 40.9905 16.0827 41.5454 16.22C43.5418 16.8798 45.8146 16.5995 47.668 17.7206C48.6138 18.2774 49.0809 19.4272 48.9227 20.495C48.8044 21.7763 47.853 22.8231 46.7432 23.3837C44.9375 24.3295 42.8344 24.4134 40.8399 24.2932C39.4308 24.156 37.9531 23.7555 36.9234 22.7316C36.0158 21.8221 35.8003 20.291 36.502 19.2003C36.8681 18.5653 37.5069 18.1649 38.1495 17.8522C37.791 17.4918 37.4669 17.0514 37.4726 16.5213C37.3601 15.4592 38.1933 14.6183 39.0209 14.0997C36.4696 12.6754 36.2465 8.66163 38.4641 6.83495C40.2641 5.37819 42.9393 5.24281 44.9986 6.20953ZM41.7075 8.59298C40.573 8.98006 40.3327 10.5341 40.9257 11.4607C41.3719 12.1872 42.3729 12.4046 43.1204 12.0423C44.0089 11.6438 44.2454 10.454 43.8945 9.61501C43.5933 8.75696 42.5617 8.27265 41.7075 8.59298ZM39.9514 20.863C40.8742 21.6714 42.209 21.7172 43.3721 21.62C44.0089 21.5284 44.8022 21.4217 45.1511 20.8077C45.3742 20.3234 44.8918 19.8982 44.4761 19.7552C43.0479 19.2289 41.4729 19.3871 40.0372 18.8857C39.5319 19.4196 39.3831 20.3157 39.9514 20.863Z" fill="white"/>
<path d="M19.038 7.12097C20.3785 6.15424 22.0126 5.41251 23.702 5.64323C24.8079 5.75001 25.8127 6.38305 26.4267 7.30211C27.893 6.12373 29.815 5.32861 31.718 5.68708C32.7858 5.83962 33.8059 6.41928 34.3855 7.34406C34.9652 8.24595 35.0853 9.34806 35.0929 10.3987C35.0929 13.0052 35.091 15.6137 35.0929 18.2202C33.7735 18.224 32.4559 18.2221 31.1364 18.2221C31.1288 15.8654 31.1517 13.5086 31.1269 11.1519C31.104 10.433 31.0525 9.47581 30.2726 9.15738C29.2144 8.78747 28.0532 9.22793 27.1703 9.83428C27.1913 12.6296 27.1742 15.4249 27.1799 18.2221C25.8604 18.2221 24.5409 18.224 23.2214 18.2202C23.2214 15.7414 23.2291 13.2607 23.2195 10.7819C23.2043 10.1451 23.0155 9.35569 22.3348 9.12878C21.2918 8.81035 20.1935 9.24891 19.3107 9.79996C19.3183 12.6067 19.3126 15.4154 19.3145 18.2221C17.995 18.2221 16.6774 18.224 15.358 18.2202C15.3599 14.1226 15.358 10.0231 15.358 5.92352C16.4715 5.92543 17.5851 5.91589 18.6986 5.93115C18.8111 6.32775 18.9236 6.72436 19.038 7.12097Z" fill="white"/>
<path d="M50.3165 6.79872C52.5188 5.7195 55.0777 5.31145 57.4897 5.81293C58.5423 6.03602 59.549 6.61567 60.1268 7.54236C60.653 8.39277 60.7865 9.42052 60.7884 10.4025C60.7827 12.3703 60.7903 14.3361 60.7846 16.3039C60.7732 16.9503 60.8513 17.5929 60.9829 18.224C59.8922 18.2145 58.8035 18.2374 57.7147 18.2088C57.545 17.8789 57.3753 17.549 57.2075 17.2192C55.3561 18.8628 52.1031 18.9982 50.4519 17.0056C49.5595 15.9149 49.3631 14.3533 49.7979 13.0319C50.1678 11.9584 51.1421 11.2243 52.168 10.8277C53.661 10.2404 55.297 10.3148 56.8719 10.25C56.8052 9.62073 56.5421 8.92667 55.8709 8.74171C54.4389 8.286 52.8887 8.71311 51.5597 9.3042C51.1459 8.46904 50.7207 7.6396 50.3165 6.79872ZM54.1014 13.1273C53.3311 13.541 53.3521 14.8491 54.1453 15.2266C55.009 15.6099 56.0139 15.3791 56.8357 14.9883C56.8281 14.2351 56.8338 13.4819 56.8224 12.7306C55.9166 12.847 54.9328 12.6773 54.1014 13.1273Z" fill="white"/>
</svg>
