<svg width="33" height="31" viewBox="0 0 33 31" fill="none" xmlns="http://www.w3.org/2000/svg">
<path d="M10.5356 1.58309C13.8519 0.159129 17.6409 -0.0839859 21.1274 0.830217C24.3899 1.65367 27.3733 3.54818 29.4886 6.16643C31.6508 8.81941 32.8597 12.1984 32.9829 15.6098C32.0553 15.6154 31.1265 15.6446 30.2011 15.593C29.9804 13.0465 29.325 10.3744 27.5492 8.44521C25.9953 6.68627 24.0706 5.22982 21.8848 4.35259C21.8579 4.23719 21.8332 4.12067 21.8086 4.00528C21.6327 3.94478 21.4646 3.86299 21.3089 3.76216C21.1543 3.8686 20.9874 3.95486 20.8126 4.02208C20.7924 4.21366 20.7454 4.39964 20.6793 4.58002C20.8249 4.70101 20.9526 4.84106 21.0389 5.01247C21.2327 4.99006 21.4288 4.98334 21.6237 5.00351C21.6753 4.90604 21.7257 4.80857 21.7761 4.70998C23.4465 5.35866 24.9422 6.39946 26.2418 7.62288C27.1033 8.45193 27.947 9.33701 28.4858 10.417C29.3037 12.0225 29.7216 13.8195 29.8202 15.6121C29.4717 15.5818 29.0595 15.714 28.7536 15.5415C28.5766 13.6996 28.1565 11.8443 27.221 10.2288C26.1298 8.31525 24.2375 6.991 22.241 6.15074C20.965 5.65107 19.5981 5.28135 18.2179 5.33401C18.3254 5.21413 18.4296 5.08977 18.5327 4.96542C18.2582 4.87803 17.9815 4.79512 17.7092 4.70325C17.6846 4.40972 17.6622 4.11619 17.6207 3.8249C17.3877 3.97167 17.167 4.14308 16.9183 4.26408C16.6281 4.1935 16.404 3.97055 16.1497 3.82602C16.1172 4.11171 16.0948 4.39964 16.0814 4.68757C15.8069 4.794 15.5246 4.87691 15.2445 4.96766C15.4282 5.19845 15.6399 5.40347 15.8539 5.60625C15.7542 5.87514 15.6534 6.14402 15.5761 6.42074C15.864 6.38601 16.1519 6.34456 16.441 6.31431C16.581 6.57423 16.73 6.83079 16.9015 7.07279C17.0482 6.82743 17.1849 6.57423 17.3171 6.32103C17.6151 6.34232 17.9109 6.38489 18.2067 6.41962C18.126 6.16306 18.0364 5.91099 17.9501 5.65667C20.8137 5.65107 23.6504 6.84536 25.7018 8.83397C26.9835 10.1112 27.7083 11.8399 28.096 13.5809C28.2472 14.2475 28.3503 14.9253 28.3514 15.6109C27.6534 15.6143 26.9532 15.6479 26.2575 15.5897C26.1678 14.3304 25.8833 13.0711 25.2682 11.9586C24.6072 10.7016 23.609 9.63838 22.4382 8.84293C22.548 8.73314 22.6589 8.62447 22.7698 8.51579C22.5614 8.40936 22.3519 8.30405 22.1436 8.20098C22.1458 7.9713 22.1458 7.74163 22.1447 7.51308C21.9318 7.60271 21.7212 7.70018 21.5139 7.80213C21.319 7.6464 21.1308 7.48283 20.9381 7.32486C20.8944 7.56462 20.844 7.80213 20.798 8.04077C20.5639 8.09902 20.3275 8.14944 20.0911 8.20322C20.2345 8.39143 20.3801 8.57853 20.5235 8.76675C20.4283 8.98298 20.3219 9.1936 20.2143 9.40423C20.4574 9.40311 20.6994 9.39751 20.9425 9.40311C21.0299 9.61485 21.1274 9.82212 21.2238 10.0294C21.4064 9.86805 21.5397 9.63726 21.7649 9.53195C21.9643 9.55435 22.1604 9.60029 22.3575 9.6395C22.3508 9.49722 22.3463 9.35605 22.3407 9.21377C24.4111 10.6523 25.8239 13.0521 25.8721 15.593C24.9187 15.6345 23.9608 15.6345 23.0062 15.5919C22.958 14.0021 21.9699 12.5927 20.6781 11.7289C20.2782 11.4556 19.7942 11.096 19.848 10.5515C19.7001 10.5761 19.5533 10.6019 19.4066 10.6288C19.29 10.5257 19.1746 10.4226 19.0581 10.3207C18.9965 10.4529 18.9371 10.5862 18.8777 10.7195C18.7243 10.7576 18.5708 10.7957 18.4184 10.8327C18.5831 11.1016 18.5887 11.3996 18.4162 11.6662C18.7287 11.6853 18.9461 11.8757 19.0447 12.1692C19.2643 11.9564 19.5432 11.8914 19.8345 11.9799C19.8502 11.9048 19.8827 11.7547 19.8984 11.6797C20.8171 12.2297 21.673 12.9568 22.1828 13.9125C22.4561 14.4223 22.5816 14.9959 22.6253 15.5684C21.8142 15.6759 20.9941 15.6053 20.1818 15.556C17.5681 15.5527 14.9509 15.4832 12.3405 15.6188C10.1682 15.6121 7.99582 15.6244 5.82235 15.6143C5.89741 17.6724 6.50912 19.7585 7.7303 21.4345C7.88827 21.7325 8.27479 21.6832 8.49662 21.9073C8.52575 22.0361 8.55152 22.165 8.5728 22.2949C8.46637 22.398 8.36106 22.5022 8.26022 22.6109C8.10338 22.5929 7.94765 22.5817 7.7908 22.5795C7.72022 22.3577 7.69333 22.1269 7.67316 21.8961C7.52864 21.6171 7.30905 21.3841 7.1466 21.1163C6.1002 19.4795 5.63301 17.5424 5.49185 15.6221C4.64375 15.6154 3.79676 15.6143 2.94978 15.6233C3.00244 16.1991 3.03381 16.7828 3.17161 17.3464C3.20746 17.5671 3.47523 17.5312 3.63768 17.5772C3.80013 17.818 3.78332 18.0802 3.66008 18.3345C3.5122 18.3636 3.36767 18.4309 3.21531 18.4309C3.10663 18.3468 3.00468 18.2572 2.89937 18.1709C2.91281 17.3139 2.68762 16.477 2.65177 15.6221C2.19691 15.6154 1.74205 15.6132 1.28831 15.6244C1.28383 19.0919 2.80302 22.4249 5.0157 25.042C5.49409 25.5764 5.94559 26.1456 6.52033 26.5825C6.63348 26.5164 6.74664 26.4492 6.85979 26.3808C7.00208 26.5209 7.16229 26.643 7.34154 26.7326C7.33258 26.9253 7.34042 27.118 7.36283 27.3096C7.19366 27.4138 7.06145 27.5617 6.96062 27.732C6.78137 27.6188 6.57522 27.5886 6.36684 27.6099C6.29738 27.4272 6.21447 27.2513 6.10692 27.0889C6.15733 26.9959 6.20887 26.9029 6.25929 26.8099C3.82365 24.483 1.92691 21.504 1.24462 18.1765C0.8693 16.4042 0.9354 14.5657 1.2054 12.7832C1.37234 11.6505 1.80255 10.5806 2.27421 9.54539C3.92785 5.99725 6.93037 3.10676 10.5356 1.58309Z" fill="white"/>
<path d="M26.9039 18.6112C27.2266 18.3905 27.7901 18.5227 27.8551 18.9541C27.9223 19.5434 27.8719 20.1405 27.8752 20.7332C28.3749 20.3444 29.018 20.0565 29.6577 20.2425C30.3086 20.3679 30.7814 20.992 30.7893 21.644C30.805 22.5022 30.7949 23.3604 30.796 24.2186C30.8106 24.4796 30.6817 24.7395 30.4621 24.8818C30.1395 24.986 29.6745 24.9233 29.5995 24.5289C29.4874 23.6528 29.6196 22.7621 29.5334 21.8838C29.4874 21.6306 29.4034 21.309 29.12 21.2317C28.6326 21.0771 28.0758 21.3863 27.9559 21.8838C27.8013 22.7498 27.9526 23.636 27.854 24.5054C27.7666 24.9401 27.1907 25.0319 26.8647 24.8191C26.6563 24.6454 26.6462 24.3552 26.6429 24.1065C26.644 22.5358 26.6462 20.964 26.6417 19.3932C26.6384 19.1154 26.6563 18.7882 26.9039 18.6112Z" fill="white"/>
<path d="M10.0158 18.6023C10.4057 18.404 10.9479 18.7177 10.8998 19.1736C10.9423 19.7383 10.1413 19.9803 9.79846 19.5871C9.51389 19.2958 9.63601 18.7502 10.0158 18.6023Z" fill="white"/>
<path d="M11.507 18.9036C11.693 18.5698 12.1209 18.5967 12.4481 18.5978C13.7152 18.6191 14.9834 18.5709 16.2483 18.6213C16.7872 18.6493 16.9351 19.484 16.4354 19.6845C15.8864 19.8246 15.3083 19.7137 14.747 19.7607C14.7605 21.1712 14.7482 22.5817 14.7549 23.9911C14.7594 24.3026 14.7414 24.6936 14.4266 24.8583C14.1645 24.9479 13.8037 24.9748 13.6099 24.7362C13.4093 24.5435 13.4295 24.2466 13.4228 23.9923C13.4284 22.5806 13.4239 21.1679 13.4261 19.7562C12.922 19.7372 12.4167 19.7775 11.9137 19.7316C11.535 19.698 11.2952 19.2229 11.507 18.9036Z" fill="white"/>
<path d="M10.0393 20.2357C10.4415 20.0531 10.9244 20.4116 10.8919 20.8474C10.9054 21.9712 10.8998 23.096 10.8942 24.2197C10.9098 24.5491 10.6903 24.9389 10.3194 24.9188C9.96539 24.986 9.66178 24.6678 9.65506 24.3295C9.63825 23.2047 9.65618 22.0798 9.64721 20.955C9.63489 20.6693 9.7346 20.3265 10.0393 20.2357Z" fill="white"/>
<path d="M16.9351 21.0838C17.5322 20.1876 18.8038 19.9758 19.7595 20.3601C20.5459 20.6727 21.0658 21.551 20.9504 22.389C20.9089 22.761 20.509 22.9022 20.1841 22.91C19.3987 22.9425 18.6111 22.9134 17.8246 22.9201C17.8201 23.3873 18.0812 23.8825 18.5551 24.0147C19.1029 24.2174 19.6317 23.8466 20.0104 23.4847C20.1986 23.2607 20.5605 23.1778 20.7924 23.3805C21.0075 23.6405 20.8496 24.0079 20.6613 24.2354C20.1639 24.8213 19.3438 24.9782 18.6111 24.9143C17.8313 24.902 17.0594 24.4426 16.7525 23.7122C16.4063 22.8764 16.4421 21.8546 16.9351 21.0838ZM18.1876 21.3236C17.9322 21.5241 17.8683 21.8569 17.8213 22.1594C18.4599 22.1661 19.0996 22.1661 19.7393 22.1582C19.6922 21.8826 19.6609 21.5723 19.4402 21.3729C19.1175 21.0334 18.5316 20.9965 18.1876 21.3236Z" fill="white"/>
<path d="M23.3614 20.2357C24.3047 20.0363 25.5214 20.3556 25.9124 21.3214C26.0793 21.6642 25.8217 22.0966 25.443 22.1168C25.0587 22.1639 24.8929 21.7448 24.6632 21.5197C24.3215 21.0614 23.5451 21.0726 23.1911 21.5096C22.8415 21.9051 22.8382 22.4719 22.8931 22.9683C22.9614 23.338 23.153 23.7312 23.5261 23.8746C23.8566 23.9979 24.2655 23.9844 24.5501 23.7592C24.8033 23.5531 24.9287 23.236 25.1618 23.0108C25.4273 22.8002 25.8665 22.9324 25.9729 23.2539C26.1073 23.6001 25.9034 23.9642 25.6827 24.2242C25.2133 24.7687 24.4571 24.9513 23.7636 24.9053C22.9737 24.9311 22.1626 24.4998 21.8388 23.7615C21.4198 22.8327 21.5206 21.6362 22.2029 20.8564C22.5054 20.527 22.9278 20.3265 23.3614 20.2357Z" fill="white"/>
<path d="M9.79174 26.122C9.76037 25.7467 10.1671 25.4129 10.5222 25.5753C10.8505 25.6649 10.8897 26.0503 10.8964 26.336C10.9042 27.4564 10.8942 28.5778 10.8975 29.6993C11.6235 29.7408 12.3585 29.6444 13.08 29.7475C13.5259 29.8483 13.4598 30.5877 13.0004 30.609C12.1097 30.6449 11.2146 30.6303 10.3217 30.6169C10.008 30.637 9.77381 30.3334 9.79062 30.0365C9.7839 28.7324 9.78166 27.4261 9.79174 26.122Z" fill="white"/>
<path d="M18.0991 25.5876C18.3512 25.4386 18.731 25.6067 18.7668 25.9047C18.8329 26.3797 18.7881 26.8626 18.7892 27.3399C19.4334 26.7696 20.5538 26.7203 21.1117 27.4351C21.5419 28.0098 21.5789 28.7941 21.4142 29.4707C21.2708 30.1374 20.6681 30.73 19.9589 30.7042C19.5354 30.7423 19.1567 30.5295 18.8408 30.2718C18.7153 30.4735 18.573 30.7502 18.2873 30.702C17.9255 30.7323 17.8045 30.339 17.8168 30.0477C17.8078 28.8109 17.8168 27.5729 17.8134 26.336C17.8336 26.0761 17.8045 25.703 18.0991 25.5876ZM19.3472 27.7622C18.9058 28.002 18.7971 28.5756 18.8497 29.0361C18.8822 29.4461 19.169 29.8909 19.6172 29.901C20.0306 29.9447 20.3779 29.5929 20.4429 29.2052C20.5135 28.766 20.5202 28.2372 20.1897 27.8955C19.9835 27.6625 19.6183 27.6423 19.3472 27.7622Z" fill="white"/>
<path d="M14.5274 27.0609C15.138 26.8189 15.8405 26.8211 16.46 27.0295C16.7827 27.1371 17.0045 27.4362 17.0718 27.7622C17.2241 28.5263 16.9956 29.3217 17.2432 30.0735C17.3686 30.3368 17.2062 30.6695 16.9071 30.6953C16.5934 30.7659 16.4096 30.4466 16.218 30.2617C15.817 30.488 15.3957 30.7379 14.9162 30.7042C14.3303 30.7502 13.7085 30.3166 13.6816 29.7027C13.6244 29.194 14.0255 28.7324 14.5039 28.6148C15.0495 28.4703 15.6153 28.4064 16.1508 28.2193C16.078 28.0177 16.0545 27.7241 15.7968 27.6771C15.4641 27.5886 15.0305 27.6121 14.803 27.9067C14.6865 28.0378 14.5835 28.1801 14.4569 28.3022C14.2249 28.3851 13.8978 28.291 13.8586 28.0177C13.7936 27.583 14.1532 27.2155 14.5274 27.0609ZM14.728 29.417C14.57 29.8808 15.1728 30.1631 15.538 29.9648C16.0041 29.8427 16.1643 29.3464 16.1486 28.9139C15.6792 29.0629 15.0506 28.9946 14.728 29.417Z" fill="white"/>
<path d="M22.4001 27.2054C22.8449 26.8693 23.4409 26.8704 23.9686 26.9455C24.3977 27.0172 24.8615 27.2569 24.9993 27.6984C25.1002 28.067 24.6509 28.3213 24.3484 28.1543C24.0504 27.9527 23.8465 27.5236 23.4286 27.574C23.19 27.5561 23.0152 27.7275 22.8998 27.9146C23.3222 28.4524 24.1333 28.2989 24.6722 28.6731C25.3556 28.98 25.3365 30.0847 24.6733 30.3995C24.1367 30.7614 23.4432 30.7659 22.8348 30.6213C22.3923 30.4869 21.8948 30.1228 21.9632 29.603C21.9811 29.3105 22.3452 29.1907 22.585 29.3094C22.8516 29.5559 23.0118 29.9827 23.4264 30.0108C23.7277 30.0791 24.2677 29.9279 24.1747 29.5301C23.9518 29.2108 23.5182 29.1974 23.1788 29.082C22.7788 28.9666 22.3351 28.8232 22.101 28.4501C21.859 28.0356 22.0214 27.4777 22.4001 27.2054Z" fill="white"/>
</svg>
