<svg width="100" height="56" viewBox="0 0 100 56" fill="none" xmlns="http://www.w3.org/2000/svg">
<rect width="100" height="56" rx="10" fill="#250158"/>
<g clip-path="url(#clip0_12734_108541)">
<g clip-path="url(#clip1_12734_108541)">
<path d="M20.2399 23.7916C20.2399 26.0777 18.7267 27.4969 16.3191 27.4969H14.7725V30.1353H12.2729V20.0674H16.3107C18.7267 20.0674 20.2399 21.4961 20.2399 23.7916ZM17.7152 23.7916C17.7152 22.8582 17.1969 22.3153 16.1603 22.3153H14.7725V25.2585H16.1603C17.1969 25.2585 17.7152 24.7156 17.7152 23.7916Z" fill="#1CC68D"/>
<path d="M21.1328 20.0296C21.1328 19.2104 21.7096 18.5818 22.5958 18.5818C23.4819 18.5818 24.0587 19.1723 24.0587 19.9915C24.0587 20.8583 23.4819 21.4869 22.5958 21.4869C21.7096 21.4774 21.1328 20.8487 21.1328 20.0296ZM21.4003 22.3442H23.7912V30.1356H21.392V22.3442H21.4003Z" fill="#1CC68D"/>
<path d="M32.6291 25.6776V30.1353H30.2298V26.1252C30.2298 25.0013 29.8034 24.525 29.1096 24.525C28.3405 24.525 27.7469 25.0679 27.7469 26.3634V30.1353H25.3477V22.3438H27.6299V23.1915C28.1733 22.5438 28.9424 22.2104 29.8034 22.2104C31.4085 22.2104 32.6291 23.2677 32.6291 25.6776Z" fill="#1CC68D"/>
<path d="M42.293 25.1062C42.293 22.0487 44.3496 19.877 47.1501 19.877C48.7802 19.877 50.0927 20.5532 50.9455 21.7724L49.357 23.4107C48.8054 22.6487 48.1198 22.2296 47.2755 22.2296C45.8208 22.2296 44.8177 23.3822 44.8177 25.1062C44.8177 26.8302 45.8292 27.9827 47.2755 27.9827C48.1198 27.9827 48.8054 27.5636 49.357 26.8016L50.9455 28.4399C50.0843 29.6591 48.7718 30.3354 47.1501 30.3354C44.3496 30.3354 42.293 28.1637 42.293 25.1062Z" fill="white"/>
<path d="M58.3271 25.8106V30.135H56.0952V29.1253C55.7524 29.8683 55.0753 30.2588 54.0804 30.2588C52.4419 30.2588 51.5308 29.2111 51.5308 27.8585C51.5308 26.4202 52.4503 25.5249 54.5737 25.5249H55.9363C55.8946 24.7343 55.4348 24.2866 54.4818 24.2866C53.8298 24.2866 53.0941 24.5438 52.6259 24.9629L51.815 23.1055C52.6008 22.515 53.7545 22.2007 54.8329 22.2007C57.0566 22.2102 58.3271 23.3341 58.3271 25.8106ZM55.9363 27.6299V26.9537H54.8998C54.1307 26.9537 53.8547 27.268 53.8547 27.7442C53.8547 28.2014 54.1808 28.5348 54.7493 28.5348C55.276 28.5348 55.7441 28.249 55.9363 27.6299Z" fill="white"/>
<path d="M59.3057 29.459L60.0248 27.5921C60.6516 28.0398 61.5798 28.3065 62.407 28.3065C63.2184 28.3065 63.4775 28.1064 63.4775 27.773C63.4775 26.7253 59.4393 27.9159 59.4393 24.8013C59.4393 23.3344 60.6266 22.2104 62.7666 22.2104C63.7279 22.2104 64.7816 22.4391 65.467 22.8677L64.7479 24.7251C64.0625 24.2964 63.3852 24.1536 62.7834 24.1536C61.9725 24.1536 61.6884 24.4107 61.6884 24.6965C61.6884 25.7728 65.7093 24.6108 65.7093 27.6969C65.7093 29.1351 64.5475 30.2591 62.332 30.2591C61.1702 30.2686 59.9748 29.9352 59.3057 29.459Z" fill="white"/>
<path d="M66.478 20.0296C66.478 19.2104 67.0548 18.5818 67.9408 18.5818C68.8271 18.5818 69.4039 19.1723 69.4039 19.9915C69.4039 20.8583 68.8271 21.4869 67.9408 21.4869C67.063 21.4774 66.478 20.8487 66.478 20.0296ZM66.7458 22.3442H69.1448V30.1356H66.7458V22.3442Z" fill="white"/>
<path d="M77.9727 25.6776V30.1353H75.5732V26.1252C75.5732 25.0013 75.1468 24.525 74.4532 24.525C73.6841 24.525 73.0905 25.0679 73.0905 26.3634V30.1353H70.6909V22.3438H72.9732V23.1915C73.5168 22.5438 74.2859 22.2104 75.1468 22.2104C76.7518 22.2104 77.9727 23.2677 77.9727 25.6776Z" fill="white"/>
<path d="M79.1519 26.2205C79.1519 23.8773 80.7819 22.2104 83.0141 22.2104C85.2709 22.2104 86.8759 23.8773 86.8759 26.2205C86.8759 28.5827 85.2709 30.2591 83.0141 30.2591C80.7737 30.2686 79.1519 28.5827 79.1519 26.2205ZM84.4519 26.2205C84.4519 25.0394 83.8332 24.3821 83.0141 24.3821C82.2032 24.3821 81.5759 25.0394 81.5759 26.2205C81.5759 27.4111 82.2032 28.0874 83.0141 28.0874C83.8332 28.0969 84.4519 27.4206 84.4519 26.2205Z" fill="white"/>
<path d="M37.6527 22.2393C35.4207 22.2393 33.7905 23.9061 33.7905 26.2493C33.7905 28.6115 35.4207 30.2879 37.6527 30.2879C39.9098 30.2879 41.515 28.602 41.515 26.2493C41.515 23.9061 39.9183 22.2393 37.6527 22.2393ZM39.2745 27.3923C39.0822 27.6114 38.8231 27.7257 38.5473 27.7257H38.5388C38.2546 27.7257 37.9955 27.5923 37.8032 27.3637C37.8367 27.5256 37.8617 27.7161 37.9035 27.8399C38.054 28.3067 38.3048 28.5067 38.2882 28.5067H37.0258C37.0091 28.5067 37.2598 28.3067 37.4103 27.8399C37.4521 27.7161 37.4773 27.5256 37.5106 27.3637C37.3183 27.5923 37.0592 27.7257 36.7749 27.7257H36.7667C36.4907 27.7257 36.2316 27.6018 36.0393 27.3923C35.8471 27.1732 35.7383 26.8874 35.7468 26.5922C35.7468 26.0778 36.0477 25.8111 36.4322 25.4682C36.5074 25.4016 36.5826 25.3349 36.6579 25.2587C37.2181 24.7253 37.6611 24.0109 37.6611 24.0109C37.6611 24.0109 38.1041 24.7253 38.6643 25.2587C38.7396 25.3349 38.8148 25.4016 38.8901 25.4682C39.2663 25.8111 39.5671 26.0778 39.5755 26.5922C39.5755 26.897 39.4668 27.1827 39.2745 27.3923Z" fill="#1CC68D"/>
<path d="M14.0982 35.4368C14.2969 35.3227 14.4294 35.1141 14.4294 34.8307C14.4294 34.3937 14.0982 34.1143 13.4799 34.1143H12.2729V36.8697H13.5535C14.2159 36.8697 14.5618 36.5941 14.5618 36.1218C14.5618 35.7636 14.3742 35.5313 14.0982 35.4368ZM13.4284 34.5158C13.7596 34.5158 13.9473 34.6417 13.9473 34.8976C13.9473 35.1495 13.7596 35.2755 13.4284 35.2755H12.7513V34.5158H13.4284ZM13.5241 36.4681H12.7513V35.673H13.5241C13.8847 35.673 14.0798 35.7951 14.0798 36.0706C14.0798 36.3461 13.8847 36.4681 13.5241 36.4681Z" fill="white"/>
<path d="M17.0228 36.4406V35.6809H18.2666V35.2597H17.0228V34.5433H18.4248V34.1143H16.5444V36.8697H18.4764V36.4406H17.0228Z" fill="white"/>
<path d="M23.4929 36.8697H23.9713V34.5472H24.825V34.1143H22.6392V34.5472H23.4929V36.8697Z" fill="white"/>
<path d="M28.4667 34.1143V35.2519H27.1346V34.1143H26.6562V36.8697H27.1346V35.6888H28.4667V36.8697H28.9451V34.1143H28.4667Z" fill="white"/>
<path d="M31.5853 36.4406V35.6809H32.829V35.2597H31.5853V34.5433H32.9872V34.1143H31.1069V36.8697H33.0388V36.4406H31.5853Z" fill="white"/>
<path d="M38.7253 36.9091C39.1484 36.9091 39.5091 36.7477 39.7483 36.4485L39.4393 36.1336C39.2515 36.354 39.0197 36.4603 38.7512 36.4603C38.2176 36.4603 37.8311 36.0588 37.8311 35.492C37.8311 34.9252 38.2176 34.5237 38.7512 34.5237C39.0197 34.5237 39.2515 34.63 39.4393 34.8464L39.7483 34.5355C39.5091 34.2363 39.1484 34.075 38.729 34.075C37.9378 34.075 37.3491 34.6693 37.3491 35.492C37.3491 36.3147 37.9378 36.9091 38.7253 36.9091Z" fill="white"/>
<path d="M43.5533 36.8697H44.0539L42.891 34.1143H42.42L41.2607 36.8697H41.7538L42.0079 36.232H43.2957L43.5533 36.8697ZM42.1697 35.8305L42.6518 34.626L43.1375 35.8305H42.1697Z" fill="white"/>
<path d="M46.652 36.9091C47.3585 36.9091 47.6933 36.5312 47.6933 36.0903C47.6933 35.0787 46.1661 35.4605 46.1661 34.874C46.1661 34.6654 46.328 34.5 46.7255 34.5C46.95 34.5 47.204 34.5709 47.4357 34.7166L47.5865 34.319C47.3622 34.1615 47.0383 34.075 46.7292 34.075C46.0227 34.075 45.6914 34.4528 45.6914 34.8976C45.6914 35.9211 47.2223 35.5314 47.2223 36.1258C47.2223 36.3304 47.053 36.484 46.652 36.484C46.3355 36.484 46.0079 36.358 45.8019 36.1809L45.6362 36.5784C45.8496 36.7752 46.2508 36.9091 46.652 36.9091Z" fill="white"/>
<path d="M51.4501 34.1143V35.2519H50.1181V34.1143H49.6396V36.8697H50.1181V35.6888H51.4501V36.8697H51.9285V34.1143H51.4501Z" fill="white"/>
<path d="M55.9156 35.4368C56.1142 35.3227 56.2468 35.1141 56.2468 34.8307C56.2468 34.3937 55.9156 34.1143 55.2973 34.1143H54.0903V36.8697H55.3709C56.0334 36.8697 56.3792 36.5941 56.3792 36.1218C56.3792 35.7636 56.1916 35.5313 55.9156 35.4368ZM55.2457 34.5158C55.5771 34.5158 55.7647 34.6417 55.7647 34.8976C55.7647 35.1495 55.5771 35.2755 55.2457 35.2755H54.5687V34.5158H55.2457ZM55.3416 36.4681H54.5687V35.673H55.3416C55.7021 35.673 55.8971 35.7951 55.8971 36.0706C55.8971 36.3461 55.7021 36.4681 55.3416 36.4681Z" fill="white"/>
<path d="M60.2903 36.8697H60.7907L59.628 34.1143H59.1566L57.9976 36.8697H58.4907L58.7444 36.232H60.0326L60.2903 36.8697ZM58.9067 35.8305L59.3885 34.626L59.8744 35.8305H58.9067Z" fill="white"/>
<path d="M63.7465 36.9091C64.1697 36.9091 64.5301 36.7477 64.7692 36.4485L64.4601 36.1336C64.2724 36.354 64.041 36.4603 63.7719 36.4603C63.2383 36.4603 62.8524 36.0588 62.8524 35.492C62.8524 34.9252 63.2383 34.5237 63.7719 34.5237C64.041 34.5237 64.2724 34.63 64.4601 34.8464L64.7692 34.5355C64.5301 34.2363 64.1697 34.075 63.7501 34.075C62.9588 34.075 62.3701 34.6693 62.3701 35.492C62.3701 36.3147 62.9588 36.9091 63.7465 36.9091Z" fill="white"/>
<path d="M68.4956 36.8697H69.0547L67.9065 35.3463L68.9888 34.1143H68.4511L67.1783 35.5274V34.1143H66.6997V36.8697H67.1783V36.1651L67.5865 35.7163L68.4956 36.8697Z" fill="white"/>
<path d="M75.1377 36.8697H75.6968L74.5486 35.3463L75.6304 34.1143H75.0932L73.82 35.5274V34.1143H73.3418V36.8697H73.82V36.1651L74.2286 35.7163L75.1377 36.8697Z" fill="white"/>
<path d="M77.4941 36.8697H77.9723V34.1143H77.4941V36.8697Z" fill="white"/>
<path d="M81.9557 34.1143V35.98L80.5352 34.1143H80.1416V36.8697H80.6161V35.0038L82.0366 36.8697H82.4302V34.1143H81.9557Z" fill="white"/>
<path d="M86.3514 36.3186C86.1855 36.421 86.0055 36.4603 85.8214 36.4603C85.2768 36.4603 84.8905 36.0509 84.8905 35.492C84.8905 34.9213 85.2768 34.5237 85.825 34.5237C86.1009 34.5237 86.3328 34.6221 86.535 34.8386L86.8368 34.5237C86.5941 34.2284 86.2337 34.075 85.8028 34.075C84.9968 34.075 84.4082 34.6693 84.4082 35.492C84.4082 36.3147 84.9968 36.9091 85.7955 36.9091C86.16 36.9091 86.535 36.7909 86.8037 36.5587V35.4605H86.3514V36.3186Z" fill="white"/>
</g>
</g>
<defs>
<clipPath id="clip0_12734_108541">
<rect width="75" height="18.3273" fill="white" transform="translate(12.2729 18.8364)"/>
</clipPath>
<clipPath id="clip1_12734_108541">
<rect width="75" height="18.3273" fill="white" transform="translate(12.2729 18.5818)"/>
</clipPath>
</defs>
</svg>
