<svg width="89" height="30" viewBox="0 0 89 30" fill="none" xmlns="http://www.w3.org/2000/svg">
<path d="M5.8769 2.43855C7.87674 0.517258 11.2511 0.203084 13.5258 1.81625C15.6284 3.23305 16.7763 5.66488 17.2476 8.09066C16.4561 8.09368 15.6616 8.09368 14.8701 8.09368C14.42 6.59229 13.8219 5.03049 12.5591 4.02151C11.2148 2.86148 9.07906 2.8645 7.70455 3.97015C6.43275 4.99122 5.7893 6.56208 5.37845 8.0967C4.57489 8.09368 3.77133 8.09368 2.96777 8.09066C3.39976 5.99415 4.26072 3.89765 5.8769 2.43855Z" fill="#6BC530"/>
<path d="M1.65461 9.7523C2.09566 9.54386 2.6062 9.62844 3.07746 9.59521C8.02268 9.62542 12.9709 9.57709 17.9131 9.61636C18.7378 9.5348 19.4659 10.2598 19.3601 11.0875C19.3903 16.2321 19.3511 21.3798 19.3782 26.5244C19.345 27.1013 19.4598 27.8143 18.9523 28.2281C18.4055 28.6994 17.6231 28.6027 16.9525 28.642C12.3184 28.6299 7.68131 28.639 3.04423 28.639C2.40984 28.5967 1.62138 28.6571 1.18637 28.0892C0.890325 27.7448 0.959805 27.2615 0.932617 26.8415C0.953764 21.5942 0.932617 16.3439 0.94168 11.0966C0.890325 10.5498 1.15918 10 1.65461 9.7523ZM7.81423 16.5493C7.5635 17.5523 8.19487 18.4314 8.88363 19.0778C8.50904 20.552 8.11934 22.0262 7.74777 23.5004C9.33073 23.5004 10.9137 23.5004 12.4936 23.5004C12.116 22.0232 11.7354 20.546 11.3668 19.0657C12.5631 18.1776 12.9196 16.2201 11.6538 15.2352C10.4062 14.0027 8.07101 14.8486 7.81423 16.5493Z" fill="#6BC530"/>
<path d="M61.7659 7.62541C66.3909 6.95477 71.2274 9.65244 73.0792 13.9391C74.7014 17.4584 74.2151 21.8388 71.8497 24.908C69.2064 28.5059 64.2431 30.119 59.9866 28.7657C55.416 27.4395 52.0688 22.8326 52.3015 18.0596C52.3437 12.8757 56.6213 8.1873 61.7659 7.62541ZM62.0741 9.70681C57.7361 10.2022 54.1503 14.2744 54.4131 18.6698C54.4463 23.464 59.0381 27.5694 63.8051 27.083C68.566 26.8565 72.5234 22.1831 71.8709 17.4403C71.4932 12.7156 66.7384 9.02409 62.0741 9.70681Z" fill="#1F1F1F"/>
<path d="M21.1826 11.4164C23.3003 11.4254 25.4179 11.3982 27.5356 11.4224C29.1971 11.4436 30.9643 11.8967 32.1213 13.1624C33.523 14.6034 33.7375 16.7452 33.7375 18.6605C33.7435 20.5939 33.1847 22.7266 31.5443 23.9138C30.339 24.8956 28.7077 24.9923 27.2214 25.0165C25.2095 25.0104 23.1945 25.0074 21.1826 25.0104C21.1826 20.4791 21.1826 15.9477 21.1826 11.4164ZM25.3394 14.5521C25.3424 17.0322 25.3394 19.5124 25.3394 21.9925C26.6293 21.9925 28.4781 22.2825 29.1004 20.8083C29.6532 19.1861 29.6895 17.292 29.0098 15.706C28.2908 14.401 26.6142 14.5158 25.3394 14.5521Z" fill="#1F1F1F"/>
<path d="M35.3799 11.4168C37.2377 11.4198 39.0956 11.4107 40.9534 11.4228C41.6513 14.1477 42.3521 16.8755 43.0681 19.5974C43.7961 16.8725 44.5211 14.1477 45.2431 11.4198C47.0859 11.4137 48.9256 11.4168 50.7684 11.4168C50.7684 15.9481 50.7684 20.4795 50.7684 25.0108C49.566 25.0108 48.3637 25.0108 47.1614 25.0108C47.1554 21.6546 47.1765 18.3014 47.1493 14.9482C46.2974 18.2984 45.4576 21.6516 44.6178 25.0048C43.5816 25.0108 42.5485 25.0108 41.5123 25.0108C40.6785 21.6727 39.8659 18.3316 39.0019 14.9996C38.9687 18.3377 38.9959 21.6727 38.9868 25.0108C37.7845 25.0108 36.5822 25.0108 35.3799 25.0108C35.3799 20.4795 35.3799 15.9481 35.3799 11.4168Z" fill="#1F1F1F"/>
<path d="M78.9851 11.4228C80.5348 11.4137 82.0815 11.4137 83.6312 11.4197C85.3622 15.9511 87.1083 20.4794 88.8423 25.0108C87.3439 25.0108 85.8455 25.0108 84.3442 25.0078C84.1055 24.3039 83.8669 23.603 83.6312 22.8992C82.0573 22.8961 80.4834 22.8961 78.9126 22.8961C78.6739 23.6 78.4383 24.3039 78.2027 25.0078C76.7405 25.0138 75.2815 25.0108 73.8193 25.0078C75.5413 20.4794 77.2692 15.9511 78.9851 11.4228ZM81.287 15.2321C80.7432 16.7667 80.281 18.3255 79.7796 19.8752C80.7886 19.8752 81.7975 19.8752 82.8065 19.8722C82.302 18.3255 81.87 16.7516 81.287 15.2321Z" fill="#1F1F1F"/>
<path d="M58.6803 13.8516C60.9882 10.9606 66.2295 10.9364 68.2867 14.1295C68.6915 14.6944 68.9151 15.362 69.1779 15.9994C68.1689 16.1716 67.1599 16.3287 66.1479 16.4888C65.7794 15.6732 65.4743 14.6702 64.5741 14.2926C63.1542 13.5706 61.236 14.4497 60.8372 15.9843C60.3599 17.519 60.3539 19.2016 60.7768 20.7483C61.1423 22.1923 62.9035 23.2013 64.2931 22.5065C65.4018 22.0594 65.7401 20.8057 66.1721 19.8088C67.2113 20.0686 68.2505 20.3254 69.2867 20.5912C68.7852 21.9476 68.0723 23.3312 66.7793 24.0924C64.6314 25.325 61.8039 25.2374 59.7164 23.9142C56.5717 21.718 56.0914 16.655 58.6803 13.8516Z" fill="#1F1F1F"/>
</svg>
