<svg width="77" height="33" viewBox="0 0 77 33" fill="none" xmlns="http://www.w3.org/2000/svg">
<path d="M14.2683 6.31201C7.73854 6.31201 2.41797 11.6326 2.41797 18.1624C2.41797 24.6922 7.73854 30.0127 14.2683 30.0127H63.6287C70.1585 30.0127 75.4791 24.6922 75.4791 18.1624C75.4791 11.6326 70.1585 6.31201 63.6287 6.31201H14.2683Z" fill="white"/>
<path d="M63.6301 31.0042H14.2697C7.18363 31.0042 1.42773 25.2483 1.42773 18.1622C1.42773 11.0762 7.18363 5.32031 14.2697 5.32031H63.6301C70.7161 5.32031 76.472 11.0762 76.472 18.1622C76.472 25.2483 70.7161 31.0042 63.6301 31.0042ZM14.2697 6.31187C7.73987 6.31187 2.4193 11.6324 2.4193 18.1622C2.4193 24.692 7.73987 30.0126 14.2697 30.0126H63.6301C70.1599 30.0126 75.4804 24.692 75.4804 18.1622C75.4804 11.6324 70.1599 6.31187 63.6301 6.31187H14.2697Z" fill="#BCBBBC"/>
<path d="M57.7045 10.9556C55.7939 10.9556 54.2461 12.5034 54.2461 14.4381C54.2461 16.3487 55.7939 17.8965 57.7045 17.8965C59.615 17.8965 61.1628 16.3487 61.1628 14.4381C61.1628 12.5276 59.615 10.9556 57.7045 10.9556ZM57.7045 16.2036C56.7129 16.2036 55.9148 15.4055 55.9148 14.4139C55.9148 13.4224 56.7129 12.6243 57.7045 12.6243C58.696 12.6243 59.4941 13.4224 59.4941 14.4139C59.4941 15.4055 58.696 16.2036 57.7045 16.2036Z" fill="black"/>
<path d="M41.7904 10.9556C39.8798 10.9556 38.332 12.5034 38.332 14.4381C38.332 16.3487 39.8798 17.8965 41.7904 17.8965C43.701 17.8965 45.273 16.3487 45.273 14.4381C45.273 12.5276 43.701 10.9556 41.7904 10.9556ZM41.7904 16.2036C40.7988 16.2036 40.0008 15.4055 40.0008 14.4139C40.0008 13.4224 40.7988 12.6243 41.7904 12.6243C42.782 12.6243 43.5801 13.4224 43.5801 14.4139C43.5801 15.4055 42.782 16.2036 41.7904 16.2036Z" fill="black"/>
<path d="M54.0035 16.3004C53.7858 16.3729 53.4473 16.4213 53.3263 16.4213C52.7217 16.4213 52.6008 16.2278 52.6008 15.6474V12.4309H54.0277V11.1007H52.6008V9.21436H51.0046L50.666 11.1007H49.5536H49.4568C48.5378 11.1007 47.8607 11.657 47.4253 12.5276L46.8691 11.1007H45.7324V17.7515H47.6914V14.8493C47.6914 13.3983 48.562 12.4551 49.5777 12.4309H50.6419V15.7441C50.6419 17.292 51.4399 17.8724 52.7459 17.8724C53.4231 17.8724 53.9309 17.7273 54.2453 17.6305L54.0035 16.3004Z" fill="black"/>
<path d="M63.5571 13.229V17.7757H61.6465V11.125H62.8073L63.1943 12.1407" fill="black"/>
<path d="M63.1699 12.1406C63.7503 11.4634 64.5484 10.9556 65.4674 10.9556C67.0636 10.9556 67.6924 12.2132 67.6924 13.3982V17.7756H65.7335V13.4466C65.7335 12.8661 65.2498 12.5759 64.7419 12.5759C64.1857 12.5759 63.8471 12.8903 63.5327 13.2289" fill="black"/>
<path d="M30.6914 8.70654H32.868L35.8669 14.4141V8.70654H37.6807V17.7757H35.6976L32.5052 11.5119V17.7757H30.6914V8.70654Z" fill="black"/>
<path d="M73.4962 5.29639V5.63497H73.0125V7.23114H72.6497V5.63497H72.166V5.29639H73.4962Z" fill="#979695"/>
<path d="M73.7637 7.23114V5.29639H74.2474L74.5859 6.55397L74.9245 5.29639H75.4324V7.23114H75.118V5.7317L74.731 7.23114H74.465L74.0781 5.7317H74.0539V7.23114H73.7637Z" fill="#979695"/>
<path d="M30.1582 25.8047L30.6177 25.1033C30.9805 25.3694 31.5367 25.6354 32.2139 25.6354C32.8669 25.6354 33.278 25.3452 33.278 24.8131C33.278 24.2327 32.7701 24.0634 31.9237 23.7732C31.1739 23.5072 30.4242 23.1202 30.4242 22.0561C30.4242 21.0645 31.2223 20.5083 32.2622 20.5083C32.9636 20.5083 33.4957 20.6534 33.9068 20.8953L33.544 21.645C33.2054 21.4515 32.7701 21.3306 32.2864 21.3306C31.706 21.3306 31.3432 21.5482 31.3432 22.0319C31.3432 22.5882 31.7544 22.7091 32.5283 22.9751C33.3264 23.2411 34.2212 23.6039 34.2212 24.7889C34.2212 25.7805 33.5198 26.4335 32.2381 26.4335C31.2465 26.4577 30.5693 26.1433 30.1582 25.8047Z" fill="#979695"/>
<path d="M35.9141 20.6294H39.3483V21.4275H36.8814V22.9995H38.8162V23.7734H36.8814V25.5872H39.4934V26.3853H35.9141V20.6294Z" fill="#979695"/>
<path d="M40.8965 23.5074C40.8965 21.8145 41.6946 20.5327 43.3149 20.5327C44.0405 20.5327 44.5967 20.7504 45.0078 21.2341L44.4274 21.887C44.0888 21.5485 43.7986 21.3792 43.3149 21.3792C42.3717 21.3792 41.9364 22.1531 41.9364 23.58C41.9364 24.9101 42.3959 25.5873 43.3149 25.5873C43.8228 25.5873 44.1856 25.3212 44.5 24.9826L45.0804 25.6114C44.6693 26.0951 44.1372 26.4337 43.2907 26.4337C41.6704 26.4579 40.8965 25.2003 40.8965 23.5074Z" fill="#979695"/>
<path d="M46.6758 24.1845V20.6294H47.6673V24.3538C47.6673 25.1519 47.8608 25.6598 48.7073 25.6598C49.5295 25.6598 49.7472 25.1519 49.7472 24.3538V20.6294H50.7388V24.1845C50.7388 25.6114 50.1825 26.4578 48.7073 26.4578C47.232 26.4578 46.6758 25.6114 46.6758 24.1845Z" fill="#979695"/>
<path d="M56.7368 26.3853H55.6727L54.5602 23.9427H53.6412V26.3853H52.6738V20.6294H54.5602C55.7211 20.6294 56.6401 21.0405 56.6401 22.2981C56.6401 23.1688 56.1322 23.6041 55.5518 23.7976L56.7368 26.3853ZM54.5118 23.1929C55.2374 23.1929 55.6243 22.9511 55.6243 22.2981C55.6243 21.6693 55.2374 21.4275 54.5844 21.4275H53.6654V23.1929H54.5118Z" fill="#979695"/>
<path d="M58.4062 20.6294H61.8404V21.4275H59.3736V22.9995H61.3084V23.7734H59.3736V25.5872H61.9855V26.3853H58.4062V20.6294Z" fill="#979695"/>
<path d="M63.6297 20.6294H65.0565C66.9429 20.6294 67.8377 21.6451 67.8377 23.4832C67.8377 25.3695 66.9187 26.3853 65.1049 26.3853H63.6055V20.6294H63.6297ZM65.0082 25.5872C66.3625 25.5872 66.822 24.9584 66.822 23.4832C66.822 22.1772 66.4592 21.4275 65.1291 21.4275H64.597V25.5872H65.0082Z" fill="#979695"/>
<path d="M14.221 32.02C6.57868 32.02 0.363281 25.8046 0.363281 18.1624C0.363281 10.5201 6.57868 4.30469 14.221 4.30469C21.8632 4.30469 28.0786 10.5201 28.0786 18.1624C28.0786 25.8046 21.8632 32.02 14.221 32.02ZM14.221 8.68207C11.6816 8.68207 9.31152 9.67363 7.52187 11.4633C5.73222 13.2529 4.74066 15.623 4.74066 18.1624C4.74066 20.7017 5.73222 23.0718 7.52187 24.8614C9.31152 26.6511 11.6816 27.6427 14.221 27.6427C16.7603 27.6427 19.1304 26.6511 20.92 24.8614C22.7097 23.0718 23.7012 20.7017 23.7012 18.1624C23.7012 15.623 22.7097 13.2529 20.92 11.4633C19.1304 9.67363 16.7361 8.68207 14.221 8.68207Z" fill="#F0BC44"/>
<path d="M30.4008 2.15234H29.3125V3.24064H30.4008V2.15234Z" fill="#F0BC44"/>
<path d="M30.4008 0H29.3125V1.0883H30.4008V0Z" fill="#F0BC44"/>
<path d="M27.2814 3.21631H26.2656V4.28042H27.2814V3.21631Z" fill="#F0BC44"/>
<path d="M25.297 5.29639H24.2812V6.31213H25.297V5.29639Z" fill="black"/>
<path d="M28.4179 4.28076H27.2812V5.29651H28.4179V4.28076Z" fill="black"/>
<path d="M24.2814 4.3291H23.2656V5.29648H24.2814V4.3291Z" fill="black"/>
<path d="M27.2814 5.29639H26.2656V6.31213H27.2814V5.29639Z" fill="black"/>
<path d="M29.3122 1.08838H28.248V2.15249H29.3122V1.08838Z" fill="black"/>
<path d="M28.2487 2.15234H26.2656V3.21646H28.2487V2.15234Z" fill="black"/>
<path d="M26.2884 3.21631H25.2969V5.29617H26.2884V3.21631Z" fill="black"/>
<path d="M25.2974 6.31201V7.32776H24.2816V6.31201H22.5887V7.03754H21.6939V7.93237H22.7096V8.94812H21.6939V7.93237H20.6298V9.50436H19.5898V10.5201H18.9127V11.5358H18.163C17.3407 12.7693 15.2367 16.6388 14.6079 18.2107C12.3345 15.0426 10.5691 13.785 9.16636 13.3255C8.41665 13.1078 7.52182 13.9059 8.75523 15.2119C11.609 18.3559 12.528 20.9678 13.3986 23.0476C13.8581 24.1359 15.9138 24.3052 16.325 23.1927C17.1956 20.8227 18.4774 18.1866 20.001 16.01V14.8733H20.7991V13.8576H21.6455V12.6725H22.6613V11.56H21.6455V10.5201H22.6613V11.56H23.6528V10.5443H24.4509V9.31089H25.3457V8.46443H26.2164V6.31201H25.2974Z" fill="black"/>
</svg>
