<svg width="91" height="22" viewBox="0 0 91 22" fill="none" xmlns="http://www.w3.org/2000/svg">
<path d="M2.49618 2.59277C3.78369 1.22513 5.66905 0.608379 7.49498 0.414801C10.2816 0.1609 13.1799 0.555258 15.6964 1.81846C15.0769 3.21762 14.4692 4.62399 13.8191 6.00964C12.5451 5.31096 11.1099 4.84097 9.64414 4.8959C9.01209 4.92381 8.33772 5.08497 7.88033 5.55046C7.37343 6.05196 7.35092 6.92531 7.78129 7.48173C8.22697 8.06877 8.93376 8.36679 9.60182 8.62609C11.2081 9.21943 12.8998 9.72993 14.2558 10.8185C15.2453 11.5946 15.9413 12.7362 16.1402 13.9823C16.3842 15.5364 16.17 17.2164 15.3029 18.5553C14.606 19.6393 13.5112 20.4181 12.3236 20.8881C10.7075 21.5283 8.94726 21.6984 7.22217 21.6831C4.90374 21.6624 2.57001 21.2059 0.472168 20.2029C1.12763 18.6372 1.78849 17.0733 2.45746 15.512C3.85392 16.2134 5.38093 16.6843 6.94576 16.7798C7.71377 16.8203 8.56551 16.7284 9.16245 16.1936C9.74498 15.6894 9.81521 14.7251 9.31641 14.1399C8.8005 13.5376 8.01989 13.2756 7.3023 12.9973C5.63123 12.395 3.87103 11.7981 2.57451 10.5268C1.58591 9.58587 1.043 8.23443 1.01058 6.87759C0.933153 5.33167 1.41214 3.72453 2.49618 2.59277Z" fill="#65666A"/>
<path d="M39.9472 2.31954C41.4058 1.13286 43.2569 0.477402 45.1261 0.362156C47.3203 0.233405 49.6117 0.57194 51.5097 1.73881C50.865 3.2127 50.2284 4.69109 49.5604 6.15418C48.5331 5.52482 47.2798 5.28443 46.094 5.49511C45.1513 5.67428 44.3329 6.30274 43.8431 7.11756C43.1354 8.27813 42.9364 9.67188 42.9436 11.0098C42.9391 11.7598 43.0634 12.5026 43.22 13.2337C41.8353 13.6416 40.4523 14.0557 39.0802 14.5023C38.377 14.7184 37.6891 14.9858 36.9751 15.165C36.6069 13.9045 36.4124 12.5954 36.3962 11.2817C36.3701 9.59265 36.5781 7.88287 37.166 6.29283C37.7278 4.75862 38.6678 3.34685 39.9472 2.31954Z" fill="#65666A"/>
<path d="M77.7167 0.501952C79.7993 0.294869 81.9124 0.248051 83.9869 0.564977C83.6042 2.25045 83.227 3.93773 82.8353 5.6214C81.374 5.21354 79.7831 5.10279 78.3281 5.59529C78.3236 5.94103 78.3182 6.28677 78.3119 6.63251C76.1816 6.82699 74.0595 7.09619 71.9337 7.32579C71.913 5.49085 71.9238 3.65592 71.9274 1.82098C73.7813 1.10609 75.7459 0.715338 77.7167 0.501952Z" fill="#65666A"/>
<path d="M17.2201 1.10037C19.3512 1.09226 21.4815 1.09046 23.6117 1.10127C23.6288 5.45721 23.6108 9.81315 23.6207 14.1691C23.627 14.8858 23.8296 15.679 24.4419 16.1175C25.1099 16.5956 25.9734 16.6154 26.7621 16.5911C27.3599 16.5821 27.9533 16.4839 28.5232 16.3057C28.5331 11.2384 28.5142 6.1712 28.5331 1.10397C30.6615 1.09406 32.7909 1.08056 34.9194 1.11117C34.9139 6.01994 34.9248 10.9278 34.9139 15.8366C30.6408 17.2952 26.4596 19.0166 22.3809 20.9497C22.1648 21.0515 21.9199 21.1415 21.684 21.0506C20.5973 20.6949 19.5745 20.0854 18.8245 19.212C18.0376 18.3081 17.5937 17.152 17.3902 15.9815C17.2165 15.0253 17.2156 14.0503 17.2165 13.0815C17.2201 9.08836 17.212 5.09436 17.2201 1.10037Z" fill="#65666A"/>
<path d="M52.1176 1.10294C54.2461 1.09484 56.3754 1.07863 58.5039 1.11194C58.4994 3.89856 58.503 6.68427 58.5021 9.47089C56.3727 9.91837 54.2407 10.3523 52.1185 10.8349C52.1023 7.59094 52.1041 4.34694 52.1176 1.10294Z" fill="#65666A"/>
<path d="M63.4082 1.10057C65.6483 1.09697 67.8884 1.08076 70.1276 1.10957C70.1285 3.26774 70.1258 5.425 70.1285 7.58316C67.8911 7.9163 65.6492 8.22692 63.4109 8.55735C63.3992 6.07146 63.4046 3.58646 63.4082 1.10057Z" fill="#65666A"/>
<path d="M84.5458 1.10294C86.6742 1.09214 88.8036 1.08583 90.932 1.10564C90.9329 2.66867 90.9338 4.23169 90.9311 5.79472C88.8018 5.87665 86.6733 5.9919 84.5449 6.10805C84.5368 4.43968 84.5359 2.77131 84.5458 1.10294Z" fill="#62A945"/>
<path d="M84.553 7.26876C86.6761 7.01306 88.8 6.75106 90.9321 6.56738C90.9303 11.505 90.933 16.4434 90.9303 21.381C88.8009 21.3927 86.6716 21.3891 84.5431 21.3828C84.5332 17.5059 84.5413 13.628 84.5386 9.75016C84.5431 8.92363 84.5242 8.0962 84.553 7.26876Z" fill="#9D9DA0"/>
<path d="M71.9372 9.16161C74.0648 8.79877 76.186 8.3954 78.3181 8.05957C78.3235 12.4992 78.319 16.9398 78.3208 21.3795C76.1896 21.3957 74.0585 21.3876 71.9273 21.384C71.9264 17.3099 71.9048 13.2357 71.9372 9.16161Z" fill="#9D9DA0"/>
<path d="M63.4119 10.9426C65.652 10.4871 67.8867 10.0108 70.1286 9.56689C70.1268 13.0711 70.1304 16.5762 70.1268 20.0804C68.3729 20.807 66.4911 21.1734 64.6121 21.385C62.9176 21.5624 61.2051 21.62 59.507 21.4688C57.89 21.3085 56.2351 20.9267 54.8891 19.9733C53.8464 19.244 53.0892 18.1473 52.7084 16.9381C52.4059 15.9928 52.2744 14.9979 52.2789 14.0066C54.3443 13.3988 56.4035 12.765 58.4887 12.2257C58.5238 12.9315 58.4752 13.6401 58.5229 14.346C58.5706 14.9655 58.8056 15.6164 59.3287 15.9892C59.851 16.3673 60.5172 16.4601 61.1475 16.4691C61.902 16.4691 62.6673 16.4474 63.3984 16.2404C63.4218 14.4748 63.3912 12.7083 63.4119 10.9426Z" fill="#9D9DA0"/>
<path d="M46.4786 16.2902C47.5482 16.4082 48.6457 16.1488 49.5587 15.5825C50.2205 17.105 50.875 18.6311 51.5071 20.1654C49.7307 21.2323 47.6256 21.614 45.5746 21.5501C43.1445 21.5096 40.6857 20.5372 39.0542 18.705C41.0116 17.9064 42.9924 17.1672 44.9813 16.4514C45.2433 16.3604 45.5017 16.2425 45.779 16.2029C46.0149 16.1984 46.2445 16.2659 46.4786 16.2902Z" fill="#9D9DA0"/>
</svg>
