<svg width="83" height="30" viewBox="0 0 83 30" fill="none" xmlns="http://www.w3.org/2000/svg">
<path d="M1.77754 0.778809H27.2261C27.6441 1.11617 28.1917 1.28911 28.5182 1.73583C28.854 2.13678 28.9478 2.67423 28.9377 3.18376C28.9478 11.1726 28.9315 19.1614 28.9455 27.1503C28.961 27.6521 28.6531 28.067 28.36 28.4423C28.0676 28.8161 27.6116 28.9937 27.2215 29.2411H1.7566C1.3572 29.0193 0.943833 28.7999 0.632065 28.4578C0.356749 28.1732 0.201641 27.8033 0 27.4683V2.51447C0.245846 2.20115 0.38079 1.81028 0.678598 1.53574C0.978732 1.19527 1.39752 1.0107 1.77754 0.778809ZM11.0817 4.10898C8.5705 4.85893 6.33539 6.50462 4.88203 8.68622C3.62643 10.5444 2.92689 12.7865 2.95791 15.0317C3.64737 15.0325 4.3376 15.0371 5.02783 15.0263C5.07979 14.5532 5.0635 14.0739 5.15347 13.6055C5.41327 11.9458 6.13375 10.3645 7.21253 9.07709C8.66589 7.32747 10.78 6.1409 13.033 5.82447C14.7919 5.58018 16.6253 5.82525 18.2368 6.57908C19.8802 7.3267 21.2878 8.57144 22.2479 10.0985C23.1848 11.5604 23.6625 13.2922 23.6858 15.0239C24.3737 15.041 25.0616 15.0332 25.7503 15.0278C25.8061 14.6113 25.7448 14.1918 25.7037 13.7769C25.5316 12.18 25.0151 10.6196 24.1876 9.24306C22.7776 6.83966 20.4526 4.98844 17.7917 4.15861C15.6271 3.46528 13.2571 3.45985 11.0817 4.10898ZM13.4502 7.81296C12.6211 7.95411 11.8022 8.1891 11.0515 8.57377C9.59654 9.29967 8.44176 10.5584 7.74765 12.0203C7.07526 13.531 6.89611 15.2737 7.34049 16.8736C7.7174 18.4061 8.65736 19.7749 9.8959 20.7428C11.3601 21.927 13.3184 22.4559 15.1828 22.2372C16.4322 22.1163 17.6304 21.6292 18.644 20.8956C18.9457 20.6792 19.2458 20.4527 19.4792 20.1611C19.2846 19.8912 19.0302 19.6756 18.796 19.4422C18.5463 19.1979 18.3152 18.9334 18.0484 18.7062C17.7544 18.8512 17.5474 19.1149 17.2759 19.2941C16.4539 19.8307 15.4891 20.1751 14.5011 20.189C13.0485 20.2387 11.592 19.6229 10.6024 18.5612C9.74932 17.6615 9.23746 16.4424 9.19791 15.2023C9.16766 14.3764 9.35534 13.5489 9.70434 12.8028C10.3589 11.4867 11.568 10.4289 13.0027 10.0605C14.111 9.76189 15.3425 9.7999 16.3895 10.2962C17.9429 10.9477 19.1272 12.4111 19.4296 14.07C19.4824 14.3872 19.4761 14.7129 19.5522 15.027C20.2385 15.0418 20.9264 15.0457 21.6135 15.0263C21.643 12.9199 20.6604 10.8422 19.0473 9.49511C17.9297 8.53344 16.5066 7.95178 15.0455 7.79435C14.5142 7.77961 13.9791 7.76177 13.4502 7.81296ZM11.3144 15.0356C13.3354 15.0332 15.3573 15.0418 17.3791 15.0286C17.4977 14.3143 17.1557 13.6093 16.7214 13.0634C16.115 12.3235 15.1409 11.9047 14.187 11.9644C12.6289 12.0265 11.2291 13.4542 11.3144 15.0356Z" fill="#8CC63E"/>
<path d="M32.8633 17.9956C33.0921 17.9653 33.3255 17.9537 33.552 18.0134C34.0654 19.4264 34.5291 20.8612 35.0216 22.2812C35.0379 22.2897 35.0697 22.3083 35.086 22.3176C35.4846 21.0202 35.9437 19.7413 36.3563 18.4485C36.4059 18.2918 36.468 18.1398 36.5362 17.9901C36.7309 17.994 37.2381 17.8552 37.1706 18.1848C36.6371 19.7366 36.0725 21.2784 35.5443 22.8326C35.5086 22.9233 35.473 23.0156 35.4109 23.0916C35.1519 23.17 34.875 23.1498 34.6145 23.094C34.1197 21.8546 33.7203 20.5773 33.2611 19.3241C33.1339 18.8797 32.8858 18.464 32.8633 17.9956Z" fill="#8CC63E"/>
<path d="M38.5385 18.078C38.806 17.9477 39.1116 18.0043 39.3985 17.9934C40.0368 18.0136 40.6782 17.9616 41.3157 18.019C41.3351 18.1889 41.3382 18.3603 41.3242 18.5309C40.6309 18.6038 39.9329 18.5348 39.2372 18.5627C39.1798 19.0924 39.2023 19.629 39.2264 20.1603C39.8282 20.1898 40.4316 20.1409 41.0341 20.1812C41.0636 20.3526 41.0644 20.5271 41.0396 20.7001C40.4354 20.7334 39.8305 20.6884 39.2264 20.7171C39.2031 21.3259 39.1806 21.9402 39.2372 22.5482C39.9406 22.5707 40.6456 22.5164 41.3482 22.5707C41.3762 22.7459 41.3746 22.9243 41.3413 23.0988C40.6681 23.1376 39.9934 23.1004 39.3202 23.1167C39.0588 23.1104 38.782 23.1523 38.5392 23.0321C38.4997 21.716 38.5354 20.3984 38.5222 19.0815C38.5198 18.7473 38.5129 18.4122 38.5385 18.078Z" fill="#8CC63E"/>
<path d="M43.1142 18.0778C43.533 17.9134 43.9983 18.0266 44.4372 17.9933C45.0414 17.9568 45.7619 18.1127 46.0674 18.6943C46.2761 19.1457 46.2753 19.7367 45.9682 20.1454C45.803 20.3563 45.5571 20.4781 45.34 20.6262C45.6448 20.9232 45.879 21.2831 46.0186 21.6864C46.1814 22.1579 46.4537 22.5961 46.5266 23.0948C46.3024 23.1421 46.0729 23.1506 45.8464 23.1173C45.5121 22.51 45.3865 21.805 45.0111 21.2187C44.7529 20.8193 44.2248 20.7984 43.7998 20.8449C43.7563 21.5949 43.8021 22.3471 43.7835 23.0979C43.5648 23.1467 43.3399 23.1452 43.1196 23.1134C43.0676 21.8485 43.1126 20.5797 43.0979 19.314C43.1002 18.9014 43.0816 18.4888 43.1142 18.0778ZM43.7718 18.5672C43.7718 19.124 43.7711 19.6816 43.7718 20.2384C44.0906 20.3144 44.4225 20.2873 44.7444 20.2446C45.0491 20.1997 45.3532 19.9988 45.4369 19.6894C45.5346 19.3256 45.4392 18.8533 45.0654 18.685C44.6606 18.5105 44.2023 18.5625 43.7718 18.5672Z" fill="#8CC63E"/>
<path d="M48.0836 17.9995C48.2922 17.9684 48.5039 17.9669 48.7141 17.9925C48.7691 19.1294 48.721 20.2695 48.7366 21.408C48.7241 21.9772 48.7676 22.5488 48.7141 23.1165C48.5039 23.1428 48.2922 23.1421 48.0836 23.1126C48.0293 21.8996 48.0766 20.6828 48.0611 19.4683C48.0696 18.979 48.0347 18.488 48.0836 17.9995Z" fill="#8CC63E"/>
<path d="M50.6368 18.078C50.8804 17.9585 51.1572 17.9996 51.4194 17.9926C52.0406 18.0089 52.6633 17.9725 53.2845 18.0113C53.3179 18.1889 53.3187 18.3696 53.2923 18.5487C52.6455 18.6076 51.9956 18.5526 51.348 18.5704C51.2627 19.1459 51.3092 19.7353 51.3247 20.3154C51.9483 20.3472 52.5734 20.2906 53.1969 20.341C53.2256 20.5124 53.224 20.6861 53.1961 20.8583C52.578 20.9296 51.956 20.8614 51.3364 20.8893C51.2619 21.6222 51.3333 22.362 51.3069 23.098C51.0882 23.1469 50.8633 23.1453 50.643 23.1128C50.5911 21.9254 50.6361 20.735 50.6213 19.5468C50.6275 19.0575 50.6012 18.5665 50.6368 18.078Z" fill="#8CC63E"/>
<path d="M54.986 17.9995C55.1946 17.9684 55.4063 17.9669 55.6165 17.9925C55.6708 19.1038 55.6234 20.2183 55.6397 21.3304C55.6258 21.9252 55.67 22.5224 55.6165 23.1165C55.4063 23.1428 55.1938 23.1421 54.9852 23.1126C54.9324 21.8996 54.9782 20.6828 54.9635 19.4691C54.972 18.979 54.9371 18.488 54.986 17.9995Z" fill="#8CC63E"/>
<path d="M57.5392 18.079C57.8308 17.9402 58.1635 18.0085 58.4753 17.9945C59.088 18.0139 59.703 17.9604 60.3149 18.0201C60.3351 18.1899 60.3382 18.3613 60.3242 18.5312C59.6309 18.6041 58.9329 18.5351 58.2372 18.563C58.1798 19.0927 58.2023 19.6286 58.2256 20.1606C58.8282 20.1908 59.4316 20.1404 60.0341 20.1815C60.0628 20.3529 60.0636 20.5274 60.0388 20.7004C59.4347 20.7337 58.8297 20.6887 58.2264 20.7174C58.2031 21.3262 58.1806 21.9405 58.2372 22.5477C58.9406 22.571 59.6456 22.5167 60.3475 22.571C60.3754 22.7462 60.3738 22.9246 60.3405 23.0991C59.6681 23.1379 58.9934 23.1007 58.3202 23.1177C58.0588 23.11 57.7812 23.1526 57.5385 23.0324C57.4997 21.7163 57.5346 20.3987 57.5222 19.0818C57.5198 18.7476 57.5129 18.4125 57.5392 18.079Z" fill="#8CC63E"/>
<path d="M62.1148 18.078C62.3575 17.957 62.6352 18.0005 62.8973 17.9927C63.5814 17.9989 64.3158 17.9376 64.9362 18.2874C65.5714 18.6193 65.9498 19.3135 66.0158 20.0122C66.0708 20.6978 66.0491 21.4307 65.7032 22.0449C65.4574 22.4939 65.0262 22.8274 64.5391 22.9763C63.9854 23.164 63.3929 23.1051 62.819 23.1175C62.5825 23.1128 62.3335 23.1423 62.1148 23.0322C62.076 21.768 62.1109 20.5016 62.0993 19.2367C62.0993 18.8505 62.0846 18.4635 62.1148 18.078ZM62.774 18.5674C62.7756 19.8928 62.7756 21.2174 62.7732 22.5428C63.3689 22.5506 64.0188 22.6095 64.5547 22.297C65.0719 21.9906 65.2728 21.364 65.2976 20.794C65.3395 20.1479 65.2449 19.4065 64.7237 18.9606C64.1917 18.4914 63.4324 18.5527 62.774 18.5674Z" fill="#8CC63E"/>
<path d="M11.0818 4.10919C13.2572 3.46006 15.6273 3.46549 17.7918 4.15882C20.4527 4.98865 22.7777 6.83987 24.1877 9.24327C25.0152 10.6199 25.5317 12.1802 25.7038 13.7771C25.745 14.192 25.8062 14.6116 25.7504 15.028C25.0617 15.0335 24.3738 15.0412 23.6859 15.0241C23.6626 13.2924 23.1849 11.5606 22.248 10.0987C21.2879 8.57165 19.8803 7.32691 18.2369 6.57928C16.6254 5.82546 14.792 5.58039 13.0331 5.82468C10.7801 6.1411 8.666 7.32768 7.21264 9.0773C6.13386 10.3647 5.41338 11.946 5.15358 13.6057C5.06361 14.0741 5.0799 14.5534 5.02794 15.0265C4.33771 15.0373 3.64748 15.0327 2.95802 15.0319C2.927 12.7867 3.62654 10.5446 4.88214 8.68643C6.3355 6.50483 8.57061 4.85914 11.0818 4.10919Z" fill="white"/>
<path d="M60.7935 6.04879C61.4752 5.46326 62.3903 5.16468 63.2853 5.19492C64.5704 5.14839 65.8756 5.56486 66.8838 6.36599C66.5682 6.90111 66.2106 7.41374 65.8306 7.90466C65.3064 7.62934 64.8116 7.2819 64.233 7.12292C63.6963 6.96936 63.0906 6.88328 62.564 7.11516C62.2492 7.2788 61.9421 7.596 61.9808 7.97679C62.0382 8.41342 62.4462 8.69494 62.8285 8.84151C63.8049 9.20602 64.8674 9.32468 65.7942 9.82335C66.5069 10.153 67.0994 10.83 67.1591 11.635C67.1731 12.0391 67.1948 12.4486 67.1297 12.8487C66.9807 13.4761 66.6411 14.0849 66.0912 14.4448C65.3909 14.9427 64.513 15.0854 63.6731 15.1288C62.1995 15.0792 60.6872 14.61 59.5898 13.5948C59.7814 13.3063 60.0319 13.0643 60.2475 12.7937C60.4274 12.5796 60.581 12.3408 60.8005 12.1632C61.1479 12.3609 61.4418 12.6401 61.8032 12.8162C62.5485 13.2241 63.4334 13.4203 64.2749 13.252C64.6316 13.1861 64.983 12.9651 65.121 12.6184C65.1699 12.4152 65.1761 12.1903 65.1055 11.9918C64.9194 11.6497 64.5455 11.4714 64.1958 11.3411C63.0976 10.9425 61.8746 10.8284 60.8928 10.1514C60.4158 9.84351 60.1118 9.31537 60.0272 8.75931C59.8186 7.80772 60.0753 6.72894 60.7935 6.04879Z" fill="black"/>
<path d="M56.1818 5.31121C56.8619 5.31353 57.542 5.31276 58.2222 5.30811C58.2734 6.9507 58.2276 8.5964 58.2439 10.2405C58.2711 11.3907 58.1602 12.6199 57.4893 13.5932C56.9658 14.4021 56.0367 14.8535 55.1131 15.0233C53.8668 15.256 52.4941 15.128 51.406 14.4385C50.6281 13.9569 50.183 13.0922 49.9759 12.2259C49.813 11.6288 49.8782 11.006 49.8673 10.3957C49.8743 8.7135 49.8533 7.02981 49.8766 5.34766C50.5412 5.31509 51.2105 5.31586 51.876 5.34533C51.8961 7.26247 51.8744 9.18038 51.8845 11.0975C51.9225 11.6373 52.0753 12.2089 52.4747 12.5974C53.3006 13.5397 54.9921 13.4676 55.7374 12.4601C56.0561 12.0514 56.1748 11.5233 56.1756 11.013C56.1849 9.11291 56.1701 7.21128 56.1818 5.31121Z" fill="black"/>
<path d="M31.0295 5.346C32.9901 5.30568 34.953 5.34135 36.9151 5.32972C37.61 5.3429 38.3056 5.3018 38.9997 5.34523C39.0145 5.96566 39.0129 6.58609 38.9997 7.20653C38.0978 7.23755 37.1943 7.19644 36.2931 7.21971C36.1582 7.21428 35.9813 7.29106 36.0147 7.45315C36.0007 9.95659 36.0364 12.4608 35.9984 14.9635C35.3244 14.9767 34.6505 14.9782 33.9766 14.9627C33.9556 12.4593 33.9766 9.95427 33.9673 7.45082C33.9913 7.31045 33.8734 7.19102 33.7338 7.21661C32.8326 7.20187 31.9307 7.23367 31.0295 7.2073C31.0132 6.58764 31.014 5.96644 31.0295 5.346Z" fill="black"/>
<path d="M40.1807 5.34423C41.7015 5.31475 43.2239 5.32561 44.7455 5.34112C45.7181 5.32018 46.7348 5.61877 47.446 6.30279C48.3642 7.33504 48.472 8.94351 47.8392 10.1479C47.5926 10.6094 47.1986 10.9863 46.7364 11.2283C46.5464 11.3298 46.3424 11.4113 46.1811 11.5586C46.3602 11.9216 46.6286 12.2279 46.8473 12.5661C47.3832 13.3703 47.9516 14.1528 48.472 14.9671C47.6771 14.9664 46.8814 14.9881 46.088 14.9578C45.8771 14.7182 45.7188 14.4413 45.5412 14.1784C45.1178 13.5417 44.6858 12.9104 44.2686 12.2698C44.1367 12.0914 44.0072 11.8262 43.7428 11.8673C43.2837 11.8719 42.8222 11.8425 42.3646 11.8851C42.2157 11.9487 42.2592 12.1256 42.2444 12.2543C42.2437 13.1555 42.2537 14.0566 42.246 14.9586C41.5581 14.9819 40.8686 14.9764 40.1815 14.9625C40.1714 11.7564 40.1714 8.55031 40.1807 5.34423ZM42.3662 7.15434C42.3437 7.17605 42.2987 7.22026 42.2762 7.24197C42.2025 8.0051 42.2716 8.77677 42.2429 9.543C42.2677 9.71595 42.1909 9.95714 42.3654 10.068C42.8478 10.1161 43.3341 10.068 43.818 10.0859C44.4291 10.0991 45.1031 10.096 45.6157 9.71362C46.2547 9.25528 46.354 8.20364 45.784 7.65456C45.3745 7.19156 44.7075 7.12564 44.1274 7.13495C43.5404 7.15744 42.9509 7.10703 42.3662 7.15434Z" fill="black"/>
<path d="M67.6353 5.34661C69.2856 5.30395 70.9391 5.34195 72.5902 5.32877C73.5953 5.34195 74.6019 5.30395 75.6063 5.34661C75.6226 5.96704 75.6218 6.58747 75.607 7.20713C74.7059 7.2335 73.8031 7.20093 72.9027 7.21644C72.7616 7.19162 72.6429 7.3095 72.6685 7.45065C72.6584 9.95409 72.6809 12.4591 72.6592 14.9625C71.969 14.9765 71.278 14.9804 70.5885 14.9594C70.5777 12.7662 70.5877 10.5722 70.5839 8.37897C70.5761 8.02532 70.6141 7.66935 70.5653 7.31726C70.5017 7.20713 70.3721 7.21799 70.2651 7.21256C69.3888 7.20635 68.5108 7.23117 67.6353 7.20713C67.619 6.58747 67.619 5.96626 67.6353 5.34661Z" fill="black"/>
<path d="M76.2675 8.41257C77.5657 7.18877 79.7737 7.13526 81.1332 8.28926C81.5373 8.65997 81.8149 9.14856 82.0197 9.65266C82.2159 10.1296 82.2678 10.6469 82.3632 11.1495V11.6861C82.3299 11.7668 82.295 11.8474 82.2593 11.9273C81.2612 11.9801 80.26 11.9304 79.2611 11.9467C78.5476 11.9661 77.831 11.901 77.1213 11.9832C77.195 12.6214 77.6611 13.1922 78.2575 13.4187C78.7143 13.5668 79.2145 13.556 79.6791 13.4474C80.1111 13.3427 80.4414 13.0294 80.8114 12.8021C81.2038 13.1155 81.6001 13.4326 81.9281 13.8158C81.4047 14.5324 80.5399 14.9364 79.6822 15.0807C78.415 15.2839 77.0213 14.9465 76.1046 14.0174C74.6993 12.4896 74.7862 9.85973 76.2675 8.41257ZM78.0729 9.21216C77.5425 9.5247 77.1702 10.0831 77.081 10.6919C77.2416 10.8051 77.4447 10.7787 77.6309 10.7834C78.3816 10.7756 79.1331 10.7764 79.8838 10.7834C80.0436 10.7803 80.2196 10.7958 80.3546 10.6896C80.3189 10.049 79.9148 9.42698 79.3216 9.16873C78.9229 9.02447 78.4568 9.0268 78.0729 9.21216Z" fill="black"/>
<path d="M13.4492 7.81284C13.9781 7.76165 14.5132 7.77949 15.0445 7.79422C16.5056 7.95166 17.9287 8.53331 19.0463 9.49498C20.6594 10.8421 21.642 12.9198 21.6125 15.0261C20.9254 15.0455 20.2375 15.0416 19.5511 15.0269C19.4751 14.7128 19.4813 14.3871 19.4286 14.0699C19.1261 12.411 17.9419 10.9476 16.3885 10.2961C15.3415 9.79977 14.11 9.76177 13.0017 10.0604C11.567 10.4287 10.3579 11.4866 9.70333 12.8027C9.35434 13.5487 9.16666 14.3762 9.1969 15.2022C9.23646 16.4423 9.74831 17.6614 10.6014 18.5611C11.591 19.6228 13.0475 20.2385 14.5 20.1889C15.4881 20.175 16.4529 19.8306 17.2749 19.2939C17.5464 19.1148 17.7534 18.8511 18.0474 18.7061C18.3142 18.9333 18.5453 19.1978 18.795 19.4421C19.0292 19.6755 19.2836 19.8911 19.4782 20.161C19.2448 20.4526 18.9447 20.6791 18.643 20.8954C17.6294 21.6291 16.4311 22.1161 15.1818 22.2371C13.3174 22.4558 11.3591 21.9269 9.89489 20.7426C8.65635 19.7748 7.7164 18.4059 7.33948 16.8735C6.8951 15.2735 7.07425 13.5309 7.74664 12.0201C8.44075 10.5582 9.59553 9.29955 11.0504 8.57364C11.8012 8.18897 12.6201 7.95398 13.4492 7.81284Z" fill="#FFFFFE"/>
<path d="M11.3143 15.0353C11.2289 13.4539 12.6288 12.0262 14.1869 11.9641C15.1408 11.9044 16.1149 12.3232 16.7213 13.0631C17.1556 13.609 17.4976 14.314 17.379 15.0283C15.3571 15.0415 13.3353 15.0329 11.3143 15.0353Z" fill="#FFFFFE"/>
</svg>
