<svg width="190" height="48" viewBox="0 0 190 48" fill="none" xmlns="http://www.w3.org/2000/svg">
<path fill-rule="evenodd" clip-rule="evenodd" d="M23.3847 1.02539C10.4904 1.02539 0 11.5156 0 24.4099C0 37.3045 10.4904 47.7947 23.3847 47.7947C36.2791 47.7947 46.7695 37.3043 46.7695 24.4099C46.7695 11.5156 36.2791 1.02539 23.3847 1.02539ZM23.3847 45.8124C11.5833 45.8124 1.98225 36.2113 1.98225 24.4099C1.98225 12.6087 11.5833 3.00742 23.3847 3.00742C35.1863 3.00742 44.7872 12.6087 44.7872 24.4099C44.7872 36.2113 35.1863 45.8124 23.3847 45.8124ZM39.8002 27.9139C40.0414 26.7856 40.1663 25.614 40.1663 24.4163C40.1663 23.2103 40.037 22.0344 39.7958 20.9016H42.8972C41.4156 17.2834 37.7153 14.5222 33.6407 15.7026C31.4265 16.3399 28.786 17.9942 25.6762 21.2462C26.7963 20.0272 28.1701 18.4894 28.0452 16.7104C27.9162 14.9013 26.0897 13.131 24.2464 13.23C23.0746 13.2903 22.1612 14.0829 21.5154 15.0045C20.5806 14.3714 19.4433 13.9581 18.3234 14.3198C16.5705 14.8843 15.4938 17.1886 16.0191 18.9288C16.5361 20.6346 18.3668 21.5821 19.8484 22.3186C19.999 22.392 20.2274 22.4995 20.4128 22.5901C20.5936 22.6762 20.6668 22.9003 20.5721 23.0768C20.4858 23.2317 20.2965 23.3006 20.1327 23.2317C20.0551 23.2018 19.9732 23.1717 19.9087 23.1457C18.3708 22.5427 16.437 21.815 14.8261 22.5772C13.185 23.3525 12.1942 25.6956 12.9522 27.3755C13.4389 28.4483 14.5028 29.0167 15.6012 29.2839C15.3473 30.3821 15.373 31.5882 16.1141 32.5059C17.2768 33.9358 19.8182 34.1036 21.2438 32.9837C22.6482 31.8855 22.8678 29.8307 23.0187 28.1852C23.0273 28.1165 23.0315 28.0302 23.0402 27.9485C23.0533 27.7675 23.1996 27.6296 23.3761 27.6253C23.5787 27.6166 23.7467 27.7805 23.7381 27.9829C23.7381 28.1899 23.7334 28.444 23.7294 28.6118C23.7252 30.2659 23.751 32.3292 25.043 33.5565C26.3611 34.806 28.9025 34.8791 30.1946 33.5611C31.0218 32.7212 31.1596 31.5237 31.013 30.4037C32.1287 30.24 33.2443 29.7794 33.8304 28.7584C34.7434 27.156 33.981 24.7265 32.4219 23.8005C30.8841 22.8915 28.894 23.43 27.3046 23.8867C27.1623 23.9255 27.0244 23.9683 26.8865 24.0114C27.0203 23.9683 27.1623 23.8609 27.2873 23.7962C28.6742 23.0727 30.1388 22.4608 31.6548 22.0732C32.5337 21.8491 33.4512 21.6899 34.3599 21.7586C35.6481 21.8536 36.6559 22.5298 36.9186 23.8391C37.0823 24.6492 37.0177 25.5234 36.897 26.3331C36.5785 28.4739 35.5705 30.5027 34.3212 32.2472C31.8101 35.7579 27.6791 37.8856 23.359 37.8856C15.9199 37.8856 9.8854 31.8509 9.8854 24.4119C9.8854 16.9688 15.9199 10.9384 23.359 10.9384C24.7545 10.9384 26.1457 11.1496 27.4726 11.576C28.1186 11.7828 28.7476 12.0369 29.3506 12.3384C30.8581 13.088 32.1372 13.2989 33.7269 12.5709C34.0585 12.4203 37.7671 10.245 37.6165 10.0942C34.752 7.24279 31.039 5.24421 26.8822 4.51183V7.9923C25.7538 7.75093 24.578 7.6262 23.3761 7.6262C22.1744 7.6262 20.9984 7.75098 19.8699 7.9923V4.50741C16.8978 5.02434 14.1538 6.18735 11.7807 7.85009L14.2532 10.3226C12.2672 11.606 10.5745 13.2989 9.29106 15.2803L6.81423 12.8038C5.14732 15.177 3.97545 17.9293 3.45433 20.9016H6.95614C6.71508 22.0344 6.58593 23.2103 6.58593 24.4163C6.58593 25.614 6.7107 26.7856 6.95202 27.9139H3.45433C3.97541 30.8903 5.14732 33.6387 6.81423 36.012L9.28218 33.5437C10.566 35.5251 12.2587 37.2181 14.2401 38.5018L11.7764 40.9655C14.1497 42.628 16.8978 43.7953 19.8699 44.3121V40.8405C20.9984 41.0817 22.1744 41.2066 23.3761 41.2066C24.578 41.2066 25.7538 41.0817 26.8822 40.8405V44.3036C27.8085 44.1484 28.7215 43.9203 29.6134 43.6317C31.5214 43.0113 33.322 42.1024 34.9588 40.9482L32.5121 38.5018C34.4935 37.2181 36.1863 35.5251 37.4699 33.5437L39.9166 35.9904C41.5706 33.6341 42.7854 30.813 43.3151 27.9139H39.8002Z" fill="#20B18D"/>
<path d="M69.6689 17.7889L64.4849 32.4104H60.0099L54.8037 17.7889H58.8136L61.4942 26.6283L62.2917 29.5083L63.0671 26.6726L65.792 17.7889H69.6689ZM73.0278 20.0486C72.2598 20.0486 71.6986 19.9083 71.3441 19.6277C71.0045 19.3323 70.8346 18.8744 70.8346 18.2541C70.8346 17.619 71.0045 17.1612 71.3441 16.8806C71.6986 16.5852 72.2598 16.4375 73.0278 16.4375C73.7811 16.4375 74.3349 16.5852 74.6894 16.8806C75.0438 17.1612 75.2211 17.619 75.2211 18.2541C75.2211 18.8744 75.0438 19.3323 74.6894 19.6277C74.3349 19.9083 73.7811 20.0486 73.0278 20.0486ZM74.9109 21.3335V32.4104H71.1448V21.3335H74.9109ZM88.3144 18.3649L88.6245 20.8904C88.5359 20.8609 88.4473 20.8461 88.3587 20.8461C88.2701 20.8313 88.1814 20.824 88.0928 20.824C87.443 20.824 86.9556 20.9864 86.6307 21.3113C86.3205 21.6215 86.1654 22.0129 86.1654 22.4855L84.8362 21.9981C84.8362 21.3926 84.947 20.8092 85.1685 20.248C85.3901 19.6867 85.7297 19.2289 86.1876 18.8744C86.6602 18.52 87.251 18.3427 87.9599 18.3427C88.0042 18.3427 88.0559 18.3427 88.115 18.3427C88.1888 18.3427 88.2553 18.3501 88.3144 18.3649ZM84.5039 29.9513C85.7888 29.9513 86.771 30.2246 87.4504 30.771C88.1445 31.3027 88.4916 32.0707 88.4916 33.075C88.4916 33.9907 88.2405 34.7513 87.7384 35.3569C87.2362 35.9624 86.5273 36.4129 85.6116 36.7083C84.7107 37.0184 83.6399 37.1735 82.3993 37.1735C80.3907 37.1735 78.9433 36.9224 78.0571 36.4203C77.171 35.9181 76.7279 35.2387 76.7279 34.3821C76.7279 33.7618 76.979 33.2597 77.4811 32.8757C77.9833 32.4917 78.8177 32.2849 79.9845 32.2553L79.8959 32.6098C78.995 32.4917 78.323 32.2258 77.8799 31.8123C77.4368 31.3987 77.2153 30.8375 77.2153 30.1286C77.2153 29.4197 77.4959 28.8437 78.0571 28.4006C78.6184 27.9575 79.3642 27.7138 80.2947 27.6695L81.6682 28.312H81.3137C80.7377 28.3415 80.3316 28.4375 80.0953 28.6C79.859 28.7624 79.7408 28.9618 79.7408 29.1981C79.7408 29.4492 79.8442 29.6412 80.051 29.7741C80.2577 29.8923 80.5679 29.9513 80.9814 29.9513H84.5039ZM82.4214 34.7366C83.1304 34.7366 83.7137 34.6849 84.1716 34.5815C84.6442 34.4929 84.9987 34.36 85.235 34.1827C85.4713 34.0203 85.5894 33.8283 85.5894 33.6067C85.5894 33.3852 85.5082 33.208 85.3457 33.075C85.1833 32.9569 84.8879 32.8978 84.4596 32.8978H80.4941C80.2134 32.8978 79.9845 32.9717 79.8073 33.1193C79.6448 33.267 79.5636 33.4517 79.5636 33.6732C79.5636 34.0129 79.8147 34.2713 80.3168 34.4486C80.819 34.6406 81.5205 34.7366 82.4214 34.7366ZM82.5544 21.112C83.6768 21.112 84.6368 21.2597 85.4344 21.555C86.2319 21.8504 86.8374 22.2787 87.251 22.84C87.6793 23.3864 87.8934 24.0658 87.8934 24.8781C87.8934 25.6757 87.6793 26.355 87.251 26.9163C86.8374 27.4775 86.2319 27.9058 85.4344 28.2012C84.6368 28.4818 83.6768 28.6221 82.5544 28.6221C80.7968 28.6221 79.4602 28.2972 78.5445 27.6473C77.6436 26.9975 77.1931 26.0744 77.1931 24.8781C77.1931 24.0658 77.3999 23.3864 77.8134 22.84C78.2417 22.2787 78.8547 21.8504 79.6522 21.555C80.4497 21.2597 81.4171 21.112 82.5544 21.112ZM82.5544 23.2609C82.067 23.2609 81.6682 23.4012 81.3581 23.6818C81.0627 23.9624 80.915 24.3612 80.915 24.8781C80.915 25.3803 81.0627 25.7717 81.3581 26.0523C81.6682 26.3329 82.067 26.4732 82.5544 26.4732C83.027 26.4732 83.4184 26.3329 83.7285 26.0523C84.0387 25.7717 84.1937 25.3803 84.1937 24.8781C84.1937 24.3612 84.0387 23.9624 83.7285 23.6818C83.4184 23.4012 83.027 23.2609 82.5544 23.2609ZM91.8715 20.0486C91.1035 20.0486 90.5423 19.9083 90.1878 19.6277C89.8481 19.3323 89.6783 18.8744 89.6783 18.2541C89.6783 17.619 89.8481 17.1612 90.1878 16.8806C90.5423 16.5852 91.1035 16.4375 91.8715 16.4375C92.6248 16.4375 93.1786 16.5852 93.5331 16.8806C93.8875 17.1612 94.0648 17.619 94.0648 18.2541C94.0648 18.8744 93.8875 19.3323 93.5331 19.6277C93.1786 19.9083 92.6248 20.0486 91.8715 20.0486ZM93.7546 21.3335V32.4104H89.9885V21.3335H93.7546ZM101.088 32.632C99.9802 32.632 98.9464 32.4547 97.9864 32.1003C97.0411 31.731 96.2584 31.2067 95.6381 30.5273L97.4104 28.4449C97.7796 28.9175 98.267 29.3163 98.8725 29.6412C99.4928 29.9513 100.18 30.1064 100.933 30.1064C101.391 30.1064 101.767 30.04 102.063 29.907C102.358 29.7741 102.506 29.5673 102.506 29.2867C102.506 29.08 102.432 28.9175 102.284 28.7993C102.137 28.6664 101.841 28.5557 101.398 28.467L99.8473 28.1569C98.459 27.8763 97.4694 27.4627 96.8787 26.9163C96.3027 26.355 96.0147 25.624 96.0147 24.723C96.0147 24.1175 96.1993 23.5415 96.5685 22.995C96.9377 22.4338 97.5064 21.9833 98.2744 21.6437C99.0424 21.2892 100.025 21.112 101.221 21.112C102.343 21.112 103.333 21.2744 104.189 21.5993C105.046 21.9243 105.725 22.3969 106.228 23.0172L104.433 25.0553C104.079 24.6123 103.621 24.2652 103.06 24.0141C102.498 23.763 101.937 23.6375 101.376 23.6375C101.021 23.6375 100.719 23.6744 100.468 23.7483C100.231 23.8073 100.054 23.896 99.9359 24.0141C99.8177 24.1323 99.7587 24.28 99.7587 24.4572C99.7587 24.6492 99.8473 24.819 100.025 24.9667C100.217 25.0997 100.564 25.2178 101.066 25.3212L103.082 25.72C104.219 25.9267 105.039 26.3033 105.541 26.8498C106.043 27.3963 106.294 28.0535 106.294 28.8215C106.294 29.5452 106.102 30.195 105.718 30.771C105.334 31.347 104.758 31.8049 103.99 32.1446C103.222 32.4695 102.255 32.632 101.088 32.632ZM122.478 21.3335H126.421L123.076 32.4104H118.556L116.54 25.6092L114.591 32.4104H110.094L106.726 21.3335H110.692L112.553 29.5083L114.724 21.3335H118.446L120.594 29.5083L122.478 21.3335ZM129.797 20.0486C129.029 20.0486 128.467 19.9083 128.113 19.6277C127.773 19.3323 127.603 18.8744 127.603 18.2541C127.603 17.619 127.773 17.1612 128.113 16.8806C128.467 16.5852 129.029 16.4375 129.797 16.4375C130.55 16.4375 131.104 16.5852 131.458 16.8806C131.813 17.1612 131.99 17.619 131.99 18.2541C131.99 18.8744 131.813 19.3323 131.458 19.6277C131.104 19.9083 130.55 20.0486 129.797 20.0486ZM131.68 21.3335V32.4104H127.914V21.3335H131.68ZM139.014 32.632C137.906 32.632 136.872 32.4547 135.912 32.1003C134.967 31.731 134.184 31.2067 133.564 30.5273L135.336 28.4449C135.706 28.9175 136.193 29.3163 136.799 29.6412C137.419 29.9513 138.106 30.1064 138.859 30.1064C139.317 30.1064 139.693 30.04 139.989 29.907C140.284 29.7741 140.432 29.5673 140.432 29.2867C140.432 29.08 140.358 28.9175 140.21 28.7993C140.063 28.6664 139.767 28.5557 139.324 28.467L137.773 28.1569C136.385 27.8763 135.395 27.4627 134.805 26.9163C134.229 26.355 133.941 25.624 133.941 24.723C133.941 24.1175 134.125 23.5415 134.495 22.995C134.864 22.4338 135.432 21.9833 136.2 21.6437C136.968 21.2892 137.951 21.112 139.147 21.112C140.269 21.112 141.259 21.2744 142.115 21.5993C142.972 21.9243 143.651 22.3969 144.154 23.0172L142.359 25.0553C142.005 24.6123 141.547 24.2652 140.986 24.0141C140.424 23.763 139.863 23.6375 139.302 23.6375C138.947 23.6375 138.645 23.6744 138.394 23.7483C138.157 23.8073 137.98 23.896 137.862 24.0141C137.744 24.1323 137.685 24.28 137.685 24.4572C137.685 24.6492 137.773 24.819 137.951 24.9667C138.143 25.0997 138.49 25.2178 138.992 25.3212L141.008 25.72C142.145 25.9267 142.965 26.3033 143.467 26.8498C143.969 27.3963 144.22 28.0535 144.22 28.8215C144.22 29.5452 144.028 30.195 143.644 30.771C143.26 31.347 142.684 31.8049 141.916 32.1446C141.148 32.4695 140.181 32.632 139.014 32.632ZM150.826 32.632C149.718 32.632 148.684 32.4547 147.724 32.1003C146.779 31.731 145.996 31.2067 145.376 30.5273L147.148 28.4449C147.517 28.9175 148.005 29.3163 148.61 29.6412C149.231 29.9513 149.917 30.1064 150.671 30.1064C151.128 30.1064 151.505 30.04 151.8 29.907C152.096 29.7741 152.243 29.5673 152.243 29.2867C152.243 29.08 152.17 28.9175 152.022 28.7993C151.874 28.6664 151.579 28.5557 151.136 28.467L149.585 28.1569C148.197 27.8763 147.207 27.4627 146.616 26.9163C146.04 26.355 145.752 25.624 145.752 24.723C145.752 24.1175 145.937 23.5415 146.306 22.995C146.675 22.4338 147.244 21.9833 148.012 21.6437C148.78 21.2892 149.762 21.112 150.959 21.112C152.081 21.112 153.071 21.2744 153.927 21.5993C154.784 21.9243 155.463 22.3969 155.965 23.0172L154.171 25.0553C153.816 24.6123 153.359 24.2652 152.797 24.0141C152.236 23.763 151.675 23.6375 151.114 23.6375C150.759 23.6375 150.456 23.6744 150.205 23.7483C149.969 23.8073 149.792 23.896 149.674 24.0141C149.555 24.1323 149.496 24.28 149.496 24.4572C149.496 24.6492 149.585 24.819 149.762 24.9667C149.954 25.0997 150.301 25.2178 150.803 25.3212L152.819 25.72C153.957 25.9267 154.776 26.3033 155.279 26.8498C155.781 27.3963 156.032 28.0535 156.032 28.8215C156.032 29.5452 155.84 30.195 155.456 30.771C155.072 31.347 154.496 31.8049 153.728 32.1446C152.96 32.4695 151.992 32.632 150.826 32.632ZM159.847 28.6C160.541 28.6 161.08 28.7772 161.464 29.1317C161.863 29.4861 162.063 29.9809 162.063 30.616C162.063 31.2363 161.863 31.7237 161.464 32.0781C161.08 32.4326 160.541 32.6098 159.847 32.6098C159.168 32.6098 158.629 32.4326 158.23 32.0781C157.831 31.7237 157.632 31.2363 157.632 30.616C157.632 29.9809 157.831 29.4861 158.23 29.1317C158.629 28.7772 159.168 28.6 159.847 28.6ZM169.315 21.112C170.438 21.112 171.368 21.2744 172.107 21.5993C172.86 21.9095 173.443 22.3304 173.857 22.8621C174.285 23.379 174.551 23.9403 174.655 24.5458L171.176 25.6978C171.073 25.0627 170.881 24.5901 170.6 24.28C170.335 23.955 169.943 23.7926 169.426 23.7926C168.954 23.7926 168.555 23.9033 168.23 24.1249C167.92 24.3317 167.683 24.6713 167.521 25.144C167.359 25.6018 167.277 26.1926 167.277 26.9163C167.277 27.64 167.366 28.2307 167.543 28.6886C167.72 29.1317 167.971 29.4566 168.296 29.6633C168.621 29.8553 169.005 29.9513 169.448 29.9513C169.818 29.9513 170.12 29.8849 170.357 29.752C170.608 29.6043 170.815 29.3975 170.977 29.1317C171.139 28.8658 171.243 28.5409 171.287 28.1569L174.677 29.2424C174.573 29.8923 174.293 30.4757 173.835 30.9926C173.392 31.4947 172.801 31.8935 172.063 32.1889C171.324 32.4843 170.46 32.632 169.471 32.632C168.259 32.632 167.203 32.4104 166.303 31.9673C165.402 31.5095 164.707 30.8523 164.22 29.9957C163.733 29.1243 163.489 28.083 163.489 26.872C163.489 25.6609 163.733 24.627 164.22 23.7704C164.707 22.899 165.387 22.2418 166.258 21.7987C167.144 21.3409 168.163 21.112 169.315 21.112ZM176.635 32.4104V16.6369H180.401V23.3495C180.726 22.611 181.191 22.0572 181.797 21.688C182.402 21.304 183.104 21.112 183.901 21.112C184.669 21.112 185.334 21.2597 185.895 21.555C186.471 21.8504 186.922 22.2861 187.247 22.8621C187.571 23.4381 187.734 24.1618 187.734 25.0332V32.4104H183.968V26.0744C183.968 25.2769 183.82 24.7304 183.525 24.435C183.244 24.1249 182.867 23.9698 182.395 23.9698C182.04 23.9698 181.708 24.0584 181.398 24.2357C181.088 24.4129 180.844 24.6935 180.667 25.0775C180.49 25.4615 180.401 25.9637 180.401 26.584V32.4104H176.635Z" fill="white"/>
</svg>
