<svg width="154" height="34" viewBox="0 0 154 34" fill="none" xmlns="http://www.w3.org/2000/svg">
<path fill-rule="evenodd" clip-rule="evenodd" d="M17 0C7.62624 0 0 7.62612 0 16.9999C0 26.3739 7.62624 34 17 34C26.3739 34 34 26.3739 34 16.9999C34 7.62612 26.3739 0 17 0ZM17 32.559C8.42069 32.559 1.44103 25.5793 1.44103 16.9999C1.44103 8.42073 8.42072 1.44088 17 1.44088C25.5794 1.44088 32.5589 8.42076 32.5589 16.9999C32.5589 25.5793 25.5794 32.559 17 32.559ZM28.9336 19.5473C29.1088 18.7269 29.1997 17.8753 29.1997 17.0046C29.1997 16.1278 29.1057 15.273 28.9304 14.4495H31.185C30.1079 11.8191 27.4179 9.81181 24.4558 10.6699C22.8461 11.1333 20.9265 12.3359 18.6658 14.7C19.4801 13.8138 20.4788 12.6959 20.388 11.4025C20.2943 10.0874 18.9665 8.80047 17.6264 8.8724C16.7745 8.91629 16.1106 9.49247 15.6411 10.1625C14.9614 9.70217 14.1347 9.40176 13.3206 9.66476C12.0462 10.075 11.2635 11.7502 11.6453 13.0153C12.0212 14.2554 13.3521 14.9442 14.4292 15.4796C14.5387 15.5329 14.7048 15.6111 14.8394 15.677C14.9709 15.7395 15.0242 15.9025 14.9553 16.0308C14.8925 16.1435 14.7549 16.1936 14.6359 16.1435C14.5795 16.1217 14.5199 16.0997 14.473 16.0809C13.3551 15.6425 11.9492 15.1135 10.7781 15.6676C9.58511 16.2312 8.86483 17.9346 9.41587 19.1558C9.7697 19.9357 10.5431 20.349 11.3416 20.5432C11.157 21.3416 11.1757 22.2183 11.7144 22.8855C12.5597 23.925 14.4073 24.047 15.4436 23.2329C16.4646 22.4345 16.6242 20.9408 16.7339 19.7445C16.7402 19.6946 16.7432 19.6318 16.7495 19.5724C16.759 19.4408 16.8654 19.3406 16.9937 19.3375C17.141 19.3311 17.2632 19.4503 17.2568 19.5974C17.2568 19.7479 17.2535 19.9326 17.2505 20.0546C17.2475 21.2571 17.2663 22.7571 18.2055 23.6493C19.1638 24.5576 21.0113 24.6108 21.9506 23.6526C22.5519 23.042 22.6521 22.1714 22.5456 21.3572C23.3566 21.2382 24.1676 20.9034 24.5936 20.1611C25.2574 18.9963 24.7032 17.2301 23.5698 16.5569C22.4517 15.8961 21.0051 16.2876 19.8496 16.6196C19.7462 16.6478 19.6459 16.6789 19.5457 16.7102C19.6429 16.6789 19.7462 16.6008 19.837 16.5538C20.8453 16.0278 21.91 15.583 23.0121 15.3012C23.6509 15.1383 24.318 15.0226 24.9786 15.0725C25.9151 15.1416 26.6477 15.6332 26.8388 16.585C26.9578 17.1738 26.9108 17.8094 26.823 18.3981C26.5914 19.9544 25.8587 21.4293 24.9505 22.6975C23.125 25.2496 20.1219 26.7964 16.9813 26.7964C11.5733 26.7964 7.18639 22.4094 7.18639 17.0014C7.18639 11.5905 11.5733 7.20653 16.9813 7.20653C17.9957 7.20653 19.0071 7.36001 19.9717 7.67004C20.4414 7.82034 20.8986 8.00509 21.337 8.22426C22.4329 8.76914 23.3628 8.92258 24.5184 8.39334C24.7594 8.28379 27.4556 6.70243 27.3461 6.59275C25.2637 4.51989 22.5644 3.06696 19.5425 2.53455V5.06476C18.7222 4.88929 17.8674 4.79862 16.9937 4.79862C16.1201 4.79862 15.2652 4.88932 14.4448 5.06476V2.53134C12.2842 2.90713 10.2895 3.7526 8.56421 4.96137L10.3616 6.75885C8.91788 7.69185 7.68731 8.92255 6.75432 10.363L4.95374 8.56258C3.74195 10.2878 2.89003 12.2888 2.51119 14.4495H5.0569C4.88165 15.273 4.78777 16.1278 4.78777 17.0046C4.78777 17.8753 4.87847 18.7269 5.05391 19.5473H2.51119C2.89 21.711 3.74195 23.709 4.95374 25.4344L6.74786 23.64C7.68118 25.0804 8.91171 26.3111 10.3522 27.2443L8.56109 29.0354C10.2864 30.244 12.2842 31.0926 14.4448 31.4683V28.9445C15.2652 29.1199 16.1201 29.2107 16.9937 29.2107C17.8674 29.2107 18.7222 29.1199 19.5425 28.9445V31.4621C20.2159 31.3493 20.8797 31.1835 21.528 30.9736C22.9151 30.5227 24.224 29.8619 25.414 29.0228L23.6354 27.2443C25.0758 26.3111 26.3064 25.0804 27.2395 23.64L29.0181 25.4186C30.2205 23.7057 31.1037 21.6548 31.4887 19.5473H28.9336V19.5473Z" fill="#20B18D"/>
<path d="M56.6059 11.62L52.3939 23.5H48.7579L44.5279 11.62H47.7859L49.9639 18.802L50.6119 21.142L51.2419 18.838L53.4559 11.62H56.6059ZM59.335 13.456C58.711 13.456 58.255 13.342 57.967 13.114C57.691 12.874 57.553 12.502 57.553 11.998C57.553 11.482 57.691 11.11 57.967 10.882C58.255 10.642 58.711 10.522 59.335 10.522C59.947 10.522 60.397 10.642 60.685 10.882C60.973 11.11 61.117 11.482 61.117 11.998C61.117 12.502 60.973 12.874 60.685 13.114C60.397 13.342 59.947 13.456 59.335 13.456ZM60.865 14.5V23.5H57.805V14.5H60.865ZM71.7553 12.088L72.0073 14.14C71.9353 14.116 71.8633 14.104 71.7913 14.104C71.7193 14.092 71.6473 14.086 71.5753 14.086C71.0473 14.086 70.6513 14.218 70.3873 14.482C70.1353 14.734 70.0093 15.052 70.0093 15.436L68.9293 15.04C68.9293 14.548 69.0193 14.074 69.1993 13.618C69.3793 13.162 69.6553 12.79 70.0273 12.502C70.4113 12.214 70.8913 12.07 71.4673 12.07C71.5033 12.07 71.5453 12.07 71.5933 12.07C71.6533 12.07 71.7073 12.076 71.7553 12.088ZM68.6593 21.502C69.7033 21.502 70.5013 21.724 71.0533 22.168C71.6173 22.6 71.8993 23.224 71.8993 24.04C71.8993 24.784 71.6953 25.402 71.2873 25.894C70.8793 26.386 70.3033 26.752 69.5593 26.992C68.8273 27.244 67.9573 27.37 66.9493 27.37C65.3173 27.37 64.1413 27.166 63.4213 26.758C62.7013 26.35 62.3413 25.798 62.3413 25.102C62.3413 24.598 62.5453 24.19 62.9533 23.878C63.3613 23.566 64.0393 23.398 64.9873 23.374L64.9153 23.662C64.1833 23.566 63.6373 23.35 63.2773 23.014C62.9173 22.678 62.7373 22.222 62.7373 21.646C62.7373 21.07 62.9653 20.602 63.4213 20.242C63.8773 19.882 64.4833 19.684 65.2393 19.648L66.3553 20.17H66.0673C65.5993 20.194 65.2693 20.272 65.0773 20.404C64.8853 20.536 64.7893 20.698 64.7893 20.89C64.7893 21.094 64.8733 21.25 65.0413 21.358C65.2093 21.454 65.4613 21.502 65.7973 21.502H68.6593ZM66.9673 25.39C67.5433 25.39 68.0173 25.348 68.3893 25.264C68.7733 25.192 69.0613 25.084 69.2533 24.94C69.4453 24.808 69.5413 24.652 69.5413 24.472C69.5413 24.292 69.4753 24.148 69.3433 24.04C69.2113 23.944 68.9713 23.896 68.6233 23.896H65.4013C65.1733 23.896 64.9873 23.956 64.8433 24.076C64.7113 24.196 64.6453 24.346 64.6453 24.526C64.6453 24.802 64.8493 25.012 65.2573 25.156C65.6653 25.312 66.2353 25.39 66.9673 25.39ZM67.0753 14.32C67.9873 14.32 68.7673 14.44 69.4153 14.68C70.0633 14.92 70.5553 15.268 70.8913 15.724C71.2393 16.168 71.4133 16.72 71.4133 17.38C71.4133 18.028 71.2393 18.58 70.8913 19.036C70.5553 19.492 70.0633 19.84 69.4153 20.08C68.7673 20.308 67.9873 20.422 67.0753 20.422C65.6473 20.422 64.5613 20.158 63.8173 19.63C63.0853 19.102 62.7193 18.352 62.7193 17.38C62.7193 16.72 62.8873 16.168 63.2233 15.724C63.5713 15.268 64.0693 14.92 64.7173 14.68C65.3653 14.44 66.1513 14.32 67.0753 14.32ZM67.0753 16.066C66.6793 16.066 66.3553 16.18 66.1033 16.408C65.8633 16.636 65.7433 16.96 65.7433 17.38C65.7433 17.788 65.8633 18.106 66.1033 18.334C66.3553 18.562 66.6793 18.676 67.0753 18.676C67.4593 18.676 67.7773 18.562 68.0293 18.334C68.2813 18.106 68.4073 17.788 68.4073 17.38C68.4073 16.96 68.2813 16.636 68.0293 16.408C67.7773 16.18 67.4593 16.066 67.0753 16.066ZM74.6456 13.456C74.0216 13.456 73.5656 13.342 73.2776 13.114C73.0016 12.874 72.8636 12.502 72.8636 11.998C72.8636 11.482 73.0016 11.11 73.2776 10.882C73.5656 10.642 74.0216 10.522 74.6456 10.522C75.2576 10.522 75.7076 10.642 75.9956 10.882C76.2836 11.11 76.4276 11.482 76.4276 11.998C76.4276 12.502 76.2836 12.874 75.9956 13.114C75.7076 13.342 75.2576 13.456 74.6456 13.456ZM76.1756 14.5V23.5H73.1156V14.5H76.1756ZM82.1339 23.68C81.2339 23.68 80.3939 23.536 79.6139 23.248C78.8459 22.948 78.2099 22.522 77.7059 21.97L79.1459 20.278C79.4459 20.662 79.8419 20.986 80.3339 21.25C80.8379 21.502 81.3959 21.628 82.0079 21.628C82.3799 21.628 82.6859 21.574 82.9259 21.466C83.1659 21.358 83.2859 21.19 83.2859 20.962C83.2859 20.794 83.2259 20.662 83.1059 20.566C82.9859 20.458 82.7459 20.368 82.3859 20.296L81.1259 20.044C79.9979 19.816 79.1939 19.48 78.7139 19.036C78.2459 18.58 78.0119 17.986 78.0119 17.254C78.0119 16.762 78.1619 16.294 78.4619 15.85C78.7619 15.394 79.2239 15.028 79.8479 14.752C80.4719 14.464 81.2699 14.32 82.2419 14.32C83.1539 14.32 83.9579 14.452 84.6539 14.716C85.3499 14.98 85.9019 15.364 86.3099 15.868L84.8519 17.524C84.5639 17.164 84.1919 16.882 83.7359 16.678C83.2799 16.474 82.8239 16.372 82.3679 16.372C82.0799 16.372 81.8339 16.402 81.6299 16.462C81.4379 16.51 81.2939 16.582 81.1979 16.678C81.1019 16.774 81.0539 16.894 81.0539 17.038C81.0539 17.194 81.1259 17.332 81.2699 17.452C81.4259 17.56 81.7079 17.656 82.1159 17.74L83.7539 18.064C84.6779 18.232 85.3439 18.538 85.7519 18.982C86.1599 19.426 86.3639 19.96 86.3639 20.584C86.3639 21.172 86.2079 21.7 85.8959 22.168C85.5839 22.636 85.1159 23.008 84.4919 23.284C83.8679 23.548 83.0819 23.68 82.1339 23.68ZM99.513 14.5H102.717L99.999 23.5H96.327L94.689 17.974L93.105 23.5H89.451L86.715 14.5H89.937L91.449 21.142L93.213 14.5H96.237L97.983 21.142L99.513 14.5ZM105.46 13.456C104.836 13.456 104.38 13.342 104.092 13.114C103.816 12.874 103.678 12.502 103.678 11.998C103.678 11.482 103.816 11.11 104.092 10.882C104.38 10.642 104.836 10.522 105.46 10.522C106.072 10.522 106.522 10.642 106.81 10.882C107.098 11.11 107.242 11.482 107.242 11.998C107.242 12.502 107.098 12.874 106.81 13.114C106.522 13.342 106.072 13.456 105.46 13.456ZM106.99 14.5V23.5H103.93V14.5H106.99ZM112.948 23.68C112.048 23.68 111.208 23.536 110.428 23.248C109.66 22.948 109.024 22.522 108.52 21.97L109.96 20.278C110.26 20.662 110.656 20.986 111.148 21.25C111.652 21.502 112.21 21.628 112.822 21.628C113.194 21.628 113.5 21.574 113.74 21.466C113.98 21.358 114.1 21.19 114.1 20.962C114.1 20.794 114.04 20.662 113.92 20.566C113.8 20.458 113.56 20.368 113.2 20.296L111.94 20.044C110.812 19.816 110.008 19.48 109.528 19.036C109.06 18.58 108.826 17.986 108.826 17.254C108.826 16.762 108.976 16.294 109.276 15.85C109.576 15.394 110.038 15.028 110.662 14.752C111.286 14.464 112.084 14.32 113.056 14.32C113.968 14.32 114.772 14.452 115.468 14.716C116.164 14.98 116.716 15.364 117.124 15.868L115.666 17.524C115.378 17.164 115.006 16.882 114.55 16.678C114.094 16.474 113.638 16.372 113.182 16.372C112.894 16.372 112.648 16.402 112.444 16.462C112.252 16.51 112.108 16.582 112.012 16.678C111.916 16.774 111.868 16.894 111.868 17.038C111.868 17.194 111.94 17.332 112.084 17.452C112.24 17.56 112.522 17.656 112.93 17.74L114.568 18.064C115.492 18.232 116.158 18.538 116.566 18.982C116.974 19.426 117.178 19.96 117.178 20.584C117.178 21.172 117.022 21.7 116.71 22.168C116.398 22.636 115.93 23.008 115.306 23.284C114.682 23.548 113.896 23.68 112.948 23.68ZM122.546 23.68C121.646 23.68 120.806 23.536 120.026 23.248C119.258 22.948 118.622 22.522 118.118 21.97L119.558 20.278C119.858 20.662 120.254 20.986 120.746 21.25C121.25 21.502 121.808 21.628 122.42 21.628C122.792 21.628 123.098 21.574 123.338 21.466C123.578 21.358 123.698 21.19 123.698 20.962C123.698 20.794 123.638 20.662 123.518 20.566C123.398 20.458 123.158 20.368 122.798 20.296L121.538 20.044C120.41 19.816 119.606 19.48 119.126 19.036C118.658 18.58 118.424 17.986 118.424 17.254C118.424 16.762 118.574 16.294 118.874 15.85C119.174 15.394 119.636 15.028 120.26 14.752C120.884 14.464 121.682 14.32 122.654 14.32C123.566 14.32 124.37 14.452 125.066 14.716C125.762 14.98 126.314 15.364 126.722 15.868L125.264 17.524C124.976 17.164 124.604 16.882 124.148 16.678C123.692 16.474 123.236 16.372 122.78 16.372C122.492 16.372 122.246 16.402 122.042 16.462C121.85 16.51 121.706 16.582 121.61 16.678C121.514 16.774 121.466 16.894 121.466 17.038C121.466 17.194 121.538 17.332 121.682 17.452C121.838 17.56 122.12 17.656 122.528 17.74L124.166 18.064C125.09 18.232 125.756 18.538 126.164 18.982C126.572 19.426 126.776 19.96 126.776 20.584C126.776 21.172 126.62 21.7 126.308 22.168C125.996 22.636 125.528 23.008 124.904 23.284C124.28 23.548 123.494 23.68 122.546 23.68ZM129.876 20.404C130.44 20.404 130.878 20.548 131.19 20.836C131.514 21.124 131.676 21.526 131.676 22.042C131.676 22.546 131.514 22.942 131.19 23.23C130.878 23.518 130.44 23.662 129.876 23.662C129.324 23.662 128.886 23.518 128.562 23.23C128.238 22.942 128.076 22.546 128.076 22.042C128.076 21.526 128.238 21.124 128.562 20.836C128.886 20.548 129.324 20.404 129.876 20.404ZM137.569 14.32C138.481 14.32 139.237 14.452 139.837 14.716C140.449 14.968 140.923 15.31 141.259 15.742C141.607 16.162 141.823 16.618 141.907 17.11L139.081 18.046C138.997 17.53 138.841 17.146 138.613 16.894C138.397 16.63 138.079 16.498 137.659 16.498C137.275 16.498 136.951 16.588 136.687 16.768C136.435 16.936 136.243 17.212 136.111 17.596C135.979 17.968 135.913 18.448 135.913 19.036C135.913 19.624 135.985 20.104 136.129 20.476C136.273 20.836 136.477 21.1 136.741 21.268C137.005 21.424 137.317 21.502 137.677 21.502C137.977 21.502 138.223 21.448 138.415 21.34C138.619 21.22 138.787 21.052 138.919 20.836C139.051 20.62 139.135 20.356 139.171 20.044L141.925 20.926C141.841 21.454 141.613 21.928 141.241 22.348C140.881 22.756 140.401 23.08 139.801 23.32C139.201 23.56 138.499 23.68 137.695 23.68C136.711 23.68 135.853 23.5 135.121 23.14C134.389 22.768 133.825 22.234 133.429 21.538C133.033 20.83 132.835 19.984 132.835 19C132.835 18.016 133.033 17.176 133.429 16.48C133.825 15.772 134.377 15.238 135.085 14.878C135.805 14.506 136.633 14.32 137.569 14.32ZM143.516 23.5V10.684H146.576V16.138C146.84 15.538 147.218 15.088 147.71 14.788C148.202 14.476 148.772 14.32 149.42 14.32C150.044 14.32 150.584 14.44 151.04 14.68C151.508 14.92 151.874 15.274 152.138 15.742C152.402 16.21 152.534 16.798 152.534 17.506V23.5H149.474V18.352C149.474 17.704 149.354 17.26 149.114 17.02C148.886 16.768 148.58 16.642 148.196 16.642C147.908 16.642 147.638 16.714 147.386 16.858C147.134 17.002 146.936 17.23 146.792 17.542C146.648 17.854 146.576 18.262 146.576 18.766V23.5H143.516Z" fill="white"/>
</svg>
