<svg width="56" height="56" viewBox="0 0 56 56" fill="none" xmlns="http://www.w3.org/2000/svg">
<rect width="56" height="56" rx="28" fill="white"/>
<circle cx="28.0001" cy="28.0003" r="24.9455" fill="url(#paint0_linear_12629_108353)" fill-opacity="0.06"/>
<path fill-rule="evenodd" clip-rule="evenodd" d="M28.0001 10C18.0749 10 10 18.0747 10 27.9999C10 37.9253 18.0749 46 28.0001 46C37.9254 46 46.0001 37.9252 46.0001 27.9999C46.0001 18.0747 37.9254 10 28.0001 10ZM28.0001 44.4742C18.9161 44.4742 11.5258 37.0839 11.5258 27.9999C11.5258 18.9161 18.9161 11.5256 28.0001 11.5256C37.0842 11.5256 44.4743 18.9161 44.4743 27.9999C44.4743 37.0839 37.0842 44.4742 28.0001 44.4742ZM40.6357 30.6971C40.8213 29.8285 40.9174 28.9267 40.9174 28.0049C40.9174 27.0765 40.818 26.1714 40.6323 25.2995H43.0195C41.8791 22.5144 39.0308 20.389 35.8945 21.2976C34.1901 21.7881 32.1576 23.0615 29.7639 25.5647C30.6261 24.6264 31.6835 23.4427 31.5874 22.0733C31.4881 20.6808 30.0822 19.3182 28.6633 19.3943C27.7613 19.4407 27.0583 20.0509 26.5612 20.7602C25.8416 20.2729 24.9662 19.9548 24.1042 20.2332C22.7549 20.6677 21.9261 22.4414 22.3305 23.7809C22.7284 25.0939 24.1376 25.8233 25.278 26.3902C25.394 26.4466 25.5698 26.5294 25.7125 26.5992C25.8516 26.6654 25.908 26.8379 25.8351 26.9737C25.7686 27.093 25.6229 27.1461 25.4968 27.093C25.4372 27.07 25.3741 27.0468 25.3244 27.0268C24.1407 26.5627 22.6522 26.0025 21.4122 26.5892C20.149 27.186 19.3863 28.9895 19.9698 30.2826C20.3444 31.1084 21.1633 31.5459 22.0088 31.7516C21.8134 32.5969 21.8332 33.5253 22.4036 34.2317C23.2986 35.3324 25.2548 35.4615 26.3521 34.5995C27.4332 33.7541 27.6022 32.1725 27.7183 30.9059C27.725 30.853 27.7282 30.7866 27.7349 30.7237C27.7449 30.5843 27.8576 30.4782 27.9934 30.4749C28.1494 30.4682 28.2787 30.5944 28.2721 30.7501C28.2721 30.9095 28.2685 31.1051 28.2653 31.2342C28.2621 32.5075 28.282 34.0957 29.2765 35.0404C30.2911 36.0021 32.2473 36.0584 33.2419 35.0439C33.8786 34.3974 33.9847 33.4756 33.8719 32.6135C34.7306 32.4875 35.5893 32.133 36.0405 31.3471C36.7432 30.1137 36.1564 28.2436 34.9563 27.5308C33.7726 26.8312 32.2408 27.2456 31.0173 27.5972C30.9078 27.627 30.8016 27.66 30.6955 27.6932C30.7985 27.66 30.9078 27.5773 31.004 27.5275C32.0716 26.9706 33.1989 26.4996 34.3658 26.2013C35.0423 26.0287 35.7486 25.9062 36.448 25.9591C37.4396 26.0322 38.2153 26.5527 38.4176 27.5605C38.5436 28.1841 38.4939 28.857 38.4009 29.4803C38.1558 31.1281 37.3799 32.6898 36.4183 34.0326C34.4854 36.7348 31.3056 38.3727 27.9803 38.3727C22.2541 38.3727 17.6091 33.7275 17.6091 28.0014C17.6091 22.2722 22.2541 17.6304 27.9803 17.6304C29.0544 17.6304 30.1253 17.7929 31.1467 18.1212C31.6439 18.2803 32.128 18.476 32.5922 18.7081C33.7526 19.285 34.7372 19.4474 35.9608 18.887C36.216 18.7711 39.0707 17.0967 38.9548 16.9806C36.7499 14.7858 33.8918 13.2474 30.6922 12.6836V15.3627C29.8237 15.1769 28.9185 15.0809 27.9934 15.0809C27.0684 15.0809 26.1632 15.1769 25.2946 15.3627V12.6802C23.0069 13.0781 20.8947 13.9733 19.068 15.2532L20.9712 17.1564C19.4425 18.1443 18.1395 19.4474 17.1517 20.9725L15.2452 19.0663C13.9621 20.893 13.06 23.0116 12.6589 25.2995H15.3544C15.1688 26.1714 15.0694 27.0765 15.0694 28.0049C15.0694 28.9267 15.1655 29.8285 15.3512 30.6971H12.6589C13.06 32.9881 13.9621 35.1037 15.2452 36.9305L17.1448 35.0305C18.133 36.5557 19.436 37.8588 20.9611 38.8469L19.0647 40.7433C20.8915 42.023 23.0069 42.9215 25.2946 43.3193V40.6471C26.1632 40.8328 27.0684 40.9289 27.9934 40.9289C28.9185 40.9289 29.8237 40.8328 30.6922 40.6471V43.3128C31.4052 43.1933 32.108 43.0178 32.7945 42.7956C34.2631 42.3181 35.6491 41.6184 36.909 40.73L35.0257 38.8469C36.5509 37.8588 37.8539 36.5557 38.8419 35.0305L40.7252 36.9138C41.9984 35.1001 42.9334 32.9286 43.3412 30.6971H40.6357Z" fill="url(#paint1_linear_12629_108353)"/>
<defs>
<linearGradient id="paint0_linear_12629_108353" x1="28.0001" y1="3.05481" x2="28.0001" y2="52.9457" gradientUnits="userSpaceOnUse">
<stop stop-color="#4F2ED3"/>
<stop offset="0.9999" stop-color="#4F2ED3" stop-opacity="0.0104167"/>
<stop offset="1" stop-color="#8A50E6" stop-opacity="0"/>
</linearGradient>
<linearGradient id="paint1_linear_12629_108353" x1="49.5704" y1="13.15" x2="5.6447" y2="26.5792" gradientUnits="userSpaceOnUse">
<stop stop-color="#5645C0"/>
<stop offset="1" stop-color="#8675ED"/>
</linearGradient>
</defs>
</svg>
