<svg width="56" height="56" viewBox="0 0 56 56" fill="none" xmlns="http://www.w3.org/2000/svg">
<rect width="56" height="56" rx="28" fill="white"/>
<circle cx="28.0001" cy="28.0003" r="24.9455" fill="url(#paint0_linear_12629_108427)" fill-opacity="0.06"/>
<path d="M21.4375 22.2031C22.6904 22.2031 23.794 21.8611 24.7053 21.4247C23.7801 23.1655 23.2257 25.1806 23.1157 27.2587C19.4164 27.6559 16.5156 30.7594 16.5156 34.5625C16.5156 38.6335 19.8274 42 23.8984 42C25.1526 42 26.354 41.6467 27.4315 41.0556C25.7599 39.4169 24.7188 37.0828 24.7188 34.5625C24.7188 32.0422 25.7599 29.7628 27.4315 28.1241C26.6018 27.6689 25.6978 27.3593 24.7538 27.2391C25.1105 21.4409 29.4894 16.6583 35.1352 15.7857C33.6973 17.8044 32.9219 20.2132 32.9219 22.7423V27.2626C29.2405 27.6768 26.3594 30.7722 26.3594 34.5625C26.3594 38.6335 29.6712 42 33.7422 42C37.8132 42 41.125 38.6335 41.125 34.5625C41.125 30.7722 38.2439 27.6768 34.5625 27.2626V22.7423C34.5625 19.9688 35.6424 17.3614 37.6034 15.4003L39.0037 14H37.0234C33.1705 14 29.6786 15.5712 27.1521 18.1056C26.4888 17.4688 24.362 15.6406 21.4375 15.6406C17.9768 15.6406 15.6088 18.2193 15.4943 18.3291L14.875 18.9219L15.4943 19.5147C15.6088 19.6245 17.9768 22.2031 21.4375 22.2031ZM33.7422 32.1016C32.3853 32.1016 31.2812 33.2056 31.2812 34.5625H29.6406C29.6406 32.3011 31.4808 30.4609 33.7422 30.4609V32.1016ZM23.8984 32.1016C22.5415 32.1016 21.4375 33.2056 21.4375 34.5625H19.7969C19.7969 32.3011 21.637 30.4609 23.8984 30.4609V32.1016Z" fill="url(#paint1_linear_12629_108427)"/>
<defs>
<linearGradient id="paint0_linear_12629_108427" x1="28.0001" y1="3.05481" x2="28.0001" y2="52.9457" gradientUnits="userSpaceOnUse">
<stop stop-color="#4F2ED3"/>
<stop offset="0.9999" stop-color="#4F2ED3" stop-opacity="0.0104167"/>
<stop offset="1" stop-color="#8A50E6" stop-opacity="0"/>
</linearGradient>
<linearGradient id="paint1_linear_12629_108427" x1="43.7283" y1="16.45" x2="11.3643" y2="25.726" gradientUnits="userSpaceOnUse">
<stop stop-color="#5645C0"/>
<stop offset="1" stop-color="#8675ED"/>
</linearGradient>
</defs>
</svg>
