<svg width="56" height="56" viewBox="0 0 56 56" fill="none" xmlns="http://www.w3.org/2000/svg">
<rect width="56" height="56" rx="28" fill="white"/>
<circle cx="28.0001" cy="28.0003" r="24.9455" fill="url(#paint0_linear_12629_108442)" fill-opacity="0.06"/>
<path d="M37.3335 29.7332C33.5332 29.7332 30.4414 32.8249 30.4414 36.6252C30.4414 40.4256 33.5332 43.5173 37.3335 43.5173C41.1657 43.5173 44.2835 40.4256 44.2835 36.6252C44.2835 32.8249 41.1657 29.7332 37.3335 29.7332ZM39.4488 35.7914L37.1321 38.5714C36.966 38.7707 36.7209 38.884 36.4648 38.884C36.4315 38.884 36.3981 38.8821 36.3645 38.8782C36.0733 38.8444 35.8188 38.666 35.6877 38.4038L34.761 36.5504C34.5464 36.1213 34.7204 35.5994 35.1495 35.3849C35.5786 35.1702 36.1005 35.3442 36.3151 35.7734L36.6477 36.4386L38.114 34.6791C38.4212 34.3105 38.969 34.2608 39.3375 34.5678C39.7062 34.875 39.756 35.4228 39.4488 35.7914Z" fill="url(#paint1_linear_12629_108442)"/>
<path d="M36.9592 18.8131L33.4342 15.1678C33.4326 15.1661 33.4308 15.1643 33.4292 15.1626C32.6176 14.3372 31.4882 13.8639 30.3309 13.8639H19.1478C17.7107 13.8639 16.5415 15.0331 16.5415 16.4701V38.9998C16.5415 40.4368 17.7107 41.606 19.1478 41.606H30.2904C29.2917 40.1979 28.704 38.479 28.704 36.6252C28.704 31.8668 32.5752 27.9956 37.3336 27.9956C37.6268 27.9956 37.9165 28.0103 38.2024 28.0386V21.8552C38.2024 20.7103 37.7609 19.6301 36.9592 18.8131ZM25.7503 33.266H21.1169C20.6371 33.266 20.2482 32.877 20.2482 32.3972C20.2482 31.9175 20.6371 31.5285 21.1169 31.5285H25.7503C26.23 31.5285 26.619 31.9175 26.619 32.3972C26.619 32.877 26.23 33.266 25.7503 33.266ZM25.7503 28.6327H21.1169C20.6371 28.6327 20.2482 28.2437 20.2482 27.7639C20.2482 27.2841 20.6371 26.8952 21.1169 26.8952H25.7503C26.23 26.8952 26.619 27.2841 26.619 27.7639C26.619 28.2437 26.23 28.6327 25.7503 28.6327ZM25.7503 23.9993H21.1169C20.6371 23.9993 20.2482 23.6104 20.2482 23.1306C20.2482 22.6508 20.6371 22.2618 21.1169 22.2618H25.7503C26.23 22.2618 26.619 22.6508 26.619 23.1306C26.619 23.6104 26.23 23.9993 25.7503 23.9993ZM31.3103 28.6327H30.3836C29.9038 28.6327 29.5149 28.2437 29.5149 27.7639C29.5149 27.2841 29.9038 26.8952 30.3836 26.8952H31.3103C31.7901 26.8952 32.179 27.2841 32.179 27.7639C32.179 28.2437 31.7901 28.6327 31.3103 28.6327ZM31.3103 23.9993H30.3836C29.9038 23.9993 29.5149 23.6104 29.5149 23.1306C29.5149 22.6508 29.9038 22.2618 30.3836 22.2618H31.3103C31.7901 22.2618 32.179 22.6508 32.179 23.1306C32.179 23.6104 31.7901 23.9993 31.3103 23.9993Z" fill="url(#paint2_linear_12629_108442)"/>
<defs>
<linearGradient id="paint0_linear_12629_108442" x1="28.0001" y1="3.05481" x2="28.0001" y2="52.9457" gradientUnits="userSpaceOnUse">
<stop stop-color="#4F2ED3"/>
<stop offset="0.9999" stop-color="#4F2ED3" stop-opacity="0.0104167"/>
<stop offset="1" stop-color="#8A50E6" stop-opacity="0"/>
</linearGradient>
<linearGradient id="paint1_linear_12629_108442" x1="45.6563" y1="30.9393" x2="28.7789" y2="36.1207" gradientUnits="userSpaceOnUse">
<stop stop-color="#5645C0"/>
<stop offset="1" stop-color="#8675ED"/>
</linearGradient>
<linearGradient id="paint2_linear_12629_108442" x1="40.3505" y1="16.2913" x2="13.0086" y2="22.818" gradientUnits="userSpaceOnUse">
<stop stop-color="#5645C0"/>
<stop offset="1" stop-color="#8675ED"/>
</linearGradient>
</defs>
</svg>
