<svg width="56" height="56" viewBox="0 0 56 56" fill="none" xmlns="http://www.w3.org/2000/svg">
<rect width="56" height="56" rx="28" fill="white"/>
<circle cx="28.0001" cy="28.0003" r="24.9455" fill="url(#paint0_linear_12629_108457)" fill-opacity="0.06"/>
<path d="M27.9995 21.9034C24.6374 21.9034 21.9023 24.6385 21.9023 28.0003C21.9023 31.3624 24.6374 34.0975 27.9995 34.0975C31.3613 34.0975 34.0964 31.3624 34.0964 28.0003C34.0964 24.6385 31.3613 21.9034 27.9995 21.9034ZM31.6194 26.8522L27.2515 31.2201C27.0681 31.4034 26.8276 31.4952 26.5874 31.4952C26.3472 31.4952 26.1069 31.4037 25.9236 31.2201L24.2544 29.5509C23.8877 29.1844 23.8877 28.5899 24.2544 28.2232C24.6208 27.8566 25.2153 27.8566 25.582 28.2232L26.5874 29.2286L30.2917 25.5245C30.6582 25.1578 31.2527 25.1578 31.6194 25.5245C31.9861 25.891 31.9861 26.4855 31.6194 26.8522Z" fill="url(#paint1_linear_12629_108457)"/>
<path d="M41.5929 20.6823L41.592 20.6574C41.578 20.35 41.5688 20.0248 41.5631 19.663C41.537 17.8986 40.1344 16.4391 38.3698 16.3405C34.6906 16.1352 31.8444 14.9355 29.4125 12.5651L29.3918 12.5453C28.5986 11.8181 27.4021 11.8181 26.6086 12.5453L26.5878 12.5651C24.156 14.9355 21.3098 16.1352 17.6306 16.3407C15.8662 16.4391 14.4634 17.8986 14.4372 19.6632C14.4319 20.0226 14.4224 20.3478 14.4084 20.6574L14.407 20.7152C14.3354 24.4669 14.2466 29.1361 15.8086 33.3741C16.6675 35.7047 17.9682 37.7306 19.6745 39.3959C21.6179 41.2923 24.1633 42.7979 27.2399 43.8707C27.34 43.9056 27.444 43.9339 27.55 43.9552C27.6994 43.985 27.8498 43.9998 28.0002 43.9998C28.1506 43.9998 28.3012 43.985 28.4504 43.9552C28.5563 43.9339 28.6611 43.9054 28.7617 43.8702C31.8347 42.7955 34.3774 41.2892 36.319 39.3929C38.0246 37.7272 39.3254 35.7008 40.185 33.3698C41.7528 29.119 41.6642 24.4411 41.5929 20.6823ZM27.9997 35.9752C23.6023 35.9752 20.0249 32.3978 20.0249 28.0004C20.0249 23.6029 23.6023 20.0256 27.9997 20.0256C32.3969 20.0256 35.9745 23.6029 35.9745 28.0004C35.9745 32.3978 32.3969 35.9752 27.9997 35.9752Z" fill="url(#paint2_linear_12629_108457)"/>
<defs>
<linearGradient id="paint0_linear_12629_108457" x1="28.0001" y1="3.05481" x2="28.0001" y2="52.9457" gradientUnits="userSpaceOnUse">
<stop stop-color="#4F2ED3"/>
<stop offset="0.9999" stop-color="#4F2ED3" stop-opacity="0.0104167"/>
<stop offset="1" stop-color="#8A50E6" stop-opacity="0"/>
</linearGradient>
<linearGradient id="paint1_linear_12629_108457" x1="35.3057" y1="22.9704" x2="20.4271" y2="27.5192" gradientUnits="userSpaceOnUse">
<stop stop-color="#5645C0"/>
<stop offset="1" stop-color="#8675ED"/>
</linearGradient>
<linearGradient id="paint2_linear_12629_108457" x1="44.3271" y1="14.7999" x2="10.2784" y2="23.6641" gradientUnits="userSpaceOnUse">
<stop stop-color="#5645C0"/>
<stop offset="1" stop-color="#8675ED"/>
</linearGradient>
</defs>
</svg>
